<svg width="76" height="75" fill="none" xmlns="http://www.w3.org/2000/svg"><path d="M38.357 75c20.31 0 36.775-16.486 36.775-36.823S58.667 1.354 38.357 1.354 1.58 17.84 1.58 38.177 18.046 75 38.357 75Z" fill="#215EAB" opacity=".73"/><path d="M36.776 73.646c20.31 0 36.775-16.486 36.775-36.823S57.086 0 36.776 0 0 16.486 0 36.823s16.465 36.823 36.776 36.823Z" fill="#fff"/><path d="M37.482 22.196c0 .076-1.071.036-2.96.447-.157.03-.314.081-.487.117-.168.045-.34.081-.513.142-.172.056-.355.117-.543.173-.183.066-.37.132-.569.198-.106.015-.203.05-.3.096-.096.046-.187.102-.284.152-.192.102-.385.219-.614.264-.106.04-.218.081-.32.132a4.796 4.796 0 0 0-.314.168 6.346 6.346 0 0 0-.315.177l-.31.198c-.101.072-.213.127-.325.193-.106.066-.218.132-.33.198-.223.132-.436.29-.64.473-.045.05-.09.101-.147.142-.05.045-.101.091-.157.127a4.112 4.112 0 0 1-.35.223 2.702 2.702 0 0 0-.346.249 1.348 1.348 0 0 0-.284.325c-.396.421-.827.832-1.228 1.294a2.592 2.592 0 0 0-.173.158c-.056.05-.112.111-.157.172a5.174 5.174 0 0 0-.285.376c-.096.127-.172.269-.258.4-.082.138-.173.27-.254.412a3.368 3.368 0 0 0-.58.802c-.162.29-.278.615-.395.934-.117.132-.208.28-.3.432-.045.076-.086.152-.127.228a4.205 4.205 0 0 0-.259.751c-.035.178-.06.356-.08.539-.062.167-.107.34-.163.513-.05.172-.112.345-.152.522a9.249 9.249 0 0 0-.122.539c-.03.182-.051.365-.066.553a21.828 21.828 0 0 0-.188 2.264c.02.193.05.386.066.579.02.193.025.386.046.584.015.193.025.39.025.589.01.198.02.396.02.599.239.771.366 1.558.549 2.365.05.199.111.397.187.595.076.192.168.38.254.568l.066.142.071.142c.046.092.092.188.137.285.082.193.173.38.25.584.38.756.867 1.467 1.37 2.172.477.726 1.04 1.427 1.772 1.95.675.584 1.406 1.096 2.137 1.64.838.37 1.61.837 2.442 1.248.863.32 1.741.68 2.68.787.924.198 1.874.214 2.828.275.954.04 1.92-.016 2.828-.27.452-.132.909-.228 1.36-.35.229-.05.447-.122.67-.193.224-.066.437-.152.65-.243.112-.03.229-.056.335-.097a6.739 6.739 0 0 0 .635-.279l.3-.168.299-.172.29-.183c.096-.061.192-.117.294-.178.096-.056.193-.122.294-.177.757-.498 1.528-.985 2.138-1.64.64-.62 1.208-1.285 1.771-1.95.183-.406.437-.746.69-1.096a7.51 7.51 0 0 0 .371-.523c.061-.086.117-.178.173-.27a8.35 8.35 0 0 0 .142-.284c.462-.72.7-1.533.965-2.31.101-.4.238-.786.34-1.177.025-.097.05-.198.081-.295.02-.096.04-.198.056-.3.02-.096.036-.197.046-.299l.02-.147c0-.05 0-.101.005-.152.03-.198.05-.396.071-.594l.03-.59c.016-.192.01-.39.02-.583.011-.193.026-.386.036-.579a4.434 4.434 0 0 1-.045-.573c-.015-.188-.015-.381-.02-.569 0-.188-.016-.376-.031-.564-.02-.187-.04-.37-.091-.553-.036-.183-.066-.365-.097-.548l-.122-.533c-.035-.178-.091-.35-.137-.528-.05-.173-.086-.35-.147-.518a3.603 3.603 0 0 0-.107-.528 5.872 5.872 0 0 0-.193-.492 6.808 6.808 0 0 0-.106-.239l-.122-.229a19.325 19.325 0 0 1-.233-.456 7.832 7.832 0 0 0-.498-.879c-.168-.284-.35-.558-.482-.858-.356-.543-.68-1.096-1.133-1.517-.106-.112-.192-.24-.284-.356l-.274-.365a2.064 2.064 0 0 0-.3-.33 1.51 1.51 0 0 0-.37-.244 4.307 4.307 0 0 1-.32-.29c-.101-.101-.193-.208-.294-.304a4.06 4.06 0 0 0-.315-.274c-.056-.04-.112-.081-.168-.117a2.3 2.3 0 0 0-.187-.086c-.254-.107-.462-.264-.676-.417a12.62 12.62 0 0 1-.304-.238 2.414 2.414 0 0 0-.315-.208 10.43 10.43 0 0 0-.32-.188 9.05 9.05 0 0 0-.32-.173l-.314-.167c-.102-.056-.209-.102-.31-.148a15.772 15.772 0 0 0-2.574-.959c-.193-.05-.38-.096-.564-.142-.177-.046-.355-.076-.522-.112-.335-.076-.64-.112-.914-.162a19.795 19.795 0 0 0-1.264-.143c-.29-.025-.437-.05-.437-.07 0-.02.183-.041.543-.051.092 0 .188-.01.3-.005.111 0 .233.01.365.01.132.005.274.01.427.02l.487.046c.685.076 1.533.213 2.493.492.96.28 2.04.706 3.163 1.335.111.066.228.117.345.183.117.061.233.127.35.193.239.127.462.29.66.487.056.041.117.082.173.117.056.04.117.081.172.127.117.081.234.168.35.249.123.081.23.177.34.274.112.096.219.198.32.31.534.31.9.827 1.305 1.32.427.477.782 1.03 1.209 1.558.218.264.396.553.553.868.167.305.31.63.497.93.061.167.117.34.183.507.03.081.066.168.102.249l.101.254c.066.167.142.335.219.502.07.173.147.34.223.513.046.183.081.365.132.548.046.183.112.36.157.548l.153.554c.045.188.08.376.116.569.006.197.01.395.026.588.015.198.045.391.066.59.02.197.05.395.076.593l.06.604c.021.203.021.407.016.61-.005.203-.005.41-.03.614-.02.208-.036.411-.056.62-.026.207-.051.41-.071.624-.148.827-.275 1.675-.554 2.497a8.156 8.156 0 0 1-1 2.442c-.37.813-.883 1.569-1.436 2.305-.513.767-1.183 1.422-1.864 2.066-.34.325-.72.61-1.106.884-.188.142-.391.269-.58.411-.187.147-.38.284-.563.447-.802.533-1.685.939-2.584 1.33-.919.35-1.868.609-2.838.837-1 .051-1.98.234-2.995.29-1.01.04-2.02-.081-2.995-.29a14.166 14.166 0 0 1-2.838-.837c-.93-.325-1.746-.863-2.584-1.33a5.863 5.863 0 0 1-.61-.386c-.192-.142-.385-.28-.563-.437-.37-.3-.716-.62-1.081-.919-.716-.609-1.366-1.29-1.863-2.066-.274-.37-.508-.761-.731-1.152-.117-.193-.224-.391-.34-.584-.056-.096-.117-.188-.178-.284a3.376 3.376 0 0 0-.183-.285c-.107-.198-.223-.386-.325-.584-.05-.096-.107-.198-.157-.294l-.076-.147-.071-.152a5.67 5.67 0 0 1-.24-.615 3.503 3.503 0 0 1-.126-.65 6.772 6.772 0 0 1-.315-1.253l-.06-.315a6.728 6.728 0 0 0-.051-.315c-.02-.107-.041-.208-.061-.31l-.036-.152-.03-.152c.01-.213 0-.422-.02-.63a8.501 8.501 0 0 0-.051-.62c-.03-.202-.036-.41-.056-.613a4.902 4.902 0 0 1-.02-.61c.015-.203.025-.406.04-.604.02-.198.046-.396.061-.594.015-.198.05-.39.066-.589.02-.193.035-.39.056-.584.02-.192.046-.385.081-.578.046-.188.091-.376.142-.559.046-.188.112-.365.168-.543.056-.178.106-.36.162-.538.04-.183.097-.36.163-.533.07-.173.152-.335.228-.503.04-.08.076-.162.117-.248l.122-.244c.076-.163.142-.33.203-.498.172-.314.325-.63.502-.929.168-.304.356-.594.549-.868.05-.172.132-.32.223-.462a2.33 2.33 0 0 1 .305-.396c.111-.122.228-.238.345-.355a2.81 2.81 0 0 1 .172-.173 5.43 5.43 0 0 0 .168-.172c.431-.467.767-1.016 1.305-1.32a2.12 2.12 0 0 1 .294-.34 2.27 2.27 0 0 1 .34-.28c.122-.08.244-.157.366-.233a5.47 5.47 0 0 0 .177-.112l.183-.107c.239-.142.452-.32.675-.467.112-.076.219-.152.33-.223.112-.071.234-.122.356-.168.096-.086.203-.157.315-.223.111-.06.228-.107.34-.152l.34-.137c.112-.046.223-.092.325-.148.228-.066.436-.162.645-.243.101-.046.203-.086.304-.132.102-.04.198-.081.305-.112.198-.081.39-.147.584-.208.193-.05.385-.096.568-.127.183-.05.36-.086.533-.122.173-.035.335-.076.498-.096.97-.173 1.73-.188 2.239-.203.512.015.776.03.776.06l-.02-.025Z" fill="#CA534B"/><path d="M49.403 27.928c0 .025-.244.056-.716.081a88.05 88.05 0 0 1-2.066.076c-.3.005-.625.015-.97.025-.345.016-.71.031-1.102.026-.385-.071-.797.132-1.228.02-.432-.03-.878 0-1.346.02-.472.026-.959-.045-1.467.02-.507.138-1.035-.152-1.579.021-.543.036-1.106.026-1.685.02-.579-.106-1.178 0-1.792.016-.614-.127-1.244-.071-1.889.015-.644-.173-1.304-.147-1.985.015-.675.005-1.365-.06-2.07.015-.707.01-1.427.046-2.159.016a6.567 6.567 0 0 1-.893.08h-.564l-.055-.004H25.8l-.035-.015s-.02.005-.036.015h-.005l-.02.02-.036.04-.076.077c-.345.665-.787 1.259-1.208 1.898-.214.32-.36.68-.498 1.041-.066.183-.137.366-.203.544-.066.182-.147.36-.233.538-.27.736-.442 1.517-.605 2.304-.192.782-.33 1.605-.228 2.432.02.828.117 1.65.173 2.488.258.807.395 1.635.604 2.472.294.802.553 1.64 1.035 2.376.198.391.442.757.69 1.117.123.183.26.355.381.538.061.091.133.178.193.27l.046.065s0 .005.005.01v.01l.01.026h.026l.005.01h.097l.34.015c.229.01.452.015.68.015.453 0 .904-.005 1.351-.045.899-.087 1.787.035 2.67 0 .884.127 1.757-.04 2.62 0 .863-.01 1.721.07 2.569.005.848-.026 1.685-.046 2.513.005.827-.193 1.645.05 2.452.01.807.081 1.6-.01 2.386.01.782-.035 1.553.092 2.315.01.756.016 1.503-.06 2.239.01.233-.03.462-.03.69-.025.117 0 .229.01.346.02h.086s.02.01.025.01l.05.01s.031-.025.041-.04l.01-.01.031-.036.061-.076c.076-.101.152-.203.213-.315.406-.558.752-1.137 1.082-1.71a2.05 2.05 0 0 0 .284-.412 3.51 3.51 0 0 0 .208-.441c.056-.153.112-.305.163-.457.055-.152.096-.305.152-.452.03-.071.06-.147.086-.218.02-.076.046-.153.066-.224.04-.152.092-.3.127-.446a7.21 7.21 0 0 1 .122-.442c.05-.142.091-.29.152-.426.081-.29.152-.58.218-.864.031-.142.051-.289.072-.431.01-.071.02-.142.025-.213.005-.071.005-.142.01-.214.01-.142.036-.279.066-.416.03-.137.056-.274.081-.411.056-.274.066-.548-.025-.817v-.396l.03-.391c.01-.26.01-.518-.08-.762-.173-.482-.097-.974-.184-1.431l-.06-.335c-.02-.112-.046-.219-.072-.33a7.33 7.33 0 0 1-.07-.32c-.026-.107-.056-.208-.082-.31a14.937 14.937 0 0 0-.858-2.396c-.304-.68-.61-1.234-.873-1.675l-.188-.315c-.06-.097-.117-.183-.172-.27-.051-.08-.102-.162-.148-.228a3.936 3.936 0 0 0-.127-.188c-.147-.223-.218-.345-.203-.36.02-.015.137.107.36.355.219.254.519.64.874 1.173a14.68 14.68 0 0 1 1.396 2.736c.091.234.173.478.259.726.04.127.081.254.117.386l.06.198c.02.066.036.137.051.203.036.137.072.274.107.416l.091.432c.097.467.27.95.234 1.472.025.26.056.518.086.787.01.132.016.27.02.406 0 .137 0 .274-.02.411.061.28.071.564.03.848-.014.142-.035.285-.055.432-.026.142-.05.29-.066.437-.01.07-.015.147-.025.223-.01.07-.026.147-.036.223l-.076.447c-.066.3-.112.604-.168.914-.02.157-.04.315-.086.467-.04.152-.091.304-.142.457-.051.152-.112.304-.168.457l-.076.233c-.025.076-.05.158-.076.234-.31.589-.564 1.203-.823 1.853-.396.568-.68 1.223-1.106 1.807-.092.096-.188.188-.28.29l-.065.076-.036.04-.05.061a8.053 8.053 0 0 0-.194.244h-.406l-.086.005c-.112 0-.229.01-.345.02-.229.015-.462.036-.69.05-.732.047-1.478-.02-2.24.011-.761-.025-1.528.03-2.315.01-.781.061-1.578.081-2.386.01-.807.041-1.624.01-2.452.01-.827.051-1.665-.005-2.513.006-.848.025-1.705-.137-2.569.005-.868.02-1.74-.02-2.62 0-.882-.016-1.77-.036-2.67 0a7.517 7.517 0 0 0-1.35-.071 15.67 15.67 0 0 0-.68.03l-.34.02h-.087l-.152.01-.325.01a32.567 32.567 0 0 0-.35-.436c-.071-.091-.147-.183-.218-.274-.137-.188-.274-.376-.401-.574-.254-.39-.488-.792-.701-1.203a13.648 13.648 0 0 1-1.097-2.518c-.33-.853-.441-1.751-.63-2.62a6.312 6.312 0 0 1-.065-.33 7.242 7.242 0 0 1-.036-.33l-.03-.33a7.45 7.45 0 0 1-.01-.33c0-.111-.005-.218-.01-.33v-.33c0-.218-.016-.436-.02-.654-.031-.869.035-1.742.253-2.57.04-.207.086-.416.142-.619.061-.203.117-.406.178-.604.066-.198.127-.396.183-.599.06-.198.111-.4.147-.604.06-.198.127-.396.183-.594.06-.198.132-.39.203-.584.152-.38.34-.746.62-1.056.08-.182.182-.355.289-.528.05-.086.106-.167.162-.253.056-.082.117-.163.173-.244.055-.081.111-.163.172-.244.056-.081.117-.157.173-.238.117-.158.218-.325.325-.488l.086-.081.04-.04.02-.02.031-.037a7.82 7.82 0 0 0 .239-.279c.132.005.254.01.38.01h.239c.153 0 .3-.01.452-.015.3-.015.6-.035.894-.035.73.025 1.452.076 2.157.015.706-.066 1.396.035 2.072.015.675-.081 1.34.107 1.985.015.644.02 1.274-.01 1.888.016.614-.193 1.208 0 1.792.015.579.03 1.143-.127 1.686.02.543-.147 1.07-.02 1.579.02.507.041.995-.06 1.467.02.467-.1.919.057 1.345.021.432.066.838 0 1.229.02a6.573 6.573 0 0 1 1.101.02c.346.01.67.016.97.026.898.026 1.6.046 2.066.076.472.026.716.051.716.081l.05.02Z" fill="#CA534B"/><path d="M52.763 37.497c0 .056-.832.107-2.35.153-.254.005-.528.015-.817.025-.29.015-.6.03-.93.02-.324-.07-.67.132-1.035.02-.36-.03-.741 0-1.137.02-.396.026-.808-.045-1.234.021-.426.137-.873-.152-1.33.02-.457.036-.934.026-1.422.02-.487-.106-.99 0-1.507.016-.518-.127-1.051-.071-1.594.015-.544-.172-1.102-.147-1.67.016-.57.005-1.153-.061-1.747.015-.594.01-1.203.045-1.818.015a5.484 5.484 0 0 1-1.888.01c-.64.127-1.29.076-1.95.01-.66-.07-1.33.112-2.01.01-.68-.01-1.37.03-2.066.01-.7-.05-1.406-.106-2.117.006-.356.015-.716.035-1.076.04h-.362s-.02-.01-.035-.015c-.01-.01-.01.01-.016.02l-.01.036.046.101.015.041v.01l.01.03.01.067c.026.177.036.355.046.533.015.177.026.355.03.538 0 .091.006.178.016.269l.015.269c.137.706.213 1.442.503 2.127.198.71.553 1.366.827 2.061.294.686.64 1.356 1.127 1.914a8.2 8.2 0 0 1 .33.406c.056.066.107.137.158.209l.01.015v.025l.02.005h.057l.294.01c.198.005.391.01.59 0 .745.127 1.482-.04 2.207 0 .732-.01 1.453.071 2.168.005.716-.025 1.422-.045 2.117.006.696-.194 1.386.05 2.066.01.68.08 1.35-.01 2.01.01.66-.036 1.31.091 1.95.01.64.015 1.27-.061 1.889.01.62-.096 1.223.081 1.817.015.594 0 1.178-.005 1.747.016.568.152 1.127.025 1.67.015.543.015 1.076-.086 1.594.015.244.005.487.025.721.036.117.005.239.01.355.01h.133c.026 0 .051-.01.071-.016.006-.01.01-.025.016-.035a.133.133 0 0 1 .025-.03l.03-.036c.041-.046.082-.086.122-.132l.132-.122c.041-.04.082-.086.122-.127.163-.172.305-.355.34-.599.056-.101.117-.193.188-.28l.203-.263a2.25 2.25 0 0 0 .183-.27c.05-.096.086-.197.107-.304.02-.106.055-.208.101-.3.04-.096.091-.182.142-.268.051-.087.107-.173.163-.254.05-.087.096-.173.137-.26.081-.177.162-.35.228-.522.036-.086.071-.173.102-.259.015-.04.035-.086.05-.127.016-.04.031-.086.046-.127.066-.188.137-.37.193-.553a22.1 22.1 0 0 1 .168-.528c.045-.173.091-.34.137-.503.045-.162.076-.32.111-.472.077-.304.117-.594.168-.853l.107-.716c.025-.218.045-.406.066-.573.02-.163.025-.305.04-.416.026-.224.046-.34.066-.34.02 0 .04.142.056.42 0 .072.005.148.01.234v.285c0 .101 0 .213-.005.335 0 .116-.015.243-.02.38a13.14 13.14 0 0 1-.28 1.97 14.97 14.97 0 0 1-.796 2.564 2.248 2.248 0 0 0-.102.29 9.503 9.503 0 0 1-.112.294 2.949 2.949 0 0 1-.127.29c-.05.09-.111.182-.182.268-.051.097-.097.193-.148.295-.05.096-.101.198-.152.3-.05.1-.107.202-.167.299a2.158 2.158 0 0 1-.209.279c-.066.239-.203.437-.35.624-.04.046-.076.097-.117.142l-.121.138-.122.137-.087.106-.091.117c-.025.035-.056.071-.081.107h-.498c-.117 0-.233 0-.355-.006-.239 0-.477 0-.721.031-.518.081-1.046-.04-1.594.015-.543-.086-1.102-.06-1.67.015-.569-.08-1.153.02-1.747.016-.594-.127-1.203-.036-1.817.015-.62.046-1.25-.02-1.889.01-.64-.025-1.29.03-1.95.01-.66.061-1.33.081-2.01.01-.68.041-1.37.01-2.066.01-.695.051-1.406-.005-2.117.006-.716.025-1.436-.138-2.168.005-.73.02-1.467-.02-2.208 0-.198 0-.39-.01-.589-.01h-.294c-.168-.006-.335-.006-.503-.006-.264-.34-.528-.685-.797-1.03-.325-.716-.792-1.34-1.193-2.026a10.12 10.12 0 0 1-.878-2.183 13.07 13.07 0 0 1-.528-2.254 4.781 4.781 0 0 1-.051-.284 2.573 2.573 0 0 1-.035-.284c-.02-.188-.031-.381-.046-.569a9.672 9.672 0 0 0-.026-.564v-.07l-.005-.036v-.056l-.01-.228c-.005-.153-.015-.305-.025-.462l-.015-.239v-.117l-.006-.03v-.01h1.046l.27.015c.36.015.72.03 1.076 0 .715-.04 1.421-.061 2.117.005.695 0 1.386.127 2.066.01.68-.025 1.35-.188 2.01.01.66-.05 1.31.092 1.95.01.64.142 1.269.005 1.888.01.62.026 1.224.077 1.818.016.594-.066 1.178.035 1.746.015.569-.081 1.127.107 1.67.015.544.02 1.077-.01 1.594.015.518-.193 1.02 0 1.508.016.488.03.965-.127 1.422.02.457-.147.903-.02 1.33.02.426.04.837-.06 1.233.02.397-.101.777.056 1.138.02.36.067.705 0 1.035.021.325-.025.635-.015.93.02.289.01.563.016.817.026 1.518.046 2.35.101 2.35.152l.01.005Z" fill="#CA534B"/><path d="M37.482 22.196c0 .03-.193.036-.523.158-.162.06-.36.157-.568.304-.208.147-.432.35-.65.604-.147.168-.295.36-.437.579-.137.218-.274.462-.421.71-.208.224-.168.59-.401.838-.163.285-.27.61-.37.955-.102.34-.29.67-.34 1.06.02.407-.371.717-.305 1.163-.066.412-.168.828-.27 1.26-.193.41-.172.883-.223 1.345-.198.441-.213.934-.183 1.431-.233.468-.253.98-.132 1.508-.035.513-.137 1.041-.08 1.584-.011.538.01 1.087-.026 1.65.117.559.117 1.127.04 1.711.147.574.127 1.163.112 1.762-.025.604.213 1.188.193 1.807.066.61.198 1.218.284 1.843.061.63.137 1.269.406 1.863.183.614.407 1.223.554 1.858.34.569.528 1.188.761 1.802.158.285.305.579.472.853.168.28.366.538.61.741.208.234.456.422.715.554.26.132.518.203.787.233.27.02.554-.04.813-.177.264-.138.497-.35.685-.605.183-.259.386-.502.574-.761.193-.259.37-.533.507-.833.203-.264.33-.568.442-.878.107-.31.193-.624.32-.924.203-.62.462-1.218.553-1.858.132-.63.239-1.254.406-1.863-.081-.65.254-1.224.285-1.843.157-.6.121-1.213.192-1.807.01-.6.168-1.178.112-1.762.036-.579-.035-1.147.04-1.71-.096-.56.067-1.113-.025-1.65-.02-.539-.06-1.067-.08-1.58.106-.528-.067-1.02-.133-1.507-.04-.493-.208-.955-.183-1.432-.06-.462-.076-.924-.228-1.345-.107-.427.03-.904-.264-1.26-.137-.39-.06-.832-.305-1.162-.233-.33-.218-.726-.34-1.061a15.625 15.625 0 0 0-.37-.954 9.423 9.423 0 0 0-.93-1.706c-.324-.462-.664-.802-.98-1.026a2.546 2.546 0 0 0-.44-.253 2.658 2.658 0 0 0-.351-.122c-.198-.051-.305-.061-.305-.087 0-.02.132-.05.396-.025.132.015.295.05.477.122a2.6 2.6 0 0 1 .59.325c.416.294.847.756 1.248 1.36.401.604.777 1.34 1.117 2.193.132.34.355.67.386 1.077.117.375.305.751.35 1.178.239.375.229.832.31 1.274.096.441.137.903.264 1.365.157.462.101.965.218 1.452-.025.508.046 1.016.168 1.533-.04.529.091 1.056.111 1.605-.106.553 0 1.107.051 1.675.05.569-.025 1.147-.015 1.736-.046.59-.02 1.193-.091 1.797a6.917 6.917 0 0 1-.178 1.848c-.036.63-.163 1.254-.28 1.889-.065.645-.253 1.274-.4 1.924-.138.655-.478 1.249-.564 1.934-.208.65-.502 1.28-.802 1.92-.34.619-.731 1.223-1.224 1.802-.314.223-.609.462-.954.665-.34.203-.741.365-1.178.39a2.29 2.29 0 0 1-1.223-.31 3.667 3.667 0 0 1-.909-.745c-.528-.544-.904-1.168-1.224-1.803-.36-.614-.522-1.294-.802-1.919-.279-.63-.35-1.31-.563-1.94-.198-.634-.355-1.273-.401-1.923-.112-.635-.081-1.285-.28-1.889-.101-.62-.324-1.223-.177-1.848-.097-.604.015-1.213-.091-1.797.121-.594-.02-1.167-.016-1.741.03-.569.092-1.127.051-1.675-.046-.554.091-1.082.112-1.61-.04-.533.198-1.025.167-1.533.076-.497.117-.985.219-1.452-.117-.502.157-.929.264-1.365.116-.437.06-.9.31-1.28-.036-.447.197-.812.35-1.178.157-.365.182-.761.385-1.076.036-.38.315-.65.422-.965.203-.279.29-.588.457-.847a2.82 2.82 0 0 1 .482-.721c.162-.218.33-.411.502-.584a3.55 3.55 0 0 1 .752-.589 2.39 2.39 0 0 1 .65-.264c.375-.076.573-.025.568 0l-.005.005Zm.046-6.112c.056 0 .106.05.152.137.01.015.015.03.026.046.015.015.03.035.025.055-.071.02.132.041.02.061-.03.02 0 .046.02.066.026.02-.045.046.02.071.138.026-.151.051.021.076.036.026.026.056.02.082-.106.03 0 .056.016.086-.127.03-.071.061.015.091-.173.03-.147.067.015.097.005.035-.06.066.015.101.01.036.046.072.016.107.116.036.111.071.01.112.127.035.076.076.01.112-.071.04.112.076.01.116-.01.04.03.081.01.122-.05.04-.106.081.005.122.03.04.071.086 0 .127.132.04.076.086 0 .127.02.046-.07.086 0 .132-.02.046.061.086 0 .132-.04.046-.081.091 0 .132.087.046-.035.086 0 .132-.127.046.04.086 0 .127.01.04-.07.086 0 .127.02.04.046.081-.005.122.193.04-.05.08-.01.121-.081.041.01.082-.01.117.035.04-.092.076-.01.117-.015.035.06.076-.01.112.096.035-.082.07-.016.106 0 .036.005.071-.015.102-.147.03-.025.066-.015.096-.015.03.086.061-.015.092-.01.03-.076.06-.016.086.02.03-.218.056-.02.081.036.026-.152.051-.02.076.122.026-.015.051-.02.072-.006.02-.016.045-.02.066-.067.192-.143.3-.224.3-.092 0-.173-.138-.244-.367-.005-.025-.112-.045-.02-.07 0-.026-.082-.051-.02-.077-.138-.025-.026-.056-.02-.081-.006-.03.035-.056-.021-.086-.081-.03.04-.061-.015-.092.086-.03.066-.066-.016-.096.082-.036-.02-.066-.015-.102.127-.035.04-.07-.015-.106-.046-.036.02-.071-.01-.112.025-.036-.03-.076-.01-.117-.061-.04-.082-.076-.01-.117-.041-.04-.01-.08-.01-.121-.051-.041.004-.082-.006-.122-.025-.04.137-.087-.005-.127-.02-.04.02-.086 0-.127.02-.046.036-.086 0-.132.142-.046.056-.086 0-.132-.04-.046-.02-.091 0-.132-.015-.046-.005-.086 0-.132-.04-.046.061-.087 0-.127-.06-.04.066-.086.005-.127-.04-.04-.06-.081.005-.122 0-.04.127-.081.01-.122-.025-.04-.187-.081.01-.116-.05-.041.097-.077.01-.112.143-.036.006-.076.01-.112.026-.035.077-.071.016-.107-.066-.035.036-.07.015-.101-.08-.036.107-.066.016-.097.02-.03-.01-.06.015-.09-.193-.031 0-.062.02-.087.026-.03-.127-.056.02-.082-.147-.025-.02-.05.02-.076.041-.025-.06-.05.021-.07-.102-.026.056-.046.02-.067.066-.02 0-.04.02-.06-.02-.02-.014-.036.026-.056a.207.207 0 0 1 .026-.046c.045-.087.096-.137.152-.137Z" fill="#CA534B"/><path d="M37.533 16.079a.32.32 0 0 1 .051.152v.03c0 .016.005.03 0 .03-.046-.055.066.118 0 .031-.025-.02-.015.006-.005.03.01.026-.04-.024-.01.031.071.117-.102-.116-.01.03.015.036 0 .031-.01.031-.071-.081-.016.01-.016.03-.08-.096-.06-.045-.015.031-.106-.137-.101-.106-.02.03-.005.01-.056-.035-.02.031 0 .015.005.05-.02.03.055.102.045.107-.026.031.06.112.02.076-.026.03-.05-.05.041.107-.025.031-.015 0-.005.04-.03.03-.041-.035-.087-.07-.03.03.004.036.02.077-.031.031.066.117.02.076-.036.03 0 .026-.066-.04-.035.026-.026-.01.01.066-.036.026-.035-.026-.071-.046-.035.025.035.081-.046-.01-.041.025-.086-.091 0 .051-.04.02 0 .021-.067-.04-.041.021 0 .025 0 .056-.04.02.1.168-.052-.025-.041.015-.056-.06-.016.026-.041.016.01.035-.071-.056-.036.015-.02-.005.015.066-.035.01.046.087-.066-.05-.036.01-.01.005-.015.02-.035.01-.097-.116-.03-.01-.036.006-.02-.006.03.08-.035 0-.016 0-.061-.051-.036 0 0 .025-.142-.168-.035 0 .015.035-.102-.117-.03 0 .065.106-.026 0-.031 0h-.03a.325.325 0 0 1-.214-.122.326.326 0 0 1-.036-.27c0-.01-.05-.101.01-.03.006 0-.03-.076.01-.03-.07-.117 0-.03.01-.03 0-.011.036.02.016-.031-.04-.071.04.02.015-.03.056.065.056.04.02-.031.056.06.01-.026.02-.03.087.096.041.02.021-.031-.015-.046.03 0 .026-.03.025.015 0-.041.025-.031-.025-.056-.025-.081.025-.03-.015-.041.02-.02.03-.031-.02-.05.026-.01.031-.03 0-.03.102.096.03-.03 0-.026.036 0 .036-.031.02.005.046.015.036-.03.091.106.056.025.035-.026-.01-.04.016-.036.036-.026 0-.02.02-.02.04-.025-.01-.04.062.03.041-.02-.02-.056.061.035.04-.02-.01-.041-.014-.067.041-.02.01-.011.097.09.036-.016 0-.03-.086-.168.04-.015-.015-.046.077.06.036-.016.092.112.026-.01.036-.01.025.016.066.046.035-.01-.03-.06.04.015.036-.01-.036-.071.08.076.035-.005.02.01.01-.02.036 0-.102-.163.015-.01.035 0 .026.015-.056-.117.036 0-.076-.122 0-.026.03 0 .03.03-.02-.061.03 0-.05-.087.047.035.031 0 .046.05.015 0 .03.005-.01-.025 0-.02.031.01.01 0 .02.005.026.01.05.02.096.056.127.097h-.006Z" fill="#CA534B"/><path d="M37.533 16.094a.268.268 0 0 1 .127-.097c.01 0 .02-.005.025-.01.01-.01.026-.015.03-.01-.035.061.087-.101.031-.005-.01.03.01.01.03 0 .02-.015-.01.046.031 0 .086-.107-.076.137.03 0 .03-.025.03-.01.036 0-.05.091.015.01.035 0-.066.112-.025.071.036 0-.091.147-.066.132.036.005.015 0-.016.066.035.01.015 0 .046-.02.036.01.076-.086.086-.076.035.01.081-.096.066-.045.036.016-.03.066.086-.076.04.015.005.015.041-.01.036.015-.02.051-.04.107.04.02.031-.015.066-.04.041.02.086-.1.066-.045.036.021.025-.01-.015.076.04.026 0 .025.061-.03.036.025-.01.04-.02.081.035.025.061-.06 0 .046.036.03-.061.113.046-.014.035.031.02 0-.02.076.03.03.026-.01.052-.02.031.031.122-.147-.005.056.03.03-.035.077.031.006.026.031.03-.02-.03.086.026.03 0 .02.056-.035.025.031.066-.071-.025.081.02.03.01.006.02.01.02.03-.075.128 0 .037.021.031 0 .02.066-.055.015.03 0 .016-.03.077.015.031.02-.015-.111.188.01.03.031-.025-.076.138.01.031.077-.096 0 .02.01.03 0 .01 0 .021.006.031a.316.316 0 0 1-.046.239c-.05.076-.137.117-.243.127-.01 0-.077.081-.03 0-.006-.005-.062.056-.031 0-.087.106-.03.01-.036 0-.01 0 .005-.04-.035 0-.056.06.005-.046-.036 0 .04-.076.02-.066-.035-.005.035-.076-.031 0-.036-.01.066-.112 0-.046-.036-.01-.035.03-.01-.031-.035-.01 0-.026-.04.01-.04-.016-.047.04-.072.05-.041-.015-.036.025-.026-.01-.041-.015-.04.035-.02-.02-.035-.02-.026.014.055-.128-.041-.021-.02.005-.01-.036-.04-.02 0-.02 0-.046-.036-.026.066-.122.005-.06-.036-.025-.035.025-.035 0-.035-.026-.02 0-.03-.01-.036-.025-.035.025.01-.066-.035-.03-.046.04.015-.072-.03-.03-.036.024-.062.035-.031-.031-.01-.01.05-.122-.03-.03-.026.014-.128.136-.026-.031-.04.03.035-.092-.026-.03.071-.123-.015-.021-.025-.031.005-.03.025-.076-.02-.03-.051.05 0-.046-.02-.031-.056.06.045-.102-.021-.03 0-.02-.025 0-.015-.031-.117.152-.015-.01-.015-.03.01-.031-.087.09-.01-.031-.092.112-.026.005-.01-.03.015-.041-.051.04-.01-.03-.067.08.02-.057-.006-.031.03-.061-.01-.01 0-.03-.02.014-.02 0 0-.031v-.03c0-.057.02-.107.05-.153v-.005Zm10.687 2.883c.045.026.066.097.066.193v.056c0 .02.01.046-.005.061-.072-.02.096.102-.01.06-.036 0-.026.037-.016.067.01.03-.06.02-.02.071.107.091-.158-.03-.02.076.02.04 0 .061-.026.081-.106-.03-.03.051-.03.087-.127-.036-.092.015-.03.091-.168-.06-.158-.02-.036.091-.01.031-.087.026-.04.097-.006.036 0 .081-.042.096.082.092.061.117-.045.102.091.096.03.102-.046.107-.081 0 .056.122-.05.106-.026.03-.016.081-.051.107-.067.01-.138.015-.056.112.005.05.02.111-.061.111.096.107.02.112-.061.117 0 .05-.107.04-.061.117-.04.03.005.106-.066.117-.056.02-.112.04-.066.116.05.082-.076.061-.066.112-.132-.025-.01.096-.066.112-.01.04-.107.035-.066.106 0 .046 0 .097-.066.107.147.132-.081.046-.066.102-.092-.005-.03.076-.066.096.01.05-.117.02-.066.091-.03.026.015.097-.066.092.066.081-.107.02-.066.086-.02.03-.03.061-.061.081-.147-.045-.056.046-.061.076-.03.02.04.097-.061.072-.025.02-.096.015-.06.066 0 .035-.22-.061-.057.06.015.041-.157-.03-.056.056.097.082-.035.036-.055.051a.466.466 0 0 0-.051.046c-.153.132-.27.188-.34.147-.077-.046-.082-.203-.026-.437.005-.025-.07-.096.02-.07.016-.021-.045-.087.02-.077-.106-.091 0-.06.026-.081.01-.03.061-.03.03-.086-.055-.066.067-.03.031-.087.092.016.087-.025.036-.091.091.015.02-.066.04-.096.127.035.066-.041.041-.097-.02-.056.056-.056.046-.101.04-.02.01-.082.045-.102-.03-.066-.03-.107.051-.107-.015-.056.03-.076.05-.106-.025-.061.047-.066.057-.112 0-.05.162 0 .06-.112.006-.045.062-.06.062-.117.035-.03.076-.055.06-.116.143.03.092-.051.066-.117-.015-.061.026-.086.066-.117.01-.046.041-.081.067-.111-.016-.056.096-.046.066-.112s.096-.04.066-.107c-.016-.056-.01-.101.066-.107.02-.035.152-.005.066-.101 0-.046-.122-.162.066-.096-.02-.056.121-.02.066-.092.142.04.04-.06.066-.091.04-.02.101-.026.066-.087-.041-.066.066-.04.066-.08-.056-.072.127 0 .06-.077.031-.02.02-.06.061-.071-.152-.122.03-.05.061-.066.041-.01-.08-.112.056-.061-.111-.096.01-.056.056-.056.05 0-.03-.07.056-.05-.076-.072.071-.01.05-.046.072.015.026-.036.051-.04-.01-.031.005-.041.046-.037l.046-.03c.086-.05.152-.071.203-.04l-.02-.01Z" fill="#CA534B"/><path d="M48.224 18.978a.283.283 0 0 1-.03.157c0 .01-.01.015-.015.025 0 .016-.01.03-.016.026-.015-.071 0 .132-.02.025-.01-.03-.015 0-.02.026-.005.025-.02-.041-.026.02 0 .137-.03-.152-.025.02-.005.04-.015.03-.025.02-.02-.101-.02 0-.03.02-.021-.126-.026-.07-.031.021-.025-.172-.036-.147-.03.02-.01.006-.026-.06-.031.016-.01.01-.02.045-.036.015 0 .117-.015.112-.035.015 0 .127-.02.076-.04.015-.021-.066-.016.112-.041.016-.016-.005-.026.03-.041.01-.02-.051-.036-.107-.04.01-.01.03-.02.076-.041.01 0 .132-.02.076-.04.01-.016.026-.036-.07-.047.005-.015-.02-.025.061-.045 0-.02-.04-.036-.076-.046 0-.005.087-.03-.03-.046 0-.025-.122-.025.046-.045 0-.016.016-.036-.07-.046 0-.01.026-.025.051-.04 0 0 .193-.031-.045-.041 0-.02-.08-.026.016-.04-.005-.011.036-.036-.086-.042-.005-.015-.015-.02.066-.04-.01 0 .096-.03-.076-.036-.01-.01 0-.02.01-.035-.01-.026-.148-.026-.026-.036-.01-.01-.016-.015.086-.03-.016-.01-.01-.026-.076-.03-.015-.006.025-.041-.213-.031-.015-.005.035-.03-.152-.03-.015 0 .122-.02-.016-.026-.02-.01-.006-.015-.016-.025-.021a.33.33 0 0 1-.122-.213c-.01-.086.03-.178.101-.254.01-.01.005-.112.026-.02.01 0 .01-.082.025-.02 0-.138.015-.026.026-.021.01-.01.025.035.03-.02 0-.082.025.04.03-.02.02.086.026.06.03-.02.021.08.021-.021.036-.021.026.127.026.035.036-.016.01-.045.025.016.035-.015.016.026.02-.035.036-.015.01-.06.02-.086.04-.01.01-.04.026-.01.041-.01.01-.051.03 0 .04-.01.011-.026.041.132.041-.01.01-.02.031.02.046-.01.015.014.03.035.046-.006.025.137.035.051.046 0 .01-.04.03-.02.045 0 .016-.015.03-.01.046 0 .01-.04.035.056.046 0 .01-.06.035.061.045 0 .01-.04.02-.066.041 0 .015 0 .04.127.04 0 .01-.03.01-.188.041.005.01-.05.036.092.04.01.026.143.026 0 .041.01.016.026.03.072.036.01.005-.07.025.036.036.01 0-.08.03.108.035.011.01.015.02-.015.036.015-.01-.193.02 0 .03.015.01.026.005-.126.03.016 0-.148.016-.02.031.015.01.04.01-.06.025.02 0-.101.02.056.026.02.015.067.015 0 .02.02 0-.024.01-.014.02.021l.02.02a.286.286 0 0 1 .062.148l-.01-.005Z" fill="#CA534B"/><path d="M48.22 18.988a.24.24 0 0 1 .157-.02h.025c.015 0 .03 0 .03.004-.06.036.127-.04.031.01-.025.02 0 .016.03.01.026 0-.035.036.031.016.127-.05-.132.081.03.015.041-.005.03.005.03.02-.09.051.011.02.031.02-.111.062-.056.052.026.021-.153.081-.127.081.03.026.01.01-.045.045.026.025.015.005.05 0 .025.025.112-.035.112-.025.025.03.117-.04.082-.01.026.031-.056.04.111-.02.025.03 0 .016.036.016.026.036-.041.036-.087.071.025.036.036 0 .076 0 .025.035.127-.04.081 0 .02.04.026 0-.055.057.02.041-.014.02.067 0 .021.041-.03.03-.06.061.02.04.082-.02-.02.041.016.041-.107.066.05.01.015.041.015.01-.056.056.015.04.026 0 .056.006.01.041.183-.066-.035.046.01.04-.066.047.02.021.01.041.036 0-.07.061.006.041-.01.02.066 0 0 .04.091-.03-.061.056 0 .041 0 .01.015.02 0 .036-.132.076-.015.03 0 .035-.01.016.086-.015 0 .036-.005.015-.061.05 0 .035.025 0-.188.112-.005.036.035-.005-.132.081-.005.03.116-.045-.005.02-.01.03 0 .011-.006.021-.01.031a.325.325 0 0 1-.158.188.345.345 0 0 1-.274-.01c-.01 0-.107.03-.03-.015 0-.01-.082.02-.031-.015-.132.05-.03-.006-.03-.02-.01-.006.025-.036-.031-.021-.076.025.03-.035-.03-.02.07-.046.045-.046-.031-.026.071-.045-.025-.015-.025-.025.111-.066.025-.04-.026-.025-.046.01.005-.03-.025-.03.015-.021-.04-.011-.026-.031-.06.015-.086.01-.025-.03-.046 0-.02-.021-.025-.036-.051.01-.005-.03-.026-.036-.03 0 .112-.081-.025-.035-.02-.006.01-.036-.02-.041.01-.02.02-.04-.02-.04.121-.072.035-.052-.021-.041-.04 0-.03-.02-.02-.041-.02-.01-.02-.025-.016-.04-.045 0 .041-.051-.015-.041-.06.01.046-.051-.015-.04-.04 0-.071 0-.01-.041-.005-.016.106-.082-.01-.041-.03 0-.178.05-.01-.04-.051.01.076-.067-.006-.041.122-.071 0-.026 0-.04.02-.026.056-.057 0-.042-.066.02.026-.035 0-.035-.08.025.087-.066 0-.036.01-.02-.02-.015 0-.035-.177.07-.005-.02 0-.036.02-.02-.122.036.005-.035-.137.05-.025-.01.006-.03.035-.026-.061.01.01-.031-.097.035.045-.036.01-.03.056-.036 0-.016.01-.031-.025 0-.02-.005.015-.026 0-.01.01-.015.015-.025a.292.292 0 0 1 .117-.106l.005.005Zm7.813 7.848c.025.046.01.117-.041.203l-.03.046c-.01.02-.016.04-.036.046-.05-.051.03.132-.04.05-.036-.015-.041.02-.046.051-.005.03-.061-.015-.051.056.046.132-.122-.106-.056.056 0 .046-.035.05-.06.056-.077-.076-.052.03-.067.06-.091-.096-.086-.03-.07.062-.118-.137-.133-.097-.077.06-.026.021-.092-.02-.081.067-.026.025-.04.07-.087.066.026.116-.005.132-.091.066.03.127-.025.101-.091.066-.072-.04-.01.132-.097.066-.04.015-.056.066-.101.066-.061-.026-.127-.056-.102.066-.02.045-.035.106-.107.066.03.137-.035.106-.111.066-.026.04-.112-.02-.112.066-.05 0-.046.096-.117.066-.06-.01-.117-.026-.117.066 0 .096-.09.015-.116.066-.102-.087-.056.081-.112.06-.03.031-.112-.02-.112.062-.025.04-.045.08-.111.055.06.188-.097 0-.107.051-.076-.05-.061.051-.107.051-.015.05-.111-.04-.106.046-.04 0-.03.091-.102.045.015.102-.101-.035-.096.041-.03.015-.056.04-.097.04-.106-.111-.07.01-.091.036-.036 0-.01.107-.087.03-.03 0-.09-.04-.086.031-.015.03-.157-.162-.081.025-.005.046-.122-.106-.076.02.04.117-.05.01-.071.021l-.066.015c-.198.04-.33.03-.37-.04-.047-.077.03-.219.197-.391.015-.02-.015-.122.05-.056.021-.01 0-.097.057-.056-.046-.132.035-.05.06-.056.021-.02.072 0 .067-.06-.016-.087.07 0 .07-.062.072.061.087.02.077-.06.071.055.05-.051.081-.067.097.097.081 0 .087-.066.01-.06.07-.02.09-.066.047 0 .052-.066.092-.066 0-.07.026-.111.097-.066.015-.055.066-.045.101-.066.01-.066.076-.035.102-.066.02-.045.142.076.106-.066.03-.035.087-.025.112-.066.046-.005.091-.01.112-.066.106.102.101 0 .117-.066.02-.056.066-.06.116-.066a.243.243 0 0 1 .117-.066c.015-.055.107.01.112-.06.01-.072.106.015.111-.062.016-.055.041-.096.112-.055.036-.02.132.07.107-.051.02-.04-.026-.198.107-.05.01-.062.111.04.101-.047.107.107.066-.03.102-.045.045.005.101.03.096-.04 0-.077.076 0 .096-.041-.01-.087.112.06.092-.036.035 0 .046-.04.086-.03-.07-.183.051-.031.087-.031.04.01-.016-.137.08-.025-.05-.142.036-.046.077-.02.04.025.01-.077.071-.021-.03-.101.066.025.066-.015.05.046.04-.015.066-.01 0-.03.025-.03.056-.006h.05c.102 0 .168.016.199.067v-.016Z" fill="#CA534B"/><path d="M56.043 26.837a.295.295 0 0 1-.107.116l-.025.016c-.01.01-.026.02-.026.015.026-.066-.066.112-.025.01.005-.03-.01-.01-.03.01-.02.02 0-.045-.031.01-.066.122.05-.147-.03.006-.026.03-.03.015-.036.005.036-.102-.015-.01-.035 0 .045-.122.01-.077-.036 0 .066-.163.04-.143-.036 0-.015 0 0-.066-.04 0-.015.005-.04.03-.04 0-.062.101-.072.091-.041-.005-.067.106-.056.055-.041-.006.02-.07-.071.087-.04-.01-.01-.015-.036.015-.041-.01.01-.05.02-.112-.04-.01-.026.02-.057.056-.042-.015-.07.116-.055.056-.04-.016-.026.016 0-.076-.04-.015 0-.025-.052.04-.041-.02 0-.04.005-.086-.041-.02-.05.07-.01-.046-.04-.02.04-.122-.046.025-.041-.02-.02 0 0-.077-.036-.026-.02.015-.045.03-.035-.026-.092.168 0-.056-.036-.025.02-.081-.03 0-.03-.025-.026.025.015-.092-.03-.026-.006-.02-.052.046-.031-.025-.051.081.01-.081-.026-.026-.01-.005-.025 0-.025-.03.056-.142-.01-.03-.025-.026 0-.02-.056.066-.02-.03 0-.015.014-.081-.021-.03-.02.015.076-.209-.02-.03-.026.03.05-.148-.016-.031-.06.106-.01-.02-.015-.03 0-.011-.01-.021-.01-.031a.336.336 0 0 1 0-.244c.036-.081.117-.137.213-.168.01 0 .061-.096.03-.01.006 0 .052-.066.031-.005.066-.122.03-.015.036-.005.01 0 0 .04.035 0 .046-.07 0 .046.036 0-.026.081-.005.066.035 0-.025.081.03-.005.036 0-.046.122.005.046.035 0 .03-.035.016.03.041 0 0 .03.036-.02.04.005.036-.05.062-.066.041.01.03-.03.03 0 .04.01.036-.04.021.02.041.01.026-.02-.03.138.041.016.02-.01.015.03.04.015.006.02.01.046.041.015-.045.132 0 .061.041.02.03-.03.036 0 .04.021.02-.005.031.005.041.02.03-.03 0 .066.036.02.04-.045 0 .072.035.026.03-.03.051-.046.036.025.01.005-.03.127.035.026.026-.02.102-.158.03.025.031-.04-.014.097.031.026-.045.137.02.015.03.025 0 .03-.01.081.026.025.04-.055.005.046.026.026.045-.071-.026.106.025.03 0 .02.025 0 .02.03.092-.172.02.01.02.031 0 .03.072-.107.02.03.072-.126.026-.01.016.031-.01.04.04-.05.015.03.051-.09-.01.056.01.031-.02.066.01.01.01.03.016-.02.021-.01.006.03v.031a.321.321 0 0 1-.02.158h.02Z" fill="#CA534B"/><path d="M56.032 26.841a.27.27 0 0 1 .148.061.04.04 0 0 1 .02.02c.015.006.03.016.02.02-.07 0 .132.026.02.021-.03 0 0 .015.02.025.026.01-.045.01.021.026.137.02-.152 0 .015.03.036.016.026.02.016.03-.107 0 0 .021.015.031-.127 0-.071.016.015.036-.178 0-.147.01.01.035 0 .01-.066.016.01.036.01.015.041.025.01.035.117.02.107.036.01.041.123.026.072.03.006.04-.071.006.106.036.005.041-.01.01.025.03 0 .041-.05.01-.112.02 0 .04.03.016.07.036 0 .041.132.026.07.036 0 .046.02.015-.076.02 0 .046-.02.015.056.035 0 .045-.04.01-.081.026 0 .046s-.04.025-.005.046c-.127 0 .035.03-.01.045.01.016-.077.02-.01.041.02.015.045.03-.01.04.192.031-.051.026-.01.041-.082.005.01.03-.016.04.035.016-.092.021-.015.036-.016.01.06.03-.016.036.092.02-.08.015-.015.036 0 .01 0 .025-.015.035-.152 0-.03.02-.02.03-.015.01.08.03-.02.03-.016.011-.082.016-.02.031.02.01-.22 0-.021.026.035.01-.152 0-.02.025.121.02-.016.015-.02.02-.011.006-.016.016-.026.02a.29.29 0 0 1-.229.082.32.32 0 0 1-.228-.147c-.005-.01-.112-.026-.02-.026 0-.01-.077-.025-.016-.03-.137-.02-.025-.02-.015-.03-.005-.01.04-.016-.015-.031-.081-.015.04-.015-.015-.035.086 0 .066-.016-.016-.036.087 0-.015-.025-.01-.036.127 0 .04-.02-.01-.035-.046-.015.02-.026-.01-.04.025-.01-.03-.031-.01-.041-.056-.02-.081-.036-.005-.041-.041-.015-.005-.025 0-.04-.051-.02.01-.026 0-.041-.026-.016.137-.016 0-.046-.016-.015.025-.025 0-.046.02-.015.04-.025 0-.045.142 0 .056-.026 0-.046-.041-.02-.016-.03 0-.046-.016-.015 0-.03.005-.045-.04-.02.06-.026.01-.046-.056-.02.066-.026.01-.04-.04-.021-.06-.036.01-.041 0-.016.132-.016.01-.041-.025-.015-.182-.046.016-.04-.046-.016.096-.02.015-.036.142 0 .01-.026.015-.036.03-.01.076-.015.015-.035-.066-.02.04-.02.016-.036-.082-.02.106-.015.02-.03.02-.01-.01-.02.02-.03-.188-.026 0-.021.02-.031.03-.005-.127-.03.02-.026-.141-.02-.02-.02.021-.025.04 0-.06-.02.02-.02-.101-.015.056-.01.026-.02.066 0 0-.016.025-.02-.02-.011-.015-.016.025-.016.01 0 .016-.01.026-.015a.284.284 0 0 1 .157-.03l.005.004Zm2.844 10.712c0 .056-.046.107-.137.153-.015.01-.03.015-.046.025-.015.015-.035.03-.056.02-.02-.07-.04.132-.06.02-.02-.03-.041 0-.067.021-.025.025-.045-.046-.07.02-.026.137-.051-.152-.077.02-.025.036-.056.026-.081.021-.03-.107-.056 0-.086.015-.03-.127-.061-.07-.092.015-.03-.172-.066-.147-.096.016-.03.005-.066-.061-.102.015-.035.01-.07.046-.106.015-.036.117-.072.112-.112.01-.036.127-.076.076-.117.01-.035-.07-.076.112-.117.01-.04-.005-.08.031-.121.01-.041-.05-.082-.106-.122.006-.041.03-.082.07-.127.005-.04.132-.087.076-.127 0-.046.02-.087-.071-.132 0-.046-.02-.092.06-.132 0-.046-.04-.092-.081-.132 0-.046.086-.087-.036-.132 0-.046-.127-.087.04-.132 0-.04.01-.087-.071-.127-.005-.04.02-.081.045-.122-.005-.04.193-.081-.051-.122-.01-.04-.082-.081.01-.117-.01-.04.035-.076-.092-.111-.01-.036-.016-.077.06-.112-.01-.036.096-.071-.082-.107-.016-.035 0-.066.005-.101-.015-.036-.153-.066-.026-.097-.016-.03-.015-.06.087-.091-.015-.03-.01-.061-.076-.086-.015-.03.02-.056-.218-.082-.02-.025.035-.05-.153-.076-.02-.025.121-.05-.016-.07-.02-.026-.006-.047-.016-.067-.021-.188-.066-.3-.142-.3-.224 0-.091.138-.172.366-.243.02-.005.046-.112.071-.02.026 0 .05-.082.076-.021.026-.137.056-.025.082-.02.03-.005.055.035.086-.016.03-.08.06.041.091-.015.03.087.066.061.097-.015.035.081.066-.02.101-.015.036.127.071.04.107-.016.035-.045.071.02.112-.01.035.026.076-.035.111-.01.04-.06.077-.081.117-.01.04-.04.081-.01.122-.01.04-.05.081.005.122-.005.04-.026.081.137.127-.005.04-.02.086.02.132 0 .045.02.086.035.132 0 .045.142.091.056.132 0 .045-.04.091-.02.132 0 .045-.015.086-.005.132 0 .04-.04.086.06.127 0 .04-.061.086.066.127.005.04-.04.08-.061.122.005.04 0 .08.127.121.01.04-.025.081-.188.117.01.04-.05.076.097.117.01.035.143.076.006.112.01.035.031.07.077.106.016.036-.066.071.035.102.015.03-.081.066.107.096.015.03.02.061-.01.092.015.03-.193.06 0 .086.016.03.025.056-.127.081.02.026-.147.05-.02.076.02.026.04.051-.06.071.02.02-.1.046.056.066.02.02.067.041 0 .061.021.02-.025.036-.015.056.026.015.01.03.015.046.025.086.046.137.102.137.152v.005Z" fill="#CA534B"/><path d="M58.88 37.553a.32.32 0 0 1-.152.051h-.03c-.016 0-.03.005-.03 0 .055-.045-.118.066-.031 0 .02-.025-.005-.015-.03-.005-.026.005.025-.04-.031-.01-.117.071.117-.102-.03-.01-.036.015-.031 0-.031-.015.081-.066-.01-.016-.03-.016.096-.08.045-.06-.031-.015.137-.106.106-.101-.03-.02-.01-.005.04-.056-.031-.02-.015 0-.05.005-.03-.02-.102.055-.107.045-.031-.026-.112.06-.076.02-.03-.026.05-.05-.107.041-.03-.025 0-.015-.042-.005-.031-.03.035-.041.07-.087-.03-.03-.036.004-.077.02-.031-.031-.117.066-.077.02-.03-.036-.026 0 .04-.066-.031-.035.01-.026-.066.01-.026-.036.026-.035.046-.071-.025-.035-.076.035.01-.046-.025-.036.091-.086-.051 0-.02-.04-.021 0 .04-.067-.021-.041-.025 0-.056 0-.02-.036-.168.102.025-.05-.016-.04.056-.056-.025-.016-.015-.036-.035.01.056-.071-.015-.035.005-.02-.066.015-.01-.041-.087.046.05-.066-.01-.036-.005-.01-.02-.015-.01-.035.116-.097.01-.03-.006-.036.006-.02-.08.03 0-.035 0-.016.051-.061 0-.036-.025.005.168-.142 0-.035-.035.015.117-.102 0-.03-.106.065 0-.026 0-.031v-.03a.325.325 0 0 1 .122-.214c.071-.05.168-.06.27-.036.01 0 .1-.05.03.01 0 .006.076-.03.03.01.117-.07.03 0 .03.016.01 0-.02.036.031.015.071-.035-.02.04.03.016-.065.055-.04.055.031.02-.06.056.03.01.03.02-.096.081-.02.04.031.02.046-.015 0 .03.03.026-.015.025.041 0 .031.025.056-.025.081-.025.03.026.041-.01.02.015.03.03.052-.02.011.025.031.03.03 0-.096.102.03.031.026 0 0 .036.031.036-.005.02-.015.045.03.035-.106.091-.025.056.026.036.04-.01.036.015.026.035.02 0 .02.02.025.04.04-.01-.03.062.02.036.056-.02-.035.061.02.04.041-.01.067-.014.02.037.011.01-.09.096.016.04.03 0 .168-.086.015.04.046-.014-.06.077.016.036-.112.092.01.026.01.036-.016.025-.046.066.01.035.06-.03-.015.04.01.036.071-.036-.076.081.005.035-.01.02.026.01 0 .036.163-.102.01.015 0 .035-.015.026.117-.055 0 .036.122-.076.026 0 0 .03-.03.03.061-.02 0 .03.086-.05-.035.047 0 .031-.05.046 0 .016-.005.03.02-.01.02 0-.01.031 0 .01-.005.02-.01.026a.302.302 0 0 1-.097.127l.005-.01Z" fill="#CA534B"/><path d="M58.87 37.553c.046.03.077.076.097.127 0 .01.005.02.01.026.01.015.016.025.01.03-.06-.035.102.086.006.03-.03-.01-.01.01 0 .031.015.02-.046-.015 0 .03.106.087-.138-.076 0 .03.025.031.01.031 0 .036-.092-.05-.01.016 0 .036-.112-.066-.072-.025-.006.035-.147-.09-.132-.066-.005.036 0 .01-.066-.015-.01.036 0 .015.02.045-.01.035.086.076.076.086-.01.036.096.08.046.066-.015.035-.066-.03.076.086-.015.04-.016.006.01.041-.016.041-.05-.02-.106-.04-.02.036.015.03.04.066-.02.04.101.087.045.067-.02.036.01.026-.077-.015-.026.036-.026 0 .03.06-.026.04-.04-.01-.08-.02-.025.036.061.06-.045 0-.025.035-.112-.06.015.046-.03.036 0 .02-.077-.02-.031.03.01.026.02.051-.03.03.152.123-.056-.004-.031.031-.076-.035-.005.03-.03.026.02.03-.087-.03-.031.025-.02 0 .035.056-.03.026.07.066-.082-.026-.03.02-.011.01-.011.02-.031.02-.127-.076-.036 0-.03.02-.021 0 .055.066-.031.016-.016 0-.076-.03-.03.015.01.02-.189-.112-.031.015.025.03-.137-.076-.03.01.096.076-.021 0-.031.01-.01 0-.02 0-.03.006a.316.316 0 0 1-.24-.046.33.33 0 0 1-.126-.244c0-.01-.081-.076 0-.03.005-.005-.056-.061 0-.03-.107-.087-.01-.031 0-.036 0-.01.04.005 0-.036-.061-.056.046.005 0-.035.076.04.066.02.005-.036.076.04 0-.03.01-.036.112.066.046 0 .01-.035-.03-.036.03-.01.01-.04.026 0-.01-.041.016-.036-.041-.046-.051-.071.015-.04-.026-.036.01-.026.015-.041-.035-.041.02-.02.02-.041-.015-.025.127.056.02-.04-.004-.021.036-.01.021-.041.025 0 .046 0 .025-.04.122.07.061.004.026-.037-.026-.035 0-.035.025-.035 0-.02.01-.03.03-.036-.025-.035.067.01.031-.035-.04-.046.071.015.03-.03-.025-.036-.035-.062.031-.031.01-.01.122.05.03-.03-.015-.026-.137-.127.03-.026-.03-.04.092.036.031-.025.122.07.02-.015.03-.026.031.005.077.026.031-.02-.05-.05.046 0 .03-.02-.06-.056.102.045.031-.02.02 0 0-.026.03-.016-.152-.117.01-.015.031-.015.03.01-.091-.091.03-.01-.116-.092-.004-.026.031-.01.04.02-.04-.051.03-.01-.08-.066.056.02.031-.006.06.036.01-.01.03 0-.015-.02-.005-.02.03 0h.031c.056 0 .107.02.153.051v.005Zm-2.888 10.702c-.025.046-.096.066-.193.066h-.05c-.02 0-.046.01-.056-.005.02-.071-.102.091-.066-.01 0-.04-.036-.025-.066-.015-.03.01-.02-.061-.072-.02-.091.106.03-.158-.076-.021-.04.02-.06 0-.081-.025.03-.107-.05-.03-.086-.03.035-.128-.015-.092-.087-.031.061-.168.02-.163-.091-.036-.03-.01-.025-.086-.096-.04-.036-.005-.082 0-.102-.041-.091.081-.117.06-.102-.046-.096.092-.101.03-.106-.045 0-.082-.122.055-.107-.051-.03-.026-.081-.016-.106-.056-.01-.066-.016-.137-.112-.056-.05.005-.112.02-.112-.06-.101.096-.112.02-.112-.062-.05 0-.04-.106-.116-.066-.03-.04-.107.005-.117-.066-.02-.056-.04-.111-.117-.066-.081.051-.06-.076-.111-.066.025-.132-.097-.01-.112-.066-.046-.01-.04-.106-.107-.066-.046 0-.096 0-.101-.066-.132.147-.046-.081-.102-.066.005-.091-.076-.03-.096-.066-.051.01-.02-.117-.092-.066-.025-.03-.096.015-.091-.066-.081.066-.02-.106-.087-.066-.03-.02-.06-.03-.08-.066.045-.147-.046-.056-.077-.06-.02-.031-.096.04-.071-.062-.02-.025-.015-.096-.066-.06-.035 0 .061-.219-.06-.056-.041.015.03-.158-.057-.056-.081.096-.035-.04-.05-.056a.462.462 0 0 0-.046-.05c-.132-.153-.188-.275-.148-.341.046-.076.204-.081.437-.026.026.006.097-.07.071.02.02.016.087-.045.076.021.092-.107.061.005.082.025.03.01.03.061.086.031.066-.056.03.066.091.03-.015.092.026.087.092.036-.016.091.066.02.096.04-.035.127.04.067.097.041.056-.02.056.051.101.046.02.04.082.01.107.046.066-.03.107-.03.107.05.055-.015.076.036.106.051.061-.025.066.046.112.056.05 0 0 .163.111.06.046.006.061.062.112.062.03.035.056.076.117.066-.03.142.05.091.117.066.06-.01.086.025.117.066.045.01.08.035.111.066.061-.015.046.096.112.066s.04.096.107.066c.055-.015.106-.015.106.066.036.02.005.152.102.066.045 0 .162-.122.096.066.056-.026.02.122.092.066-.041.142.06.046.09.066.021.04.026.101.087.066.066-.04.04.066.081.066.072-.056 0 .127.077.06.02.031.06.021.07.062.123-.153.052.03.067.06.01.036.111-.08.06.056.097-.111.056.01.056.056 0 .051.072-.03.051.056.071-.076.01.071.046.051-.015.071.035.025.04.05.031-.01.041.006.036.047l.03.045c.051.087.072.153.041.203l-.01-.01Z" fill="#CA534B"/><path d="M55.987 48.26a.336.336 0 0 1-.158-.03c-.01 0-.015-.01-.025-.015-.015 0-.03-.01-.025-.015.07-.016-.132 0-.026-.02.03-.01 0-.016-.025-.021-.026-.005.046-.02-.02-.025-.137 0 .152-.03-.02-.026-.041-.005-.031-.015-.021-.025.102-.02 0-.02-.02-.03.127-.021.07-.026-.02-.031.172-.026.147-.036-.021-.03-.005-.01.06-.031-.015-.036-.01-.01-.046-.02-.015-.036-.117 0-.112-.015-.016-.035-.127 0-.076-.02-.015-.036.066-.02-.112-.015-.015-.04.005-.016-.03-.026-.01-.041.05-.02.106-.035-.01-.04-.03-.01-.077-.02-.01-.046-.133 0-.077-.02-.01-.046-.026-.01.07-.036-.006-.046.02-.015-.06-.025 0-.045.04-.02.076-.036 0-.046-.086-.005.03-.03 0-.046.122-.025-.04-.025 0-.046-.015-.015.071-.035 0-.045-.025-.01-.05-.026 0-.04-.193 0 .046-.031 0-.041.081-.02-.015-.026.005-.041-.035-.01.087-.036.005-.04.016-.016-.066-.02.01-.041-.096 0 .077-.03.01-.036 0-.01-.01-.02.01-.035.148-.026.026-.026.01-.036.016-.01-.085-.015.016-.03.01-.01.076-.026.015-.03-.025-.011.214-.041.016-.031-.036-.005.152-.03.015-.03-.122 0 .015-.021.02-.026.005-.01.015-.015.02-.026a.33.33 0 0 1 .214-.121c.091-.01.177.03.254.101.005.005.111.005.02.02 0 .01.081.01.02.026.142 0 .026.015.02.025.01.01-.035.02.02.03.082 0-.04.026.021.031-.086.02-.06.026.02.03-.08.021.02.021.02.036-.126.026-.035.026.016.036.046.01-.015.025.015.035-.025.016.036.026.015.036.061.005.087.02.016.04.04.01.01.026.01.041.05.01 0 .03.01.04.025.01-.132.041.01.041.02.016-.02.03.01.046-.015.015-.035.03.005.046-.137.03-.05.035 0 .045.041.01.02.03 0 .046.016.015.01.03 0 .046.041.01-.055.035 0 .045.061.01-.06.036 0 .046.041.01.066.02 0 .04 0 .016-.127.041 0 .041.03.01.188.01-.005.041.051.01-.091.036-.005.04-.142.026-.005.026-.01.041-.025.016-.071.03-.01.036.071.005-.036.025-.01.035.081 0-.107.03-.01.036-.02.015.015.02-.016.035.193-.005 0 .02-.015.03-.025.011.127.011-.015.031.147 0 .02.016-.015.03-.04.011.06.011-.02.026.1 0-.056.02-.02.026-.067.015 0 .015-.021.02.025 0 .015.01-.02.02-.006.005-.016.01-.02.02a.286.286 0 0 1-.148.061l-.005.005Z" fill="#CA534B"/><path d="M55.977 48.255c.02.05.03.102.02.157v.031c0 .015 0 .03-.005.03-.036-.06.04.127-.01.03-.02-.025-.016 0-.01.031 0 .026-.036-.035-.016.03.051.128-.081-.131-.015.031.01.036 0 .03-.02.03-.051-.09-.02.006-.02.031-.062-.111-.051-.056-.02.03-.082-.152-.082-.126-.026.031-.01.01-.046-.045-.026.026-.005.015 0 .05-.025.025.035.112.025.112-.03.025.04.117.01.082-.031.026-.04-.056.02.111-.03.025-.016 0-.01.036-.036.026-.035-.041-.071-.087-.035.025 0 .035 0 .076-.036.025.04.127 0 .081-.04.02 0 .026-.056-.055-.041.02-.02-.01 0 .067-.04.021-.031-.03-.062-.06-.042.02.02.087-.04-.02-.04.016-.066-.107-.01.05-.04.015-.01.015-.057-.056-.041.015 0 .026-.006.056-.041.01.066.183-.046-.035-.04.01-.046-.066-.02.02-.041.01 0 .036-.061-.07-.04.006-.021-.01 0 .066-.041 0 .03.091-.056-.061-.041 0-.01 0-.02.015-.036 0-.07-.132-.03-.015-.035 0-.015-.01.015.086-.036 0-.015-.005-.05-.061-.035 0 0 .025-.112-.188-.036 0 .005.035-.081-.132-.03-.005.045.116-.02-.005-.03-.01a.072.072 0 0 1-.031-.01.326.326 0 0 1-.188-.158.346.346 0 0 1 .01-.274c0-.01-.03-.107.015-.03.01 0-.02-.082.016-.031-.051-.132.005-.03.02-.03.005-.01.035.025.02-.031-.025-.076.036.03.02-.03.046.07.046.05.026-.031.046.071.015-.025.025-.025.066.111.036.025.026-.026-.01-.046.03.005.03-.025.02.015.01-.04.03-.026-.015-.06-.01-.086.031-.025-.005-.046.02-.02.036-.025-.01-.051.03-.005.035-.026 0-.03.081.112.036-.02.005-.025.035.01.04-.02.02.01.04.02.04-.02.072.121.052.035.041-.02 0-.042.02-.031.041-.021.01-.02.026-.02.04-.016 0-.045.052.041.041-.015-.01-.06.056.046.041-.015 0-.04 0-.071.04-.01.01-.005.082.101.041-.01 0-.03-.05-.183.04-.01-.01-.051.062.076.041-.005.072.126.026 0 .041 0 .02.02.056.06.04 0-.02-.066.036.025.036 0-.025-.082.066.086.036 0 .02.01.015-.02.035 0-.07-.178.02-.01.036 0 .02.02-.036-.122.035.005-.05-.138.01-.026.03.005.026.035-.01-.061.031.01-.035-.097.036.045.03.01.036.06.016 0 .031.01 0-.025 0-.02.026.015.01 0 .015.01.025.016.046.03.086.07.107.121l-.005-.02Zm-7.844 7.823c-.045.026-.116.01-.203-.04l-.045-.03c-.02-.006-.046-.016-.046-.036.05-.051-.132.03-.05-.04.014-.037-.021-.041-.052-.047-.03-.01.016-.066-.055-.05-.132.045.106-.122-.056-.056-.046 0-.051-.036-.056-.061.076-.076-.03-.05-.061-.066.096-.092.03-.092-.061-.071.137-.117.096-.132-.06-.076-.021-.026.02-.092-.067-.082-.025-.025-.071-.04-.066-.086-.122.025-.132-.01-.066-.091-.127.03-.101-.026-.066-.092.04-.066-.132-.01-.066-.096-.015-.036-.066-.056-.066-.102.026-.06.056-.127-.066-.101-.046-.02-.106-.036-.066-.107-.137.03-.107-.035-.066-.112-.04-.025.02-.111-.066-.111 0-.051-.096-.046-.066-.117.01-.061.026-.117-.066-.117-.096 0-.015-.096-.066-.117.086-.101-.081-.056-.06-.111-.031-.03.02-.112-.062-.112-.04-.025-.081-.046-.056-.112-.188.061 0-.096-.05-.106.05-.076-.051-.061-.051-.107-.051-.015.04-.112-.046-.107 0-.04-.091-.035-.046-.101-.101.015.036-.102-.04-.097-.015-.03-.04-.055-.04-.096.11-.107-.011-.071-.036-.092 0-.035-.107-.01-.03-.086 0-.03.035-.091-.031-.086-.036-.015.162-.157-.026-.081-.045 0 .107-.122-.02-.077-.122.041-.01-.05-.02-.07a1.332 1.332 0 0 0-.015-.067c-.041-.198-.031-.33.04-.37.076-.046.218.03.396.198.02.015.122-.015.056.05.01.02.096 0 .056.056.132-.045.05.036.056.061.02.02 0 .071.06.066.087-.015 0 .071.062.071-.056.072-.02.087.06.077-.055.07.051.05.066.08-.096.097 0 .082.066.087.061.01.02.071.067.091 0 .046.066.051.066.092.07 0 .111.025.066.096.055.016.045.066.066.102.066.01.035.076.066.102.045.025-.077.142.066.106.035.026.025.086.066.112.005.045.01.091.066.111-.102.107 0 .102.066.117.055.02.06.066.066.117a.2.2 0 0 1 .06.117c.056.015-.01.106.061.111.071.006-.015.107.061.112.056.015.097.04.056.112.02.035-.07.132.056.107.04.02.198-.026.05.106.062.01-.04.112.047.107-.107.101.03.066.045.101-.005.046-.03.102.04.097.077 0 0 .076.036.096.087-.01-.06.112.036.092 0 .035.04.05.03.091.183-.071.03.05.03.086-.01.041.138-.015.026.082.137-.051.04.035.02.076-.025.04.077.01.02.07.102-.03-.025.067.016.067-.05.05.015.04.01.066.03 0 .03.025.005.056v.05c0 .102-.015.168-.066.199l.015-.01Z" fill="#CA534B"/><path d="M48.138 56.084a.265.265 0 0 1-.117-.107l-.015-.025c-.01-.01-.02-.026-.015-.026.066.026-.112-.066-.01-.03.03.005.01-.015-.01-.03-.02-.016.045 0-.01-.031-.122-.066.147.046-.006-.03-.03-.026-.015-.031 0-.036.102.035.01-.02 0-.036.122.046.077.01 0-.035.163.06.142.04 0-.036 0-.015.066 0 0-.04-.005-.016-.03-.04 0-.036-.101-.06-.091-.07.006-.04-.107-.066-.056-.056.005-.041.07.015-.092-.071.01-.04.015-.01-.016-.036.01-.041.05.01.111.02.01-.04-.02-.026-.056-.057.015-.041-.117-.072-.056-.056.015-.041-.015-.02.077 0 .016-.04.025 0-.04-.052.02-.041.04 0 .086.005.02-.041-.07-.05.046-.01.02-.04.123.04-.025-.046.02-.041 0-.02.077 0 .021-.036-.015-.025-.03-.046.026-.035-.168-.092.056 0 .025-.036.081.02 0-.03.025-.03-.025-.026.092.015.026-.03.02 0-.046-.052.025-.031-.081-.051.081.01.025-.026.006-.01 0-.025.031-.025.142.05.03-.01.03-.025.02 0-.066-.056.03-.02.016 0 .082.014.031-.021-.015-.02.209.076.03-.02-.03-.026.148.045.031-.016-.106-.06.02-.01.03-.015.01 0 .021-.01.031-.01.087-.03.173-.035.244 0 .081.036.137.117.167.213 0 .01.097.061.01.03 0 .01.067.051.006.031.122.066.015.026 0 .036 0 .01-.04 0 0 .035.07.046-.046 0 0 .036-.081-.026-.066-.005 0 .035-.081-.025.005.03 0 .036-.122-.04-.046.005 0 .04.035.031-.03.016 0 .041-.03 0 .02.036-.005.04.05.036.066.062-.01.041.03.03 0 .03-.01.041.04.035-.016.02-.01.04.02.026-.138-.03-.016.041.01.02-.03.015-.015.04-.02.006-.046.011-.015.041-.133-.045-.061 0-.02.041.03.03 0 .036-.021.04.005.021-.005.031-.02.041.03.03-.066 0-.02.04.045.042-.072 0-.021.037.03.03.046.05-.025.035-.006.015-.127-.03-.026.036.02.025.158.101-.025.03.04.03-.097-.015-.026.03-.137-.045-.015.02-.025.03-.03 0-.081-.01-.025.026.056.041-.046.005-.03.026.07.045-.107-.026-.031.025-.02 0 0 .026-.03.02.172.092-.01.02-.031.02-.03 0 .106.072-.03.021.126.071.01.025-.031.015-.04-.01.05.04-.03.016.09.05-.056-.01-.031.01-.066-.02-.01.01-.03.01.02.015.01.02-.031.005h-.03a.321.321 0 0 1-.158-.02v.01Z" fill="#CA534B"/><path d="M48.129 56.073a.226.226 0 0 1-.061.147.039.039 0 0 1-.02.02c-.006.016-.016.031-.021.021 0-.071-.025.132-.02.02 0-.03-.015 0-.026.02-.01.026-.01-.045-.025.021-.02.137 0-.152-.03.015-.01.036-.02.026-.031.015 0-.106-.02 0-.03.016 0-.127-.016-.071-.036.015.005-.173-.01-.147-.035.01-.01 0-.016-.066-.036.01-.01.01-.03.04-.036.01-.025.117-.035.107-.04.01-.026.122-.03.072-.04.006-.006-.072-.036.106-.042.005-.015-.01-.03.025-.04 0-.01-.051-.02-.112-.04 0-.016.03-.036.07-.046 0-.026.132-.036.07-.046 0-.015.02-.025-.076-.046 0-.015-.02-.035.056-.045 0-.01-.04-.026-.082-.046 0-.02.08-.026-.04-.046-.005 0-.127-.03.04-.046-.01-.015.01-.02-.077-.04-.01-.015.02-.03.045-.04-.01-.031.192-.026-.052-.041-.011-.006-.081-.03.01-.041-.015-.015.035-.02-.092-.036-.015-.01-.016-.03.06-.035-.016-.02.097-.015-.081-.036-.015-.01 0-.025 0-.035-.015 0-.152-.02-.03-.03-.02-.01-.016-.031.08-.031-.02-.01-.016-.015-.082-.03-.021-.01.02 0-.218-.026-.02-.01.035 0-.153-.025-.02-.02.121-.016-.016-.026-.021-.005-.01-.015-.015-.02-.025-.061-.072-.092-.148-.081-.229a.32.32 0 0 1 .147-.228c.01-.005.025-.112.025-.02.01 0 .026-.077.03-.016.021-.137.021-.025.031-.015.01-.005.015.04.03-.015.016-.082.016.04.031-.016 0 .087.015.066.036-.01 0 .087.025-.015.035-.01 0 .127.02.04.036-.01.015-.046.025.02.04-.01.01.025.03-.03.041-.01.02-.061.036-.082.04-.005.021-.041.026-.005.041 0 .02-.051.026.01.04 0 .016-.026.016.137.041 0 .016-.016.026.025.046 0 .015.02.026.04.046 0 0 .142.025.055.046 0 .02-.041.03-.016.045 0 .015-.01.03 0 .046.005.02-.041.025.06.046.01.02-.056.025.066.04.01.02-.04.036-.061.04.01.016 0 .016.127.041.01.016-.025.046-.182.041.016.02-.046.02.096.036.015 0 .142.025.01.035.015.01.03.016.076.036.015.02-.066.02.04.035.02.02-.08.016.107.03.02.01.021.021-.01.031.021.026-.193.02 0 .026.02.005.03.03-.127.025.02.02-.142.02-.02.025.021 0 .04.02-.06.02.02.016-.101.01.056.021.026 0 .066.015.005.02.025.01-.02.016-.015.016.026 0 .01.01.015.015.025.025.05.035.101.03.157l.02-.005Zm-10.698 2.849c-.055 0-.106-.046-.152-.137-.01-.016-.015-.031-.025-.046-.016-.015-.03-.036-.026-.056.071-.02-.132-.04-.02-.061.03-.02 0-.046-.02-.066-.026-.025.045-.046-.02-.071-.138-.025.152-.05-.021-.076-.035-.026-.025-.056-.02-.081.106-.03 0-.056-.02-.087.126-.03.07-.06-.016-.091.173-.03.147-.066-.015-.097 0-.035.06-.066-.015-.101-.01-.036-.046-.071-.016-.107-.116-.035-.111-.07-.01-.111-.127-.036-.076-.077-.01-.117.071-.04-.111-.076-.01-.117.01-.04-.03-.081-.01-.122.05-.04.112-.081-.005-.122-.03-.04-.071-.081-.005-.127-.132-.04-.076-.086 0-.127-.02-.045.07-.086 0-.132.02-.045-.061-.086 0-.132.04-.045.08-.091 0-.132-.087-.045.035-.086 0-.132.127-.045-.04-.086 0-.132-.01-.04.07-.086.005-.127-.02-.04-.046-.08.005-.121-.193-.041.05-.082.01-.122.081-.04-.01-.081.01-.117-.035-.04.092-.076.01-.112.016-.035-.06-.076.01-.111-.096-.036.082-.072.016-.107 0-.036-.005-.071.015-.102.152-.035.025-.066.015-.096.015-.03-.086-.061.015-.091.01-.03.077-.061.02-.087-.02-.03.219-.056.021-.081-.035-.025.152-.05.02-.076-.122-.026.016-.051.02-.071a.54.54 0 0 0 .021-.066c.066-.193.142-.3.223-.3.092 0 .173.137.244.366.005.025.112.045.02.07 0 .026.082.052.02.077.138.025.026.056.021.081.005.03-.04.056.015.087.081.03-.04.06.016.09-.087.031-.062.067.015.097-.082.036.02.066.015.102-.127.035-.036.071.015.107.046.035-.02.07.01.111-.025.036.03.076.01.112.061.04.082.076.01.117.041.04.01.081.01.122.052.04-.004.08.006.121.025.041-.137.087 0 .127.02.041-.02.087 0 .132-.02.046-.036.087 0 .132-.142.046-.056.087 0 .132.04.046.02.092 0 .132.015.046.005.087 0 .132.04.046-.061.087 0 .127.06.046-.066.087 0 .127.04.04.06.081-.005.122 0 .04-.127.081-.01.122.025.04.188.081-.01.117.05.04-.097.076-.01.117-.143.035-.01.076-.01.111-.026.036-.077.071-.016.107.066.035-.036.07-.015.101.08.03-.107.066-.015.097-.02.03.015.06-.016.091.193.03 0 .061-.015.087-.03.03.127.055-.02.08.147.026.02.052-.02.077-.041.025.06.05-.021.071.102.02-.056.046-.02.066-.066.02 0 .04-.02.061.02.02.015.035-.026.056-.01.015-.015.03-.025.046-.046.09-.102.137-.153.137Z" fill="#CA534B"/><path d="M37.426 58.926a.32.32 0 0 1-.05-.152v-.03c0-.016-.006-.031 0-.031.045.056-.067-.117 0-.03.025.02.015-.006.005-.031-.01-.025.04.025.01-.03-.071-.117.101.116.01-.03-.015-.036 0-.031.01-.031.066.08.015-.01.015-.03.081.096.056.045.015-.031.107.137.102.106.02-.03.006-.01.057.035.021-.031 0-.015-.005-.051.02-.03-.056-.102-.045-.107.026-.031-.061-.112-.02-.076.025-.03.05.05-.04-.107.026-.031.015 0 .005-.04.03-.03.04.035.086.07.03-.031-.005-.035-.02-.076.03-.03-.065-.117-.02-.077.037-.03 0-.026.066.04.035-.031.025.01-.01-.066.036-.026.035.026.07.046.04-.025-.035-.076.046.01.036-.025.086.09 0-.051.04-.02 0-.021.066.04.04-.021 0-.026 0-.056.042-.02-.102-.168.05.025.035-.016.056.061.015-.025.04-.015-.01-.035.072.056.036-.015.02.005-.015-.066.04-.01-.045-.087.067.05.036-.01.01-.006.016-.02.036-.01.096.116.035.01.035-.006.02.005-.03-.08.036 0 .015 0 .061.051.036 0 0-.025.142.168.035 0-.015-.035.102.117.03 0-.065-.106.02 0 .031 0h.03a.325.325 0 0 1 .214.122c.05.071.06.168.035.27 0 .01.051.1-.01.03-.005 0 .03.076-.01.03.071.117 0 .03-.015.03 0 .01-.036-.02-.016.031.036.071-.04-.02-.015.03-.056-.065-.056-.04-.02.031-.056-.06-.01.03-.02.03-.087-.096-.04-.015-.02.031.015.046-.031 0-.026.03-.025-.015 0 .041-.025.03.025.057.025.082-.026.031.01.041-.02.02-.03.03.02.052-.026.011-.03.031 0 .03-.102-.096-.031.03 0 .026-.036 0-.036.031-.02-.005-.045-.015-.035.03-.092-.106-.056-.025-.036.026.01.04-.015.036-.035.025 0 .02-.02.026-.041.026.01.04-.06-.03-.04.02.02.056-.061-.035-.041.02.01.041.015.066-.04.02-.011.01-.097-.086-.041.016 0 .03.086.168-.041.015.015.046-.076-.06-.036.016-.091-.112-.025.01-.035.01-.026-.016-.066-.046-.036.01.03.06-.04-.015-.035.01.035.071-.081-.076-.036.005-.02-.01-.01.02-.035 0 .101.163-.015.01-.036 0-.025-.015.056.117-.035 0 .076.122 0 .025-.03 0-.031-.03.02.06-.031 0 .05.086-.046-.035-.03 0-.047-.05-.016.005-.031-.005.01.025 0 .02-.026-.01a.039.039 0 0 1-.025-.01.302.302 0 0 1-.127-.097l.01.005Z" fill="#CA534B"/><path d="M37.426 58.916a.267.267 0 0 1-.126.097c-.01 0-.02.005-.026.01-.015.01-.025.015-.03.01.035-.06-.087.102-.03.005.01-.03-.01-.01-.031 0-.02.016.015-.045-.03 0-.087.107.075-.137-.031 0-.03.026-.03.01-.036 0 .051-.091-.015-.01-.035 0 .066-.111.025-.07-.036 0 .092-.147.066-.132-.035-.005-.01 0 .015-.066-.036-.01-.015 0-.046.02-.035-.01-.076.091-.087.076-.041-.01-.081.096-.066.045-.035-.016.03-.066-.087.077-.041-.015-.005-.015-.04.01-.04-.015.02-.05.04-.107-.041-.02-.03.015-.066.04-.036-.02-.091.1-.066.045-.04-.02-.026.01.015-.077-.041-.026 0-.026-.061.03-.036-.026.01-.04.02-.08-.035-.025-.061.06 0-.046-.036-.026.061-.111-.046.016-.035-.03-.02 0 .02-.076-.03-.03-.026.01-.052.02-.031-.03-.122.146.005-.057-.03-.031.035-.077-.031-.005-.026-.03-.03.02.03-.087-.026-.031 0-.02-.055.035-.025-.03-.066.07.026-.082-.02-.031-.01-.01-.026-.01-.02-.03.076-.133 0-.036-.02-.031 0-.02-.067.056-.016-.03 0-.016.03-.077-.015-.031-.02.01.111-.193-.01-.03-.03.025.076-.138-.01-.03-.077.096 0-.021-.01-.031 0-.01 0-.02-.006-.03a.316.316 0 0 1 .046-.24c.05-.076.137-.116.244-.126.01 0 .076-.082.03 0 .005 0 .061-.056.03 0 .087-.107.031-.01.036 0 .01 0-.005.04.036 0 .055-.061-.005.045.035 0-.04.076-.02.066.036.005-.04.076.03 0 .035.01-.066.111 0 .045.036.01.035-.03.01.03.035.01 0 .026.04-.01.036.015.045-.04.07-.05.035.016.036-.026.026.01.041.015.04-.036.02.02.04.02.026-.015-.055.127.041.02.02-.005.01.036.04.02 0 .026 0 .046.042.026-.072.122-.006.061.035.026.036-.026.035 0 .035.025.02 0 .031.01.036.03.036-.025-.01.066.036.03.045-.04-.016.072.03.031.036-.025.061-.035.03.03.01.01-.05.123.031.031.025-.015.127-.137.025.03.041-.03-.03.092.026.031-.071.122.015.02.025.03-.005.031-.025.077.02.031.051-.05 0 .046.02.03.057-.06-.04.102.021.031 0 .02.025 0 .015.03.117-.152.016.01.016.03-.01.026.091-.09.015.031.091-.111.025-.005.01.03-.02.041.05-.04.01.031.066-.08-.02.056.005.03-.035.062.01.01 0 .031.02-.015.02 0 0 .03v.031c0 .056-.02.107-.05.153l.005-.006ZM26.74 56.028c-.046-.026-.066-.096-.066-.198v-.056c0-.02-.01-.046.01-.056.071.02-.096-.101.01-.06.036 0 .026-.036.015-.072-.01-.03.061-.02.02-.07-.106-.092.158.03.021-.077-.02-.04 0-.061.026-.081.106.025.03-.051.03-.087.127.036.091-.015.03-.086.168.061.163.02.036-.091.01-.03.086-.026.04-.097.006-.035 0-.081.041-.096-.081-.092-.06-.117.046-.102-.091-.096-.025-.101.046-.101.08 0-.056-.122.05-.107.026-.03.016-.086.051-.107.066-.01.137-.015.056-.111-.005-.051-.02-.107.06-.112-.096-.102-.02-.112.062-.117 0-.05.106-.04.066-.116.04-.031-.005-.107.066-.117.056-.02.112-.036.066-.117-.05-.081.076-.061.066-.112.132.026.01-.096.066-.111.01-.041.107-.036.066-.107 0-.046 0-.096.066-.102-.147-.132.086-.045.066-.101.091.005.03-.076.066-.097-.01-.05.117-.02.066-.091.035-.025-.015-.096.066-.091-.066-.082.107-.02.066-.087.02-.03.03-.06.06-.081.148.046.057-.046.062-.076.03-.02-.04-.097.06-.071.026-.02.097-.015.062-.066 0-.036.218.06.056-.061-.016-.04.157.03.055-.056-.096-.081.036-.035.056-.05a.462.462 0 0 0 .05-.046c.153-.132.275-.188.341-.148.076.046.081.203.026.437 0 .025.07.096-.02.071-.016.02.045.086-.021.076.107.092 0 .061-.025.081-.01.03-.061.03-.031.087.056.066-.066.03-.03.091-.092-.015-.087.026-.036.092-.086-.016-.02.066-.04.096-.128-.035-.067.04-.041.102.02.055-.056.055-.046.101-.04.02-.01.081-.046.107.03.066.03.106-.05.106.015.056-.03.071-.056.107.025.06-.046.066-.056.112 0 .05-.163 0-.056.111-.005.046-.06.061-.06.112-.036.03-.077.056-.067.117-.142-.03-.091.05-.066.117.015.06-.025.086-.066.116a.227.227 0 0 1-.066.112c.015.061-.096.046-.066.112s-.096.04-.066.106c.015.056.015.102-.066.107-.02.036-.152.005-.066.102 0 .045.122.162-.066.096.026.056-.122.02-.066.091-.142-.04-.04.061-.066.092-.04.015-.101.025-.066.086.04.066-.066.04-.066.081.056.071-.127 0-.06.077-.031.02-.021.06-.062.07.153.122-.03.051-.06.067-.041.01.08.111-.056.06.111.097-.01.056-.056.056-.051 0 .03.077-.056.051.076.071-.071.01-.051.046-.071-.015-.025.035-.05.04.01.03-.006.041-.046.036l-.046.03c-.087.051-.152.072-.203.041l.015-.01Z" fill="#CA534B"/><path d="M26.735 56.033a.283.283 0 0 1 .03-.158c0-.01.01-.015.015-.025 0-.015.01-.03.016-.026.015.072 0-.131.02-.025.01.03.015 0 .02-.025.005-.026.02.045.02-.02 0-.138.031.152.026-.02.005-.041.015-.031.025-.021.02.106.02 0 .03-.02.021.127.026.07.031-.02.026.172.036.146.03-.021.01-.005.031.06.031-.015.01-.01.02-.046.036-.016 0-.116.015-.111.035-.015 0-.127.02-.076.036-.015.02.071.015-.112.04-.015.016.005.026-.03.041-.01.02.05.04.106.04-.01.01-.031.021-.077.041-.01 0-.138.02-.077.046-.01.01-.026.035.07.046-.006.015.02.025-.06.045 0 .02.04.036.076.046 0 .005-.086.03.03.046 0 .025.122.025-.04.046 0 .015-.015.035.071.045 0 .01-.025.026-.05.04 0 0-.193.031.046.041 0 .02.081.026-.015.041.005.01-.035.036.087.04.005.016.016.02-.066.041.01 0-.096.03.077.036.01.01 0 .02-.01.035.01.026.148.026.026.036.016.01.015.015-.086.03.015.01.01.026.076.03.015.006-.025.041.219.031.016.005-.036.03.152.03.015 0-.122.021.015.026.02.01.005.015.015.026.02.07.061.116.133.121.214.01.091-.03.177-.101.254-.01.005-.005.111-.026.02-.01 0-.01.081-.025.02 0 .142-.015.026-.025.02-.01.01-.026-.035-.03.02 0 .082-.026-.035-.031.021-.02-.086-.026-.06-.03.02-.021-.08-.021.02-.036.016-.026-.127-.026-.036-.036.015-.01.046-.025-.015-.035.015-.016-.025-.02.036-.036.015-.01.061-.02.087-.04.016-.01.04-.026.01-.041.01-.01.05-.03 0-.04.01-.01.03-.041-.132-.041.01-.016.02-.03-.02-.046.005-.015-.015-.036-.035-.046.005-.03-.137-.035-.05-.045 0-.01.04-.03.02-.046 0-.015.015-.03.01-.046 0-.01.04-.035-.056-.046 0-.01.061-.035-.06-.045 0-.01.04-.02.066-.04 0-.016 0-.042-.127-.042 0-.01.03-.01.188-.04-.005-.01.05-.036-.091-.04-.005-.026-.142-.026 0-.041-.01-.016-.026-.03-.071-.036-.01-.005.07-.025-.036-.035-.01 0 .08-.03-.107-.036-.016-.01-.015-.02.016-.035-.015.01.193-.02 0-.031-.015-.01-.026-.01.127-.03-.015 0 .147-.016.02-.03-.016-.011-.04-.011.061-.026-.02 0 .102-.02-.056-.026-.02-.015-.066-.015 0-.02-.02 0 .025-.01.015-.02-.02-.005-.006-.01-.016-.02-.021a.287.287 0 0 1-.061-.147l.015.005Z" fill="#CA534B"/><path d="M26.74 56.022a.277.277 0 0 1-.158.02c-.01 0-.02 0-.03-.004-.015 0-.03 0-.03-.005.06-.036-.127.04-.031-.01.025-.02 0-.016-.03-.01-.026 0 .035-.036-.031-.016-.127.05.132-.081-.03-.015-.041.005-.03-.005-.03-.02.09-.051-.006-.02-.031-.02.111-.062.056-.052-.03-.021.151-.081.126-.081-.026-.026-.01-.01.045-.045-.03-.025-.016-.005-.052 0-.026-.025-.112.04-.112.025-.026-.03-.116.04-.08.01-.025-.031.056-.04-.111.02-.025-.03 0-.016-.04-.016-.026-.036.041-.036.087-.071-.025-.036-.036 0-.076 0-.02-.035-.127.045-.081 0-.02-.04-.026 0 .055-.057-.02-.041.014-.02-.067 0-.021-.041.03-.03.06-.061-.02-.04-.082.02.02-.041-.016-.041.107-.066-.05-.01-.015-.041-.015-.01.05-.056-.015-.04-.026 0-.056-.006-.01-.041-.183.066.03-.046-.01-.04.066-.047-.02-.021-.01-.041-.041 0 .07-.061-.006-.041.01-.02-.066 0 0-.04-.091.03.061-.057 0-.041 0-.01-.015-.02 0-.036.132-.071.015-.03 0-.035.01-.016-.086.015 0-.036.005-.015.061-.05 0-.035-.025 0 .188-.107 0-.036-.035.005.132-.081.005-.03-.117.045.005-.02.01-.031 0-.01.006-.02.01-.03a.325.325 0 0 1 .158-.188.345.345 0 0 1 .274.01c.01 0 .107-.03.03.015 0 .01.082-.02.031.015.132-.05.03.005.03.02.01.006-.025.036.031.02.076-.024-.03.037.03.021-.076.046-.05.046.03.026-.07.045.026.015.031.025-.111.066-.025.036.026.025.046-.01-.005.03.025.03-.015.021.04.011.026.031.06-.015.086-.01.025.03.046-.004.02.021.025.036.051-.01.005.03.026.036.03 0-.112.081.02.035.02.005-.01.036.02.041-.01.02-.02.04.02.04-.121.072-.035.051.021.041.04 0 .03.02.02.04.02.011.02.026.015.041.046 0-.04.051.016.041.06-.01-.046.05.015.04.04 0 .071 0 .01.041.005.01-.106.076.01.041.03 0 .178-.056.01.04.051-.01-.076.062.005.041-.126.071 0 .026.006.04-.02.026-.061.057 0 .041.066-.02-.026.036 0 .041.08-.025-.087.066 0 .036-.01.015.02.015 0 .035.177-.07.01.02 0 .036-.02.02.121-.036 0 .035.137-.05.025.01-.006.03-.035.026.061-.01-.01.031.097-.035-.045.036-.01.03-.06.036 0 .016-.01.026.025 0 .02.005-.015.025 0 .01-.01.016-.015.026a.335.335 0 0 1-.117.106h-.005Zm-7.813-7.852c-.026-.047-.01-.118.04-.204l.03-.046c.011-.02.016-.04.037-.045.05.05-.031-.132.04-.051.036.015.036-.02.046-.051.01-.03.06.015.05-.056-.045-.132.122.107.056-.056 0-.045.036-.05.061-.056.076.077.051-.03.066-.06.092.096.092.03.071-.061.117.137.132.096.077-.061.025-.02.091.02.08-.066.026-.026.041-.071.087-.066-.025-.122.005-.132.091-.066-.03-.127.026-.102.092-.066.071.04.01-.132.096-.066.036-.016.056-.066.102-.066.06.025.127.05.107-.066.02-.046.035-.107.106-.066-.03-.137.036-.107.112-.066.025-.04.112.02.112-.066.05 0 .045-.097.116-.066.061.01.117.025.117-.066 0-.097.097-.016.117-.066.101.086.056-.076.112-.061.03-.03.111.02.111-.061.026-.04.046-.081.112-.056-.06-.188.096 0 .107-.056.076.05.06-.05.106-.05.015-.051.112.04.107-.046.04-.005.035-.092.101-.046-.015-.102.102.035.097-.04.03-.016.056-.041.096-.041.107.111.071-.01.092-.036.035 0 .01-.107.086-.03.03 0 .091.04.086-.03.016-.036.158.162.082-.026.005-.046.121.107.076-.02-.04-.122.05-.01.07-.02.026 0 .046-.01.067-.016.198-.04.33-.03.37.04.046.077-.03.219-.197.397-.016.015.015.122-.051.056-.02.01 0 .096-.056.055.046.132-.036.051-.061.056-.02.02-.071 0-.066.061.015.086-.071 0-.071.061-.071-.056-.087-.02-.076.061-.071-.056-.051.05-.082.06-.096-.096-.08 0-.086.067-.01.06-.071.02-.091.066-.046 0-.051.066-.092.066 0 .071-.025.112-.096.066-.015.056-.066.046-.102.066-.01.066-.076.036-.106.066-.02.046-.143-.076-.107.066-.025.035-.086.025-.112.066-.045.005-.091.01-.111.066-.107-.102-.102 0-.117.066-.02.056-.066.06-.117.066a.242.242 0 0 1-.117.066c-.015.056-.106-.01-.111.06-.005.072-.107-.014-.112.062-.015.056-.04.096-.112.056-.035.02-.132-.071-.106.05-.02.046.025.203-.107.051-.01.061-.117-.045-.107.046-.106-.107-.066.03-.101.046-.046-.006-.102-.03-.102.04 0 .076-.076 0-.096.04.01.087-.112-.06-.092.036-.035 0-.045.041-.086.03.071.184-.05.031-.086.031-.04-.01.015.137-.081.026.05.142-.036.045-.077.02-.045-.025-.01.076-.07.02.03.102-.067-.025-.067.016-.05-.046-.035.015-.066.01-.005.03-.025.03-.055.005h-.051c-.102 0-.168-.016-.193-.066l.005.02Z" fill="#CA534B"/><path d="M18.916 48.169a.296.296 0 0 1 .107-.117c.01-.005.015-.01.025-.016.01-.01.02-.02.026-.015-.026.066.066-.111.03-.01-.005.03.01.01.03-.01.016-.02 0 .046.031-.01.066-.122-.05.147.03-.005.026-.03.031-.015.036 0-.036.101.02.01.036 0-.046.122-.01.076.035 0-.066.162-.04.142.036 0 .015 0-.005.066.04 0 .015 0 .04-.03.036 0 .06-.102.07-.092.04 0 .066-.107.056-.056.041.005-.02.07.071-.092.04.01.01.01.036-.015.041.01-.01.05-.02.112.04.01.026-.02.057-.056.042.015.07-.116.055-.055.04.016.026-.016 0 .076.04.015 0 .025.052-.04.041.02 0 .04-.005.087.041.02.05-.07.01.046.04.02-.04.123.046-.025.036.021.02 0 0 .076.036.026.02-.016.045-.03.035.025.092-.168 0 .056.036.025-.02.082.03 0 .03.026.026-.026-.015.091.03.025 0 .02.052-.046.031.026.051-.082-.01.08.026.025.01 0 .025 0 .025.025-.05.142.01.036.025.026 0 .02.056-.066.02.03 0 .015-.015.081.021.03.02-.015-.076.209.015.031.026-.03-.05.147.015.03.061-.106.01.02.016.031 0 .01.01.02.01.03.03.087.035.173 0 .244-.036.081-.117.137-.213.168-.01 0-.061.096-.03.01-.006 0-.052.066-.031.005-.066.122-.026.015-.03 0-.011 0 0-.04-.036 0-.041.071 0-.046-.036 0 .026-.081.005-.066-.035 0 .025-.081-.03.005-.036 0 .046-.122-.005-.046-.04 0-.031.036-.016-.03-.041 0 0-.025-.036.02-.04-.005-.036.05-.062.066-.041-.01-.03.03-.03 0-.041-.01-.036.04-.02-.02-.04-.01-.026.02.03-.138-.041-.016-.02.01-.016-.03-.04-.015-.006-.02-.011-.046-.041-.015.045-.132 0-.061-.041-.02-.03.03-.036 0-.04-.02-.021.004-.031-.006-.041-.021-.03.03 0-.066-.041-.02-.04.045 0-.072-.036-.026-.03.03-.05.046-.035-.025-.01-.005.03-.127-.036-.026-.025.02-.101.158-.03-.025-.03.04.015-.096-.03-.026.05-.136-.02-.015-.031-.025 0-.03.01-.081-.025-.025-.041.056-.005-.046-.026-.03-.046.07.026-.107-.025-.031 0-.02-.026 0-.02-.03-.092.167-.02-.01-.02-.031 0-.03-.072.106-.021-.03-.071.126-.026.01-.015-.031.01-.04-.041.05-.016-.03-.05.09.01-.056-.01-.03.02-.067-.01-.011-.01-.031-.015.02-.02.01-.005-.03v-.031a.322.322 0 0 1 .02-.158l-.005.016Z" fill="#CA534B"/><path d="M18.927 48.163a.255.255 0 0 1-.147-.06c-.006-.006-.016-.01-.02-.02-.016-.006-.031-.016-.021-.021.071 0-.132-.026-.02-.02.03 0 0-.016-.02-.026-.026-.01.045-.01-.021-.025-.137-.02.152 0-.015-.03-.036-.01-.026-.02-.015-.031.106 0 0-.02-.016-.03.127 0 .071-.016-.015-.036.178 0 .147-.01-.01-.036 0-.01.066-.015-.01-.035-.01-.01-.04-.026-.01-.036-.117-.02-.107-.035-.01-.04-.122-.026-.072-.03-.006-.04.071-.006-.106-.036-.005-.042.01-.015-.025-.03 0-.04.051-.01.112-.02 0-.04-.03-.016-.07-.036 0-.047-.132-.025-.07-.035 0-.045-.02-.015.076-.026 0-.046.02-.015-.055-.035 0-.046.04-.01.082-.025 0-.045-.086-.026.04-.026.005-.046.127 0-.035-.03.01-.046-.01-.015.077-.02.01-.045-.02-.016-.045-.03.01-.041-.192-.03.052-.025.011-.04.081-.006-.01-.031.015-.041-.035-.015.092-.02.015-.036.016-.01-.06-.03.016-.035-.097-.02.08-.016.015-.036 0-.01 0-.025.02-.035.153 0 .026-.02.02-.03.02-.011-.08-.031.02-.031.011-.01.082-.015.021-.026-.02-.01.218 0 .02-.025-.035-.01.153 0 .02-.026-.121-.02.016-.015.021-.025.01-.005.015-.015.025-.02a.298.298 0 0 1 .229-.081.34.34 0 0 1 .233.147c.006.01.112.025.02.025 0 .01.077.026.016.03.137.021.025.021.015.031.005.01-.04.015.015.03.082.016-.04.016.016.031-.087 0-.066.015.01.036-.081 0 .015.025.01.035-.127 0-.04.02.01.036.046.015-.02.025.01.04-.025.01.03.03.006.041.06.02.08.035.005.04.04.016.005.031 0 .041.05.02-.01.026 0 .04.025.016-.138.016 0 .046.015.016-.026.026 0 .046-.02.015-.041.026 0 .046-.143 0-.056.025 0 .046.04.02.015.03 0 .045.01.015 0 .03-.005.046.04.02-.061.025-.01.046.055.02-.067.025-.01.04.04.02.06.036-.011.04 0 .016-.127.016-.01.041.025.016.183.046-.015.041.045.02-.097.02-.016.036-.142 0-.01.025-.015.035-.03.01-.076.016-.015.036.066.02-.04.02-.02.03.08.02-.107.016-.02.03-.021.01.01.021-.021.031.193.026 0 .02-.02.03-.026.006.127.031-.02.026.142.02.02.02-.02.025-.047 0 .06.02-.021.02.101.016-.056.01-.026.021-.066 0 0 .015-.025.02.02.01.015.015-.025.015l-.026.016a.34.34 0 0 1-.157.035v.01Zm-2.843-10.706c0-.056.05-.107.137-.153.015-.01.03-.015.046-.025.015-.015.035-.03.056-.025.02.07.04-.132.06-.02.02.03.046 0 .067-.02.025-.026.045.045.07-.021.026-.137.051.152.077-.02.025-.036.056-.026.081-.02.03.106.056 0 .086-.021.03.127.061.07.092-.015.03.172.066.147.096-.016.036-.005.066.061.102-.015.035-.01.07-.045.106-.015.036-.117.071-.112.112-.01.036-.127.076-.076.112-.01.04.07.076-.112.116-.01.041.01.082-.031.122-.01.041.05.082.106.122-.006.04-.03.087-.07.127 0 .04-.132.087-.076.127 0 .046-.02.086.071.132 0 .046.02.091-.06.132 0 .046.04.091.081.132 0 .046-.086.086.036.132 0 .046.127.086-.04.127 0 .04-.01.086.071.127 0 .04-.02.081-.045.122.005.04-.193.081.051.122.01.04.082.08-.01.116.01.041-.035.077.087.117.01.036.016.076-.06.112.01.035-.096.071.082.107.016.035 0 .07-.005.101.015.03.153.066.026.097.016.03.015.06-.087.091.015.03.01.06.076.086.02.03-.02.056.218.082.02.025-.035.05.153.076.02.025-.121.05.016.07.021.026.005.046.015.067.02.193.066.3.143.3.224 0 .091-.138.172-.366.243-.02.006-.046.112-.071.02-.026 0-.051.082-.076.021-.026.137-.056.026-.082.02-.03.005-.056-.04-.086.02-.03.082-.061-.04-.091.016-.03-.086-.066-.061-.097.015-.035-.081-.066.02-.101.015-.036-.127-.072-.035-.107.016-.036.045-.071-.02-.112.01-.035-.026-.076.03-.117.01-.04.06-.076.081-.116.01-.04.04-.082.01-.122.01-.04.051-.081-.005-.122.005-.04.026-.086-.137-.127.005-.04.02-.086-.02-.127 0-.046-.02-.086-.035-.132 0-.046-.142-.086-.055-.132 0-.046.041-.091.02-.132 0-.046.016-.086.005-.132 0-.04.041-.086-.06-.127 0-.04.061-.086-.066-.127-.005-.04.041-.081.061-.122-.005-.04 0-.08-.127-.122-.01-.04.026-.08.188-.116-.01-.04.05-.076-.096-.112-.01-.035-.142-.076-.005-.112-.01-.035-.026-.07-.077-.106-.016-.036.066-.071-.035-.102-.015-.03.081-.066-.106-.096-.015-.03-.02-.061.01-.092-.015-.03.193-.06 0-.086-.02-.03-.026-.056.126-.081-.02-.026.146-.051.02-.076-.021-.026-.04-.051.06-.072-.02-.025.101-.045-.056-.066-.02-.02-.067-.04 0-.06-.021-.02.025-.036.015-.056-.025a.132.132 0 0 1-.046-.026c-.086-.046-.137-.101-.137-.152Z" fill="#CA534B"/><path d="M16.074 37.452a.32.32 0 0 1 .152-.051h.03c.016 0 .031-.005.031 0-.056.045.117-.066.03 0-.02.025.006.015.031.005.025-.01-.025.04.03.01.117-.071-.116.102.031.01.036-.015.03 0 .03.01-.08.072.01.016.03.016-.096.08-.045.056.031.015-.137.111-.106.101.03.02.011.005-.035.056.031.02.015 0 .051-.005.03.02.102-.055.107-.045.031.026.112-.06.076-.02.03.026-.05.05.107-.041.031.025 0 .015.04.005.03.03-.035.041-.07.087.031.03.036-.004.076-.02.03.031.117-.066.077-.02.031.036.025 0-.04.066.025.035-.01.026.066-.01.026.036-.026.035-.046.071.025.035.081-.035-.01.046.026.041-.097.086.05 0 .02.04.02 0-.04.067.02.041.026 0 .056 0 .02.041.168-.102-.025.05.016.04-.061.056.025.016.015.036.035-.01-.056.071.015.04-.005.021.066-.014.01.036.087-.045-.05.066.01.036.005.01.02.015.01.035-.116.097-.01.03.006.036-.005.02.08-.03 0 .035 0 .016-.051.061 0 .036.025 0-.168.142 0 .035.035-.015-.117.102 0 .031.106-.066 0 .02 0 .03v.03a.324.324 0 0 1-.122.214.33.33 0 0 1-.27.036c-.01 0-.1.05-.03-.01 0-.005-.076.03-.03-.01-.117.07-.03 0-.03-.01-.01 0 .02-.041-.031-.016-.071.04.02-.04-.03-.015.065-.056.04-.056-.031-.02.06-.056-.025-.01-.03-.02.096-.082.015-.041-.031-.021-.046.015 0-.03-.03-.026.015-.025-.041 0-.03-.025-.057.025-.082.025-.031-.025-.041.015-.02-.02-.03-.03-.052.02-.011-.026-.031-.031-.03 0 .096-.102-.03-.03-.021 0 0-.036-.031-.036.005-.02.015-.046-.026-.036.107-.091.026-.056-.025-.035-.04.01-.035-.016-.025-.036-.02 0-.02-.02-.026-.035-.04.01.03-.061-.02-.041-.056.02.035-.061-.02-.04-.041.01-.066.01-.02-.041-.01-.01.086-.097-.016-.04-.03 0-.168.085-.015-.036-.046.015.06-.077-.015-.041.111-.091-.01-.025-.01-.036.015-.025.045-.066-.01-.035-.062.03.015-.04-.01-.036-.072.041.075-.08-.006-.035.01-.02-.025-.01 0-.036-.162.102-.01-.015 0-.035.015-.026-.117.056 0-.036-.122.076-.025 0 0-.03.03-.03-.06.02 0-.03-.086.05.036-.047 0-.031.05-.046 0-.015.005-.03-.02.01-.02 0 .01-.026 0-.01.005-.02.01-.026a.303.303 0 0 1 .097-.126h-.005Z" fill="#CA534B"/><path d="M16.088 37.452a.267.267 0 0 1-.096-.127c0-.01-.005-.015-.01-.025-.01-.01-.015-.025-.01-.03.06.035-.102-.087-.005-.031.03.01.01-.01 0-.03-.016-.02.045.01 0-.031-.107-.086.137.076 0-.03-.026-.03-.01-.03 0-.036.091.05.01-.015 0-.035.111.066.07.025 0-.036.147.091.132.066.005-.036 0-.01.066.016.01-.035 0-.015-.02-.046.01-.036-.086-.076-.076-.086.01-.04-.096-.081-.045-.066.015-.036.066.03-.076-.086.016-.04.015-.006-.01-.041.015-.041.05.02.107.04.02-.04-.015-.031-.046-.067.02-.036-.101-.092-.045-.066.02-.04-.01-.026.077.014.026-.036.026 0-.03-.061.026-.036.04.01.08.02.025-.035-.061-.061.046 0 .03-.036.112.06-.015-.046.03-.036 0-.02.077.02.031-.03-.01-.025-.02-.05.03-.03-.146-.122.057.005.031-.031.076.036.005-.03.03-.025-.02-.03.087.03.031-.026.02 0-.035-.056.03-.025-.07-.066.082.025.031-.02.005-.01.01-.02.03-.02.133.075.036 0 .031-.021.02 0-.056-.066.03-.015.016 0 .077.03.031-.015-.015-.02.188.111.03-.01-.025-.031.137.075.03-.01-.096-.077.021 0 .031-.011.01 0 .02 0 .03-.005a.316.316 0 0 1 .24.046c.076.05.116.137.126.243 0 .01.082.077 0 .03 0 .006.056.062 0 .031.107.087.01.03 0 .036 0 .01-.04-.005 0 .035.061.056-.045-.005-.005.036-.076-.04-.066-.02-.005.035-.076-.04 0 .03-.01.036-.112-.066-.046 0-.01.035.03.036-.03.01-.01.036-.03 0 .01.04-.015.036.04.045.05.07-.016.04.026.036-.01.026-.015.036.036.04-.02.02-.02.04.015.026-.127-.056-.02.041.005.02-.036.01-.02.036-.026 0-.047 0-.026.04-.122-.066-.061-.005-.026.036.026.035 0 .035-.025.035 0 .02-.01.03-.03.036.025.035-.067-.01-.03.035.04.046-.072-.01-.031.03.025.036.035.062-.03.031-.011.01-.123-.05-.031.03.015.026.137.128-.03.026.03.04-.092-.03-.031.026-.122-.072-.02.015-.03.025-.031-.005-.077-.026-.031.02.05.05-.046 0-.03.02.06.056-.102-.04-.031.02-.02 0 0 .026-.03.016.152.122-.016.015-.031.015-.03-.01.091.092-.03.01.111.092.005.026-.031.01-.04-.015.04.051-.03.01.08.067-.056-.02-.03.006-.062-.03-.011.01-.031 0 .015.02.005.02-.03 0h-.031a.273.273 0 0 1-.153-.051l.006.01Zm2.884-10.702c.026-.046.097-.066.198-.066h.051c.02 0 .046-.01.061.005-.02.071.102-.096.061.01 0 .036.036.026.066.015.03-.01.02.061.071.02.091-.106-.035.158.076.021.04-.02.061 0 .081.025-.025.107.051.03.087.03-.036.128.015.092.091.031-.06.168-.02.163.092.036.03.01.025.086.096.04.036.006.081 0 .097.041.09-.081.121-.06.101.046.097-.092.102-.026.107.045 0 .082.122-.055.106.051.03.026.082.015.107.051.01.066.015.137.112.056.05-.005.106-.02.111.06.107-.096.112-.02.117.062.05 0 .04.106.117.066.025.04.106-.005.117.066.02.056.035.112.117.066.08-.051.055.076.111.066-.025.132.097.01.112.066.04.01.035.106.107.066.045 0 .096 0 .106.066.132-.148.046.081.102.066-.005.091.076.03.096.066.05-.01.02.117.091.066.026.03.097-.015.092.066.081-.066.02.106.086.066.03.02.061.03.082.06-.046.148.045.057.076.062.02.03.096-.041.07.06.021.026.01.097.067.061.035 0-.061.219.06.056.041-.02-.03.158.056.056.082-.096.036.036.051.056.015.02.03.036.046.05.132.153.188.275.147.341-.046.076-.203.081-.436.025-.026-.005-.097.077-.072-.02-.02-.015-.086.046-.076-.02-.091.106-.06 0-.08-.026-.031-.01-.031-.06-.087-.03-.066.056-.036-.066-.092-.03.016-.092-.025-.087-.091-.036.015-.091-.066-.02-.096-.04.035-.128-.041-.067-.097-.041-.056.02-.056-.051-.102-.046-.02-.04-.08-.01-.101-.046-.066.03-.112.03-.107-.05-.055.015-.07-.03-.106-.056-.061.025-.066-.046-.112-.056-.05 0 0-.163-.112-.061-.045-.005-.06-.061-.111-.061-.03-.036-.056-.076-.117-.061.03-.142-.05-.091-.117-.066-.06.01-.086-.025-.117-.066a.263.263 0 0 1-.111-.066c-.056.015-.046-.096-.112-.066s-.04-.096-.107-.066c-.056.015-.101.01-.101-.066-.036-.02-.005-.152-.102-.066-.046 0-.162.122-.096-.066-.056.02-.02-.122-.092-.066.04-.142-.06-.046-.091-.066-.015-.04-.026-.102-.086-.066-.066.04-.041-.066-.082-.066-.07.056 0-.127-.076-.06-.02-.031-.06-.021-.07-.062-.123.152-.052-.03-.067-.06-.01-.041-.112.08-.06-.057-.097.112-.057-.01-.057-.055 0-.051-.07.03-.05-.056-.072.076-.01-.071-.046-.051.015-.071-.036-.026-.04-.05-.031.01-.041-.006-.036-.047l-.03-.045c-.052-.087-.072-.153-.041-.203l-.016.02Z" fill="#CA534B"/><path d="M18.972 26.745c.056 0 .107.005.158.03.01 0 .015.01.025.016.015 0 .03.01.025.015-.07.015.133 0 .026.02-.03.01 0 .016.025.02.026.006-.04.021.026.021.137 0-.153.03.02.025.04.005.03.016.02.026-.101.02 0 .02.02.03-.126.02-.07.026.02.03-.172.026-.146.036.021.031.005.01-.06.03.015.036.016.01.046.02.016.035.116 0 .111.016.015.036.127 0 .076.02.015.035-.071.02.112.015.015.04-.005.016.03.026.01.042-.05.02-.106.035.01.04.031.01.077.02.01.04.133 0 .077.021.011.047.025.015-.071.035.005.045-.02.015.061.025 0 .046-.04.02-.076.035 0 .046.086.005-.03.03 0 .045-.122.026.046.026 0 .046.015.015-.071.035 0 .046.025.01.05.025 0 .04.193 0-.046.03 0 .04-.081.021.015.026-.005.042.035.01-.086.035-.005.04-.015.015.066.02-.01.04.096 0-.076.031-.01.036 0 .01.01.02-.01.036-.148.025-.026.025-.01.035-.016.01.086.016-.016.036-.01.01-.076.025-.015.03.025.01-.213.041-.015.03.035.006-.153.031-.016.031.122 0-.015.02-.02.026a.088.088 0 0 1-.02.025c-.061.071-.132.117-.213.122-.092.01-.178-.03-.254-.102-.01-.005-.112-.005-.02-.025 0-.01-.082-.01-.021-.025-.137 0-.025-.016-.02-.026-.01-.01.035-.02-.02-.025-.082 0 .04-.026-.02-.03.085-.021.06-.026-.021-.031.081-.02-.02-.02-.015-.036.127-.025.035-.025-.016-.035-.045-.01.016-.026-.015-.036.025-.015-.036-.02-.015-.035-.061-.01-.087-.02-.015-.04-.041-.011-.01-.026-.01-.041-.051-.01 0-.031-.01-.041-.031-.01.131-.04-.01-.04-.021-.016.02-.031-.011-.046.015-.016.035-.03-.005-.046.137-.025.05-.036 0-.046-.04-.01-.02-.03 0-.046-.015-.015-.01-.03 0-.045-.04-.01.056-.036 0-.046-.061-.01.06-.035 0-.046-.04-.01-.066-.02 0-.04 0-.015.127-.04 0-.04-.026-.011-.188-.011.005-.041-.05-.01.091-.036.01-.041.142-.026 0-.026.01-.04.026-.016.071-.031.01-.036-.07-.005.036-.026.01-.036-.08 0 .107-.03.01-.035.016-.01-.015-.02.016-.03-.193.004 0-.021.015-.031.026-.01-.127-.01.015-.03-.147 0-.02-.016.016-.031.04-.01-.061-.01.02-.026-.102 0 .056-.02.02-.025.066-.015 0-.015.02-.02-.025 0-.015-.01.02-.02l.021-.02a.287.287 0 0 1 .148-.062l-.01-.005Z" fill="#CA534B"/><path d="M18.983 26.75a.278.278 0 0 1-.02-.157v-.03c0-.016 0-.031.005-.031.035.06-.04-.127.01-.03.02.025.015 0 .01-.031 0-.026.036.035.015-.03-.05-.127.082.132.016-.031-.005-.036.005-.03.015-.03.056.09.02-.01.02-.03.061.11.05.055.02-.031.082.152.082.127.026-.03.01-.011.045.045.025-.026.005-.016 0-.051.026-.026-.036-.111-.026-.111.03-.025-.04-.117-.01-.081.03-.025.041.055-.02-.112.031-.026.015 0 .015-.035.035-.025.036.04.072.086.036-.026 0-.035 0-.076.036-.025-.041-.127 0-.081.04-.02 0-.026.056.05.04-.02.021.015 0-.067.041-.02.03.03.061.06.041-.021-.02-.087.04.02.04-.015.067.106.01-.051.041-.016.01-.015.056.056.04-.015 0-.025.006-.056.041-.01-.065-.183.046.035.041-.01.046.066.02-.02.04-.01 0-.036.062.07.041-.005.02.01 0-.066.041 0-.03-.092.056.06.04 0 .01 0 .02-.016.036 0 .071.132.03.015.036 0 .015.01-.015-.087.035 0 .015.005.051.06.036 0 0-.026.106.187.035.005-.005-.036.082.132.03.005-.045-.117.021.005.031.01.01 0 .02.005.03.01a.3.3 0 0 1 .183.157.345.345 0 0 1-.01.275c0 .01.03.106-.015.03-.01 0 .02.081-.015.03.05.133-.005.031-.02.031-.006.01-.036-.025-.02.03.025.077-.036-.025-.021.03-.046-.07-.046-.045-.025.031-.046-.07-.016.026-.026.03-.066-.11-.035-.024-.025.026.01.046-.03-.005-.03.026-.021-.016-.01.04-.031.025.015.06.01.086-.03.025.005.041-.02.02-.036.026.01.05-.03.005-.036.025 0 .03-.08-.111-.035.026-.005.02-.036-.01-.04.02-.021-.01-.041-.02-.041.02-.072-.122-.051-.035-.041.02 0 .041-.02.03-.04.02-.01.021-.026.021-.041.016 0 .046-.051-.04-.04.015.01.061-.052-.046-.041.015 0 .041 0 .072-.041.01-.01.006-.081-.106-.04.01 0 .031.055.178-.041.01.01.052-.061-.075-.041.006-.071-.122-.025 0-.04 0-.02-.02-.056-.06-.041 0 .02.066-.036-.025-.036 0 .026.081-.066-.086-.035 0-.016-.01-.016.02-.036 0 .071.178-.02.005-.035 0-.02-.02.035.122-.036 0 .05.137-.01.025-.03-.005-.026-.036.01.06-.03-.01.035.096-.036-.046-.031-.01-.036-.061-.016 0-.03-.01 0 .025-.006.02-.026-.016-.01 0-.015-.01-.026-.015a.335.335 0 0 1-.106-.117l.015-.005Zm7.838-7.818c.046-.026.117-.01.203.04l.046.03c.02.011.04.016.046.036-.051.051.132-.03.05.041-.015.035.02.04.051.046.03.01-.015.06.056.05.132-.045-.107.122.056.056.046 0 .05.036.056.061-.076.076.025.051.06.066-.096.092-.03.092.062.071-.137.117-.097.132.06.077.02.025-.02.09.067.08.025.026.07.041.066.087.116-.025.132.005.066.091.127-.03.101.03.066.092-.041.07.132.015.066.096.015.036.066.056.066.102-.026.06-.051.127.066.101.045.02.106.036.066.107.137-.03.106.035.066.112.04.025-.02.111.066.111 0 .051.096.046.066.117-.016.061-.026.117.066.117.096 0 .015.096.066.117-.087.101.076.056.06.111.031.03-.02.112.056.112.041.025.082.05.056.112.188-.061 0 .096.056.106-.05.077.05.061.05.107.052.015-.04.112.047.107 0 .04.091.035.045.101.102-.015-.035.102.04.102.016.03.042.056.042.096-.112.107.01.071.035.092 0 .035.107.01.03.091 0 .03-.035.091.031.086.036.015-.163.158.025.081.046.006-.106.122.02.077.123-.04.01.05.021.07 0 .026.01.047.015.072.04.198.026.33-.04.37-.076.046-.219-.03-.391-.197-.02-.016-.122.015-.056-.051-.01-.02-.097 0-.056-.056-.132.046-.05-.036-.056-.061-.02-.02 0-.071-.06-.066-.087.015 0-.071-.062-.071.061-.071.026-.087-.06-.076.055-.071-.051-.051-.067-.081.097-.097 0-.082-.066-.087-.06-.01-.02-.07-.066-.091 0-.046-.066-.051-.066-.092-.07 0-.111-.025-.066-.096-.056-.015-.045-.066-.066-.102-.066-.01-.035-.076-.066-.101-.045-.026.076-.142-.066-.107-.035-.03-.025-.086-.066-.111-.005-.046-.01-.097-.066-.112.102-.107 0-.107-.066-.117-.056-.02-.06-.066-.066-.117a.242.242 0 0 1-.066-.117c-.055-.015.01-.106-.06-.111-.072-.005.015-.107-.056-.112-.056-.015-.097-.04-.056-.112-.02-.035.07-.132-.051-.106-.046-.02-.198.025-.05-.107-.062-.01.04-.112-.047-.106.107-.102-.03-.067-.045-.102.005-.046.03-.102-.04-.102-.077 0 0-.076-.042-.096-.086.01.061-.112-.035-.091 0-.036-.04-.046-.03-.092-.183.071-.031-.05-.031-.086.01-.04-.137.015-.025-.081-.137.05-.046-.036-.02-.076.025-.041-.077-.01-.021-.072-.102.03.025-.066-.015-.07.046-.051-.02-.036-.01-.062-.03 0-.03-.025-.01-.056v-.05c0-.102.015-.168.066-.198h-.016Z" fill="#CA534B"/><path d="M26.821 18.927c.05.02.091.06.122.107 0 .01.01.015.015.025.01.01.02.02.01.025-.066-.025.112.066.01.03-.03-.004-.01.01.01.031.021.015-.045 0 .01.03.123.067-.146-.05.006.031.03.026.015.03 0 .036-.102-.036-.01.015 0 .035-.122-.046-.076-.01 0 .036-.163-.066-.142-.04 0 .035 0 .01-.066-.005 0 .036.005.015.03.04 0 .04.101.061.091.072-.005.041.106.066.056.056-.005.04-.071-.015.091.072-.01.041-.01.01.015.036-.01.04-.051-.01-.112-.02-.01.042.02.025.055.055-.016.04.117.071.056.056-.015.04.015.021-.076 0-.015.041-.026 0 .04.051-.02.041-.041 0-.087 0-.021.04.071.051-.046.01-.02.041-.122-.04.025.046-.02.04 0 .021-.077 0-.02.036.014.02.03.046-.026.036.167.091-.056 0-.026.035-.081-.02 0 .03-.025.03.025.026-.091-.014-.025.031-.02 0 .045.051-.026.03.081.052-.086-.01-.025.026-.005.01 0 .026-.026.026-.142-.051-.035.01-.03.025-.02 0 .066.056-.03.02-.016 0-.082-.015-.031.02.015.021-.208-.075-.03.02.03.026-.148-.045-.031.016.107.061-.02.01-.03.015-.01 0-.02.01-.03.01-.087.031-.173.036-.245 0-.08-.035-.137-.116-.167-.213 0-.01-.097-.06-.01-.03 0-.005-.066-.05-.005-.03-.122-.067-.016-.031 0-.036 0-.01.04 0 0-.036-.072-.04.045 0 0-.035.08.025.066.005 0-.036.08.026-.005-.03 0-.035.122.04.045-.005 0-.04-.036-.031.03-.016 0-.041.03 0-.02-.036.005-.041-.051-.036-.066-.061.01-.04-.03-.031 0-.031.01-.041-.04-.036.02-.026.01-.041-.02-.025.137.03.015-.04-.01-.02.03-.016.016-.041.02-.005.045-.01.015-.04.132.045.06 0 .02-.041-.03-.03 0-.036.02-.041-.005-.02.006-.03.02-.04-.03-.031.067 0 .021-.036-.046-.04.071 0 .025-.036-.03-.03-.045-.05.026-.035.005-.01.127.03.025-.036-.02-.025-.157-.101.026-.03-.041-.03.096.015.025-.03.137.045.015-.021.025-.031.03 0 .082.01.026-.026-.056-.04.046-.005.03-.025-.07-.046.107.025.03-.025.021 0 0-.026.031-.02-.167-.092.01-.021.03-.021.031 0-.106-.071.031-.02-.127-.071-.01-.026.03-.016.041.01-.05-.04.031-.015-.091-.05.056.01.03-.01.066.02.01-.01.031-.01-.02-.015-.01-.02.03-.005h.03a.322.322 0 0 1 .158.02l-.01-.015Z" fill="#CA534B"/><path d="M26.826 18.932c0-.056.025-.102.06-.147.006-.005.011-.016.021-.02.005-.016.015-.031.02-.021 0 .071.026-.132.02-.02 0 .03.016 0 .026-.02.01-.026.01.045.026-.02.02-.138 0 .151.03-.016.01-.036.02-.026.03-.015 0 .106.02 0 .03-.016 0 .127.016.077.031-.015 0 .173.01.147.036-.015.01 0 .015.066.035-.01.016-.01.026-.04.036-.01.02-.117.035-.107.035-.01.026-.122.031-.072.041-.006.005.071.036-.106.04-.005.016.01.031-.025.041 0 .01.051.02.112.041 0 .015-.03.035-.07.04 0 .026-.132.036-.07.046 0 .015-.02.026.076.046 0 .015.02.036-.055.046 0 .01.04.025.082.045 0 .026-.08.026.04.046.005 0 .127.036-.04.046.01.015-.01.02.077.04.01.016-.02.03-.045.041.01.03-.192.025.052.04.011.006.081.031-.01.041.015.015-.035.02.092.04.015.011.016.031-.06.036.016.02-.097.016.081.036.015.01 0 .025 0 .035.015 0 .152.02.026.03.02.011.016.031-.08.031.02.01.016.016.082.03.021.011-.02 0 .218.026.02.01-.035 0 .158.026.02.02-.121.015.016.02.021.005.01.015.015.02.025.061.072.092.148.082.229a.32.32 0 0 1-.148.228c-.01.005-.025.112-.025.02-.01 0-.025.077-.03.016-.02.137-.02.025-.031.015-.01.005-.015-.04-.03.015-.02.082-.016-.04-.036.016 0-.087-.015-.066-.036.015 0-.087-.025.015-.035.01 0-.127-.02-.04-.036.01-.015.046-.025-.02-.04.01-.01-.025-.03.03-.04.005-.021.061-.037.082-.042.006-.015.04-.025.005-.04 0-.02.05-.026-.01-.04 0-.016.025-.016-.138-.046 0-.016.015-.026-.026-.046 0-.015-.02-.026-.041-.046 0 0-.143-.025-.056-.046 0-.02.04-.03.015-.045 0-.015.01-.03 0-.046-.006-.02.041-.025-.06-.046-.005-.02.056-.02-.066-.04-.01-.02.04-.036.061-.04-.01-.016 0-.016-.132-.041-.01-.016.025-.046.183-.041-.015-.015.045-.015-.097-.036-.016 0-.142-.025-.01-.035-.015-.01-.03-.015-.076-.036-.015-.02.066-.02-.04-.035-.015-.02.08-.01-.107-.03-.02-.01-.02-.021.01-.031-.02-.03.192-.02 0-.03-.021-.006-.03-.031.127-.026-.02-.02.142-.02.02-.025-.02 0-.047-.02.06-.02-.021-.016.101-.01-.056-.021-.026 0-.066-.015 0-.02-.025-.01.02-.016.015-.016-.025l-.015-.026a.283.283 0 0 1-.03-.157h.01Z" fill="#CA534B"/></svg>