<svg width="76" height="75" fill="none" xmlns="http://www.w3.org/2000/svg"><path d="M38.621 75c20.311 0 36.776-16.486 36.776-36.823S58.932 1.354 38.621 1.354c-20.31 0-36.775 16.486-36.775 36.823S18.311 75 38.621 75Z" fill="#215EAB" opacity=".73"/><path d="M37.04 73.646c20.31 0 36.776-16.486 36.776-36.823S57.35 0 37.04 0C16.73 0 .265 16.486.265 36.823S16.73 73.646 37.04 73.646Z" fill="#fff"/><path d="M19.242 16.134c.028 0 .062.377.09 1.09.03.718.058 1.773.086 3.147.006.456.018.946.029 1.47.017.525.034 1.084.023 1.671-.08.587.148 1.215.023 1.865-.035.655 0 1.334.022 2.052.029.713-.051 1.46.023 2.23.154.77-.171 1.573.023 2.4.04.827.028 1.682.023 2.565-.12.884 0 1.79.017 2.726-.143.935-.08 1.893.017 2.873-.194.981-.165 1.99.017 3.016.006 1.027-.068 2.082.017 3.153.011 1.072.051 2.167.017 3.284.063.542.091 1.084.097 1.631 0 .274 0 .547-.017.827l-.011.205v.051s0 .006-.006.012v.017s-.029.057-.04.103l.017.01c.052-.016.08-.033.108-.045h.092l.108-.011.217-.011c.29-.012.581-.018.878-.018.587.006 1.18.04 1.773.075 1.191.08 2.4-.126 3.626-.012 1.226.006 2.469-.034 3.729-.011 1.26.057 2.531.12 3.82-.006 1.288-.034 2.594-.08 3.905-.006 1.317-.148 2.646-.085 3.986 0 1.34-.023 2.697.08 4.06 0 .444.006.889 0 1.333 0 .223 0 .445-.005.667-.011h.126l.034-.006v-.217c0-.245.012-.484.023-.73.046-1.385.091-2.759 0-4.127a22.153 22.153 0 0 1-.023-2.041c.006-.337.017-.667.023-1.004a.69.69 0 0 0 0-.154l.011-.034s-.085.012-.148.057l-.114.086-.194.148-.382.296-.382.303-.188.148-.097.074-.154.114c-.479.36-.969.724-1.437 1.049-.114.085-.228.165-.342.25.063-.57.126-1.14.194-1.704.029-.25.063-.502.091-.753.017-.153.04-.302.057-.456.075-.61.143-1.214.172-1.818l.136-1.517c.029-.25.052-.502.08-.753l.103-.85.154-.256.102-.165.211-.33c.44-1.198 1.3-2.139 1.87-3.222.069-.097.132-.2.194-.297l.097-.148.012-.017v-.017l.022-.017v-.622c0-.245-.011-.49-.011-.73-.011-.484-.023-.969-.011-1.448-.04-1.191.096-2.366.011-3.517.017-1.152-.068-2.292.011-3.404-.017-.166-.022-.337-.028-.502v-.314l-.017-.022-.012-.012-.011-.017-.023-.028-.194-.211c-.13-.143-.256-.285-.387-.422a9.655 9.655 0 0 0-.804-.799c-.759-.758-1.505-1.499-2.218-2.24-.61-.85-1.42-1.46-2.121-2.144-.251-.262-.513-.507-.776-.753-.13-.12-.256-.245-.387-.364l-.188-.183-.04-.04-.029-.028h-.205c-.12-.012-.245-.023-.365-.04-.935-.012-1.842-.086-2.725-.023-.884.023-1.74-.245-2.566-.023-.827.04-1.63-.17-2.4-.023-.77.137-1.517-.017-2.23-.022a220.21 220.21 0 0 0-2.052-.023 428.702 428.702 0 0 1-6.825-.12c-.787-.023-1.391-.04-1.802-.063-.404-.023-.615-.045-.615-.068 0-.023.262-.051.764-.074a110.16 110.16 0 0 1 2.212-.069 653.87 653.87 0 0 1 8.324-.125c.713-.006 1.46-.125 2.23-.023.769 0 1.573-.091 2.4-.023.826-.154 1.682-.028 2.565-.023.884-.005 1.79.046 2.726-.022.12-.012.24-.017.365-.023h.53l.302.302.183.188c.12.131.245.257.364.388.245.262.496.519.77.758.627.764 1.351 1.454 2.144 2.121.661.793 1.482 1.46 2.24 2.218.229.302.485.582.747.855.132.137.268.268.411.4.177.165.36.33.536.501 0 .137.011.268.011.405l.012.25c.011.166.017.337.028.503.051 1.117-.023 2.252.012 3.403-.029 1.152.04 2.327.011 3.518.029.48.046.964.057 1.448 0 .246.006.485 0 .73v.365c0 .165-.006.337-.011.502l-.16.268-.097.148c-.068.097-.131.2-.194.297-.57 1.083-1.226 2.143-1.853 3.232l-.182.348-.097.171-.023.046-.011.023v.091l-.023.188-.04.376c-.029.251-.057.502-.091.753-.063.502-.12 1.009-.171 1.516-.052.605-.149 1.21-.24 1.813l-.063.457-.01.108v.029s-.012.04-.012.056c-.006.075 0 .149.028.137.017-.023.04-.045.051-.068a1.02 1.02 0 0 1 .103-.08c.24-.177.485-.348.724-.524.297-.211.587-.428.884-.639.49-.36.98-.718 1.477-1.089v.171c-.006.97-.017 1.939-.023 2.92 0 .678 0 1.356.023 2.04-.16 1.363-.063 2.743 0 4.128l.017.73v.553c.005.234.005.468.005.701H48c-.222 0-.445 0-.667-.005-.445-.006-.89-.012-1.334-.023-1.363.017-2.72.006-4.06 0-1.34.045-2.668-.069-3.985 0-1.317.068-2.617-.074-3.906-.006-1.288.046-2.565.069-3.82-.006-1.26 0-2.503-.142-3.728-.01-1.226.028-2.435.21-3.627-.012-.598.028-1.185 0-1.773-.023-.29-.011-.587-.023-.878-.023h-.45c-.251 0-.508.012-.776.023-.062 0-.125-.011-.188-.017.017-.262.029-.508.04-.747l.017-.519c.006-.28 0-.553-.005-.827-.017-.547-.052-1.094-.052-1.63.035-1.118.086-2.207.017-3.284-.074-1.072.04-2.127.018-3.153-.092-1.027.12-2.036.017-3.016.022-.981-.012-1.939.017-2.874-.217-.935 0-1.842.023-2.725.028-.884-.143-1.74.022-2.566-.165-.827-.023-1.63.023-2.4s-.068-1.517.023-2.23c-.114-.712.063-1.396.023-2.052.074-.656 0-1.277.023-1.865a13.403 13.403 0 0 1 .022-1.67c.012-.525.017-1.015.029-1.471.028-1.369.057-2.429.085-3.147.029-.719.057-1.09.092-1.09v-.034Z" fill="#CA534B"/><path d="M42.777 28.598c0 .063-.21.12-.604.171a3.396 3.396 0 0 0-.211.029.808.808 0 0 1-.24.028c-.085-.08-.17.148-.262.023-.091-.034-.188 0-.29.023-.103.028-.206-.052-.32.023-.108.154-.222-.171-.342.023-.12.04-.24.028-.365.022-.125-.12-.257 0-.388.023-.13-.142-.268-.08-.41.017-.137-.194-.28-.165-.428.017-.148.006-.296-.068-.45.017-.154.012-.308.052-.468.018-.16.13-.319.125-.484.01-.166.143-.331.086-.502.012-.171-.08-.342.126-.513.012-.177-.012-.354.034-.53.011-.177-.057-.36-.12-.542.006-.183.034-.37.08-.553.006-.188.148-.377.085-.565 0-.188.022-.382-.08-.576 0-.193-.023-.387.068-.587 0-.194-.046-.393-.092-.587 0-.194.097-.388-.04-.576 0-.188-.143-.376.045-.564 0-.188.01-.37-.08-.553-.006-.183.023-.365.051-.542-.006-.177.217-.354-.057-.53-.011-.177-.091-.348.011-.513-.012-.171.04-.337-.097-.502-.011-.165-.017-.325.068-.485-.011-.16.108-.313-.092-.467-.018-.154 0-.302.006-.445-.017-.148-.17-.29-.028-.428-.017-.136-.017-.273.097-.41-.017-.131-.011-.262-.085-.388-.023-.125.023-.245-.245-.365-.023-.12.04-.234-.17-.342-.022-.108.137-.216-.017-.32-.023-.102-.006-.199-.017-.29-.023-.832-.074-1.311-.16-1.311-.25 0-.103.593-.195 1.602-.274.103-.006.205-.126.32-.023.107 0 .222-.091.341-.023.12-.154.24-.029.365-.023.126-.006.251.046.388-.023.131-.09.268.046.41-.017.137.097.28.069.428-.017.148.091.297-.023.445-.017.154.143.308.04.467-.017.16-.051.32.023.485-.011.165.028.33-.04.502-.012.17-.068.342-.091.513-.011.17-.046.353-.012.53-.012.177-.057.36.006.542-.005.182-.029.37.153.553-.006.188-.023.376.028.564 0 .188.023.382.04.576 0 .194.16.388.063.587 0 .2-.046.394-.023.587 0 .194-.017.388-.006.576 0 .188-.046.382.068.565 0 .188-.069.37.074.553.006.182-.046.365-.069.541.005.177 0 .354.143.53.012.177-.029.349-.211.514.011.171-.057.336.103.502.012.165.16.325.005.484.01.16.03.314.086.468.018.154-.074.302.04.45.017.148-.091.291.12.428.017.137.023.273-.017.41.017.131-.216.263 0 .388.023.126.034.245-.142.365.023.12-.165.234-.023.342.023.108.045.217-.069.32.023.102-.114.199.062.29.022.091.074.182 0 .262.023a.292.292 0 0 1 .24.023c.074.011.142.017.21.028.389.052.605.109.605.172v.005Zm0 5.941c0 .063-.21.12-.604.17a4.444 4.444 0 0 0-.211.03.66.66 0 0 1-.24.022c-.085-.08-.17.148-.262.023-.091-.034-.188 0-.29.023-.103.028-.206-.052-.32.023-.108.154-.222-.171-.342.023-.12.04-.24.028-.365.022-.125-.12-.257 0-.388.017-.13-.142-.268-.08-.41.017-.137-.193-.28-.165-.428.018-.148.005-.296-.069-.45.017-.154.011-.308.051-.468.017-.16.13-.319.125-.484.011-.166.143-.331.086-.502.012-.171-.08-.342.125-.513.011-.177-.011-.354.034-.53.011-.177-.057-.36-.12-.542.006-.183.034-.37.08-.553.006-.188.148-.377.085-.565 0-.188.023-.382-.08-.576 0-.193-.023-.387.068-.587 0-.194-.046-.393-.091-.587 0-.194.097-.388-.04-.576 0-.188-.143-.376.045-.564 0-.188.011-.37-.08-.553-.006-.183.029-.365.051-.542-.006-.177.217-.354-.057-.53-.011-.177-.091-.348.011-.513-.011-.171.04-.337-.103-.502-.012-.165-.017-.325.069-.485-.011-.16.108-.313-.091-.467-.017-.154 0-.302.005-.445-.017-.148-.172-.29-.029-.428-.017-.136-.018-.273.096-.41-.018-.131-.011-.262-.085-.388-.017-.125.023-.245-.245-.365-.023-.12.04-.234-.17-.342-.022-.108.137-.216-.017-.32-.023-.102-.006-.199-.017-.29-.023-.832-.074-1.311-.16-1.311-.25 0-.103.593-.195 1.602-.274.103-.006.205-.126.32-.023.107 0 .222-.092.341-.023.12-.154.24-.029.365-.023.126-.006.251.046.388-.017.131-.091.268.046.41-.017.137.097.28.068.428-.017.148.091.297-.017.445-.017.154.142.308.045.467-.017.16-.052.32.022.485-.012.165.029.33-.034.502-.011.17-.069.342-.091.513-.012.17-.045.353-.011.53-.011.177-.057.36.006.542-.006.182-.028.37.154.553-.006.188-.022.376.023.564 0 .188.023.382.04.576 0 .194.16.388.063.587 0 .2-.045.394-.022.587 0 .194-.017.388-.005.576 0 .188-.045.382.069.565 0 .188-.068.37.075.553.006.182-.045.365-.068.541.006.177 0 .354.142.53.011.177-.028.349-.21.514.012.171-.057.336.108.502.011.165.16.325.006.484.012.16.028.314.085.468.017.154-.075.302.04.45.017.148-.092.291.12.428.017.137.023.273-.011.41.017.131-.217.263 0 .388.017.126.029.245-.143.365.023.12-.166.234-.023.342.023.108.045.217-.069.32.023.102-.114.199.062.29.022.091.074.182 0 .262.023a.292.292 0 0 1 .24.023c.074.011.142.017.21.028.389.052.605.109.605.172v.01Zm0 5.947c0 .063-.21.12-.604.17a4.444 4.444 0 0 0-.211.03.812.812 0 0 1-.24.028c-.085-.08-.17.148-.262.023-.091-.035-.188 0-.29.023-.103.028-.206-.052-.32.022-.108.154-.222-.17-.342.023-.12.04-.24.029-.365.023-.125-.12-.257 0-.388.023-.13-.143-.268-.08-.41.017-.137-.194-.28-.165-.428.017-.148.006-.296-.068-.45.017-.154.011-.308.051-.468.017-.16.131-.319.126-.484.012-.166.142-.331.085-.502.011-.171-.08-.342.125-.513.011-.177-.011-.354.035-.53.012-.177-.057-.36-.12-.542.005-.183.035-.37.08-.553.006-.188.148-.377.086-.565 0-.188.023-.382-.08-.576 0-.193-.023-.387.069-.587 0-.194-.045-.393-.091-.587 0-.194.097-.388-.04-.576 0-.188-.142-.376.046-.564 0-.188.012-.37-.08-.553-.005-.183.028-.365.05-.542-.006-.177.216-.354-.057-.53-.012-.177-.09-.348.012-.513-.011-.171.04-.337-.097-.502-.011-.165-.017-.325.068-.485-.012-.16.109-.313-.091-.467-.017-.154 0-.302.006-.445-.017-.148-.171-.29-.029-.428-.017-.136-.017-.273.097-.41-.017-.131-.012-.262-.086-.388-.023-.125.023-.245-.245-.365-.023-.12.04-.234-.17-.342-.023-.108.137-.216-.017-.32-.022-.102-.006-.199-.017-.29-.023-.832-.074-1.311-.16-1.311-.251 0-.103.593-.194 1.602-.274.103-.006.205-.125.32-.023.107 0 .222-.09.341-.022.12-.154.24-.029.365-.023.126-.006.251.045.388-.023.131-.091.268.046.41-.017.137.097.28.068.428-.017.148.091.297-.023.445-.017.154.142.308.045.467-.017.16-.052.32.022.485-.012.165.029.33-.034.502-.011.17-.069.342-.092.513-.012.17-.045.353-.011.53-.011.177-.057.36.006.542-.006.182-.028.37.154.553 0 .188-.023.376.023.564 0 .188.023.382.04.576 0 .194.16.388.063.587 0 .2-.045.394-.023.587 0 .194-.017.388-.005.576 0 .188-.045.382.069.565 0 .188-.068.37.074.553 0 .182-.045.365-.068.541.006.177 0 .354.143.53.011.177-.028.349-.21.514.012.171-.057.336.108.502.011.165.16.325.006.484.012.16.034.314.085.468.017.154-.075.302.04.45.017.148-.092.291.12.428.017.137.023.273-.017.41.017.131-.217.263 0 .388.023.126.034.245-.143.365.023.12-.166.234-.023.342.022.108.046.217-.068.32.023.102-.114.199.063.29.023.091.074.182 0 .262.023a.293.293 0 0 1 .24.028c.074.012.142.017.21.029.389.051.605.114.605.17Zm0 5.947c0 .063-.21.12-.604.17a3.442 3.442 0 0 0-.211.03.66.66 0 0 1-.24.022c-.085-.08-.17.148-.262.023-.091-.034-.188 0-.29.023-.103.028-.206-.052-.32.023-.108.154-.222-.171-.342.022-.12.04-.24.029-.365.023-.125-.12-.257 0-.388.023-.13-.143-.268-.08-.41.017-.137-.2-.28-.165-.428.017-.148 0-.296-.068-.45.017-.154.012-.308.052-.468.017-.16.132-.319.126-.484.012-.166.142-.331.085-.502.011-.171-.08-.342.126-.513.012-.177-.012-.354.034-.53.011-.177-.057-.36-.12-.542.006-.183.034-.37.08-.553.005-.188.149-.377.086-.565 0-.188.023-.382-.08-.576 0-.193-.022-.387.069-.587 0-.194-.045-.393-.09-.587 0-.194.097-.388-.04-.576 0-.188-.142-.376.046-.564 0-.188.012-.37-.08-.553-.005-.183.028-.365.051-.542-.006-.177.217-.354-.057-.53-.011-.177-.092-.348.011-.513-.012-.171.04-.337-.102-.502-.011-.165-.017-.325.068-.485-.012-.16.109-.313-.09-.467-.017-.154 0-.302.006-.445-.017-.148-.17-.29-.028-.428-.017-.136-.017-.273.097-.41-.017-.131-.011-.262-.086-.388-.023-.125.023-.245-.245-.365-.023-.12.04-.234-.17-.342-.023-.108.137-.216-.017-.32-.022-.102-.006-.199-.017-.29-.023-.832-.074-1.311-.16-1.311-.251 0-.103.593-.194 1.602-.274.103-.005.205-.125.32-.022.107 0 .222-.092.341-.023.12-.154.24-.029.365-.023.126-.006.251.04.388-.023.131-.091.268.046.41-.017.137.097.28.069.428-.017.148.091.297-.023.445-.017.154.142.308.045.467-.017.16-.052.32.023.485-.012.165.029.33-.034.502-.011.17-.068.342-.091.513-.011.17-.046.353-.012.53-.012.177-.057.36.006.542-.006.182-.028.37.154.553-.005.188-.023.376.023.564 0 .188.023.382.04.576 0 .194.16.388.062.587 0 .2-.046.394-.023.587 0 .194-.017.388-.006.576 0 .188-.046.382.068.565 0 .188-.069.37.074.553.005.182-.045.365-.068.541.006.177 0 .354.143.53.011.177-.028.349-.21.514.012.171-.057.336.108.502.011.165.16.325.006.484.012.16.028.314.085.468.017.154-.074.302.04.45.017.148-.091.291.12.428.017.137.023.273-.017.41.017.131-.216.263 0 .388.023.126.034.245-.143.365.023.12-.166.234-.023.342.023.108.045.217-.069.32.022.102-.114.199.063.29.023.091.074.182 0 .262.023a.293.293 0 0 1 .24.029c.074.01.142.017.21.028.389.051.605.108.605.171v.006Zm-1.573-22.675c-.063 0-.12-.285-.171-.81a5.947 5.947 0 0 0-.029-.28 1.17 1.17 0 0 1-.023-.319c.08-.114-.148-.233-.022-.353.034-.126 0-.257-.023-.394-.029-.137.051-.279-.023-.427-.154-.149.171-.302-.023-.456-.04-.16-.028-.32-.023-.49.12-.172 0-.343-.017-.52.143-.176.08-.359-.017-.547.194-.188.166-.376-.017-.576-.006-.194.069-.399-.017-.598a5.583 5.583 0 0 1-.023-.308v-.285c0-.046.006-.092.012-.137-.131-.405-.126-.918-.012-1.146a2.809 2.809 0 0 1-.085-.667c0-.188.017-.337.045-.445.046.063.097.125.149.188.176.234.285.297.421.4.132.096.297.227.445.455.148.154.297.291.456.44.08.073.154.148.234.222l.057.057.034.034s.04.046.057.068c.131.211.257.428.52.508.199.148.404.29.53.524.284.075.416.297.541.536.2.166.308.422.547.548.166.2.417.325.56.558.153.217.307.434.558.56.25.113.336.393.547.547.08.279.394.33.536.541.188.166.297.41.525.53.194.154.382.308.507.52a.28.28 0 0 1 .188.068c.023.017.046.04.063.062.006.012.017.023.023.04a.42.42 0 0 0 .028.057c.074.166.126.32.24.44.057.148.154.262.256.387.103.126.217.257.297.376.028.035.051.063.074.097.017.017.011.034.011.052v.057l-.011.057c0 .005 0 .022-.006.022h-.034l-.125.012c-.166.011-.32.023-.44.068-.153.017-.29.046-.433.074a1.45 1.45 0 0 1-.444.035.486.486 0 0 1-.211.057c-.052 0-.103-.017-.16-.029-.103-.028-.211-.057-.308-.017-.205 0-.405.006-.599-.017-.194-.166-.387-.029-.575-.017-.189-.017-.371.097-.548-.017-.177-.012-.353-.086-.519-.018-.17.023-.33-.245-.49-.022-.16.04-.308-.171-.456-.023-.148.137-.29-.017-.428-.023-.137-.006-.268-.017-.393-.023-1.123-.074-1.762-.16-1.762-.25 0-.103.793-.194 2.155-.274.137-.006.28-.126.428-.023.148 0 .302-.091.456-.023.16-.154.32-.028.49-.023.166-.005.342.046.52-.017.176-.091.358.046.547-.017.188.097.376.069.575-.017.194.091.4-.017.599-.017a.388.388 0 0 0 .308.068c.051-.005.103-.022.16-.034.017 0 .011-.006.017-.011l.011-.012s.011-.017.017-.023c.017-.028.034-.022.063-.01.028.005.068.016.068 0 .046.01.057 0 .063 0v-.024c0-.011-.006-.017 0-.022-.085-.04-.131-.052-.148-.058-.017-.005 0-.005.04-.034-.04-.005-.052-.017-.057-.028l-.006-.012-.029-.034-.056-.068a2.195 2.195 0 0 0-.126-.131c-.21-.131-.336-.348-.519-.508-.194-.154-.24-.456-.53-.524-.194-.166-.336-.377-.542-.536-.165-.194-.336-.394-.547-.548-.074-.296-.325-.41-.559-.558-.216-.154-.387-.36-.553-.56-.194-.17-.37-.358-.547-.547-.211-.148-.314-.41-.536-.541-.223-.131-.302-.405-.519-.53-.205-.143-.393-.297-.507-.52a.604.604 0 0 1-.057-.068c-.006-.011-.023-.028-.023-.034v-.011s0-.04-.012-.057c-.011-.04-.045-.08-.062 0-.017 0-.012.085 0 .12 0 .034.017.034-.092-.234v.017c0 .017-.022-.023-.04-.029-.017-.011-.022.017.018.091-.08-.085-.08-.028-.063.018.017.05.057.097.051.12l-.011.017v.01s-.012 0-.012.024c-.005.051-.017.102-.022.16a.942.942 0 0 0 .028.307c.074.206-.04.405-.017.599.091.194-.12.388-.017.576-.023.188.011.37-.017.547.217.177 0 .354-.023.519-.034.171.142.33-.023.49.166.16.023.308-.023.456-.045.149.069.291-.022.428.114.137-.063.268-.023.393-.074.126 0 .245-.023.354a.508.508 0 0 1-.023.32c-.011.102-.017.193-.028.278-.052.525-.114.81-.171.81l-.023.012Z" fill="#CA534B"/><path d="M13.061 20.839c.029 0 .057.365.091 1.066.029.701.057 1.739.086 3.079.006.444.017.929.028 1.442.018.513.035 1.06.023 1.637-.08.575.148 1.185.023 1.824-.034.639 0 1.306.023 2.007.028.701-.052 1.425.023 2.184.153.758-.171 1.539.022 2.349.04.81.029 1.647.023 2.508-.12.861 0 1.75.023 2.663-.143.912-.08 1.853.017 2.81-.194.964-.165 1.945.017 2.954.006 1.004-.068 2.036.017 3.085.012 1.049.052 2.12.018 3.21.13 1.089.125 2.2.01 3.33.012.153.024.125.035.148.012.017.017.028.029.034l.05-.017h.828c.461.011.923.04 1.39.068 1.164.08 2.35-.125 3.547-.011 1.197.011 2.418-.035 3.65-.012 1.23.057 2.48.12 3.74-.005 1.26-.035 2.537-.08 3.825-.006 1.289-.148 2.588-.086 3.9 0 1.311-.023 2.64.08 3.974 0 .667.011 1.34 0 2.013-.017.336-.006.672-.012 1.009-.012h.456c.017 0 .045.012.074.018l.017-.069v-.456c.017-.336.023-.673.029-1.01 0-.672-.006-1.345-.052-2.012v-.085l-.005-.017v-.023s-.018-.017-.023-.029h-.314c-.274-.011-.553-.017-.827-.023-.547-.017-1.1-.028-1.647-.017-1.312-.142-2.617.046-3.9 0-1.289.012-2.566-.08-3.826 0-1.26.023-2.509.052-3.74-.005-1.232.216-2.446-.057-3.65-.012-1.196-.091-2.382.012-3.546-.011-.216.005-.433.011-.65.005-.359 0-.723-.01-1.083-.017l.035-1.516c0-.36 0-.713-.029-1.066.017-1.13-.068-2.241.011-3.33-.108-1.09.092-2.161.018-3.21 0-1.05-.006-2.081.017-3.085.17-1.003.028-1.99.017-2.953.017-.964-.097-1.899.017-2.81.011-.913.085-1.803.023-2.663-.023-.861.245-1.7.022-2.51-.04-.809.171-1.596.023-2.348-.137-.758.017-1.482.023-2.184.011-.701.017-1.368.023-2.007.006-.519.011-1.02.023-1.5 0-.239.005-.473.011-.7 0-.16.006-.32.011-.468a431.207 431.207 0 0 1-4.373-.103c-1.049-.034-1.602-.074-1.602-.108s.553-.074 1.602-.108a167.88 167.88 0 0 1 1.939-.052c.382-.005.792-.017 1.231-.022.223 0 .445-.006.679-.012.302 0 .616-.006.94-.011l.063 5.091c.006.701.126 1.425.023 2.184 0 .758.091 1.54.023 2.349.154.81.029 1.648.023 2.509.006.86-.04 1.75.023 2.662.09.912-.046 1.853.017 2.811-.097.964-.069 1.944.017 2.953-.091 1.01.023 2.036.017 3.085-.143 1.049-.046 2.12.017 3.21.051 1.089-.023 2.2.011 3.33-.011.353-.011.712 0 1.066 0 .17 0 .342.006.519l.012.102h.838a28.294 28.294 0 0 1 3.546-.011c1.197-.046 2.417-.012 3.649-.012 1.231-.057 2.48.006 3.74-.005 1.26-.029 2.537.154 3.826-.006 1.288-.023 2.588.023 3.9 0 .547.006 1.094.011 1.648.023h.826c.44 0 .872 0 1.311-.012 0 .206 0 .41.006.616v.314l.006.142v.086a15.9 15.9 0 0 0-.08 2.013c0 .336.017.672.034 1.009l.012.25v.126l.011.063v.114c.012.319.017.638.029.958-.508.005-1.01.017-1.517.022h-1.01c-.672 0-1.345-.017-2.012-.028-1.334.017-2.662.006-3.974 0-1.311.045-2.611-.069-3.9 0-1.288.068-2.565-.074-3.825-.006-1.26.046-2.509.069-3.74-.005-1.232 0-2.446-.143-3.65-.012-1.197.029-2.383.211-3.546-.011-.467.022-.93.011-1.391-.006-.228-.006-.462-.017-.69-.023h-.21l-.297-.006h-.593c0-.193 0-.387-.012-.587 0-.182-.011-.433-.023-.507.16-1.13.012-2.241.012-3.33.034-1.089.085-2.16.017-3.21-.074-1.049.04-2.081.017-3.084-.091-1.01.12-1.99.017-2.954.023-.963-.011-1.898.017-2.81-.216-.913 0-1.802.018-2.663.034-.861-.143-1.7.022-2.509-.165-.81-.023-1.59.023-2.349.046-.753-.068-1.482.023-2.184-.114-.701.063-1.368.023-2.007.074-.638 0-1.248.023-1.824a12.853 12.853 0 0 1 .028-1.637c.011-.513.017-.992.029-1.442.028-1.34.057-2.378.085-3.079.028-.701.057-1.066.091-1.066l-.017-.011Zm21.381 3.147c0 .063-.12.12-.342.17-.035.012-.074.018-.12.03a.268.268 0 0 1-.137.028c-.045-.08-.097.148-.148.023-.051-.034-.108 0-.165.023-.057.028-.12-.052-.177.022-.063.154-.126-.17-.194.023-.068.04-.137.029-.205.023-.069-.12-.143 0-.217.023-.074-.143-.154-.08-.234.017-.08-.194-.16-.165-.245.017-.085.006-.165-.068-.256.017-.086.011-.177.051-.263.017-.09.131-.182.126-.273.012-.092.142-.189.085-.285.011-.097-.08-.194.125-.291.011-.097-.011-.2.035-.302.012-.103-.057-.206-.12-.308.006-.103.034-.211.08-.314 0-.108.148-.21.085-.32 0-.108.022-.216-.08-.324 0-.108-.023-.223.068-.33 0-.11-.046-.223-.092-.332 0-.108.096-.216-.04-.325 0-.108-.143-.216.045-.319 0-.108.01-.21-.08-.313 0-.103.022-.206.05-.308-.006-.103.216-.2-.057-.302-.012-.097-.09-.194.012-.291-.011-.097.04-.188-.097-.285-.011-.091-.018-.183.068-.274-.012-.091.108-.177-.091-.262-.017-.086 0-.171.006-.257-.017-.085-.171-.165-.029-.245-.017-.08-.017-.154.097-.234-.017-.074-.012-.148-.086-.216-.023-.075.023-.143-.245-.206-.023-.068.04-.13-.17-.194-.023-.062.137-.12-.017-.182-.022-.057-.006-.114-.018-.165-.023-.474-.074-.741-.16-.741-.251 0-.103.336-.194.906-.274.057-.006.12-.125.183-.023.062 0 .125-.09.193-.022.069-.154.137-.029.206-.023.068-.006.142.045.216-.023.074-.091.154.046.234-.017.08.097.16.068.245-.017.08.097.166-.017.257-.017.085.142.176.04.262-.017.091-.052.183.022.274-.012.09.029.188-.034.285-.011.097-.069.194-.091.29-.012.098-.045.2-.011.303-.011.102-.057.205.006.308-.006.102-.028.21.154.313-.005.109-.023.211.022.32 0 .108.022.216.04.325 0 .108.16.222.062.33 0 .114-.046.223-.023.33 0 .11-.017.217-.006.326 0 .108-.046.216.068.32 0 .108-.069.21.074.313.005.102-.045.205-.068.308.006.102 0 .2.142.302.011.097-.028.194-.21.29.012.098-.057.189.108.286.011.09.16.182.006.273.012.092.028.177.085.263.017.085-.075.17.04.256.017.08-.091.165.12.245.017.08.023.154-.011.234.017.074-.217.148 0 .217.023.068.028.142-.143.205.023.068-.166.131-.023.194.022.063.046.12-.068.177.023.057-.114.114.063.165.023.051.074.103 0 .148.023.046-.029.091-.017.137.023.04.005.08.017.12.028.222.051.342.108.342.171v.006Zm0-4.607c0 .063-.12.12-.342.17-.035.012-.074.018-.12.03a.268.268 0 0 1-.137.028c-.045-.08-.097.148-.148.023-.051-.034-.108 0-.165.023-.057.028-.12-.052-.177.022-.063.154-.126-.17-.194.023-.068.04-.137.029-.205.023-.069-.12-.143 0-.217.017-.074-.142-.154-.08-.234.017-.08-.194-.16-.165-.245.017-.085.006-.165-.068-.256.017-.086.012-.177.052-.263.017-.09.132-.182.126-.273.012-.092.142-.189.085-.285.011-.097-.08-.194.126-.291.012-.097-.012-.2.034-.302.011-.103-.057-.206-.12-.308.006-.103.034-.211.08-.314.005-.108.149-.21.086-.32 0-.108.023-.216-.08-.324 0-.108-.022-.223.069-.33 0-.11-.045-.223-.09-.332 0-.108.097-.216-.04-.325 0-.108-.142-.216.046-.319 0-.108.012-.21-.08-.313-.005-.103.028-.206.051-.308-.006-.103.217-.2-.057-.302-.011-.097-.091-.194.011-.291-.012-.097.04-.188-.097-.285-.011-.091-.017-.183.068-.274-.012-.091.109-.177-.09-.262-.017-.086 0-.171.006-.257-.017-.085-.17-.165-.028-.245-.017-.08-.017-.154.097-.234-.017-.074-.011-.148-.085-.216-.017-.075.023-.143-.245-.206-.023-.068.04-.13-.17-.194-.023-.062.137-.12-.017-.182-.023-.057-.005-.114-.017-.165-.022-.474-.074-.741-.16-.741-.251 0-.103.336-.194.906-.274.057-.006.12-.125.183-.023.062 0 .125-.09.193-.022.069-.154.137-.029.206-.023.068-.006.142.045.216-.017.074-.091.154.045.234-.017.08.096.16.068.245-.018.08.097.166-.017.257-.017.085.143.176.04.262-.017.091-.051.183.023.274-.011.09.028.188-.034.285-.012.097-.068.194-.09.29-.011.098-.046.2-.011.303-.011.102-.057.205.005.308-.006.102-.029.21.154.313-.006.109-.023.211.023.32 0a.57.57 0 0 0 .325 0c.108.16.222.063.33 0 .114-.045.223-.023.33 0 .11-.017.217-.005.326 0 .108-.045.216.069.32 0 .108-.068.21.074.313.006.102-.046.205-.069.308.006.102 0 .2.142.302.011.097-.029.194-.21.29.011.098-.057.189.103.286.012.09.16.182.006.273.011.092.029.177.086.263.017.085-.074.17.04.256.017.08-.09.165.12.245.018.08.022.154-.012.234.017.074-.217.148 0 .217.017.068.034.142-.143.205.023.068-.166.131-.023.194.022.063.046.12-.068.177.023.057-.114.114.063.165.023.051.074.103 0 .148.023.046-.029.091-.017.137.023.04.011.08.017.12.028.222.051.342.114.342.171v.006Zm21.985 1.641c.051.03-.228.64-.793 1.723-.097.182-.194.376-.302.581-.102.211-.21.434-.353.656-.2.188-.143.542-.394.73-.177.233-.302.513-.433.804-.137.29-.37.536-.473.872-.04.376-.502.519-.513.935-.149.342-.348.667-.553.998-.297.28-.4.69-.588 1.06-.33.291-.49.69-.621 1.118-.388.28-.587.684-.656 1.174-.222.4-.524.77-.69 1.226-.228.422-.439.861-.718 1.272a3.264 3.264 0 0 1-.747 1.322c-.137.514-.445.941-.776 1.363-.33.422-.427.986-.798 1.403-.09.154-.182.319-.273.479-.046.08-.086.16-.132.245l-.068.12-.011.017v.057l-.017.136-.035.28c-.12.553-.245 1.106-.176 1.693-.029.576-.04 1.157-.183 1.733a3.1 3.1 0 0 1-.006.89c-.022.148-.045.29-.08.439l-.01.057v.028s-.012.023-.012.017c0 0-.006 0-.011.012l-.035.034c0 .017 0 .04-.011.074-.012.029-.023.074-.034.114.028 0 .097-.051.13-.125.012 0 .018-.012.03-.017l.01-.012h.006l.04-.034c.12-.097.24-.188.36-.285.239-.188.484-.376.752-.53.525-.331 1.044-.656 1.483-1.084.433-.439 1.003-.684 1.46-1.066a1.39 1.39 0 0 0 .159-.08l.04-.022h.011v-.006s.011 0 .023-.006c0 .017.085-.137.131-.233.051-.109.103-.217.154-.32.103-.217.205-.427.336-.621.28-.513.656-.97.878-1.505.263-.508.525-1.015.856-1.471.09-.593.604-.935.838-1.432.353-.427.53-.946.815-1.39.228-.48.61-.862.793-1.352.273-.433.45-.918.77-1.306.153-.484.57-.81.74-1.26.24-.416.468-.82.713-1.208.376-.314.48-.77.684-1.158.234-.37.348-.798.656-1.1.217-.354.485-.667.621-1.044.177-.353.6-.547.588-.98.148-.337.513-.542.553-.918v-.091c0-.023.005-.04.017-.058a.401.401 0 0 1 .097-.108.285.285 0 0 0-.114-.125l-.052-.034-.08-.052c-.068-.04-.13-.08-.199-.12-.131-.08-.256-.16-.382-.233-2.23-1.374-3.484-2.201-3.438-2.275.023-.046.45.148 1.22.536.382.194.855.439 1.403.735.273.148.57.302.878.473.154.086.32.172.484.263.08.045.166.091.251.137.109.062.223.12.331.182.171.091.365.182.57.28a5.46 5.46 0 0 1-.205.404c-.04.069-.086.137-.131.206-.023.034-.046.068-.074.096l-.04.046s-.017.023-.029.029c-.17.296-.273.65-.513.935-.051.399-.348.667-.553.997-.188.343-.433.668-.587 1.06-.131.406-.462.708-.622 1.118-.302.331-.502.73-.655 1.175-.308.348-.445.81-.69 1.226-.365.342-.52.815-.719 1.271-.2.456-.518.855-.747 1.323-.279.433-.484.918-.775 1.363-.205.49-.45.974-.798 1.402-.234.496-.542.958-.821 1.443-.228.513-.57.975-.844 1.476-.262.514-.713.924-.867 1.511-.108.206-.233.41-.353.616-.063.103-.12.205-.183.308-.068.114-.096.165-.233.399l-.223.165-.137.109c-.496.336-.992.672-1.46 1.072-.58.233-1.02.672-1.482 1.083a9.52 9.52 0 0 1-.73.564c-.347.245-.695.49-1.043.73a87.87 87.87 0 0 1-1.334.986c.069-.593.137-1.18.2-1.767.005-.137.023-.274.034-.416l.023-.211.017-.12c.017-.148.045-.296.068-.439.046-.29.091-.587.091-.878 0-.587.194-1.152.194-1.727.017-.576.052-1.14.188-1.694.012-.091.023-.182.04-.28l.023-.136.034-.234.126-.194.08-.114c.05-.08.102-.154.148-.233.091-.16.17-.325.222-.502.245-.49.36-1.044.816-1.391.216-.485.615-.861.792-1.352.393-.365.519-.878.77-1.305.273-.416.564-.81.74-1.26.172-.45.508-.799.714-1.21.148-.444.558-.723.684-1.157.234-.37.422-.758.655-1.1.023-.467.411-.713.622-1.043.222-.325.262-.742.587-.98.046-.4.342-.64.553-.919.211-.274.28-.621.52-.85.056-.33.364-.507.478-.78.211-.217.285-.49.439-.707.108-.24.24-.45.393-.633l.348-.553c.656-1.032 1.038-1.58 1.09-1.551l.045.017Z" fill="#CA534B"/><path d="M56.427 21.02c.051.03.011.218-.108.537-.023.051-.04.108-.069.17a.603.603 0 0 1-.08.19c-.102.022.057.204-.09.21-.07.051-.086.143-.103.228-.017.091-.131.131-.114.245.085.16-.246.08-.126.262-.011.109-.074.194-.137.28-.011 0-.017 0-.028.006h-.017c-.012 0-.017 0-.023.011-.011.011-.017.023-.011.04 0 .028.028.057.028.074-.137.029-.165.086-.12.103.04 0 .08 0 .126-.012-.2.109-.029.177.125.052.011 0 .017.011.023.022.017.018.046.04.074.057a.26.26 0 0 0 .188.063c.12.057.257.091.354.188.182-.045.302.029.365.194.194-.051.29.069.376.205.085.143.313.04.388.211.125.08.279.126.399.223.102.125.205.262.404.228.155.045.314.085.417.234.21-.052.319.09.422.239.08.028.136.091.205.142a.535.535 0 0 0 .102.069c.018.011.04.017.058.023 0 0 .011-.006.017-.017.005.017.023.005.034 0 .011-.006.011-.017.028.034 0 0 .035.028.046.017.011-.011.017-.046-.011-.08-.006-.006-.012-.017-.018-.023a.12.12 0 0 1 .023-.057c.017-.034.046-.068.074-.102.057-.063.12-.12.143-.2.205-.074.125-.308.245-.422.069-.148.228-.234.245-.41.029-.074.057-.149.092-.217.05-.097.04-.063.085-.074-.091-.034-.097-.023-.063-.029a.294.294 0 0 0 .12-.04h-.017c.046-.028.017-.04-.011-.04-.029 0-.058 0-.063-.01h-.017l-.029-.024-.08-.08c-.05-.05-.108-.096-.188-.096-.114-.086-.273-.08-.353-.223-.171.023-.188-.21-.337-.21-.114-.07-.228-.126-.325-.206-.023-.21-.2-.148-.307-.2-.097-.074-.251-.034-.297-.193-.091-.069-.148-.188-.28-.183-.108-.034-.062-.32-.262-.176-.108-.018-.085-.251-.245-.166-.154.074-.154-.108-.222-.154-.069-.051-.137-.097-.205-.148-.588-.422-.896-.701-.856-.781.052-.086.536.085 1.329.456.08.034.217-.023.245.114.08.046.21.017.262.125.166-.085.194.08.28.137.096.046.165.149.296.149.143-.023.177.153.314.16.057.142.176.182.33.17.063.143.228.108.343.177.04.188.205.171.353.188.142.023.228.154.365.194.051.046.12.074.188.103a.505.505 0 0 1 .097.045l.023.012.04.022.085.052c.268.074.576.222.707.399l.086.034c-.092.211-.257.439-.382.656-.04.125-.137.29-.166.325-.045.062-.097.125-.125.2-.051.153-.29.199-.234.415-.063.149-.182.268-.24.422-.05.069-.102.131-.142.2-.023.034-.04.074-.057.108a2.106 2.106 0 0 1-.074.166.697.697 0 0 0-.285.33c-.063.137-.12.314-.188.49-.263-.102-.565-.302-.821-.473l-.16-.085a4.118 4.118 0 0 1-.314-.194c-.165-.04-.245-.222-.416-.245-.17-.023-.24-.223-.41-.245-.16-.04-.308-.097-.4-.24-.13-.08-.193-.28-.387-.234-.143-.05-.36.035-.376-.228-.154-.022-.2-.233-.365-.228-.04-.21-.24-.148-.354-.222-.102-.097-.188-.211-.342-.217-.074 0-.125-.04-.17-.085l-.075-.074a.687.687 0 0 0-.137-.086.414.414 0 0 1-.262-.165c-.063-.069-.114-.131-.262-.154-.04-.029-.086-.057-.131-.086.068-.12.125-.245.222-.365-.074-.085-.017-.188.063-.262a.985.985 0 0 1 .125-.102c.023-.018.04-.029.057-.046.011-.006.017-.017.023-.023l.017-.017c.08-.08-.017-.257.171-.262-.091-.171.08-.183.165-.245.086-.057.035-.194.154-.223-.057-.13.143-.114.149-.205.102-.029.08-.131.136-.182a.22.22 0 0 1 .126-.166c.04-.051.074-.097.114-.142.21-.263.353-.394.405-.36l.011.029ZM50.771 41.7c-.028.051-.24 0-.599-.148a4.666 4.666 0 0 1-.188-.08c-.068-.023-.148-.046-.216-.097-.029-.108-.223.046-.24-.108-.063-.074-.16-.097-.256-.12-.103-.029-.149-.142-.28-.137-.17.08-.102-.256-.302-.148-.12-.023-.217-.091-.32-.16-.045-.165-.216-.125-.336-.17-.04-.189-.188-.2-.353-.183-.023-.24-.154-.28-.37-.194-.126-.069-.217-.205-.388-.205-.069-.029-.137-.063-.211-.092l-.103-.05a.1.1 0 0 1-.023-.03c-.08.109-.023.132-.102-.045.017.103.028.131.011.097-.011-.011-.034-.046-.063-.068-.034-.029-.011.034.012.068.023.04.045.051-.012.046V40c0 .086-.011.171-.028.262-.074.166-.16.337-.052.53.018.183.046.365-.05.542.13.2.045.377-.058.553 0 .188-.12.365-.057.565-.045.188.023.387-.063.57-.062.188-.13.37-.062.57.074.2-.08.37-.063.559-.08.085-.08.176-.063.273v.018l.006.01.017.012s.011.012 0 .023c.006.011-.017.034-.034.063-.017.028-.023.063.017.028.023 0 .051-.04 0 .063l-.011.029c.136-.234.102-.194.085-.137-.023.063-.04.142-.011.091 0 .057.023.034.04.011.017-.028.028-.057.045-.057 0-.017.012-.017.023-.017s.011.012.063-.011c.074-.034.148-.069.188-.154.142-.08.217-.245.388-.268.062-.177.302-.108.376-.257.12-.085.234-.182.365-.245.216.051.245-.142.348-.234.12-.068.16-.233.336-.222.114-.068.257-.08.32-.205.085-.091.341.057.301-.194.069-.103.285 0 .285-.182 0-.177.183-.109.263-.166.085-.051.165-.102.245-.148.701-.422 1.134-.633 1.186-.559.057.08-.354.496-1.106 1.146-.074.063-.091.223-.24.2-.085.062-.125.2-.256.216 0 .194-.171.16-.274.228-.091.08-.228.114-.296.24-.052.148-.24.12-.314.25-.165 0-.262.11-.33.263-.172.012-.223.188-.343.274-.205-.029-.268.142-.359.28-.097.136-.268.164-.376.29-.074.034-.131.091-.194.148a1.827 1.827 0 0 1-.148.12c-.057.045-.12.091-.183.125-.216.245-.519.496-.741.553a3.75 3.75 0 0 1-.4.32c-.125.09-.25.165-.375.262-.035.034-.069.063-.097.091 0-.114.017-.274.045-.433.023-.16.052-.32.057-.462 0-.148.063-.36.103-.536.04-.182.063-.325 0-.462 0-.085.011-.17.023-.256l.034-.245c.017-.092.028-.183.023-.28.04-.182.08-.37.057-.559.176-.17.102-.37.062-.57-.022-.194.017-.382.063-.57 0-.188.034-.376.063-.559-.029-.188.108-.365.063-.553-.046-.188.108-.353.062-.541-.028-.183-.034-.36.063-.53.011-.086.051-.172.08-.257.005-.023.011-.04.017-.063v-.091c0-.074 0-.154-.029-.24 0-.16-.028-.347-.028-.536 0-.182.028-.359.137-.37a1.003 1.003 0 0 1 .045-.354c.171.132.325.257.445.263.154.182.257.245.37.29.115.046.24.075.36.149.051.04.108.08.16.12a.576.576 0 0 0 .09.073.41.41 0 0 0 .212.086c.165.006.233.182.37.234.171-.006.188.245.354.228.108.085.24.125.336.217.223-.12.223.13.32.205.09.091.279 0 .296.2.182-.086.205.096.28.188.068.096.216.045.256.176.142-.051.137.154.234.165.04.115.154.092.21.154a.261.261 0 0 1 .189.137c.057.046.114.086.165.126.302.233.456.393.428.444l.011-.01Z" fill="#CA534B"/><path d="M48.61 43.285c-.034.046-.17.023-.387-.062-.035-.017-.075-.029-.114-.046a.251.251 0 0 1-.126-.057c0-.097-.165.068-.137-.069-.022-.062-.091-.062-.154-.068-.062-.006-.074-.102-.165-.074-.137.097-.023-.217-.177-.085-.08 0-.13-.046-.188-.092 0-.142-.125-.074-.205-.091 0-.16-.097-.142-.217-.097.023-.21-.068-.222-.222-.102-.04-.018-.069-.052-.103-.08a.22.22 0 0 0-.051-.029c-.011 0-.023.011-.034.029-.029 0-.046.034-.069-.018-.006.143.023.149-.063-.01.029.09.046.119.035.113-.012-.011-.034-.051-.069-.085-.034-.04-.011.017.012.05.023.04.045.058-.012.024-.011.017.029.051 0 .063h-.033l-.012.017a.216.216 0 0 0-.035.074c-.01.051 0 .108.057.165.023.114.058.222-.028.325.137.126.057.228-.029.33.012.115-.108.217-.034.337-.034.108.04.234-.034.342-.057.108-.114.223-.04.342.023.017.034.012.034.017 0 0-.005 0-.017.012-.017.005-.045.028-.028.028-.074.046-.063.057-.04.052.023 0 .063-.035.028 0 .006 0-.017.034-.034.062-.017.029-.023.052.023 0 .029-.017.057-.068 0 .035 0 .01-.011.017-.011.028.136-.234.108-.2.08-.131-.035.068-.07.165-.04.114-.023.074-.006.057.005.034.017-.028.034-.063.04-.051.012-.034.012 0 .023.011.006.017.023.023.028-.034.012 0 .017-.023.023-.04 0-.017.012-.017.04.012 0-.012-.006-.023-.006-.029 0-.006 0 0 .012-.011a.143.143 0 0 1 .074-.017c.051 0 .108-.006.12-.063.074-.052.137-.108.222-.143.171.086.154-.08.211-.137.08-.034.074-.17.205-.125.074-.034.177-.017.194-.12.046-.063.262.114.188-.108.034-.074.211.057.177-.103-.029-.148.114-.062.165-.09.052-.03.103-.058.154-.08.44-.229.719-.331.77-.257.057.08-.165.365-.604.775-.046.04-.023.171-.137.125-.051.04-.052.149-.148.137.034.166-.097.109-.16.143-.057.051-.148.051-.171.148-.012.12-.154.057-.183.16-.125-.029-.176.04-.194.165-.125-.023-.13.12-.205.171-.08-.034-.12-.011-.148.023-.011.017-.023.046-.034.068 0 .012-.017.035-.029.052-.011.017-.023.034-.034.057a.538.538 0 0 1-.2.16c-.068.04-.142.08-.205.153-.068.035-.136.097-.21.16a1.097 1.097 0 0 1-.217.165c-.166.206-.36.377-.45.342-.092.097-.178.16-.252.211-.074.052-.142.086-.222.143-.023.023-.04.045-.063.063a.737.737 0 0 1 .023-.257c.017-.103.04-.21.04-.285-.006-.074.051-.24.086-.36.034-.125.05-.216-.029-.233 0-.091.017-.2.034-.308.017-.108.029-.21.029-.308.045-.216.085-.422.063-.627.17-.097.085-.222.034-.342-.035-.12 0-.234.04-.342 0-.114.017-.228.04-.337-.035-.114.09-.216.04-.33-.058-.114.096-.211.04-.325a.427.427 0 0 1-.023-.166c0-.028.005-.05.017-.08 0-.005 0-.01.011-.022 0-.012.011-.023.011-.034l.035-.069c.011-.097.057-.182.085-.262.029-.08.04-.16-.011-.302 0-.103-.04-.245-.051-.37-.006-.12.01-.218.12-.172a.532.532 0 0 1 .005-.142c0-.017.011-.035.017-.046l.017.011.034.029c.097.068.177.125.228.097.12.148.188.177.251.188.069.011.131 0 .211.04.074.051.148.108.217.154a.42.42 0 0 0 .217.068c.04 0 .08.012.12.029a.3.3 0 0 1 .062.051c.034.034.063.08.108.086.12-.04.097.188.217.136.063.057.154.069.205.132.177-.149.137.074.194.13.046.07.2-.045.177.132.142-.103.131.051.165.125.029.074.148.012.148.12.114-.063.069.114.137.114 0 .097.086.063.114.108.057.006.091.04.103.103a1.1 1.1 0 0 1 .085.091c.16.177.229.297.194.342Z" fill="#CA534B"/></svg>