<svg width="76" height="75" fill="none" xmlns="http://www.w3.org/2000/svg"><path d="M38.49 75c20.31 0 36.775-16.486 36.775-36.823S58.8 1.354 38.489 1.354c-20.31 0-36.775 16.486-36.775 36.823S18.179 75 38.489 75Z" fill="#215EAB" opacity=".73"/><path d="M36.908 73.646c20.31 0 36.775-16.486 36.775-36.823S57.218 0 36.908 0 .132 16.486.132 36.823s16.465 36.823 36.776 36.823Z" fill="#fff"/><path d="M36.535 22.452c0 .025-.282.06-.812.1-.53.066-1.317.132-2.306.359-.166.03-.333.08-.51.126-.176.046-.358.086-.544.146-.187.061-.374.122-.57.182-.192.07-.394.141-.601.207a.998.998 0 0 0-.313.106c-.1.05-.202.106-.303.156-.207.106-.408.227-.65.278-.111.045-.228.086-.339.141-.11.056-.222.111-.333.172-.11.06-.222.12-.333.186-.105.07-.216.142-.328.212-.227.136-.454.278-.69.419a3.93 3.93 0 0 0-.677.494c-.045.056-.1.106-.156.152-.05.05-.111.096-.167.136a4.358 4.358 0 0 1-.368.237 3.01 3.01 0 0 0-.363.262 1.484 1.484 0 0 0-.303.339c-.419.444-.873.878-1.297 1.367-.06.05-.126.106-.181.166l-.086.086-.081.091a5.863 5.863 0 0 0-.303.394c-.1.136-.181.282-.272.423-.086.147-.182.288-.273.434a5.206 5.206 0 0 0-.333.404l-.075.106c-.026.035-.046.076-.071.11-.045.077-.086.152-.131.233-.177.308-.298.646-.424.984-.121.141-.217.298-.313.454-.045.08-.09.162-.131.242a5.038 5.038 0 0 0-.272.792 5.27 5.27 0 0 0-.091.565c-.066.177-.111.359-.172.54-.055.182-.116.364-.161.55-.046.187-.091.374-.131.565a7.5 7.5 0 0 0-.071.586 7.416 7.416 0 0 0-.076.585c-.02.197-.05.393-.055.595-.01.202-.026.399-.04.6-.01.203-.016.404-.03.606.02.202.05.409.07.61.02.208.025.41.045.616.015.207.025.414.03.62.016.208.02.42.026.632.247.812.378 1.65.575 2.497.055.212.12.419.197.626.08.202.176.403.267.605l.066.152.075.146c.05.1.096.197.147.298.085.201.186.403.267.615.404.797.913 1.55 1.448 2.296.51.762 1.1 1.503 1.872 2.058.711.616 1.483 1.16 2.255 1.731.878.399 1.7.888 2.584 1.317.908.343 1.836.711 2.83.827.974.212 1.978.228 2.987.288 1.01.04 2.023-.02 2.987-.288.48-.136.959-.242 1.438-.368.242-.055.474-.131.706-.202a6.2 6.2 0 0 0 .687-.257c.12-.03.237-.06.353-.106.116-.045.227-.09.338-.141l.333-.152.318-.176.313-.182c.1-.066.206-.126.307-.192.207-.126.414-.247.616-.368.797-.525 1.61-1.04 2.255-1.73.676-.657 1.282-1.358 1.872-2.06.197-.423.47-.786.732-1.155.141-.176.262-.368.388-.555.06-.095.121-.186.182-.282.055-.101.1-.197.151-.303.121-.192.232-.383.323-.585l.136-.303.066-.151.06-.157c.076-.206.152-.413.223-.62.065-.207.13-.414.207-.62.105-.425.252-.828.353-1.247.03-.106.055-.207.08-.313l.061-.313c.02-.106.035-.212.05-.313l.02-.156c0-.05.006-.106.006-.156.03-.207.055-.42.075-.626.01-.207.026-.419.036-.626.015-.206.01-.413.02-.615.01-.207.025-.409.035-.61a4.915 4.915 0 0 1-.045-.606 8.063 8.063 0 0 1-.02-.6c0-.202-.02-.4-.036-.596a3.834 3.834 0 0 0-.096-.585l-.106-.576c-.045-.191-.085-.378-.13-.565-.041-.186-.097-.368-.142-.555-.05-.181-.096-.368-.151-.544a3.999 3.999 0 0 0-.116-.556 5.015 5.015 0 0 0-.202-.52l-.116-.252a5.55 5.55 0 0 1-.127-.242 22.13 22.13 0 0 1-.247-.484 8.29 8.29 0 0 0-.524-.928c-.046-.076-.091-.152-.137-.222l-.065-.111-.066-.111a3.605 3.605 0 0 1-.242-.46c-.373-.57-.722-1.15-1.196-1.599-.11-.116-.202-.252-.303-.378-.095-.127-.191-.258-.287-.384-.05-.06-.096-.126-.151-.181a4.997 4.997 0 0 0-.167-.162 1.75 1.75 0 0 0-.389-.262 3.919 3.919 0 0 1-.338-.303c-.106-.106-.207-.222-.312-.318a3.58 3.58 0 0 0-.51-.414 1.8 1.8 0 0 0-.197-.096c-.267-.116-.49-.282-.711-.444-.111-.08-.217-.166-.323-.247-.106-.08-.222-.151-.333-.222-.111-.065-.227-.131-.333-.197-.111-.065-.227-.12-.338-.181-.111-.06-.222-.116-.328-.177-.111-.06-.222-.106-.328-.156a16.34 16.34 0 0 0-2.715-1.01c-.206-.05-.403-.1-.59-.15-.192-.051-.373-.081-.55-.117-.348-.08-.676-.116-.964-.166a24.045 24.045 0 0 0-1.332-.147c-.302-.025-.459-.05-.459-.07 0-.02.197-.04.57-.05.096 0 .202-.01.318 0 .116 0 .242.01.384.014.141.006.287.01.449.02.161.016.333.03.51.051.72.08 1.614.227 2.628.525 1.014.293 2.144.742 3.33 1.408.116.065.242.126.363.191.121.066.243.136.369.202.247.136.484.308.696.51.06.04.121.085.182.126.06.045.12.086.181.131l.369.262c.126.086.242.192.358.293.116.101.232.207.338.323.555.333.943.873 1.372 1.388.45.499.828 1.084 1.272 1.64.11.14.217.287.313.438l.07.116.066.121c.04.081.086.162.131.243.177.317.323.66.52.978.065.177.126.359.197.535.035.086.07.177.11.263.036.09.071.176.106.267.071.177.152.353.233.53.075.181.15.358.232.54.045.191.085.383.14.575.051.192.117.378.162.575.05.192.106.389.162.585.045.197.086.399.12.6.011.208.016.415.031.621.015.207.05.409.07.621.021.207.051.414.081.626l.061.635c.02.212.02.43.015.641a9.45 9.45 0 0 1-.03.651l-.06.65c-.03.218-.056.435-.076.657-.152.868-.293 1.76-.585 2.629a9.013 9.013 0 0 1-1.05 2.573c-.394.858-.928 1.655-1.514 2.422-.54.802-1.246 1.493-1.962 2.174a9.4 9.4 0 0 1-1.166.929c-.197.151-.409.282-.61.434-.197.15-.404.297-.596.464-.842.56-1.776.989-2.72 1.397-.963.369-1.967.646-2.986.883-1.055.06-2.084.247-3.149.303-1.064.04-2.124-.086-3.148-.303a14.653 14.653 0 0 1-2.987-.883c-.974-.348-1.842-.903-2.72-1.397a5.461 5.461 0 0 1-.635-.409c-.202-.151-.41-.293-.596-.46-.388-.317-.752-.65-1.135-.963-.752-.64-1.438-1.362-1.963-2.174-.287-.389-.54-.798-.777-1.211-.126-.202-.237-.414-.358-.616-.06-.1-.126-.202-.187-.298-.06-.1-.126-.201-.191-.297-.116-.207-.238-.409-.344-.616-.055-.106-.11-.207-.166-.313l-.08-.156a2.137 2.137 0 0 1-.071-.157c-.091-.211-.187-.428-.253-.65a4.39 4.39 0 0 1-.136-.681 7.993 7.993 0 0 1-.333-1.317l-.06-.328c-.02-.111-.036-.222-.056-.333l-.06-.328-.04-.162-.036-.161c.005-.222 0-.444-.02-.661a9.458 9.458 0 0 0-.056-.651c-.03-.217-.04-.429-.055-.646-.015-.217-.03-.429-.02-.64.015-.213.025-.425.04-.636.025-.212.045-.42.066-.626.015-.207.05-.414.07-.62.02-.208.035-.414.06-.616.02-.207.051-.409.086-.606.046-.197.096-.393.152-.59.045-.197.116-.383.176-.575.06-.192.111-.379.172-.565.045-.192.1-.379.172-.56.07-.182.156-.354.237-.53l.12-.258a5.977 5.977 0 0 0 .339-.781c.181-.329.338-.667.524-.98l.137-.236.065-.117.076-.116c.1-.151.197-.297.298-.444.055-.176.146-.333.237-.484.096-.146.197-.293.318-.419.116-.13.237-.252.358-.378l.09-.091.092-.09c.06-.061.12-.122.176-.183.454-.494.813-1.059 1.373-1.387a2.65 2.65 0 0 1 .312-.358c.116-.106.227-.212.359-.298.126-.086.252-.171.383-.252.066-.04.126-.08.187-.121.065-.036.126-.076.191-.116.253-.152.475-.338.712-.495.116-.08.232-.161.348-.232.116-.07.242-.131.368-.181a2.07 2.07 0 0 1 .333-.233c.116-.065.238-.116.359-.166.12-.05.242-.096.358-.146.116-.05.232-.096.343-.157.242-.07.46-.171.676-.262l.323-.137c.106-.045.212-.085.318-.116.207-.08.414-.156.615-.222.202-.055.404-.1.6-.136.192-.055.38-.09.56-.126.183-.035.36-.08.526-.106 1.019-.187 1.821-.202 2.36-.217.54.01.823.03.823.056l-.02.01Z" fill="#CA534B"/><path d="M36.535 32.865c0 .061-.399.081-1.085.258-.116.035-.237.066-.363.11-.066.026-.126.051-.197.077-.065.025-.136.055-.207.075-.085-.01-.146.05-.206.106-.061.056-.127.111-.222.096a.79.79 0 0 0-.233.1 2.153 2.153 0 0 0-.217.157c-.075.056-.156.096-.237.142a.691.691 0 0 0-.222.181c-.04.111-.136.142-.237.177-.1.035-.197.086-.217.217-.126.171-.287.313-.434.474-.227.101-.287.353-.398.555-.238.126-.313.373-.343.63-.263.147-.343.41-.268.702-.07.242-.207.485-.171.762-.03.267-.03.535-.061.812.116.278.121.545.066.838.166.262.176.54.201.842.005.076.03.147.056.212.03.066.07.132.111.197.08.126.156.252.182.409.13.272.323.514.494.772.141.277.323.56.636.691.252.192.524.353.762.58.343.06.59.253.867.444.308.101.606.288.954.278.328.086.666.04 1.004.096.338.04.691.045 1.004-.096.157-.076.318-.101.48-.136.08-.015.161-.036.242-.056.08-.02.156-.05.232-.086a.59.59 0 0 0 .247-.055c.076-.03.146-.076.217-.121l.1-.07a.722.722 0 0 1 .102-.072c.066-.045.136-.085.207-.126.262-.181.57-.313.762-.58.217-.232.403-.474.635-.691.016-.182.111-.293.217-.409.056-.055.111-.11.162-.171a.61.61 0 0 0 .116-.197c.212-.232.242-.55.348-.823.025-.146.086-.277.131-.418.025-.071.045-.137.06-.212.01-.07.02-.142.01-.217.061-.283-.004-.565.066-.838a.593.593 0 0 1-.035-.207c0-.07 0-.136.01-.206a.957.957 0 0 0 .005-.207.444.444 0 0 0-.04-.197c-.04-.263-.116-.515-.172-.762a.455.455 0 0 0 0-.202.762.762 0 0 0-.07-.177c-.026-.055-.066-.11-.101-.16a1.048 1.048 0 0 1-.096-.162c-.096-.227-.298-.384-.343-.631-.121-.197-.207-.424-.399-.555-.08-.076-.116-.192-.166-.293-.05-.1-.127-.181-.268-.181-.09-.056-.141-.152-.202-.237-.065-.081-.13-.162-.252-.162-.116-.005-.187-.066-.257-.131-.066-.066-.126-.147-.207-.192a2.727 2.727 0 0 0-.227-.136 6.296 6.296 0 0 0-1.15-.505 9.82 9.82 0 0 0-.727-.186c-.202-.04-.358-.066-.464-.086-.106-.02-.162-.045-.162-.066 0-.04.278-.1.803-.07.262.015.585.055.953.151a5.58 5.58 0 0 1 1.221.48c.086.045.187.075.283.115.096.04.181.101.247.202.09.06.182.116.277.177.096.06.182.131.248.232.262.055.358.308.51.5.166.181.282.408.474.595a.808.808 0 0 1 .222.328c.06.12.1.252.191.358.04.288.167.53.328.782.005.298.182.555.222.858-.08.318.04.605.096.918.05.318-.03.636-.05.959-.07.318-.086.656-.212.974a1.923 1.923 0 0 1-.384.953c-.12.328-.338.616-.555.903-.176.318-.464.55-.721.808-.126.136-.288.227-.45.322-.075.05-.156.096-.231.157-.071.06-.142.121-.202.202-.308.217-.666.358-1.01.52-.363.125-.736.216-1.11.327-.403-.065-.771.056-1.17.111-.393.04-.792-.02-1.17-.11a4.685 4.685 0 0 1-1.11-.329c-.374-.105-.666-.368-1.01-.52a1.168 1.168 0 0 1-.242-.14 1.834 1.834 0 0 1-.212-.182c-.136-.126-.267-.258-.418-.358-.298-.217-.566-.48-.722-.808-.106-.146-.182-.308-.262-.464-.04-.076-.081-.156-.126-.227a1.578 1.578 0 0 0-.167-.207c-.096-.146-.207-.287-.293-.439a1.01 1.01 0 0 1-.095-.242.709.709 0 0 1 0-.272 1.503 1.503 0 0 1-.111-.49l-.03-.247a.974.974 0 0 0-.066-.237.71.71 0 0 0 .03-.248c0-.08-.01-.16-.02-.237-.015-.08-.026-.156-.04-.237-.01-.08-.02-.156-.02-.237.03-.318.11-.61.095-.918-.02-.313.162-.58.222-.858 0-.076.025-.146.05-.212.03-.065.071-.126.107-.186.035-.061.075-.122.106-.182a.646.646 0 0 0 .065-.197c.136-.237.247-.484.414-.691a.444.444 0 0 1 .166-.358c.101-.086.217-.152.308-.237.177-.167.242-.45.51-.5a.441.441 0 0 1 .222-.267c.1-.056.206-.096.307-.137.101-.045.177-.12.258-.181a.52.52 0 0 1 .272-.137c.06-.095.152-.13.247-.15.096-.026.192-.036.263-.092.192-.015.323-.136.484-.171.07-.036.146-.066.222-.086.076-.02.152-.025.222-.03.142-.03.273-.05.399-.071.742-.09 1.145 0 1.145.04l-.01.015Z" fill="#CA534B"/><path d="M36.535 26.256c0 .07-.863.05-2.377.384-.126.025-.252.065-.388.1-.136.036-.273.066-.414.117-.141.045-.288.095-.434.14a8.119 8.119 0 0 1-.459.162c-.172.02-.313.121-.47.207-.15.086-.302.187-.494.212-.085.03-.171.066-.257.106-.086.04-.166.086-.252.131-.081.046-.167.091-.252.146-.081.056-.167.107-.248.162-.086.055-.171.106-.257.156s-.177.106-.268.162a2.638 2.638 0 0 0-.51.383.864.864 0 0 1-.11.121c-.04.04-.08.071-.126.106-.091.06-.187.116-.288.172-.197.116-.388.247-.504.464-.313.343-.656.671-.984 1.04-.409.302-.631.776-.903 1.215a2.367 2.367 0 0 0-.48.636c-.131.232-.217.495-.302.757a2.086 2.086 0 0 0-.258.338l-.106.182c-.03.06-.055.13-.08.197-.051.13-.091.267-.122.408-.025.142-.04.288-.045.44-.045.135-.086.272-.131.408-.04.136-.091.277-.126.419-.036.14-.071.282-.101.429-.02.146-.04.292-.046.444a23.22 23.22 0 0 0-.151 1.81c.02.157.05.309.066.465.02.156.025.313.04.464.01.157.015.313.015.47.005.156.01.317 0 .479.217.61.308 1.241.439 1.892.035.161.086.318.146.474.06.156.137.303.212.454l.056.111.06.111c.04.076.076.152.111.227.066.152.142.308.192.47.303.605.696 1.17 1.1 1.735.373.585.817 1.156 1.418 1.56.545.458 1.135.862 1.71 1.311.681.278 1.292.656 1.958 1 .691.251 1.387.554 2.144.625.737.161 1.499.156 2.26.217.763.04 1.535 0 2.261-.217.358-.116.727-.192 1.085-.283.181-.04.358-.096.54-.146.181-.05.353-.121.52-.197.09-.02.181-.04.272-.07.086-.03.171-.066.257-.101.086-.036.167-.076.252-.117l.243-.136.237-.141.232-.151c.075-.05.156-.096.232-.142.08-.045.156-.096.232-.14.605-.4 1.231-.778 1.71-1.313.51-.5.96-1.034 1.418-1.559.132-.338.338-.605.545-.883a7.834 7.834 0 0 0 .444-.63c.04-.076.08-.152.111-.227.384-.57.555-1.227.772-1.847.076-.323.192-.626.273-.944.02-.08.045-.156.065-.232.02-.08.036-.156.046-.237.015-.08.025-.161.035-.237l.015-.121v-.121c.025-.157.04-.318.06-.475.006-.156.016-.312.02-.474.01-.156.006-.313.016-.47a6.85 6.85 0 0 1 .035-.463 3.538 3.538 0 0 1-.04-.46c-.01-.15-.01-.302-.01-.459 0-.15-.01-.302-.02-.454a2.209 2.209 0 0 0-.076-.444c-.025-.146-.05-.292-.08-.439l-.097-.428c-.03-.142-.07-.283-.106-.424-.04-.142-.07-.278-.11-.414a2.064 2.064 0 0 0-.076-.429 3.338 3.338 0 0 0-.152-.394c-.03-.065-.055-.126-.09-.191-.036-.06-.066-.121-.101-.182-.066-.12-.127-.242-.192-.363a5.065 5.065 0 0 0-.404-.702c-.136-.227-.282-.444-.378-.69-.283-.435-.535-.889-.903-1.217-.086-.085-.157-.191-.227-.287-.071-.101-.142-.202-.212-.298a1.34 1.34 0 0 0-.237-.267 1.114 1.114 0 0 0-.308-.187c-.187-.136-.328-.318-.49-.48a2.515 2.515 0 0 0-.247-.221 1.058 1.058 0 0 0-.136-.091 1.395 1.395 0 0 0-.157-.066c-.211-.076-.378-.202-.544-.328-.081-.065-.162-.13-.243-.197a2.024 2.024 0 0 0-.252-.171c-.086-.05-.171-.101-.252-.151-.086-.05-.172-.091-.258-.137l-.252-.136c-.08-.045-.166-.08-.252-.121a12.76 12.76 0 0 0-2.064-.782l-.449-.116c-.146-.04-.287-.06-.418-.09-.268-.062-.515-.097-.737-.132a17.955 17.955 0 0 0-1.014-.126c-.232-.026-.353-.046-.353-.066 0-.02.146-.04.439-.055.07 0 .15-.01.242-.005.09 0 .186 0 .292.005.106 0 .222 0 .343.015.121.01.253.02.394.035.555.06 1.236.167 2.018.389.777.222 1.65.565 2.558 1.07.091.05.187.095.283.14l.287.152c.192.1.374.232.535.398.046.036.091.066.141.096.046.036.091.066.142.101l.287.197c.192.136.374.293.535.474.45.232.732.666 1.06 1.065.348.383.63.837.979 1.256.181.207.328.45.449.702.136.247.242.51.398.751.046.137.086.278.141.414.056.136.106.273.162.409.056.136.116.272.182.404.06.136.12.272.186.408.03.146.06.298.101.444.04.147.091.293.126.444.04.147.086.298.132.45.035.15.07.307.095.458 0 .162 0 .318.01.48.01.161.04.318.051.474.02.161.04.318.07.48.02.16.041.322.056.489.02.166.02.328.015.494 0 .167-.005.333-.025.5l-.045.5c-.02.166-.04.337-.056.504-.121.666-.217 1.357-.449 2.023a6.09 6.09 0 0 1-.807 1.983c-.293.666-.717 1.276-1.16 1.867-.41.625-.96 1.15-1.51 1.675-.272.267-.585.49-.903.711-.156.116-.317.217-.469.333-.151.121-.308.232-.454.369-.65.434-1.367.757-2.094 1.074a20.5 20.5 0 0 1-2.3.681c-.818.016-1.605.177-2.427.233-.823.04-1.64-.06-2.427-.233a11.095 11.095 0 0 1-2.301-.68c-.757-.258-1.413-.712-2.094-1.075a3.39 3.39 0 0 1-.494-.313c-.157-.116-.313-.227-.454-.358-.298-.248-.576-.51-.878-.742-.586-.485-1.116-1.04-1.51-1.675a8.295 8.295 0 0 1-.584-.939c-.096-.156-.177-.318-.273-.474-.045-.076-.096-.151-.146-.227l-.152-.227c-.09-.157-.186-.313-.272-.47l-.131-.236-.066-.121-.055-.122a3.805 3.805 0 0 1-.197-.5 2.634 2.634 0 0 1-.086-.529 4.73 4.73 0 0 1-.252-1.014l-.045-.252c-.016-.086-.026-.172-.04-.253a4.502 4.502 0 0 0-.081-.378l-.03-.126a3.44 3.44 0 0 0 0-.51 5.528 5.528 0 0 0-.041-.5c-.025-.166-.036-.332-.05-.494a3.141 3.141 0 0 1-.02-.494c.03-.656.145-1.287.186-1.923.01-.156.03-.312.06-.469.036-.151.076-.303.116-.454.04-.151.096-.293.142-.439.05-.146.085-.293.13-.439.031-.151.077-.293.127-.434.056-.141.126-.272.192-.403.03-.066.065-.132.096-.197.035-.066.07-.131.1-.197.066-.131.117-.267.162-.404.141-.252.262-.51.404-.751.136-.248.287-.48.444-.702.035-.141.096-.262.166-.383.07-.116.152-.227.247-.318.187-.192.389-.368.566-.555.353-.373.605-.838 1.06-1.065.135-.212.307-.378.504-.51.096-.065.196-.125.297-.186l.152-.09c.05-.031.1-.056.146-.086.197-.111.363-.258.545-.379.086-.06.177-.126.267-.182.091-.055.192-.095.288-.13a1.31 1.31 0 0 1 .252-.187c.091-.05.187-.086.278-.122.09-.035.186-.065.277-.105.091-.036.182-.071.263-.116.186-.046.353-.127.52-.192.166-.07.322-.152.489-.197.161-.066.318-.121.469-.172.156-.04.313-.07.464-.096.146-.04.293-.065.434-.095.141-.026.273-.06.404-.076a10.755 10.755 0 0 1 1.806-.151c.414.015.626.035.626.06l.015-.005Z" fill="#CA534B"/><path d="M36.54 36.382c-.056 0-.106-.201-.151-.575a3.711 3.711 0 0 0-.026-.202.668.668 0 0 1-.02-.227c.07-.08-.131-.166-.02-.252.03-.09 0-.182-.02-.278-.025-.095.045-.196-.02-.302-.137-.106.15-.212-.02-.323-.036-.111-.026-.227-.02-.348.105-.121 0-.242-.016-.369.126-.126.07-.257-.015-.388.171-.131.146-.268-.015-.409-.005-.141.06-.282-.015-.429-.01-.146-.046-.292-.016-.444-.116-.151-.11-.302-.01-.459-.126-.156-.075-.313-.01-.474.07-.162-.11-.323-.01-.49.01-.166-.025-.333-.01-.504.05-.172.106-.343-.005-.52-.03-.176-.07-.353-.005-.53-.131-.176-.076-.358 0-.54-.02-.181.07-.363 0-.55.02-.186-.056-.373 0-.56.04-.186.076-.373 0-.56-.086-.186.035-.368 0-.55.126-.181-.04-.363 0-.54-.01-.176.07-.353.005-.53-.025-.176-.045-.347.005-.519-.192-.171.05-.338.01-.504.08-.167-.01-.328.01-.49-.035-.161.086-.318.01-.474.016-.157-.06-.313.01-.46-.095-.15.081-.297.016-.443 0-.147-.005-.288.015-.43.146-.14.025-.277.015-.408.015-.131-.086-.262.015-.388.01-.127.076-.248.015-.369-.02-.12.217-.237.02-.348-.035-.11.152-.222.02-.323-.12-.106.016-.207.02-.302.006-.096.016-.192.02-.278.066-.797.142-1.251.223-1.251.09 0 .172.565.242 1.529.005.095.111.196.02.302 0 .106.081.212.02.323.137.111.026.227.02.348.006.121-.04.242.02.369.082.126-.04.257.016.388-.086.131-.066.268.015.409-.086.141.02.282.015.429-.126.146-.04.292.015.444.046.151-.02.303.01.459-.025.156.036.313.01.474.061.162.081.323.01.49.041.166.01.333.01.504.051.172-.004.343.006.52.025.176-.136.353.005.53.02.176-.02.358 0 .54-.015.181-.035.363 0 .55-.141.186-.056.368 0 .56.04.186.02.373 0 .56.015.186.005.368 0 .55.04.181-.06.363 0 .54.06.176-.066.353-.005.53.04.176.06.347-.005.519 0 .171-.126.338-.01.504.025.167.186.328-.01.49.05.161-.096.318-.01.474-.142.157-.006.308-.01.46-.03.15-.076.297-.016.443.066.147-.035.288-.015.43.08.14-.106.277-.015.408-.02.131.01.262-.015.388.191.127 0 .248-.02.369-.026.12.126.237-.02.348.146.11.02.222-.02.323-.041.106.06.207-.02.302.1.096-.056.192-.021.278-.066.086 0 .172-.02.252a.294.294 0 0 1-.02.227c-.01.07-.016.137-.026.202-.045.368-.1.575-.151.575h-.01Zm2.194 2.21c0-.055.202-.106.57-.151a2.95 2.95 0 0 0 .197-.025.82.82 0 0 1 .227-.025c.081.07.162-.132.253-.02.09.03.181 0 .277-.02.096-.026.197.044.303-.021.106-.136.212.151.323-.02.11-.036.227-.026.348-.02.121.105.242 0 .368-.02.127.125.258.07.389-.016.131.172.267.147.409-.015.14-.005.282.06.423-.015.147-.01.293-.045.444-.015.152-.116.303-.111.46-.01.156-.126.312-.076.474-.01.161.07.323-.111.49-.01.166.01.332-.03.504-.01.171.05.343.11.515-.006.176-.03.348-.07.53 0 .176-.13.358-.075.54 0 .18-.02.362.071.55 0 .186.02.367-.06.56 0 .186.04.373.081.56 0 .186-.085.367.036.55 0 .18.127.357-.04.539 0 .177-.01.353.071.53 0 .171-.02.348-.045.514.005.172-.191.338.05.505.01.166.081.328-.01.49.01.16-.035.317.086.474.01.156.016.308-.06.459.01.151-.095.297.081.444.016.146 0 .287-.005.429.015.141.146.272.025.408.015.132.015.263-.085.389.015.126.01.247.076.368.02.121-.02.237.218.348.02.111-.035.222.152.323.02.106-.12.207.016.303.021.096.01.187.015.278.02.797.066 1.25.142 1.25.222 0 .091-.56.172-1.528.242-.096.005-.197.111-.303.02-.106 0-.212.081-.323.02-.11.137-.227.026-.348.021-.12.005-.242-.04-.368.02-.126.08-.257-.04-.389.015-.13-.085-.267-.06-.408.015-.142-.08-.283.02-.43.016-.145-.127-.292-.04-.443.015-.151.045-.303-.02-.46.01-.156-.025-.312.03-.474.01-.161.06-.323.08-.489.01-.166.04-.333.01-.505.01-.171.05-.343-.005-.514.005-.177.025-.348-.136-.53.005-.177.02-.358-.02-.54 0-.181-.015-.363-.035-.55 0-.187-.141-.373-.055-.56 0-.187.04-.373.02-.56 0-.187.015-.368.005-.55 0-.181.04-.358-.06-.54 0-.176.06-.353-.065-.53-.005-.176.04-.348.06-.514-.005-.172 0-.338-.126-.505-.01-.166.025-.328.187-.49-.01-.16.05-.317-.09-.473-.01-.157-.142-.308-.01-.46-.01-.15-.026-.297-.076-.444-.015-.146.065-.287-.036-.423-.016-.142.081-.278-.105-.41-.015-.13-.02-.261.016-.388-.015-.126.192-.247 0-.368-.02-.121-.025-.232.126-.348-.02-.111.146-.222.02-.323-.02-.106-.04-.207.06-.303-.02-.096.1-.186-.056-.277-.02-.086-.066-.172 0-.253-.02a.295.295 0 0 1-.227-.026c-.07-.01-.136-.015-.201-.025-.369-.046-.57-.096-.57-.152h.005Zm-2.209 2.195c.055 0 .105.202.15.575.006.06.016.126.026.197a.67.67 0 0 1 .02.227c-.07.08.132.166.02.252-.03.086 0 .182.02.278.026.096-.045.197.02.303.137.105-.15.212.021.322.035.111.025.227.02.349-.106.12 0 .242.02.368-.126.126-.07.257.016.389-.172.13-.147.267.015.408.005.141-.06.283.015.429.01.146.045.293.015.444.116.151.111.303.01.46.126.156.076.312.01.473-.07.162.111.323.01.49-.005.166.03.333.01.504-.05.172-.11.343.005.515.03.177.071.353.005.53.132.176.076.358 0 .54.02.181-.07.363 0 .55-.02.186.061.368 0 .56-.04.186-.08.373 0 .56.086.187-.035.368 0 .55-.126.181.04.363 0 .54.01.176-.07.353-.005.53.02.176.046.348-.005.52.192.17-.05.337-.01.504-.08.166.01.328-.01.49.035.16-.09.317-.01.473-.015.157.06.308-.01.46.096.15-.08.297-.015.444 0 .146.005.287-.015.428-.152.142-.026.273-.015.41-.015.13.085.261-.016.388-.01.126-.075.247-.02.368.02.121-.217.237-.02.348.035.111-.151.222-.02.323.121.106-.015.207-.02.303-.01.096-.015.186-.02.277-.066.797-.142 1.252-.222 1.252-.091 0-.172-.566-.243-1.53-.005-.095-.11-.196-.02-.302 0-.106-.08-.212-.02-.323-.136-.111-.025-.227-.02-.348-.005-.121.035-.242-.02-.368-.081-.127.04-.258-.016-.389.086-.131.061-.267-.015-.409.081-.14-.02-.282-.015-.428.126-.147.035-.293-.015-.444-.045-.152.02-.303-.01-.46.025-.156-.03-.313-.01-.474a.64.64 0 0 1-.01-.49c-.04-.166-.005-.332-.005-.504-.05-.171.005-.343-.005-.52-.025-.176.136-.353-.005-.53-.02-.176.02-.358 0-.54.015-.18.035-.362 0-.55.14-.186.055-.373 0-.56-.04-.186-.02-.373 0-.56-.016-.186-.005-.368 0-.55-.04-.18.06-.363 0-.54-.06-.176.06-.352.005-.529-.04-.177-.06-.348.005-.515 0-.171.126-.338.005-.504-.026-.167-.187-.328.01-.49-.05-.161.096-.317.01-.474.141-.156.01-.308.01-.459.025-.151.076-.298.015-.444-.065-.146.035-.288.015-.429-.08-.141.106-.277.016-.408.02-.132-.01-.263.015-.39-.192-.125 0-.246.02-.367.025-.121-.126-.237.02-.349-.146-.11-.02-.222.02-.322.04-.106-.06-.207.02-.303-.1-.096.056-.192.02-.278.066-.09 0-.171.02-.252a.319.319 0 0 1 .02-.227c.011-.07.016-.136.026-.202.045-.368.101-.575.151-.575l.01.005Zm-2.195-2.21c0 .056-.202.106-.575.151-.06.005-.126.016-.197.026a.825.825 0 0 1-.227.025c-.08-.07-.167.131-.252.02-.091-.03-.182 0-.278.02-.096.025-.197-.045-.303.02-.105.137-.212-.15-.322.02-.111.036-.228.026-.349.02-.12-.105-.242 0-.368.021-.126-.126-.257-.07-.389.015-.13-.171-.267-.146-.408.015-.141.005-.283-.06-.429.015-.146.01-.293.046-.444.016-.151.116-.303.11-.46.01-.156.126-.312.075-.474.01-.16-.07-.322.11-.489.01-.166-.01-.333.03-.504.01-.172-.05-.343-.106-.515.005-.177.03-.353.07-.53 0-.177.131-.358.076-.54 0-.181.02-.363-.07-.55 0-.186-.02-.368.06-.555 0-.186-.04-.373-.08-.56 0-.186.086-.368-.035-.55 0-.181-.126-.363.04-.54 0-.176.01-.353-.07-.53 0-.176.02-.348.045-.514-.005-.172.192-.338-.05-.505-.01-.166-.08-.328.01-.489-.01-.162.035-.318-.086-.474-.01-.157-.015-.308.06-.46-.01-.15.096-.297-.081-.443-.016-.147 0-.288.005-.424-.015-.142-.151-.278-.025-.409-.015-.131-.015-.262.086-.389-.015-.126-.01-.247-.08-.368-.02-.12.02-.232-.217-.348-.02-.11.035-.222-.152-.323-.02-.106.12-.207-.016-.303-.02-.095-.006-.186-.016-.277-.02-.792-.066-1.251-.142-1.251-.223 0-.09.56-.171 1.528-.242.096-.005.197-.111.303-.02.106 0 .212-.081.323-.02.111-.137.227-.026.348-.02.121-.006.242.04.369-.02.126-.082.257.04.388-.016.131.086.267.06.409-.015.141.086.282-.015.424-.015.146.126.292.04.444-.015.151-.046.302.02.459-.01.156.025.313-.03.474-.01.161-.061.323-.081.49-.01.166-.041.332-.01.504-.01.171-.051.343.004.515-.006.171-.025.348.136.53-.005.176-.02.358.02.54 0 .18.02.363.035.55 0 .186.142.368.056.56 0 .186-.04.373-.02.554 0 .187-.015.369-.005.55 0 .182-.04.363.06.54 0 .177-.06.353.066.53.005.171-.04.348-.06.515.005.171 0 .338.126.504.01.167-.025.328-.186.49.01.161-.05.317.091.474.01.156.142.308.006.459.01.151.026.298.076.444.016.146-.066.288.035.429.015.141-.08.272.106.409.015.13.02.262-.01.388.015.126-.191.247 0 .368.02.121.026.238-.126.348.02.111-.146.223-.02.323.02.106.041.207-.06.303.021.096-.101.187.055.278.02.085.066.171 0 .252.02a.275.275 0 0 1 .227.026c.07.01.136.015.197.025.368.045.575.1.575.151Zm19.768-17.583c.04.04-.12.267-.444.655-.055.066-.11.132-.176.207a1.413 1.413 0 0 1-.202.232c-.126.026-.066.253-.227.258-.106.06-.177.171-.253.282-.075.111-.222.157-.272.303 0 .197-.313.096-.298.323-.08.136-.197.237-.318.348-.186.04-.232.232-.338.368-.212.03-.297.197-.363.384-.252 0-.363.156-.378.404-.132.136-.313.227-.399.418-.131.147-.252.313-.419.434-.06.227-.212.369-.434.45-.06.236-.247.352-.449.463-.202.106-.232.389-.464.48-.166.151-.298.338-.48.49-.196.125-.403.251-.489.499-.146.191-.287.388-.504.51-.076.262-.293.393-.515.519-.156.192-.398.298-.525.53-.191.161-.312.398-.534.535-.207.15-.414.302-.535.534-.116.238-.379.328-.53.525-.262.086-.318.373-.52.515-.161.181-.388.287-.51.504-.15.182-.297.369-.499.49-.025.297-.358.292-.49.48-.216.1-.307.322-.479.463-.126.182-.368.247-.464.45-.161.136-.252.342-.449.433-.075.212-.343.232-.434.419-.141.136-.272.277-.418.399-.238.03-.283.247-.404.378-.141.116-.192.313-.383.363-.132.111-.293.187-.364.343-.1.132-.378.071-.348.318-.08.131-.318.101-.328.298-.015.187-.207.187-.303.278l-.282.252c-.808.716-1.297 1.1-1.358 1.044-.06-.065.42-.66 1.297-1.64.086-.096.111-.267.278-.302.1-.101.146-.263.297-.328.01-.207.202-.237.318-.349.111-.12.258-.206.343-.363.066-.176.273-.217.359-.383.186-.066.302-.212.378-.404.192-.075.257-.282.399-.419.232-.05.307-.252.418-.434.111-.176.308-.277.434-.449.167-.13.278-.322.45-.464.11-.197.252-.368.464-.48.13-.186.312-.327.479-.489.126-.201.333-.322.49-.5.146-.186.433-.241.504-.509.156-.181.358-.328.514-.52.187-.16.379-.322.525-.53.278-.08.394-.317.535-.534.151-.207.343-.373.535-.535.166-.186.348-.358.53-.524.146-.202.388-.303.52-.515.13-.212.383-.293.509-.505.141-.197.288-.378.5-.49.16-.16.413-.236.489-.479.141-.176.187-.448.48-.464.12-.191.373-.242.463-.449.253-.05.303-.292.45-.434.166-.126.338-.232.433-.418.091-.187.303-.248.42-.399.075-.192.337-.187.403-.378.141-.116.242-.263.383-.364-.015-.257.242-.237.369-.343.136-.096.136-.313.343-.318.005-.212.197-.227.328-.297.13-.071.151-.242.302-.278.02-.166.222-.141.283-.252.131-.035.166-.162.257-.227a.555.555 0 0 1 .232-.202c.076-.06.142-.121.207-.177.389-.322.62-.479.656-.444l.005.01Z" fill="#CA534B"/><path d="M53.125 19.328c-.046-.03-.01-.166.085-.388.015-.035.036-.076.056-.116.015-.046.03-.096.06-.131.086 0-.045-.162.076-.147.06-.03.066-.095.086-.156.015-.066.106-.08.09-.172-.075-.13.203-.025.102-.181.01-.08.06-.136.11-.192.132 0 .091-.126.122-.202.151.005.151-.096.13-.212.193.03.218-.06.137-.222.045-.075.151-.11.146-.232.02-.04.04-.086.061-.126a.773.773 0 0 1 .131-.171c.015-.223.151-.414.288-.44a.697.697 0 0 1 .161-.358c.066.071.126.162.187.253.066.106.131.13.212.166a.395.395 0 0 1 .212.197c.035.035.07.066.106.096l.055.045.03.025c.046.03.086.066.122.111.045.111.09.227.252.217.106.05.217.096.257.222.172-.02.222.101.262.227a.246.246 0 0 1 .066.06l.025.036s.01.02.036.04c.07.081.14.152.257.202.07.076.161.137.252.207.091.066.182.142.232.212a.105.105 0 0 1-.03.02c-.106.081-.207.152-.288.227a.695.695 0 0 0-.181.243.403.403 0 0 1-.091.136c-.02.02-.04.04-.06.055l-.03.026-.021.01c-.05.03-.111.055-.141.11-.172-.004-.136.192-.247.243-.071.09-.212.11-.243.237-.06.096-.126.192-.242.232.06.212-.186.121-.232.222-.131.02-.141.157-.232.217-.045.096-.207.08-.222.207-.08.06-.096.182-.217.202 0 .136-.192.08-.212.191l-.146.147a1.596 1.596 0 0 1-.172.151c-.08-.025-.126.01-.171.076-.046.066-.091.156-.142.217-.06.045-.12.151-.181.222a.46.46 0 0 1-.07-.207c-.031-.066-.056-.146-.082-.212-.025-.066-.055-.116-.1-.136-.036-.04-.036-.146-.04-.217-.006-.076-.021-.116-.122-.096-.04-.035-.045-.116-.04-.162 0-.045 0-.08-.076-.075-.141 0-.055-.121-.08-.177a1.84 1.84 0 0 1-.071-.166c-.202-.474-.288-.762-.217-.802.075-.046.333.227.706.726.04.05.162.05.116.156.015.03.05.05.08.071l.01.01s.006.005.006.01 0 .015-.005.03c.06-.035.066-.035.066-.015 0 .02-.016.061-.01.076.01.01.01.03.02.05.005.02.015.03.035 0 .015-.035.02-.03.02-.01.005.01.02.04.035-.02.02.101.066.026.056-.075.025.035.04.015.04-.01v-.051a.109.109 0 0 1 .02-.025c.157.025.162-.106.192-.212.035-.101.151-.126.202-.217.09-.055.121-.166.207-.222.03-.116.09-.207.217-.232.045-.106.146-.157.222-.232.04-.111.161-.152.232-.242.06-.096.257-.06.237-.243.07-.09.177-.146.242-.247.046-.035.096-.07.136-.11l.016-.016v-.01s0-.01-.01-.02c.07.03.1.015.1 0s-.035-.026-.07-.03h-.005c-.056-.006-.03-.01-.02-.03-.01 0-.016 0-.02-.01l-.056-.056-.06-.06c-.117-.046-.132-.198-.258-.233-.126-.03-.126-.197-.252-.227-.111-.046-.207-.101-.242-.227-.04-.035-.061-.096-.091-.146a.15.15 0 0 0-.026-.036s0-.005-.01-.005-.02.005-.04.03c-.015.006-.035.05-.04.071-.005.02 0 .015 0-.116-.005.02-.01 0-.02-.03-.01-.025-.03-.04-.02.03-.036-.076-.051-.055-.051-.03 0 .03.015.065.005.07-.015-.025-.131.061-.131.167 0 .116-.136.131-.167.217.015.121-.187.086-.161.207-.066.06-.086.146-.157.197.111.176-.09.13-.151.186-.066.046.02.197-.141.172.075.141-.066.126-.136.161-.071.03-.026.142-.127.146.05.111-.116.066-.12.132-.087.01-.066.09-.112.12a.129.129 0 0 1-.1.107c-.03.03-.066.06-.092.09-.171.172-.292.248-.333.218l.01-.016Z" fill="#CA534B"/><path d="M55.773 21.982c-.03-.045.046-.161.217-.333l.091-.09c.03-.036.06-.076.106-.102.081.03.01-.166.121-.11.066-.006.096-.066.137-.122.035-.055.13-.035.146-.126-.025-.151.202.046.161-.136.04-.07.106-.106.172-.141.121.04.126-.086.181-.152.142.06.177-.035.197-.156.167.096.227.02.207-.162.07-.055.182-.05.217-.166.066-.06.151-.162.167-.131-.066-.096-.091-.07.05-.05-.076-.036-.1-.036-.076-.036.01 0 .046 0 .076-.01.035-.01-.01-.02-.04-.02-.036 0-.05.005-.015-.026 0 0-.005-.01-.01-.01h-.01l-.03-.03a.482.482 0 0 1-.107-.121c-.035-.116-.065-.237-.227-.242-.096-.066-.202-.121-.227-.252-.177 0-.207-.121-.232-.258a.223.223 0 0 1-.056-.065l-.02-.04-.01-.02s0-.006-.005-.011c0 0-.005-.035-.03-.005 0-.015-.015-.01-.02 0-.01.005-.01.015-.015-.02v-.01s-.02-.04-.03-.036c-.01 0-.02.026-.01.071.01.02.01.03.01.035l-.02.01c-.051.03-.112.056-.142.111-.172-.005-.136.192-.247.243-.071.09-.212.11-.243.237-.06.096-.126.192-.237.227.06.212-.186.12-.232.222-.131.02-.141.156-.232.217-.045.1-.207.08-.222.207-.08.06-.096.186-.217.201 0 .137-.192.081-.212.192l-.035.036-.015.015a.076.076 0 0 1-.04.02c-.086-.02-.117 0-.112.015 0 .015.036.03.03.04-.025.015.01.026.01.03.016 0 .006.01-.04.03 0 .01-.01.026 0 .041 0 .015.02.025.066.015.025 0-.015.04-.025.076-.01.03.01.056.09-.015.026 0 .01.03.026.066.015.04.04.07.1.03.122-.07.107.08.157.116.05.04.096.076.141.106.41.313.621.524.58.595-.045.076-.398-.035-.968-.287-.056-.026-.167.03-.177-.081-.03-.015-.07-.015-.106-.025h-.015l-.02-.01s-.025-.01-.04-.02a.174.174 0 0 1-.06-.061c-.097.025-.162-.005-.203-.046-.045-.04-.07-.09-.116-.12-.055-.031-.1-.066-.151-.102a.587.587 0 0 0-.202-.085.34.34 0 0 1-.176-.076c.08-.066.186-.126.196-.187.222-.1.268-.176.293-.318a.326.326 0 0 0 .181-.151c.02-.03.04-.066.061-.096l.03-.045a.111.111 0 0 1 .02-.025c.157.025.162-.107.192-.212.036-.101.152-.127.202-.217.086-.056.121-.167.207-.222.03-.116.09-.207.217-.233.045-.105.146-.156.222-.232.04-.11.161-.151.227-.237.06-.096.257-.06.237-.242.07-.096.177-.146.242-.247.046-.036.096-.07.136-.111l.016-.015.03-.03.055-.061c.036-.04.071-.086.106-.131a.37.37 0 0 0 .253-.152c.07-.085.14-.207.222-.328l.02-.03c.146.116.298.313.429.49.075.075.151.161.227.242l.035.04.025.035.056.071c.106.06.11.212.227.262.121.046.106.212.222.258.106.055.197.126.217.252.035.04.05.1.07.151.005.015.01.026.02.036a.39.39 0 0 0 .182.131c.076.066.187.121.278.197.09.07.156.161.09.232a.49.49 0 0 1 .147.176c-.121.056-.232.101-.257.177-.157.025-.222.066-.273.121-.05.056-.096.126-.166.172-.187.096-.253.085-.303.191-.04.111-.172.076-.232.147-.025.116-.207.015-.222.136-.08.035-.131.106-.212.131.04.202-.131.09-.207.121-.08.02-.05.192-.192.111.026.162-.106.096-.181.101-.081 0-.076.126-.172.09.01.122-.131.026-.156.087-.086-.026-.091.06-.147.075a.129.129 0 0 1-.13.066c-.041.02-.081.035-.117.055-.222.096-.358.127-.388.086l-.016-.005Z" fill="#CA534B"/></svg>