<svg width="75" height="75" fill="none" xmlns="http://www.w3.org/2000/svg"><path d="M38.29 74.868C58.563 74.868 75 58.411 75 38.11 75 17.809 58.564 1.352 38.29 1.352c-20.276 0-36.712 16.457-36.712 36.758 0 20.301 16.436 36.758 36.711 36.758Z" fill="#215EAB" opacity=".73"/><path d="M36.71 73.516c20.276 0 36.712-16.457 36.712-36.758C73.422 16.458 56.986 0 36.71 0S0 16.457 0 36.758C0 57.06 16.436 73.516 36.71 73.516Z" fill="#fff"/><path d="M22.66 16.196s-.1.03-.29.055c-.191.04-.478.09-.814.256a3.033 3.033 0 0 0-.532.332 2.684 2.684 0 0 0-.528.537 2.801 2.801 0 0 0-.557 1.742c.005.493.015 1.015.025 1.577.015.563.03 1.16.025 1.793-.07.633.13 1.3.02 1.998-.03.698 0 1.432.02 2.2.026.763-.045 1.562.02 2.39.136.829-.15 1.687.02 2.571.036.889.026 1.803.02 2.752-.105.944 0 1.918.02 2.917-.125 1-.07 2.03.016 3.079-.17 1.054-.146 2.129.015 3.233.005 1.105-.06 2.23.015 3.38.01 1.15.045 2.325.015 3.52.06.598.085 1.2.085 1.808 0 .301-.005.612-.015.914-.01.26.02.522.08.788.03.06.056.12.091.18.035.061.07.116.1.172l.116.165c.035.056.085.1.126.156a2.708 2.708 0 0 0 1.3.879c.126.045.261.065.392.09l.206.02.236.015c1.275.07 2.57-.11 3.886-.01 1.316.01 2.647-.03 3.997-.01 1.351.05 2.717.106 4.098-.005 1.38-.03 2.777-.07 4.188-.005 1.41-.13 2.837-.075 4.273 0 1.436-.02 2.888.07 4.354 0 1.461.02 2.937-.06 4.419 0 .633.02 1.275-.22 1.732-.668a2.24 2.24 0 0 0 .532-.783c.121-.291.176-.608.166-.924-.005-.18-.015-.357-.02-.537 0-.181-.005-.367-.005-.548 0-.366 0-.728.01-1.09.015-.722.035-1.446.02-2.164.126-1.436-.04-2.862 0-4.273-.01-1.411.07-2.807.005-4.188-.02-1.38-.045-2.747.005-4.097-.19-1.351.05-2.682.01-3.998.08-1.315-.01-2.61.01-3.886-.035-1.276.086-2.536.01-3.771.016-1.236-.06-2.456.01-3.651-.045-.598-.025-1.19 0-1.778l.01-.22v-.293l-.01-.095c-.01-.066-.01-.13-.03-.191a1.92 1.92 0 0 0-.291-.703 2.292 2.292 0 0 0-.467-.582c-.045-.04-.09-.086-.14-.126l-.151-.11c-.106-.066-.206-.136-.322-.186-.11-.06-.225-.096-.341-.14-.12-.031-.236-.071-.357-.086-.06-.005-.12-.025-.18-.025l-.181-.01c-.13 0-.276 0-.412-.01-1.1-.146-2.18-.026-3.234-.016-1.054-.015-2.079.086-3.078-.015-1-.01-1.973-.075-2.917-.02-.944.02-1.863-.216-2.752-.02-.889.035-1.748-.15-2.571-.02-.829.12-1.627-.015-2.39-.02-.764-.01-1.497-.015-2.2-.02-3.148-.03-5.629-.065-7.316-.105-.844-.02-1.492-.036-1.929-.056-.436-.02-.662-.04-.662-.06 0-.02.276-.045.813-.065.538-.02 1.336-.04 2.37-.06 2.07-.04 5.097-.08 8.924-.111.763-.005 1.561-.11 2.39-.02.828 0 1.687-.08 2.57-.02.89-.136 1.803-.025 2.753-.02.944-.005 1.918.035 2.917-.02 1-.08 2.029.04 3.078-.015 1.055.085 2.13.06 3.234-.015.14.01.271.015.417.025l.23.02c.076 0 .157.02.232.03.156.02.301.065.457.1.145.05.296.1.437.171.145.06.28.146.416.226l.196.136c.066.045.12.1.186.15.236.211.452.457.608.743.04.07.065.151.095.226.03.076.06.151.08.226.026.08.05.156.07.231l.051.236c.02.08.025.161.035.241l.015.12c.005.041.005.081.005.121 0 .08.01.166.01.241v.221c.015.588.05 1.18.076 1.778.045 1.195-.02 2.41.01 3.65-.026 1.236.03 2.496.01 3.772.06 1.275.08 2.57.01 3.886.04 1.316.01 2.647.01 3.998.05 1.35-.005 2.716.005 4.097.025 1.381-.136 2.777.005 4.188.02 1.411-.02 2.837 0 4.273-.01.718-.02 1.442-.02 2.165v1.09c0 .18 0 .366.005.547v.276l.01.135v.152a3.673 3.673 0 0 1-1.04 2.22 3.415 3.415 0 0 1-1.024.713 3.248 3.248 0 0 1-1.235.286c-1.487.04-2.958.02-4.42 0-1.46.015-2.912.005-4.353 0-1.436.04-2.862-.06-4.273 0-1.411.06-2.807-.066-4.188-.005-1.381.04-2.747.06-4.098-.005-1.35 0-2.681-.126-3.997-.01-1.316.025-2.611.185-3.887-.01-.08 0-.155.005-.24.005-.09 0-.181-.005-.272-.01a2.81 2.81 0 0 1-.537-.1 3.25 3.25 0 0 1-.97-.463 3.523 3.523 0 0 1-.757-.738c-.05-.07-.11-.136-.156-.216l-.14-.226-.121-.23c-.04-.081-.07-.162-.106-.242a4.258 4.258 0 0 1-.115-1.03c.005-.31 0-.612 0-.918-.015-.608-.045-1.21-.045-1.808.025-1.195.075-2.365.015-3.52-.066-1.15.035-2.28.015-3.38-.08-1.104.105-2.179.015-3.233.02-1.055-.015-2.08.015-3.078-.19-1 0-1.974.015-2.918.03-.944-.125-1.863.02-2.752-.145-.889-.02-1.747.02-2.57.04-.83-.06-1.628.02-2.391-.1-.763.056-1.497.02-2.2.066-.697 0-1.365.02-1.998a17.63 17.63 0 0 1 .02-1.793c.01-.562.016-1.09.026-1.576a2.992 2.992 0 0 1 .677-1.884 2.85 2.85 0 0 1 .593-.547 2.794 2.794 0 0 1 1.451-.507c.201 0 .302.01.302.025l.015-.02Z" fill="#CA534B"/><path d="M22.977 20.896c.055 0 .105.869.15 2.456.006.266.016.547.026.853.015.307.03.628.025.97-.07.34.13.702.02 1.079-.03.377 0 .773.02 1.185.025.412-.045.844.02 1.29.136.448-.15.91.02 1.392.015.195.02.396.025.597v.317h.11c.021.014.051.02.081.03h.08l.096.01c.13 0 .261 0 .392-.005.26-.015.527-.046.798-.056.542.126 1.095.07 1.662-.015.568.171 1.15.146 1.748-.015.597-.005 1.205.06 1.828-.015.622-.01 1.255-.045 1.898-.015a6.05 6.05 0 0 1 1.973-.01c.668-.125 1.346-.075 2.039-.01.688.07 1.39-.11 2.099-.01.708.01 1.43-.03 2.16-.01.727.05 1.465.105 2.214-.005.748-.03 1.501-.07 2.264-.005.764-.13 1.532-.075 2.31 0 .779-.02 1.562.07 2.35 0 .397.01.794 0 1.19-.015.201-.005.397-.01.598-.01.14 0 .1 0 .125.005.015 0 .03.01.05.015l.016-.035c0-.025.01 0 .015-.136.01-.2.015-.402.015-.597.005-.397 0-.794-.045-1.19-.086-.789.035-1.572 0-2.35.125-.779-.04-1.547 0-2.31-.01-.764.07-1.517.005-2.265l-.015-.563v-.085s-.005-.02-.005-.03h-.111c-.18 0-.367-.015-.547-.025-.728.19-1.452-.05-2.16-.01-.707-.08-1.41.01-2.099-.01-.687.035-1.37-.086-2.038-.01-.668-.015-1.326.06-1.974-.01-.648.095-1.28-.08-1.898-.015-.622 0-1.23.005-1.828-.015-.597-.151-1.18-.026-1.747-.015-.568-.016-1.125.085-1.662-.016-.543-.01-1.065-.075-1.577-.02-.512.02-1.004-.216-1.486-.02-.477.035-.944-.15-1.391-.02-.447.12-.88-.015-1.29-.02-.413-.005-.81-.015-1.186-.02a164.71 164.71 0 0 1-3.952-.105c-.914-.036-1.4-.076-1.4-.116 0-.045.602-.085 1.721-.125 1.12-.04 2.752-.08 4.821-.111.412-.005.844-.11 1.29-.02.448 0 .91-.08 1.392-.02.482-.136.974-.025 1.486-.02.512-.005 1.034.04 1.577-.02.542-.08 1.095.04 1.662-.015.567.085 1.15.06 1.747-.015.598.08 1.206-.02 1.828-.016.623.126 1.256.04 1.898-.015.648-.045 1.3.02 1.974-.01.668.025 1.346-.035 2.038-.01a11.27 11.27 0 0 1 2.1-.01c.708-.04 1.43-.01 2.159-.01.18-.01.361-.02.547-.02h.989c0 .332-.005.663-.01.994v.563c.025.743-.135 1.501 0 2.265.02.763-.02 1.531 0 2.31a33.48 33.48 0 0 0 0 2.35c-.07.396-.08.793-.07 1.19.005.2.015.396.03.597.005.065.015.286.02.467.005.191.015.382.02.573-.185 0-.376.01-.562.01-.16 0-.322.005-.482.01h-.598c-.396 0-.793-.015-1.19-.02-.788.015-1.577.005-2.35 0-.778.04-1.547-.06-2.31 0-.763.06-1.516-.066-2.265-.005-.748.04-1.48.06-2.214-.005-.728 0-1.446-.126-2.16-.01-.707.025-1.41.185-2.098-.01-.688.05-1.371-.09-2.039-.01-.668-.141-1.326-.006-1.973-.01-.648-.026-1.28-.076-1.899-.016-.622.066-1.23-.035-1.827-.015-.598.08-1.18-.105-1.748-.015-.567-.02-1.125.01-1.662-.015-.271.096-.537.095-.798.07-.131-.015-.262-.03-.392-.05l-.096-.01h-.05l-.025-.01h-.04a3.219 3.219 0 0 0-.306-.015h-.452c0-.16-.015-.321-.02-.487-.005-.146-.015-.286-.02-.432-.01-.2 0-.402.06-.597-.146-.482-.02-.944.02-1.391.04-.447-.06-.88.02-1.29-.1-.413.055-.81.02-1.186.065-.377 0-.738.02-1.08a5.142 5.142 0 0 1 .02-.969c.01-.306.015-.587.025-.853.046-1.587.1-2.456.151-2.456h.01Zm1.11 13.819c.055 0 .105.201.15.563.005.06.015.125.025.195.015.07.03.146.02.221-.07.08.131.161.02.246-.03.086 0 .176.02.272.026.095-.045.19.02.296.136.1-.15.21.02.316.036.11.026.226.02.342-.105.115 0 .236.02.361-.014.015-.03.03-.04.045-.004.01-.01.015-.014.025 0 .01-.005.01-.01.016-.01.015-.015.035-.01.05.01.03.045.05.09.045-.085.075-.12.15-.12.186.045 0 .13-.05.2-.136.02 0 .035.015.06.02h.057a.292.292 0 0 0 .105-.035c.14-.01.287-.045.437-.015.15-.115.302-.11.452-.01.15-.126.306-.075.467-.01.156.07.316-.11.482-.01.16.005.327-.03.492-.01.166.05.337.105.507-.005.171-.03.347-.07.518-.005.175-.13.351-.075.527 0 .176-.02.356.07.537 0h.059c.005 0 .01-.01.015-.015.006-.01.006-.015.046.015 0 0 .04 0 .045-.02 0-.01 0-.02-.005-.035 0-.005-.01-.01-.015-.015 0 0 0-.015-.005-.02 0-.01-.01-.02-.015-.036-.086-.18.035-.361 0-.537.125-.18-.04-.357 0-.527-.01-.176.07-.347.005-.517-.025-.171-.045-.342.005-.508-.096-.085-.086-.165-.05-.246.03 0 .08-.04.06-.05.04-.04.035-.07.025-.075-.03.01-.055.025-.065.015-.025.02-.03 0-.05-.02h-.006s-.015-.01-.025-.01h-.06a.24.24 0 0 0-.115.025c-.151-.015-.302.06-.452-.01-.151.095-.292-.08-.437-.015-.14 0-.281.005-.417-.015-.136-.146-.271-.026-.402-.015-.13-.015-.256.085-.381-.015-.126-.01-.246-.076-.362-.02-.115.02-.23-.217-.341-.02-.11.035-.216-.151-.317-.02-.1.12-.2-.016-.296-.02-.095-.006-.186-.016-.271-.02-.779-.066-1.225-.142-1.225-.222 0-.09.552-.17 1.501-.24.095-.006.196-.111.296-.021.1 0 .206-.08.317-.02.11-.136.226-.025.341-.02.116-.005.236.04.362-.02.125-.08.25.04.381-.015.13.085.266.06.402-.015.136.085.276-.02.417-.015.14.125.286.04.437-.016.15-.045.296.02.452-.01.04.006.075.006.115.006.05 0 .095-.005.146-.01.14-.01.291-.02.426-.006.151-.03.317-.05.468-.055a2 2 0 0 1-.046.507c.02.141.02.297.02.447 0 .086-.01.166-.01.251.05.166-.005.337.005.508.025.17-.135.346.005.517.02.175-.02.351 0 .527-.02.176-.035.357 0 .537-.01.01-.015.025-.025.035 0 .005-.005.01-.01.02l-.01.03c-.01.04-.02.081-.025.121-.01.075-.01.156-.005.236.01.16.045.347.07.547-.155.02-.331.026-.507.02-.09 0-.175 0-.266-.01h-.13l-.03-.01h-.02l-.036-.005c-.18.016-.361.005-.537 0-.176.04-.357-.06-.527 0-.176.06-.347-.065-.518-.005-.17.04-.341.06-.507-.005-.166 0-.331-.125-.492-.01-.16.025-.321.186-.482-.01-.156.05-.316-.095-.467-.01-.156-.14-.306-.005-.452-.01-.146-.025-.291-.075-.437-.015a.269.269 0 0 1-.105.025h-.076c-.03 0-.06-.005-.09-.01-.12-.015-.226-.035-.351-.025a.579.579 0 0 1-.342-.015c.025-.136.045-.246 0-.326.01-.116.005-.221 0-.327v-.221c0-.015 0-.03.01-.045-.19-.125 0-.246.015-.361.025-.116-.125-.231.02-.342-.145-.11-.02-.216.02-.316s-.06-.201.02-.297c-.1-.095.056-.185.02-.27.066-.086 0-.171.02-.247a.28.28 0 0 1 .02-.22c.01-.07.016-.136.026-.197.045-.361.1-.562.15-.562l.02.005Zm10.48 0c.055 0 .105.201.15.563.005.06.016.125.026.195a.65.65 0 0 1 .02.221c-.07.08.13.161.02.246-.03.086 0 .176.02.272.025.095-.045.19.02.296.135.1-.15.21.02.316.035.11.025.226.02.342-.105.115 0 .236.02.361-.015.015-.03.03-.04.045l-.015.025c0 .01-.005.01-.01.016-.01.015-.015.035-.01.05.01.03.045.05.09.045-.085.075-.12.15-.12.186.045 0 .13-.05.2-.136.02 0 .036.015.06.02h.057a.292.292 0 0 0 .105-.035c.141-.01.287-.045.437-.015.146-.115.297-.11.452-.01.15-.126.307-.075.467-.01.161.07.317-.11.482-.01.166.005.327-.03.498-.01.165.05.336.105.507-.005.17-.03.341-.07.517-.005.176-.13.351-.075.527 0 .18-.02.357.07.537 0h.061c.005 0 .01-.01.015-.015.005-.01 0-.015.045.015 0 0 .04 0 .045-.02v-.035c0-.005-.01-.01-.015-.015h-.005s0-.015-.005-.02c0-.01-.01-.02-.015-.036-.085-.18.035-.361 0-.537.125-.18-.04-.357 0-.527-.01-.176.07-.347.005-.517-.025-.171-.045-.342.005-.508-.095-.085-.085-.165-.05-.246.03 0 .08-.04.06-.05.04-.04.035-.065.025-.075-.03.01-.055.025-.065.015-.025.02-.03 0-.05-.02h-.01s-.02-.01-.025-.01h-.06a.24.24 0 0 0-.116.025c-.15-.015-.307.06-.452-.01-.146.095-.291-.08-.437-.015-.14 0-.281.005-.417-.015-.135-.146-.271-.026-.402-.015-.13-.015-.256.085-.381-.015-.126-.01-.246-.076-.362-.02-.115.02-.23-.217-.341-.02-.11.035-.216-.151-.317-.02-.1.12-.2-.016-.296-.02-.095-.006-.186-.016-.271-.02-.778-.066-1.225-.142-1.225-.222 0-.09.552-.17 1.501-.24.096-.006.196-.111.297-.021.1 0 .21-.08.316-.02.11-.136.226-.025.341-.02.116-.005.236.04.362-.02.125-.08.25.04.382-.015.13.085.26.06.401-.015.136.085.276-.02.417-.015.14.125.286.04.437-.016.145-.045.296.02.452-.01.04.006.075.006.115.006.05 0 .096-.005.146-.01.14-.01.291-.02.427-.006.15-.03.316-.05.467-.055a2 2 0 0 1-.045.507c.02.141.02.297.02.452 0 .086-.01.166-.01.251.05.166-.005.337.005.508.025.17-.136.346.005.517.02.175-.02.351 0 .527-.015.176-.035.356 0 .537-.01.01-.015.025-.026.035 0 .005-.005.01-.01.02l-.01.03c-.01.04-.02.081-.025.116-.01.08-.01.156-.005.236.01.16.045.347.07.547-.155.02-.33.026-.507.02-.09 0-.175 0-.266-.01h-.13l-.03-.01h-.02l-.036-.005c-.18.016-.361.005-.537 0-.176.04-.356-.06-.527 0-.176.06-.347-.065-.517-.005-.171.04-.342.06-.508-.005-.165 0-.331-.125-.497-.01-.16.025-.321.186-.482-.01-.155.05-.316-.095-.467-.01-.155-.14-.306-.005-.452-.01-.145-.025-.291-.075-.437-.015a.269.269 0 0 1-.105.025h-.075a.555.555 0 0 1-.09-.01c-.121-.015-.227-.035-.352-.025a.578.578 0 0 1-.342-.015c.025-.136.046-.246 0-.321.01-.116.005-.221 0-.327v-.221c0-.015 0-.03.01-.045-.19-.125 0-.246.02-.361.026-.116-.125-.231.02-.342-.145-.11-.02-.216.02-.316s-.06-.201.02-.297c-.1-.095.056-.185.02-.27.066-.086 0-.171.02-.247a.28.28 0 0 1 .02-.22c.011-.07.016-.136.026-.196.045-.362.1-.563.15-.563h.02Zm10.484 0c.056 0 .106.201.151.563.005.06.015.125.025.195.015.07.03.146.02.221-.07.08.13.161.02.246-.03.086 0 .176.02.272.026.095-.045.195.02.296.136.1-.15.21.02.316.036.11.026.226.02.342-.105.115 0 .236.016.361a.315.315 0 0 0-.04.045l-.015.025c0 .01-.005.01-.01.016-.01.015-.016.035-.01.05.01.03.045.05.09.045-.085.075-.12.15-.12.186.045 0 .13-.05.2-.136.02 0 .04.015.06.02h.057a.292.292 0 0 0 .105-.035c.14-.01.286-.045.437-.015.146-.115.296-.11.452-.01.156-.126.311-.075.467-.01.156.07.316-.11.482-.01.16.005.326-.03.497-.01.166.05.337.105.507-.005.171-.03.347-.07.518-.005.175-.13.351-.075.532 0 .176-.02.356.07.537 0h.059c.005 0 .01-.01.016-.015.005-.01 0-.015.045.015 0 0 .04 0 .045-.02 0-.01 0-.02-.005-.035 0-.005-.01-.01-.015-.015 0 0 0-.015-.005-.02 0-.01-.01-.02-.015-.036-.086-.18.035-.361 0-.537.125-.18-.04-.357 0-.527-.01-.176.07-.347.005-.517-.025-.171-.045-.342.005-.508-.096-.085-.08-.165-.05-.246.03 0 .08-.04.06-.05.04-.04.035-.065.025-.075-.03.01-.055.025-.065.015-.026.02-.03 0-.05-.02h-.01s-.016-.01-.026-.01h-.055a.24.24 0 0 0-.115.025c-.151-.015-.302.06-.452-.01-.151.095-.292-.08-.437-.015-.14 0-.282.005-.417-.015-.136-.146-.271-.026-.402-.015-.13-.015-.256.085-.381-.015-.126-.01-.246-.076-.362-.02-.115.02-.23-.217-.341-.02-.11.035-.216-.151-.322-.02-.1.12-.2-.016-.296-.02-.096-.006-.186-.016-.271-.02-.779-.066-1.23-.142-1.23-.222 0-.09.552-.17 1.5-.24.096-.006.192-.111.297-.021.106 0 .211-.08.322-.02.11-.136.226-.025.341-.02.116-.005.236.04.362-.02.125-.08.25.04.381-.015.13.085.261.06.402-.015.136.085.276-.02.417-.015.14.125.286.04.437-.016.145-.045.296.02.452-.01.04.006.075.006.115.006.045 0 .095-.005.146-.01.14-.01.286-.02.426-.006.151-.03.317-.05.467-.055.005.156-.005.332-.045.507.02.141.02.297.02.447 0 .086-.01.166-.01.251.05.166-.005.337.005.508.026.17-.135.346.005.517.02.175-.02.351 0 .527a1.75 1.75 0 0 0 0 .537c-.01.01-.015.025-.025.035 0 .005-.005.01-.01.02l-.01.03c-.01.04-.02.081-.025.116-.01.08-.01.156-.005.236.01.16.045.347.07.547-.155.02-.331.026-.507.02-.09 0-.176 0-.266-.01h-.13l-.03-.01h-.02l-.036-.005c-.18.015-.361.005-.537 0-.176.04-.357-.06-.532 0-.176.06-.347-.065-.518-.005-.17.04-.341.06-.507-.005-.166 0-.331-.125-.497-.01-.166.026-.321.186-.482-.01-.16.05-.311-.095-.467-.01-.15-.14-.306-.005-.452-.01-.146-.025-.291-.075-.437-.015a.27.27 0 0 1-.105.025h-.076c-.03 0-.06-.005-.09-.01-.12-.015-.226-.035-.352-.025a.579.579 0 0 1-.341-.015c.025-.136.045-.246 0-.321.01-.116.005-.221 0-.327v-.221c0-.015 0-.03.01-.045-.19-.125 0-.246.02-.361.025-.116-.125-.231.02-.342-.145-.11-.02-.216.02-.316s-.06-.201.02-.297c-.1-.095.056-.185.02-.27.066-.086 0-.171.02-.247a.28.28 0 0 1 .02-.22c.01-.07.016-.136.026-.197.045-.361.1-.562.15-.562l.025.005Zm-20.964 6.649c.055 0 .105.2.15.562.005.06.015.126.025.196.015.07.03.146.02.221-.07.08.131.16.02.246-.03.085 0 .176.02.271.026.096-.045.191.02.297.136.1-.15.21.02.316.036.11.026.22.02.341-.105.116 0 .236.02.362-.014.015-.03.03-.04.045-.004.01-.01.015-.014.025 0 .01-.005.01-.01.015-.01.015-.015.035-.01.05.01.03.045.05.09.046-.085.075-.12.15-.12.185.045 0 .13-.05.2-.135.02 0 .035.015.06.02h.057a.29.29 0 0 0 .105-.035c.14-.01.287-.045.437-.015.15-.116.302-.11.452-.01.15-.126.306-.076.467-.01.156.07.316-.11.482-.01.16.01.327-.03.492-.01.166.05.337.105.507-.006.171-.03.347-.07.518-.005.175-.13.351-.07.527 0 .176-.02.356.07.537 0h.059c.005 0 .01-.01.015-.015.006-.01.006-.015.046.016 0 0 .04 0 .045-.02 0-.01 0-.02-.005-.03 0-.006-.01-.01-.015-.016 0 0 0-.015-.005-.02 0-.01-.01-.02-.015-.035-.086-.18.035-.362 0-.537.125-.176-.04-.357 0-.528-.01-.175.07-.346.005-.517-.025-.17-.045-.341.005-.507-.096-.085-.086-.166-.05-.251.03 0 .08-.04.06-.05.04-.04.035-.066.025-.076-.03.01-.055.026-.065.015-.025.02-.03 0-.05-.02h-.006s-.015-.01-.025-.01h-.06a.242.242 0 0 0-.115.025c-.151-.015-.302.06-.452-.01-.151.096-.292-.08-.437-.015-.14 0-.281.005-.417-.015-.136-.15-.271-.025-.402-.015-.13-.015-.256.086-.381-.015-.126-.01-.246-.075-.362-.015-.115.02-.23-.216-.341-.02-.11.035-.216-.15-.317-.02-.1.12-.2-.015-.296-.02-.095-.005-.186-.015-.271-.02-.779-.066-1.225-.14-1.225-.221 0-.09.552-.17 1.501-.241.095-.005.196-.11.296-.02.1 0 .206-.08.317-.02.11-.136.226-.026.341-.02.116-.006.236.04.362-.016.125-.08.25.04.381-.015.13.086.266.06.402-.015.136.08.276-.02.417-.015.14.126.286.04.437-.015.15-.045.296.02.452-.01.04.005.075.005.115.005.05 0 .095-.005.146-.01.14-.01.291-.015.426-.005.151-.03.317-.05.468-.055a2 2 0 0 1-.046.507c.02.14.02.296.02.452 0 .085-.01.166-.01.251.05.166-.005.337.005.507.025.17-.135.342.005.517.02.176-.02.352 0 .528-.02.175-.035.356 0 .537-.01.01-.015.02-.025.035 0 .005-.005.01-.01.02l-.01.03c-.01.04-.02.08-.025.12-.01.076-.01.157-.005.237.01.16.045.351.07.552-.155.02-.331.025-.507.02-.09 0-.175 0-.266-.01h-.13l-.03-.01h-.02l-.036-.005c-.18.015-.361.005-.537 0-.176.04-.357-.06-.527 0-.176.06-.347-.06-.518 0-.17.04-.341.06-.507-.005-.166 0-.331-.125-.492-.005-.16.025-.321.186-.482-.01-.156.05-.316-.09-.467-.01-.156-.14-.306-.005-.452-.01-.146-.025-.291-.075-.437-.015a.261.261 0 0 1-.105.02h-.076c-.03 0-.06-.005-.09-.01-.12-.015-.226-.035-.351-.025a.578.578 0 0 1-.342-.015c.025-.136.045-.246 0-.327.01-.115.005-.22 0-.326v-.216c0-.015 0-.03.01-.045-.19-.126 0-.246.015-.362.025-.115-.125-.23.02-.341-.145-.11-.02-.216.02-.316.04-.106-.06-.201.02-.297-.1-.095.056-.185.02-.27.066-.086 0-.172.02-.247a.281.281 0 0 1 .02-.22c.01-.071.016-.137.026-.197.045-.361.1-.562.15-.562l.02-.025Zm10.48 0c.055 0 .105.2.15.562.005.06.016.126.026.196a.65.65 0 0 1 .02.22c-.07.081.13.162.02.247-.03.085 0 .176.02.271.025.096-.045.196.02.296.135.106-.15.211.02.317.035.11.025.226.02.341-.105.116 0 .236.02.362-.015.015-.03.03-.04.045l-.015.025c0 .01-.005.01-.01.015-.01.015-.015.035-.01.05.01.03.045.05.09.045-.085.076-.12.151-.12.186.045 0 .13-.05.2-.135.02 0 .036.015.06.02h.057a.292.292 0 0 0 .105-.035c.141-.01.287-.046.437-.015.146-.116.297-.11.452-.01.15-.126.307-.076.467-.01.161.07.317-.111.482-.01.166.01.327-.03.498-.01.165.05.336.105.507-.006.17-.03.341-.07.517-.005.176-.13.351-.07.527 0 .18-.02.357.07.537 0h.061c.005 0 .01-.01.015-.015.005-.01 0-.015.045.015 0 0 .04 0 .045-.02v-.03c0-.005-.01-.01-.015-.015h-.005s0-.015-.005-.02c0-.01-.01-.02-.015-.035-.085-.18.035-.362 0-.537.125-.176-.04-.357 0-.528-.01-.175.07-.346.005-.517-.025-.17-.045-.341.005-.507-.095-.085-.085-.166-.05-.246.03 0 .08-.04.06-.05.04-.04.035-.066.025-.076-.03.01-.055.025-.065.015-.025.02-.03 0-.05-.02h-.01s-.02-.01-.025-.01h-.06a.24.24 0 0 0-.116.025c-.15-.015-.307.06-.452-.01-.146.096-.291-.08-.437-.015-.14 0-.281.005-.417-.015-.135-.15-.271-.025-.402-.015-.13-.015-.256.085-.381-.015-.126-.01-.246-.075-.362-.015-.115.02-.23-.216-.341-.02-.11.035-.216-.15-.317-.02-.1.12-.2-.015-.296-.02-.095-.005-.186-.015-.271-.02-.778-.066-1.225-.141-1.225-.221 0-.09.552-.171 1.501-.241.096-.005.196-.11.297-.02.1 0 .21-.08.316-.02.11-.136.226-.026.341-.02.116-.006.236.04.362-.016.125-.08.25.04.382-.015.13.086.26.06.401-.015.136.08.276-.02.417-.015.14.126.286.04.437-.015.145-.045.296.02.452-.01.04.005.075.005.115.005.05 0 .096-.005.146-.01.14-.01.291-.015.427-.005.15-.03.316-.05.467-.055a2 2 0 0 1-.045.507c.02.14.02.296.02.452 0 .085-.01.166-.01.25.05.167-.005.337.005.508.025.17-.136.347.005.517.02.176-.02.352 0 .528-.015.175-.035.356 0 .537-.01.01-.015.02-.026.035 0 .005-.005.01-.01.02l-.01.03c-.01.04-.02.08-.025.12-.01.076-.01.156-.005.237.01.16.045.351.07.552-.155.02-.33.025-.507.02-.09 0-.175 0-.266-.01h-.13l-.03-.01h-.02l-.036-.005c-.18.015-.361.005-.537 0-.176.04-.356-.06-.527 0-.176.06-.347-.06-.517 0-.171.04-.342.06-.508-.005-.165 0-.331-.125-.497-.005-.16.025-.321.186-.482-.01-.155.05-.316-.09-.467-.01-.155-.14-.306-.005-.452-.01-.145-.025-.291-.075-.437-.015a.263.263 0 0 1-.105.02h-.075a.544.544 0 0 1-.09-.01c-.121-.015-.227-.035-.352-.025a.577.577 0 0 1-.342-.015c.025-.136.046-.246 0-.322.01-.115.005-.22 0-.326v-.221c0-.015 0-.03.01-.045-.19-.126 0-.246.02-.362.026-.115-.125-.23.02-.341-.145-.11-.02-.216.02-.316s-.06-.201.02-.297c-.1-.095.056-.186.02-.271.066-.085 0-.17.02-.246a.28.28 0 0 1 .02-.22c.011-.071.016-.136.026-.197.045-.361.1-.562.15-.562l.02-.03Zm10.485 0c.055 0 .105.346.15.979.005.105.015.216.025.341.015.12.03.251.02.387-.07.136.131.281.02.432-.03.15 0 .311.02.472.026.166-.045.336.02.512.136.18-.15.362.02.557.036.191.026.387.02.593-.105.206 0 .412.016.628-.126.216-.07.437.015.663-.17.226-.146.457.015.698.005.236-.06.482.015.728.01.246.045.502.015.758a1 1 0 0 1 .01.788c.126.266.076.538.01.814a.491.491 0 0 0-.015.17v.036c0 .005.01.01.015.015.02.02.046.015.035.04v.03h.04c.02 0 0-.005.101-.01.146-.005.286-.01.432 0 .291.05.587.11.884-.005.296-.03.597-.07.904 0 .306-.13.612-.075.919 0 .31-.02.622.07.938 0 .08.005.156 0 .236 0h.121l.06-.01h.04c.02-.01.02-.015.07.015 0 0 .04-.03.046-.065v-.105c0-.041 0-.081-.005-.121a1.294 1.294 0 0 0-.04-.236c-.086-.317.035-.628 0-.94.125-.31-.04-.617 0-.918-.01-.307.07-.608.005-.904-.025-.296-.045-.593.005-.884-.191-.291.05-.577.01-.859.08-.28-.01-.562.01-.838-.035-.276.085-.548.01-.814.015-.266-.06-.527.01-.788-.095-.256.08-.512.015-.758 0-.246-.005-.492.015-.728a.516.516 0 0 0 .065-.161.099.099 0 0 0 0-.075c-.01-.05-.04-.07-.05-.096h-.015c-.035-.01-.09.015-.12.025-.01 0-.02 0-.026.005h-.05a.362.362 0 0 1-.16-.04c-.216-.01-.427-.075-.628-.015-.206.02-.402-.216-.593-.02-.19.035-.376-.15-.552-.02-.18.12-.351-.015-.517-.02-.166-.005-.322-.015-.472-.02-1.356-.066-2.134-.14-2.134-.221 0-.09.959-.171 2.61-.241.166-.005.337-.11.518-.02.176 0 .362-.08.552-.02.191-.136.387-.026.593-.02.206-.006.412.04.628-.016a.603.603 0 0 1 .16-.03h.11c.046 0 .091.005.141.01.186.015.352.03.563 0l.05.015a2.766 2.766 0 0 0-.04.553c0 .085.01.17.02.26.01.066.025.116.045.172-.085.236.02.482.015.728-.125.246-.04.502.015.758.045.256-.02.522.01.788-.025.267.03.538.01.814.06.276.08.552.01.838.04.282.01.573.01.86.05.29-.005.582.005.883.026.296-.135.597.005.904.02.301-.02.612 0 .919-.02.311-.035.622 0 .939a.962.962 0 0 0-.075.356v.136c.015.276.05.572.075.904-.28.02-.592.025-.898.02h-.261l-.236-.02c-.317.015-.628.005-.94 0-.31.04-.617-.06-.919 0-.306.06-.602-.066-.903-.005-.297.04-.593.06-.884-.005-.146 0-.291-.03-.432-.05-.05-.01-.196-.016-.316-.01-.126.004-.251.02-.402.05-.09 0-.186.015-.286.025-.025-.196-.055-.402-.06-.633v-.256l.01-.04v-.02a.681.681 0 0 1 .085-.171c-.05-.276.095-.547.01-.814.14-.266.005-.527.01-.788.03-.256.075-.512.015-.758-.065-.246.035-.492.015-.728-.08-.236.105-.472.015-.698.02-.226-.01-.447.015-.663-.19-.216 0-.427.02-.628.025-.206-.125-.402.02-.592-.145-.191-.02-.377.02-.558.04-.175-.06-.351.02-.512-.1-.166.056-.321.02-.472.066-.15 0-.296.02-.432a.83.83 0 0 1 .02-.386c.01-.121.016-.236.026-.342.045-.633.1-.98.15-.98l.016-.04Zm-20.965 6.649c.055 0 .105.2.15.562.005.06.015.125.025.196.015.07.03.145.02.22-.07.081.131.161.02.247-.03.085 0 .175.02.27.026.096-.045.197.02.297.136.1-.15.206.02.316.036.111.026.221.02.342-.105.115 0 .236.02.361-.014.016-.03.03-.04.046-.004.01-.01.015-.014.025 0 .01-.005.01-.01.015-.01.015-.015.035-.01.05.01.03.045.05.09.045-.085.076-.12.15-.12.186.045 0 .13-.05.2-.136.02 0 .035.016.06.02h.057a.29.29 0 0 0 .105-.035c.14-.01.287-.045.437-.015.15-.115.302-.11.452-.01.15-.125.306-.075.467-.01.156.07.316-.11.482-.01.16.01.327-.03.492-.01.166.05.337.11.507-.005.171-.03.347-.07.518 0 .175-.13.351-.075.527 0 .176-.02.356.07.537 0h.059c.005 0 .01-.01.015-.015.006-.01.006-.015.046.015 0 0 .04 0 .045-.02 0-.01 0-.02-.005-.03 0-.005-.01-.01-.015-.015 0 0 0-.015-.005-.02 0-.01-.01-.02-.015-.035-.086-.181.035-.362 0-.538.125-.175-.04-.356 0-.527-.01-.176.07-.346.005-.517-.025-.17-.045-.342.005-.507-.096-.086-.086-.166-.05-.246.03 0 .08-.04.06-.05.04-.04.035-.066.025-.076-.03.01-.055.025-.065.015-.025.02-.03 0-.05-.02h-.006s-.015-.01-.025-.01h-.06a.24.24 0 0 0-.115.025c-.151-.015-.302.06-.452-.01-.151.096-.292-.08-.437-.015-.14 0-.281.005-.417-.015-.136-.146-.271-.025-.402-.015-.13-.015-.256.085-.381-.015-.126-.01-.246-.075-.362-.015-.115.02-.23-.216-.341-.02-.11.035-.216-.15-.317-.02-.1.12-.2-.015-.296-.02-.095-.006-.186-.016-.271-.02-.779-.066-1.225-.141-1.225-.221 0-.09.552-.171 1.501-.242.095-.005.196-.11.296-.02.1 0 .206-.08.317-.02.11-.135.226-.025.341-.02.116-.005.236.04.362-.015.125-.08.25.04.381-.015.13.085.266.06.402-.015.136.085.276-.015.417-.015.14.125.286.04.437-.015.15-.045.296.02.452-.01.04.005.075.005.115.005.05 0 .095-.005.146-.01.14-.01.291-.015.426-.005.151-.03.317-.05.468-.055a2 2 0 0 1-.046.507c.02.14.02.296.02.447 0 .085-.01.165-.01.25.05.166-.005.337.005.508.025.17-.135.341.005.517.02.176-.02.352 0 .527-.02.181-.035.357 0 .538-.01.01-.015.02-.025.035 0 .005-.005.01-.01.02l-.01.03c-.01.04-.02.08-.025.115-.01.08-.01.156-.005.236.01.161.045.347.07.548-.155.02-.331.025-.507.02-.09 0-.175 0-.266-.01h-.13l-.03-.01h-.02l-.036-.005c-.18.015-.361.005-.537 0-.176.04-.357-.06-.527 0-.176.06-.347-.065-.518-.005-.17.04-.341.06-.507-.005-.166 0-.331-.126-.492-.01-.16.025-.321.186-.482-.01-.156.05-.316-.096-.467-.01-.156-.14-.306-.005-.452-.01-.146-.025-.291-.076-.437-.015a.269.269 0 0 1-.105.025h-.076c-.03 0-.06-.005-.09-.01-.12-.015-.226-.035-.351-.025a.54.54 0 0 1-.342-.015c.025-.136.045-.247 0-.327.01-.115.005-.22 0-.326v-.216c0-.015 0-.03.01-.045-.19-.126 0-.247.015-.362.025-.116-.125-.231.02-.341-.145-.11-.02-.216.02-.317.04-.1-.06-.2.02-.296-.1-.096.056-.186.02-.271.066-.086 0-.17.02-.246a.28.28 0 0 1 .02-.221c.01-.07.016-.136.026-.196.045-.362.1-.563.15-.563l.02-.014Zm10.48 0c.055 0 .105.2.15.562.005.06.016.125.026.196a.65.65 0 0 1 .02.22c-.07.081.13.161.02.247-.03.085 0 .175.02.27.025.096-.045.197.02.297.135.1-.15.206.02.316.035.111.025.226.02.342-.105.115 0 .236.02.361-.015.016-.03.03-.04.046l-.015.025c0 .005-.005.01-.01.015-.01.015-.015.035-.01.05.01.03.045.05.09.045-.085.076-.12.15-.12.186.045 0 .13-.05.2-.136.02 0 .036.016.06.02h.057a.29.29 0 0 0 .105-.035c.141-.01.287-.045.437-.015.146-.115.297-.11.452-.01.15-.125.307-.075.467-.01.161.07.317-.11.482-.01.166.01.327-.03.498-.01.165.05.336.11.507-.005.17-.03.341-.07.517 0 .176-.13.351-.075.527 0 .18-.02.357.07.537 0h.061c.005 0 .01-.01.015-.015.005-.01 0-.015.045.015 0 0 .04 0 .045-.02v-.03c0-.005-.01-.01-.015-.015h-.005s0-.015-.005-.02c0-.01-.01-.02-.015-.035-.085-.181.035-.362 0-.538.125-.175-.04-.356 0-.527-.01-.176.07-.346.005-.517-.025-.17-.045-.342.005-.507-.095-.08-.085-.166-.05-.246.03 0 .08-.04.06-.05.04-.04.035-.066.025-.076-.03.01-.055.025-.065.015-.025.02-.03 0-.05-.02h-.01s-.02-.01-.025-.01h-.06a.24.24 0 0 0-.116.025c-.15-.015-.307.06-.452-.01-.146.096-.291-.08-.437-.015-.14 0-.281.005-.417-.015-.135-.146-.271-.025-.402-.015-.13-.015-.256.085-.381-.015-.126-.01-.246-.075-.362-.015-.115.02-.23-.216-.341-.02-.11.035-.216-.15-.317-.02-.1.12-.2-.015-.296-.02-.095-.006-.186-.016-.271-.02-.778-.066-1.225-.141-1.225-.221 0-.09.552-.171 1.501-.242.096-.005.196-.11.297-.02.1 0 .21-.08.316-.02.11-.135.226-.025.341-.02.116-.005.236.04.362-.015.125-.08.25.04.382-.015.13.085.26.06.401-.015.136.085.276-.015.417-.015.14.125.286.04.437-.015.145-.045.296.02.452-.01.04.005.075.005.115.005.05 0 .096-.005.146-.01.14-.01.291-.015.427-.005.15-.03.316-.05.467-.055a2 2 0 0 1-.045.507c.02.14.02.296.02.447 0 .085-.01.165-.01.25.05.166-.005.337.005.508.025.17-.136.341.005.517.02.176-.02.352 0 .527-.015.181-.035.357 0 .538-.01.01-.015.02-.026.035 0 .005-.005.01-.01.02l-.01.03c-.01.04-.02.08-.025.12-.01.076-.01.156-.005.237.01.16.045.346.07.547-.155.02-.33.025-.507.02-.09 0-.175 0-.266-.01h-.13l-.03-.01h-.02l-.036-.005c-.18.015-.361.005-.537 0-.176.04-.356-.06-.527 0-.176.06-.347-.065-.517-.005-.171.04-.342.06-.508-.005-.165 0-.331-.126-.497-.01-.16.025-.321.186-.482-.01-.155.05-.316-.096-.467-.01-.155-.14-.306-.005-.452-.01-.145-.025-.291-.076-.437-.015a.269.269 0 0 1-.105.025h-.075a.555.555 0 0 1-.09-.01c-.121-.015-.227-.035-.352-.025a.578.578 0 0 1-.342-.016c.025-.135.046-.246 0-.32.01-.116.005-.222 0-.327v-.221c0-.015 0-.03.01-.045-.19-.126 0-.246.02-.362.026-.115-.125-.231.02-.341-.145-.11-.02-.216.02-.317.04-.105-.06-.2.02-.296-.1-.096.056-.186.02-.271.066-.086 0-.17.02-.246a.28.28 0 0 1 .02-.221c.011-.07.016-.136.026-.196.045-.362.1-.562.15-.562l.02-.02Zm19.253 7.491s-.026.05-.096.116a.6.6 0 0 0-.06.055c-.026.02-.05.04-.08.06-.061.04-.126.09-.212.136-.16.1-.376.196-.648.266a2.36 2.36 0 0 1-.446.08c-.166.016-.332.02-.508.026-.236.005-.487.015-.758.025-.271.015-.557.03-.858.025-.302-.07-.623.13-.96.02-.336-.03-.688 0-1.054.02-.367.025-.748-.045-1.145.02-.397.136-.808-.15-1.235.02-.427.035-.864.025-1.316.02-.452-.105-.919 0-1.396.02-.482-.125-.97-.07-1.476.015-.503-.17-1.02-.145-1.547.015-.527 0-1.07-.06-1.622.016-.552.01-1.115.045-1.687.014a4.753 4.753 0 0 1-1.748.01c-.592.126-1.195.076-1.807.01-.613-.07-1.236.111-1.863.01-.628-.01-1.266.03-1.913.01-.648-.05-1.301-.11-1.964.006-.663.03-1.33.07-2.008.005-.678.13-1.361.075-2.05 0h-.647l-.065-.005h-.076c-.1-.015-.195-.015-.296-.035-.1-.016-.196-.03-.291-.056l-.146-.03-.135-.04c-.036-.01-.07-.015-.08 0-.016-.01-.026-.02-.04-.025-.011-.005-.021-.015-.026-.015 0 .015.01.03.015.04a7.268 7.268 0 0 0 .05.106l.035.09.04.095c.03.066.05.13.08.191.132.291.302.563.518.783.216.221.477.382.753.432.07.01.136.03.201.03.035 0 .066.01.1.015h.101c.035.005.06.01.1.01h.131l.261.01c.347.016.693.036 1.04.02.688.126 1.37-.04 2.048 0 .678-.01 1.346.071 2.009.006.663-.02 1.316-.046 1.963.005.648-.191 1.286.05 1.914.01.627.08 1.25-.01 1.863.01.612-.035 1.215.085 1.807.01.593.015 1.175-.06 1.748.01.572-.096 1.135.08 1.687.015.552 0 1.09-.005 1.617.015.527.15 1.044.025 1.552.015.502.015.994-.085 1.476.015.477.01.944.076 1.396.02.452-.02.894.216 1.316.02.426-.035.838.151 1.23.02.397-.12.778.016 1.145.02.366.005.718.016 1.054.02.186 0 .382.01.533 0a.43.43 0 0 0 .115-.014c.04-.006.075-.016.116-.02.075-.016.15-.04.225-.06.292-.101.538-.272.744-.453.206-.186.376-.386.507-.587.07-.096.125-.201.186-.291l.145-.277c.332-.723.387-1.16.437-1.15.02 0 .025.141-.01.397a4.13 4.13 0 0 1-.326 1.11c-.11.23-.241.487-.442.738a2.892 2.892 0 0 1-.778.708c-.08.055-.176.09-.262.14-.09.046-.19.07-.29.106-.051.01-.106.02-.157.035-.055.01-.105.025-.16.025-.055 0-.11.01-.166.015h-.156c-.406.01-.843.02-1.3.025-.367.005-.748.111-1.145.02-.397 0-.809.08-1.23.02-.427.136-.864.026-1.316.02-.452.006-.919-.04-1.396.02-.477.081-.97-.04-1.476.016-.502-.085-1.02-.06-1.552.015-.527-.08-1.07.02-1.617.015-.552-.126-1.115-.04-1.687.015-.572.045-1.155-.02-1.748.01-.592-.025-1.195.035-1.807.01-.613.06-1.236.08-1.863.01-.628.04-1.266.01-1.914.01-.647.05-1.3-.005-1.963.005-.663.025-1.33-.135-2.009.005-.677.02-1.36-.02-2.048 0-.347-.01-.693-.02-1.04-.02h-.547c-.055 0-.106 0-.16-.01l-.156-.025c-.106-.015-.211-.045-.312-.07a4.757 4.757 0 0 1-.994-.718 4.532 4.532 0 0 1-.758-.91c-.046-.07-.08-.15-.12-.225l-.056-.116s-.015-.04-.025-.06l-.01-.03v-.015l-.015-.02-.076-.211c-.025-.07-.055-.14-.07-.206l-.105-.407a.956.956 0 0 1-.025-.1l-.015-.096-.036-.19-.065-.387-.065-.392c-.01-.095-.02-.18-.025-.266l.617.437.281.19c.046.031.096.071.141.091l.12.066.247.13c.04.025.08.035.12.05l.12.04.111.036.106.02c.07.02.145.025.216.035.07.015.145.01.22.015h.251c.171 0 .347 0 .518.005.688-.04 1.37.06 2.049 0 .677-.06 1.345.065 2.008.005.663-.04 1.316-.06 1.964.005.647 0 1.285.126 1.913.01.628-.025 1.25-.186 1.863.01.612-.05 1.215.09 1.807.01.593.14 1.176.01 1.748.01.572.025 1.135.075 1.687.015.553-.065 1.09.035 1.622.015.528-.08 1.045.106 1.547.015.502.02.994-.015 1.476.015.477-.19.944 0 1.396.02.452.026.894-.125 1.316.02.427-.145.838-.02 1.235.02.397.04.778-.06 1.145.02.366-.1.718.056 1.054.02.337.066.653 0 .96.02.3-.02.587-.014.858.026.271.01.523.015.758.025.176.005.342.015.488.01.15 0 .286-.015.411-.04.257-.045.467-.11.633-.18.085-.03.156-.066.216-.096.03-.015.06-.03.085-.04.025-.015.05-.026.07-.035.086-.04.131-.06.141-.05l-.025.024Z" fill="#CA534B"/><path d="M27.541 22.583c0 .06-.185.086-.396.297a1.3 1.3 0 0 0-.106.12c-.03.05-.06.106-.105.15-.045 0-.045.051-.04.096 0 .045 0 .086-.06.086-.066.045-.08.125-.096.21-.015.08-.116.131-.09.236.045.066-.005.09-.056.126-.05.03-.09.065-.025.14 0 .101-.035.191-.07.287-.13.07-.055.2-.06.311-.146.08-.116.206-.046.332-.185.085-.18.215-.03.351-.005.12-.085.236-.015.367 0 .125.03.256 0 .381.116.13.11.256.02.397.131.126.09.261.04.407-.055.145.141.26.066.412.015.14.08.27.095.416-.015.151-.03.312.126.412.075.126.165.241.165.397.181.07.191.206.211.351.05.046.076.106.106.161.035.055.075.095.14.095.036.036.086.05.126.05.04 0 .065 0 .1.03.036.02.076.03.121.02.045-.01.085-.044.105-.105.015-.065.06-.09.11-.125.051-.03.111-.07.137-.13.09-.02.12-.086.135-.156.02-.07.025-.146.075-.201.05-.13.181-.236.166-.397.025-.146.04-.286.126-.412-.151-.18.11-.266.095-.416.1-.126.03-.282.065-.412-.02-.14.11-.266.04-.407.02-.136-.05-.266.02-.397-.095-.125.076-.26 0-.381-.004-.126-.024-.246-.015-.367.136-.136 0-.24-.03-.351 0-.116-.12-.206-.045-.332-.01-.105.025-.226-.06-.311-.045-.09.15-.261-.07-.286-.03-.04-.01-.096 0-.151.01-.05 0-.1-.076-.116-.145-.03-.055-.16-.09-.24-.03-.076-.065-.146-.096-.211-.15-.297-.32-.483-.462-.578-.14-.1-.245-.126-.245-.166 0-.02.03-.045.1-.06.07-.01.176-.01.306.035.13.045.276.13.417.256.14.13.281.297.402.498.05.08.186.125.14.256.04.09.151.16.13.286.167.06.091.2.116.311.035.11.02.231.1.337.106.1.01.246.086.361-.065.136-.025.256.066.382-.07.14.04.26.045.402-.12.145-.025.276.025.421.045.146-.02.287 0 .437-.03.146.015.301-.025.452.045.16.045.322-.056.467.015.166-.05.316-.09.477.01.17-.09.322-.136.487-.015.086-.08.156-.125.231-.05.075-.09.15-.065.261-.066.171-.191.317-.282.487-.13.151-.28.292-.447.457a.99.99 0 0 0-.351.106c-.11.05-.231.11-.372.14-.14.02-.28 0-.406-.05a1.08 1.08 0 0 1-.322-.196 1.545 1.545 0 0 1-.447-.457c-.15-.14-.155-.351-.28-.487-.131-.14-.086-.351-.197-.492-.095-.15-.16-.311-.135-.487-.04-.16.05-.341-.09-.477-.05-.15-.232-.291-.056-.467-.065-.15.065-.311-.025-.452.136-.15 0-.291 0-.437.03-.145.08-.28.025-.421-.06-.141.055-.272.045-.402-.065-.14.136-.246.066-.382.04-.12.03-.246.085-.361-.16-.161.055-.231.1-.337.056-.1-.055-.256.116-.311-.1-.15.055-.211.13-.287.076-.075.026-.21.141-.255-.045-.131.14-.136.156-.226.1-.036.1-.141.165-.191.03-.076.09-.13.171-.156.055-.045.116-.085.17-.116a.756.756 0 0 1 .428-.11c.05 0 .09.015.11.025.025.01.035.025.035.035l.026.02Zm6.056 0c0 .06-.185.086-.396.296a1.64 1.64 0 0 0-.106.12c-.03.051-.06.106-.105.152-.045 0-.045.05-.04.095 0 .045 0 .085-.06.085-.066.046-.08.126-.096.211-.015.08-.115.13-.09.236.045.066-.005.09-.056.126-.05.03-.09.065-.025.14 0 .1-.035.191-.07.287-.13.07-.055.2-.06.31-.146.081-.116.207-.046.332-.185.086-.18.216-.03.352-.005.12-.085.236-.015.366 0 .126.035.257 0 .382.116.13.11.256.02.397.131.125.09.26.04.407-.055.145.141.26.066.411.015.14.08.271.095.417-.015.15-.03.311.126.412.075.125.165.24.165.396.181.07.191.206.212.352.045.045.075.106.105.16.035.05.075.096.14.096.036.035.086.05.126.05.04 0 .065 0 .1.03.036.02.076.03.121.02a.157.157 0 0 0 .105-.105c.016-.065.06-.09.11-.125.051-.03.111-.07.136-.131.09-.02.121-.085.136-.156.02-.07.025-.145.075-.2.05-.131.181-.237.166-.397.025-.146.04-.287.126-.412-.151-.18.11-.266.095-.417.1-.125.03-.281.065-.412-.02-.14.11-.266.04-.406.02-.136-.05-.266.02-.397-.095-.125.076-.261 0-.382-.004-.125-.025-.246-.014-.366.135-.136 0-.241-.03-.352 0-.115-.121-.206-.046-.331-.01-.106.025-.226-.06-.312-.045-.09.15-.26-.07-.29-.03-.04-.01-.096 0-.146.01-.056 0-.1-.076-.116-.145-.03-.055-.16-.09-.236-.03-.075-.065-.145-.096-.21-.15-.297-.32-.483-.461-.578-.141-.1-.246-.126-.246-.166 0-.02.03-.045.105-.06.07-.01.176-.01.306.035.13.045.276.13.417.261.14.13.281.296.402.497.05.08.186.126.14.256.04.09.151.161.13.287.167.06.091.2.116.31.036.111.02.232.1.337.106.1.01.246.086.362-.065.135-.025.256.066.381-.07.141.045.262.045.402-.12.146-.025.276.025.422.045.146-.02.286 0 .437-.03.146.015.301-.025.452.045.16.045.321-.055.467.014.166-.05.316-.09.477.01.176-.091.321-.137.487-.015.085-.08.156-.125.23-.05.076-.09.152-.065.262-.066.17-.191.316-.281.487-.131.15-.282.291-.447.457a.99.99 0 0 0-.352.106c-.11.05-.23.11-.371.14a.798.798 0 0 1-.407-.05 1.081 1.081 0 0 1-.322-.196 1.542 1.542 0 0 1-.447-.457c-.15-.14-.155-.351-.28-.487-.131-.14-.086-.351-.197-.492-.095-.15-.16-.311-.135-.487-.04-.16.05-.342-.09-.477-.05-.15-.232-.291-.056-.467-.065-.15.066-.312-.025-.452.136-.156 0-.291 0-.437.03-.14.08-.281.025-.422-.06-.14.055-.27.045-.402-.065-.14.136-.246.066-.381.04-.12.03-.246.085-.362-.16-.16.055-.23.1-.336.056-.1-.055-.256.116-.311-.1-.151.055-.211.13-.287.076-.075.026-.21.141-.256-.045-.135.14-.135.156-.226.1-.035.1-.14.166-.19a.262.262 0 0 1 .17-.156c.055-.045.116-.08.17-.116a.765.765 0 0 1 .428-.11c.05 0 .09.015.11.025.025.01.035.025.035.035l.02.01Zm6.057 0c0 .06-.186.086-.397.297-.035.035-.07.075-.106.12-.03.05-.06.105-.105.15-.045 0-.045.05-.04.096 0 .045 0 .085-.06.085-.066.046-.08.126-.096.211-.015.08-.115.13-.09.236.045.066-.005.09-.055.126-.05.03-.09.065-.026.14 0 .1-.035.191-.07.292-.13.07-.055.2-.06.311-.146.08-.116.206-.045.332-.186.085-.181.215-.03.351-.006.12-.086.236-.016.367 0 .125.03.256 0 .381.116.13.11.256.02.397.131.125.09.261.04.407-.055.145.141.26.066.411.015.141.08.271.095.417-.015.15-.03.311.126.412.075.125.166.24.166.397.18.07.19.206.21.351.046.045.076.106.106.16.035.051.075.096.14.096.036.035.086.05.126.05.04 0 .065 0 .1.03.036.02.076.03.121.02.045-.01.085-.044.105-.105.016-.065.06-.09.111-.125.05-.03.11-.07.136-.13.09-.021.12-.086.135-.157.02-.07.02-.145.075-.2.05-.131.181-.236.166-.397.025-.146.04-.286.126-.412-.156-.18.11-.266.09-.417.105-.125.03-.28.065-.411-.02-.141.11-.267.04-.407.02-.136-.05-.266.02-.397-.095-.125.076-.261 0-.382-.004-.125-.02-.246-.014-.366.135-.136 0-.241-.03-.352 0-.115-.121-.206-.046-.331-.01-.105.025-.226-.06-.311-.045-.09.15-.262-.07-.292-.03-.04-.01-.095 0-.145.01-.055 0-.1-.076-.116-.145-.03-.055-.16-.09-.236-.03-.075-.065-.145-.095-.21-.151-.297-.322-.483-.462-.578-.141-.1-.246-.126-.246-.166 0-.02.03-.045.1-.06.07-.01.176-.01.306.035.13.045.276.13.417.261.14.13.281.297.402.497.05.08.186.126.14.256.04.09.151.161.13.287.167.06.091.2.116.311.036.11.02.231.1.336.106.1.01.247.086.362-.065.136-.025.256.066.382-.07.14.045.26.045.401-.12.146-.025.276.025.422.045.146-.02.286 0 .437-.03.146.015.301-.025.452.045.16.045.321-.055.467.015.166-.05.316-.09.477.01.176-.091.321-.136.487-.016.085-.076.156-.126.231-.05.075-.09.15-.065.261-.06.17-.191.316-.282.487-.13.15-.28.291-.446.457-.136.01-.236.055-.352.106-.11.05-.236.11-.371.14a.77.77 0 0 1-.402-.05 1.146 1.146 0 0 1-.322-.196 1.542 1.542 0 0 1-.447-.457c-.15-.14-.155-.351-.28-.487-.131-.14-.086-.351-.197-.492-.09-.15-.16-.311-.135-.487-.04-.16.05-.341-.09-.477-.05-.15-.232-.291-.056-.467-.065-.15.066-.311-.025-.452.136-.156 0-.291 0-.437.03-.14.08-.281.025-.422-.06-.14.055-.27.045-.401-.065-.141.136-.246.066-.382.035-.12.03-.246.085-.362-.16-.16.055-.23.1-.336.056-.1-.055-.256.116-.311-.1-.151.055-.211.13-.287.076-.075.026-.21.141-.256-.045-.135.14-.135.156-.226.1-.035.1-.14.166-.19a.262.262 0 0 1 .17-.156c.056-.045.116-.08.171-.116a.756.756 0 0 1 .427-.11c.05 0 .085.015.11.025.025.01.035.025.035.035l.026.005Z" fill="#CA534B"/></svg>