<svg width="45" height="23" fill="none" xmlns="http://www.w3.org/2000/svg"><circle cx="11.25" cy="11.25" r="11.25" fill="#fff"/><circle cx="22.5" cy="11.25" r="11.25" fill="#215EAB"/><circle cx="33.75" cy="11.25" r="11.25" fill="#CA534B"/><path d="M38.98 5.35a1.16 1.16 0 0 1 .833-.35c.31.003.607.133.829.364.221.231.35.545.358.874.008.33-.105.65-.314.893l-6.363 8.462a1.2 1.2 0 0 1-.389.296 1.137 1.137 0 0 1-1.334-.262l-4.22-4.487a1.275 1.275 0 0 1-.276-.413 1.34 1.34 0 0 1 .246-1.417c.114-.12.25-.216.398-.28a1.133 1.133 0 0 1 .935.018c.146.07.279.17.388.295l3.34 3.549 5.538-7.504c.01-.013.019-.026.03-.037Z" fill="#fff"/></svg>