<svg width="452" height="588" fill="none" xmlns="http://www.w3.org/2000/svg"><path d="m346.044 171.371-38.101 134.981-79.112 52.001c-12.183 7.435-25.787 12.239-39.948 13.999-6.437.802-13.479-.465-14.059-.161-4.317 2.282-57.341 46.135-85.591 69.609-9.864-10.72-19.301-21.813-28.294-33.155-15.141-19.09-29.312-39.441-41.538-60.767l88.393-68.604c18.664-24.149 21.627-40.039 32.186-66.422 9.265-23.168 21.321-41.086 24.307-49.154 1.055-2.842 13.292-37.154 14.166-40.06 1.172-3.824 8.654-11.545 10.579-15.049 16.3-29.546 23.526-32.622 30.476-25.49 1.025 1.05 10.403 10.417-9.64 43.568-4.59 7.602-16.314 61.296-16.314 61.296l152.49-16.592Z" fill="#fff"/><mask id="a" style="mask-type:luminance" maskUnits="userSpaceOnUse" x="19" y="79" width="328" height="363"><path d="m346.044 171.371-38.101 134.981-79.112 52.001c-12.183 7.435-25.787 12.239-39.948 13.999-6.437.802-13.479-.465-14.059-.161-4.317 2.282-57.341 46.135-85.591 69.609-9.864-10.72-19.301-21.813-28.294-33.155-15.141-19.09-29.312-39.441-41.538-60.767l88.393-68.604c18.664-24.149 21.627-40.039 32.186-66.422 9.265-23.168 21.321-41.086 24.307-49.154 1.055-2.842 13.292-37.154 14.166-40.06 1.172-3.824 8.654-11.545 10.579-15.049 16.3-29.546 23.526-32.622 30.476-25.49 1.025 1.05 10.403 10.417-9.64 43.568-4.59 7.602-16.314 61.296-16.314 61.296l152.49-16.592Z" fill="#fff"/></mask><g mask="url(#a)"><path d="M208.16 338.464c-23.718 2.256-48.744-1.308-68.518-14.585 6.8 10.549 13.587 21.095 20.386 31.645 3.26 5.061 6.652 10.267 11.605 13.682 8.418 5.81 19.664 5.337 29.614 2.975 26.785-6.359 49.184-24.15 70.605-41.456 4.377-3.533 9.423-9.817.421-8.07-7.235 1.405-14.499 4.805-21.583 6.906-13.909 4.13-28.078 7.531-42.546 8.911l.016-.008Z" fill="#E0E0E0"/><path opacity=".5" d="M208.16 338.464c-23.718 2.256-48.744-1.308-68.518-14.585 6.8 10.549 13.587 21.095 20.386 31.645 3.26 5.061 6.652 10.267 11.605 13.682 8.418 5.81 19.664 5.337 29.614 2.975 26.785-6.359 49.184-24.15 70.605-41.456 4.377-3.533 9.423-9.817.421-8.07-7.235 1.405-14.499 4.805-21.583 6.906-13.909 4.13-28.078 7.531-42.546 8.911l.016-.008Z" fill="#fff"/><path d="M199.107 131.097c7.858 21.99-9.177 55.322-15.537 61.008 0 0-10.35 69.98-.428 100.555a506.44 506.44 0 0 0 45.721-131.976c4.329-21.916 5.603-53.445-5.313-72.931 0 0-10.437 33.711-24.443 43.344Z" fill="#E0E0E0"/><path d="M199.107 131.097c7.858 21.99-9.177 55.322-15.537 61.008 0 0-10.35 69.98-.428 100.555a506.44 506.44 0 0 0 45.721-131.976c4.329-21.916 5.603-53.445-5.313-72.931 0 0-10.437 33.711-24.443 43.344Z" fill="#fff" opacity=".5"/><path d="M162.812 302.552c.234 8.589.464 17.19.698 25.78a354.49 354.49 0 0 1 50.807 11.789c8.544 2.666 17.112 5.672 26.05 6.231 8.935.572 18.503-1.67 24.718-8.119 4.115-4.262 6.292-11.409 2.605-16.043-2.118-2.669-5.618-3.804-8.937-4.54-10.778-2.415-21.976-2.209-32.885-3.926-10.912-1.704-22.155-5.786-28.848-14.582-4.404-5.785-6.394-13.026-9.977-19.355-3.113-5.487-12.519-15.557-19.134-10.103-7.088 5.854-5.289 24.891-5.084 32.871l-.013-.003Z" fill="#E0E0E0"/><path opacity=".5" d="M162.812 302.552c.234 8.589.464 17.19.698 25.78a354.49 354.49 0 0 1 50.807 11.789c8.544 2.666 17.112 5.672 26.05 6.231 8.935.572 18.503-1.67 24.718-8.119 4.115-4.262 6.292-11.409 2.605-16.043-2.118-2.669-5.618-3.804-8.937-4.54-10.778-2.415-21.976-2.209-32.885-3.926-10.912-1.704-22.155-5.786-28.848-14.582-4.404-5.785-6.394-13.026-9.977-19.355-3.113-5.487-12.519-15.557-19.134-10.103-7.088 5.854-5.289 24.891-5.084 32.871l-.013-.003Z" fill="#fff"/><path d="M126.434 325.481c-3.692 5.651-8.713 10.285-13.68 14.868-16.79 15.474-33.58 30.947-50.372 46.433 39.456-23.236 58.568-41.447 83.256-55.8-1.517 1.776-10.366-15.564-10.736-15.815-5.215-3.53-5.846 6.325-8.468 10.314Z" fill="#E0E0E0"/><path d="M126.434 325.481c-3.692 5.651-8.713 10.285-13.68 14.868-16.79 15.474-33.58 30.947-50.372 46.433 39.456-23.236 58.568-41.447 83.256-55.8-1.517 1.776-10.366-15.564-10.736-15.815-5.215-3.53-5.846 6.325-8.468 10.314Z" fill="#fff" opacity=".5"/><path d="M109.364 379.898c8.112-6.073 16.237-12.143 24.352-18.228 7.653-5.722 16.463-11.759 25.9-10.27-4.477-.703-5.481-12.997-11.084-13.589-4.801-.501-9.532 8.357-12.211 11.555a763.767 763.767 0 0 1-26.953 30.519l-.004.013Z" fill="#E0E0E0"/><path opacity=".5" d="M109.364 379.898c8.112-6.073 16.237-12.143 24.352-18.228 7.653-5.722 16.463-11.759 25.9-10.27-4.477-.703-5.481-12.997-11.084-13.589-4.801-.501-9.532 8.357-12.211 11.555a763.767 763.767 0 0 1-26.953 30.519l-.004.013Z" fill="#fff"/><path d="M62.875 442.669c3.558 5.092 7.113 10.197 10.67 15.289a517.5 517.5 0 0 0 104.057-85.811c-2.759-2.342-5.939-2.385-13.102-12.449-1.96-2.757-52.798 48.78-101.634 82.955l.01.016Z" fill="#E0E0E0"/><path opacity=".5" d="M62.875 442.669c3.558 5.092 7.113 10.197 10.67 15.289a517.5 517.5 0 0 0 104.057-85.811c-2.759-2.342-5.939-2.385-13.102-12.449-1.96-2.757-52.798 48.78-101.634 82.955l.01.016Z" fill="#fff"/></g><path d="m19.401 347.878 88.393-68.604c18.664-24.149 21.627-40.039 32.186-66.422 9.265-23.168 21.321-41.086 24.307-49.154 1.055-2.842 13.292-37.154 14.166-40.06 1.172-3.824 8.654-11.545 10.579-15.049 16.3-29.546 23.526-32.622 30.476-25.49 1.025 1.05 12.518 11.014-7.525 44.165-4.59 7.602-16.639 60.51-16.639 60.51l150.7-16.403-38.101 134.981-79.112 52.001c-12.183 7.435-25.787 12.239-39.948 13.999-6.437.802-13.479-.465-14.059-.161-4.317 2.282-57.341 46.135-85.591 69.609" stroke="#072E52" stroke-miterlimit="10"/><path d="M358.607 172.005a43.026 43.026 0 0 1 4.547-.493c5.445-.267 12.598.937 16.089 5.129 3.889 4.678 3.379 17.132-10.055 22.09 0 0-10.327 4.313-25.179 5.825-3.835.387-7.747-.851-10.491-3.576-1.647-1.641-2.851-3.717-2.289-6.084 3.306-13.748 13.411-20.635 27.378-22.891Z" fill="#fff"/><mask id="b" style="mask-type:luminance" maskUnits="userSpaceOnUse" x="331" y="171" width="51" height="34"><path d="M358.607 172.005a43.026 43.026 0 0 1 4.547-.493c5.445-.267 12.598.937 16.089 5.129 3.889 4.678 3.379 17.132-10.055 22.09 0 0-10.327 4.313-25.179 5.825-3.835.387-7.747-.851-10.491-3.576-1.647-1.641-2.851-3.717-2.289-6.084 3.306-13.748 13.411-20.635 27.378-22.891Z" fill="#fff"/></mask><g mask="url(#b)"><path d="M352.443 178.842c-3.011 4.801-3.839 10.619-4.586 16.246-.391 2.949-.552 6.497 1.808 8.312 2.11 1.611 5.106.934 7.617.08 4.743-1.614 9.462-3.662 13.149-7.07 3.683-3.396 6.207-8.361 5.649-13.341-1.421-12.852-17.481-14.019-23.641-4.215l.004-.012Z" fill="#E0E0E0"/><path opacity=".5" d="M352.443 178.842c-3.011 4.801-3.839 10.619-4.586 16.246-.391 2.949-.552 6.497 1.808 8.312 2.11 1.611 5.106.934 7.617.08 4.743-1.614 9.462-3.662 13.149-7.07 3.683-3.396 6.207-8.361 5.649-13.341-1.421-12.852-17.481-14.019-23.641-4.215l.004-.012Z" fill="#fff"/></g><path d="M358.607 172.005a43.026 43.026 0 0 1 4.547-.493c5.445-.267 12.598.937 16.089 5.129 3.889 4.678 3.379 17.132-10.055 22.09 0 0-10.327 4.313-25.179 5.825-3.835.387-7.747-.851-10.491-3.576-1.647-1.641-2.851-3.717-2.289-6.084 3.306-13.748 13.411-20.635 27.378-22.891Zm-19.552 62.547-22.472 4.277 8.505-30.129 27.178-4.392s-16.922 13.152-13.211 30.244Zm-9.959 9.586-15.01 3.538-9.524 33.742 23.509-1.847 11.483-30.224s-2.914-2.358-10.461-5.197l.003-.012Z" stroke="#072E52" stroke-miterlimit="10"/><path d="M381.437 94.152 313.072 336.35c-2.839 10.06-13.309 15.922-23.367 13.083l-111.29-31.414c-10.058-2.839-15.918-13.311-13.078-23.37l68.365-242.197c2.843-10.072 13.309-15.921 23.367-13.082l111.29 31.413c1.349.381 2.618.9 3.812 1.544 7.659 4.099 11.729 13.103 9.266 21.826Z" fill="#072E52"/><path d="M358.81 75.983 262.551 48.81c-10.064-2.84-20.526 3.017-23.368 13.083L174.999 289.28c-2.841 10.066 3.014 20.529 13.078 23.369l96.26 27.172c10.064 2.84 20.526-3.017 23.367-13.083l64.184-227.386c2.842-10.066-3.013-20.529-13.078-23.37Z" fill="#E0E0E0"/><path d="M337.305 218.04c-1.886 3.889-1.909 8.559-.07 12.738 1.848 4.196 5.539 7.869 10.105 10.053 3.484 1.665 7.893 2.415 10.957.648 2.667-1.545 3.577-4.534 4.331-7.3 1.826-6.752 2.705-16.444-5.955-21.159-7.132-3.884-16.491-.915-19.365 5.007l-.003.013Z" fill="#fff"/><mask id="c" style="mask-type:luminance" maskUnits="userSpaceOnUse" x="335" y="211" width="29" height="32"><path d="M337.305 218.04c-1.886 3.889-1.909 8.559-.07 12.738 1.848 4.196 5.539 7.869 10.105 10.053 3.484 1.665 7.893 2.415 10.957.648 2.667-1.545 3.577-4.534 4.331-7.3 1.826-6.752 2.705-16.444-5.955-21.159-7.132-3.884-16.491-.915-19.365 5.007l-.003.013Z" fill="#fff"/></mask><g mask="url(#c)"><path d="M337.872 215.982c-2.676 4.228-2.523 9.882-.271 14.352 2.251 4.469 6.326 7.824 10.853 9.957 1.602-1.699.62-4.421-.042-6.665a20.087 20.087 0 0 1 .221-12.188c.606-1.766 1.91-3.736 3.773-3.571 1.659.134 2.701 1.978 2.738 3.645.037 1.667-.601 3.264-.862 4.9-.265 1.649-.009 3.578 1.335 4.545 1.147-3.59 2.168-7.35 1.729-11.094-1.173-10.23-14.142-12.315-19.487-3.884l.013.003Z" fill="#E0E0E0"/><path opacity=".5" d="M337.872 215.982c-2.676 4.228-2.523 9.882-.271 14.352 2.251 4.469 6.326 7.824 10.853 9.957 1.602-1.699.62-4.421-.042-6.665a20.087 20.087 0 0 1 .221-12.188c.606-1.766 1.91-3.736 3.773-3.571 1.659.134 2.701 1.978 2.738 3.645.037 1.667-.601 3.264-.862 4.9-.265 1.649-.009 3.578 1.335 4.545 1.147-3.59 2.168-7.35 1.729-11.094-1.173-10.23-14.142-12.315-19.487-3.884l.013.003Z" fill="#fff"/></g><path d="M337.305 218.04c-1.886 3.889-1.909 8.559-.07 12.738 1.848 4.196 5.539 7.869 10.105 10.053 3.484 1.665 7.893 2.415 10.957.648 2.667-1.545 3.577-4.534 4.331-7.3 1.826-6.752 2.705-16.444-5.955-21.159-7.132-3.884-16.491-.915-19.365 5.007l-.003.013Z" stroke="#072E52" stroke-miterlimit="10"/><path d="m323.299 297.755-16.594 6.498s-12.398 11.463 3.046 19.683l15.327-.069c7.343-.038 14.086-4.667 16.179-11.704 1.975-6.617-.037-14.773-15.957-20.977l-2.001 6.569Z" fill="#fff"/><mask id="d" style="mask-type:luminance" maskUnits="userSpaceOnUse" x="301" y="291" width="41" height="33"><path d="m323.299 297.755-16.594 6.498s-12.398 11.463 3.046 19.683l15.327-.069c7.343-.038 14.086-4.667 16.179-11.704 1.975-6.617-.037-14.773-15.957-20.977l-2.001 6.569Z" fill="#fff"/></mask><g mask="url(#d)"><path d="M318.54 302.691c-.309 1.142 0 2.364.261 3.52a47.284 47.284 0 0 1 .518 18.088c.726-4.324 4.582-9.087 5.729-13.626 1.155-4.563 2.393-10.559 1.117-15.074-2.004 1.892-6.854 4.264-7.613 7.095l-.012-.003Z" fill="#E0E0E0"/><path opacity=".5" d="M318.54 302.691c-.309 1.142 0 2.364.261 3.52a47.284 47.284 0 0 1 .518 18.088c.726-4.324 4.582-9.087 5.729-13.626 1.155-4.563 2.393-10.559 1.117-15.074-2.004 1.892-6.854 4.264-7.613 7.095l-.012-.003Z" fill="#fff"/></g><path d="m323.299 297.755-16.594 6.498s-12.398 11.463 3.046 19.683l15.327-.069c7.343-.038 14.086-4.667 16.179-11.704 1.975-6.617-.037-14.773-15.957-20.977l-2.001 6.569Z" stroke="#072E52" stroke-miterlimit="10"/><path d="m329.836 255.809-16.559 10.114s-11.131 14.64 6.988 20.529l16.287-2.951c8.135-1.471 15.329-6.561 18.904-14.021 3.596-7.535 2.869-16.411-16.392-20.244l-9.228 6.573Z" fill="#fff"/><mask id="e" style="mask-type:luminance" maskUnits="userSpaceOnUse" x="309" y="249" width="49" height="38"><path d="m329.836 255.809-16.559 10.114s-11.131 14.64 6.988 20.529l16.287-2.951c8.135-1.471 15.329-6.561 18.904-14.021 3.596-7.535 2.869-16.411-16.392-20.244l-9.228 6.573Z" fill="#fff"/></mask><g mask="url(#e)"><path d="M322.453 285.373c.945 1.429 3.281 1.247 4.511.058 1.234-1.202 1.635-2.999 1.886-4.692.399-2.599 1.996-20.37-2.434-19.39-2.651.588-3.553 20.867-3.967 24.036l.004-.012Z" fill="#E0E0E0"/><path opacity=".5" d="M322.453 285.373c.945 1.429 3.281 1.247 4.511.058 1.234-1.202 1.635-2.999 1.886-4.692.399-2.599 1.996-20.37-2.434-19.39-2.651.588-3.553 20.867-3.967 24.036l.004-.012Z" fill="#fff"/></g><path d="m329.836 255.809-16.559 10.114s-11.131 14.64 6.988 20.529l16.287-2.951c8.135-1.471 15.329-6.561 18.904-14.021 3.596-7.535 2.869-16.411-16.392-20.244l-9.228 6.573Z" stroke="#072E52" stroke-miterlimit="10"/><path d="M326.096 265.654c-4.114-.426-8.108 3.456-7.802 7.577.293 4.117 4.808 7.382 8.822 6.364" stroke="#072E52" stroke-miterlimit="10"/><path d="M318.678 308.114c-3.731-1.735-8.744 1.593-8.597 5.709.147 4.116 5.376 7.075 8.986 5.074" fill="#fff"/><path d="M318.678 308.114c-3.731-1.735-8.744 1.593-8.597 5.709.147 4.116 5.376 7.075 8.986 5.074M193.234 129.426c5.827 2.166 12.474 2.039 18.22-.334m-19.77 61.376c-5.882 2.575-12.647 3.07-18.841 1.402m2.095 124.031c-4.893 7.021-12.203 12.332-20.385 14.819" stroke="#072E52" stroke-miterlimit="10"/><path d="m338.728 155.506-99.897-28.198a1.311 1.311 0 0 0-1.618.906l-4.376 15.504a1.31 1.31 0 0 0 .905 1.618l99.897 28.198a1.311 1.311 0 0 0 1.618-.906l4.377-15.504a1.311 1.311 0 0 0-.906-1.618Zm-5.938 21.035-99.896-28.198a1.31 1.31 0 0 0-1.618.906l-4.377 15.504a1.312 1.312 0 0 0 .906 1.618l99.897 28.198a1.312 1.312 0 0 0 1.618-.906l4.376-15.504a1.31 1.31 0 0 0-.906-1.618Zm-6.287 22.272-99.896-28.198a1.312 1.312 0 0 0-1.619.906l-4.376 15.504a1.311 1.311 0 0 0 .906 1.618l99.897 28.198a1.312 1.312 0 0 0 1.618-.906l4.376-15.504a1.31 1.31 0 0 0-.906-1.618Z" fill="#fff"/><path d="m312.295 249.575-99.897-28.198a1.311 1.311 0 0 0-1.618.906l-6.262 22.185a1.311 1.311 0 0 0 .905 1.619l99.897 28.198a1.312 1.312 0 0 0 1.618-.906l6.262-22.186a1.31 1.31 0 0 0-.905-1.618Z" fill="#CA534B"/><path d="m245.132 241.453-.085.301a3.697 3.697 0 0 1-.475 1.067 2.51 2.51 0 0 1-.699.708 2.08 2.08 0 0 1-.864.328 2.4 2.4 0 0 1-.976-.08 2.384 2.384 0 0 1-.87-.441 2.146 2.146 0 0 1-.569-.733 2.551 2.551 0 0 1-.237-.972 3.628 3.628 0 0 1 .149-1.159l.085-.301c.117-.413.276-.767.478-1.062.203-.297.438-.533.703-.707.269-.176.558-.285.868-.327.313-.045.637-.019.973.075.338.096.629.244.873.446.244.199.433.443.568.732.135.288.211.611.226.969a3.59 3.59 0 0 1-.148 1.156Zm-1.028.034.087-.308c.086-.306.132-.584.138-.834a1.715 1.715 0 0 0-.093-.663 1.134 1.134 0 0 0-.316-.479 1.29 1.29 0 0 0-.525-.282 1.25 1.25 0 0 0-.591-.033 1.156 1.156 0 0 0-.519.243c-.158.126-.3.299-.426.517a3.401 3.401 0 0 0-.319.783l-.087.308a3.474 3.474 0 0 0-.139.838c-.006.252.026.476.095.672.072.193.178.355.318.483.14.126.314.219.522.278.211.059.409.072.594.037.187-.036.359-.119.517-.247.159-.132.3-.307.424-.526.127-.219.233-.481.32-.787Zm4.102-.441-1.148 4.068-.91-.257 1.148-4.068.91.257Zm1.335.377-.202.714-3.556-1.004.201-.714 3.557 1.004Zm3.334.941-.204.722-2.007-.567.204-.722 2.007.567Zm-1.793-.506-1.148 4.068-.906-.256 1.148-4.068.906.256Zm2.504.707-1.149 4.067-.909-.257 1.148-4.067.91.257Zm1.647 1.309-1.369 4.85-.906-.256 1.59-5.632.835.236-.15.802Zm2.308 1.962-.022.079a3.192 3.192 0 0 1-.338.794 2.1 2.1 0 0 1-.49.572c-.185.148-.39.246-.615.293a1.486 1.486 0 0 1-.72-.037 1.549 1.549 0 0 1-.626-.327 1.42 1.42 0 0 1-.364-.537 2.266 2.266 0 0 1-.144-.698 4.126 4.126 0 0 1 .053-.821l.086-.304c.117-.289.249-.545.395-.766.149-.22.313-.4.493-.538.18-.139.377-.229.592-.272.215-.042.448-.028.698.043.256.072.468.186.638.343.171.153.298.341.381.562.085.218.125.465.12.74a3.392 3.392 0 0 1-.137.874Zm-.928-.176.022-.079a2.53 2.53 0 0 0 .095-.538 1.4 1.4 0 0 0-.045-.475.827.827 0 0 0-.596-.59.988.988 0 0 0-.437-.035.83.83 0 0 0-.352.141 1.076 1.076 0 0 0-.275.283 2.092 2.092 0 0 0-.206.385l-.206.729a1.9 1.9 0 0 0 .014.54c.031.17.099.32.207.448.11.125.271.218.481.278.163.046.312.05.447.012a.855.855 0 0 0 .364-.21c.111-.104.206-.232.288-.385.081-.153.147-.321.199-.504Zm3.637 2.297.548-1.94a.862.862 0 0 0 .027-.398.572.572 0 0 0-.172-.312.842.842 0 0 0-.374-.199.926.926 0 0 0-.404-.033.645.645 0 0 0-.31.131.512.512 0 0 0-.171.264l-.903-.254c.046-.161.128-.305.248-.433.121-.129.271-.231.452-.307.181-.076.384-.119.609-.129a2.31 2.31 0 0 1 .72.094c.306.086.562.214.769.383.209.17.352.378.428.625.08.244.076.522-.011.832l-.511 1.809a3.072 3.072 0 0 0-.103.51c-.014.153-.011.291.009.413l-.017.06-.929-.262a1.693 1.693 0 0 1 .004-.401 3.27 3.27 0 0 1 .091-.453Zm.6-1.621-.151.562-.65-.183a1.872 1.872 0 0 0-.457-.077.927.927 0 0 0-.358.046.608.608 0 0 0-.399.435.625.625 0 0 0-.009.318.552.552 0 0 0 .16.268.795.795 0 0 0 .332.175c.186.053.358.061.517.025.162-.039.299-.101.41-.189a.635.635 0 0 0 .218-.284l.18.486c-.059.094-.142.19-.248.287a1.673 1.673 0 0 1-.381.258 1.471 1.471 0 0 1-1.075.086 1.61 1.61 0 0 1-.666-.359 1.306 1.306 0 0 1-.367-.57 1.166 1.166 0 0 1-.002-.67c.061-.216.155-.395.282-.538.13-.144.29-.251.48-.319.192-.067.412-.098.658-.09.248.005.52.049.815.133l.711.2Zm3.496 1.778-1.301-.367.173-.641 1.068.301c.175.05.324.073.447.07a.518.518 0 0 0 .3-.086.437.437 0 0 0 .157-.24.49.49 0 0 0 .014-.235.398.398 0 0 0-.106-.201.678.678 0 0 0-.223-.16 1.774 1.774 0 0 0-.333-.127l-.741-.209-.946 3.354-.906-.256 1.148-4.068 1.646.465c.261.074.489.162.684.266.198.105.358.224.479.359a.979.979 0 0 1 .239.449c.041.163.034.339-.02.53a.811.811 0 0 1-.182.33.874.874 0 0 1-.32.226c-.129.056-.278.09-.446.101a2.074 2.074 0 0 1-.554-.05l-.277.189Zm-.491 1.741-1.564-.441.562-.613 1.203.34c.161.045.299.062.416.052a.49.49 0 0 0 .282-.107.503.503 0 0 0 .156-.252.52.52 0 0 0 .003-.3.48.48 0 0 0-.183-.242 1.109 1.109 0 0 0-.384-.178l-1.034-.291.188-.637 1.229.347.19.321c.253.09.452.206.596.347.144.141.239.293.285.458a.901.901 0 0 1-.002.494 1.158 1.158 0 0 1-.251.473.968.968 0 0 1-.419.276 1.623 1.623 0 0 1-.569.075 3.091 3.091 0 0 1-.704-.122Zm3.708-.382 2.372-2.293.906.255-1.148 4.068-.906-.256.776-2.748-2.374 2.297-.906-.255 1.148-4.068.906.256-.774 2.744Zm6.124-1.234-1.148 4.067-.91-.257 1.148-4.067.91.257Zm1.334.376-.201.715-3.557-1.004.202-.714 3.556 1.003Zm.914 1.654 1.199.339c.351.099.632.242.845.429a1.34 1.34 0 0 1 .415 1.42 1.464 1.464 0 0 1-.265.522c-.12.147-.27.264-.448.349a1.559 1.559 0 0 1-.601.146 2.196 2.196 0 0 1-.729-.092l-1.801-.508 1.148-4.068.91.257-.946 3.35.891.251a.883.883 0 0 0 .459.028.576.576 0 0 0 .302-.178.73.73 0 0 0 .166-.299.773.773 0 0 0 .017-.348.607.607 0 0 0-.162-.318.87.87 0 0 0-.405-.219l-1.199-.339.204-.722Z" fill="#fff"/><path d="m242.108 139.562 1.943-1.728.362.102-.772 2.737-.363-.103.596-2.11-1.944 1.73-.36-.102.772-2.737.361.102-.595 2.109Zm3.347.657-.667-.188.075-.28.545.154c.108.031.2.045.278.044a.345.345 0 0 0 .19-.049.246.246 0 0 0 .1-.143.254.254 0 0 0-.062-.255.489.489 0 0 0-.139-.098 1.153 1.153 0 0 0-.207-.079l-.446-.125-.494 1.751-.348-.098.574-2.034.793.224c.129.037.242.081.338.132a.828.828 0 0 1 .236.179.476.476 0 0 1 .109.485.426.426 0 0 1-.239.279.635.635 0 0 1-.21.055.962.962 0 0 1-.261-.019l-.165.065Zm-.252.895-.793-.224.252-.233.621.175a.72.72 0 0 0 .25.032.316.316 0 0 0 .173-.065.294.294 0 0 0 .095-.152.288.288 0 0 0-.002-.177.295.295 0 0 0-.114-.145.657.657 0 0 0-.23-.106l-.528-.149.083-.277.659.186.097.141c.109.04.195.094.26.163a.494.494 0 0 1 .127.226.47.47 0 0 1-.005.247.573.573 0 0 1-.125.236.5.5 0 0 1-.206.139.774.774 0 0 1-.277.039 1.41 1.41 0 0 1-.337-.056Zm2.545.343.296-1.047a.438.438 0 0 0 .01-.223.33.33 0 0 0-.104-.179.535.535 0 0 0-.223-.116.594.594 0 0 0-.244-.02.424.424 0 0 0-.187.075.271.271 0 0 0-.099.143l-.348-.099a.495.495 0 0 1 .117-.2.657.657 0 0 1 .217-.148.834.834 0 0 1 .295-.067c.11-.007.226.007.349.042a.999.999 0 0 1 .37.186c.1.082.167.183.203.302a.723.723 0 0 1-.009.406l-.268.947a1.516 1.516 0 0 0-.044.221.894.894 0 0 0-.001.213l-.009.03-.362-.102a.672.672 0 0 1 .003-.172c.009-.07.022-.135.038-.192Zm.31-.868-.065.245-.351-.099a1.38 1.38 0 0 0-.272-.051.612.612 0 0 0-.215.015.328.328 0 0 0-.242.236.372.372 0 0 0-.006.187.335.335 0 0 0 .094.163.505.505 0 0 0 .204.106.597.597 0 0 0 .541-.099.367.367 0 0 0 .133-.168l.101.21a.531.531 0 0 1-.121.154.85.85 0 0 1-.208.14.842.842 0 0 1-.27.08.776.776 0 0 1-.313-.027.812.812 0 0 1-.34-.183.592.592 0 0 1-.177-.615.628.628 0 0 1 .145-.269.578.578 0 0 1 .243-.157.9.9 0 0 1 .325-.046c.121.003.251.024.39.063l.404.115Zm2.192.705-.08.282-1.075-.303.08-.282 1.075.303Zm-.753-1.164-.574 2.034-.348-.098.574-2.034.348.098Zm1.284.362-.574 2.034-.35-.099.574-2.033.35.098Zm.174 1.172.013-.043c.041-.147.101-.277.179-.39a.987.987 0 0 1 .277-.277.85.85 0 0 1 .353-.136.943.943 0 0 1 .405.029.95.95 0 0 1 .363.188.85.85 0 0 1 .232.301.998.998 0 0 1 .093.381c.007.138-.01.28-.051.426l-.012.044a1.322 1.322 0 0 1-.179.389 1.007 1.007 0 0 1-.279.277.9.9 0 0 1-.353.136.95.95 0 0 1-.405-.032.97.97 0 0 1-.364-.185.919.919 0 0 1-.323-.682c-.007-.137.01-.279.051-.426Zm.36.055-.012.043a1.128 1.128 0 0 0-.045.298.778.778 0 0 0 .04.267.563.563 0 0 0 .136.215.556.556 0 0 0 .237.13.532.532 0 0 0 .267.012.542.542 0 0 0 .226-.113.764.764 0 0 0 .174-.206c.051-.083.091-.176.119-.277l.012-.043c.029-.101.043-.199.043-.295a.734.734 0 0 0-.042-.269.545.545 0 0 0-.133-.217.534.534 0 0 0-.235-.131.54.54 0 0 0-.269-.011.55.55 0 0 0-.227.115.78.78 0 0 0-.175.208 1.164 1.164 0 0 0-.116.274Zm2.855.96-.668-.189.075-.279.545.154c.108.03.201.045.278.044a.342.342 0 0 0 .191-.05.247.247 0 0 0 .099-.142.257.257 0 0 0-.062-.255.47.47 0 0 0-.139-.098 1.082 1.082 0 0 0-.207-.079l-.446-.126-.494 1.752-.348-.098.574-2.034.793.224c.13.037.242.081.339.132a.854.854 0 0 1 .236.178c.061.066.101.14.12.221a.525.525 0 0 1-.099.429.44.44 0 0 1-.152.115.612.612 0 0 1-.21.054.959.959 0 0 1-.261-.018l-.164.065Zm-.253.895-.793-.224.252-.234.621.176a.72.72 0 0 0 .25.032.316.316 0 0 0 .173-.065.288.288 0 0 0 .095-.152.274.274 0 0 0-.002-.177.3.3 0 0 0-.113-.146.694.694 0 0 0-.23-.105l-.529-.149.083-.277.66.186.096.141c.109.04.196.094.26.162a.497.497 0 0 1 .127.227.566.566 0 0 1-.13.483.5.5 0 0 1-.206.139.797.797 0 0 1-.277.039 1.418 1.418 0 0 1-.337-.056Zm4.154.232.361.102a1.199 1.199 0 0 1-.28.423.914.914 0 0 1-.432.229 1.197 1.197 0 0 1-.582-.037 1.013 1.013 0 0 1-.677-.564 1.223 1.223 0 0 1-.105-.462 1.777 1.777 0 0 1 .072-.544l.077-.273c.054-.191.128-.358.222-.499a1.23 1.23 0 0 1 .334-.34 1.01 1.01 0 0 1 .42-.159 1.15 1.15 0 0 1 .482.038c.207.059.371.147.492.265a.865.865 0 0 1 .241.417c.042.159.047.332.015.517l-.361-.101a1.056 1.056 0 0 0-.005-.357.532.532 0 0 0-.143-.272.722.722 0 0 0-.322-.172.748.748 0 0 0-.342-.021.68.68 0 0 0-.286.132.952.952 0 0 0-.226.267c-.065.11-.118.238-.159.384l-.078.276c-.038.134-.06.264-.065.389-.005.126.009.242.042.347a.672.672 0 0 0 .16.273c.075.075.173.13.295.164a.81.81 0 0 0 .389.031.5.5 0 0 0 .266-.152c.074-.078.138-.179.195-.301Zm1.39 1.373a1.04 1.04 0 0 1-.365-.18.913.913 0 0 1-.238-.288.947.947 0 0 1-.099-.365c-.01-.133.005-.271.045-.414l.023-.079c.046-.165.112-.305.198-.421a1.02 1.02 0 0 1 .292-.274.86.86 0 0 1 .694-.101.902.902 0 0 1 .355.182c.092.08.159.174.202.284a.939.939 0 0 1 .061.358c-.001.13-.022.266-.063.409l-.044.156-1.518-.429.08-.284 1.171.331.007-.027a.869.869 0 0 0 .018-.279.494.494 0 0 0-.091-.253.458.458 0 0 0-.259-.162.495.495 0 0 0-.444.087.772.772 0 0 0-.179.208 1.29 1.29 0 0 0-.131.314l-.022.079a.97.97 0 0 0-.038.284.74.74 0 0 0 .056.255.589.589 0 0 0 .148.204c.065.057.145.1.24.126a.626.626 0 0 0 .333.013.809.809 0 0 0 .281-.138l.163.227a1.013 1.013 0 0 1-.221.143.842.842 0 0 1-.291.076c-.109.01-.23-.004-.364-.042Zm2.019-1.244-.684 2.424-.35-.098.795-2.816.32.09-.081.4Zm1.199.995-.011.04c-.042.148-.098.28-.169.397-.071.115-.153.21-.247.283a.729.729 0 0 1-.307.147.733.733 0 0 1-.358-.018.894.894 0 0 1-.324-.16.709.709 0 0 1-.2-.258 1.004 1.004 0 0 1-.082-.34 1.77 1.77 0 0 1 .026-.408l.059-.211c.058-.146.124-.273.199-.38a1.06 1.06 0 0 1 .249-.258.694.694 0 0 1 .305-.123.826.826 0 0 1 .358.027.791.791 0 0 1 .319.172c.085.077.148.17.19.281.042.11.062.234.059.372 0 .136-.022.282-.066.437Zm-.361-.059.011-.039c.029-.102.045-.2.049-.295a.757.757 0 0 0-.033-.265.496.496 0 0 0-.353-.339.57.57 0 0 0-.242-.02.53.53 0 0 0-.198.076.713.713 0 0 0-.16.142 1.05 1.05 0 0 0-.118.182l-.137.487c0 .094.012.187.035.277.024.09.066.169.128.238.062.067.15.117.264.149a.49.49 0 0 0 .259.01.506.506 0 0 0 .215-.115.793.793 0 0 0 .167-.209c.047-.084.084-.177.113-.279Zm2.401-.444-.082.287-.94-.265-.492 1.746-.348-.098.574-2.034 1.288.364Zm.524 2.384c-.142-.04-.264-.1-.365-.18a.9.9 0 0 1-.338-.653 1.223 1.223 0 0 1 .046-.414l.022-.079c.047-.165.113-.305.198-.421.086-.116.184-.208.293-.274a.86.86 0 0 1 .694-.101.902.902 0 0 1 .355.182c.092.08.159.175.202.284a.939.939 0 0 1 .061.358c-.002.13-.022.266-.063.409l-.044.156-1.519-.429.081-.284 1.171.331.007-.027a.93.93 0 0 0 .018-.279.494.494 0 0 0-.091-.253.461.461 0 0 0-.259-.162.495.495 0 0 0-.444.088.752.752 0 0 0-.179.207 1.268 1.268 0 0 0-.131.314l-.022.079a.938.938 0 0 0-.038.284.74.74 0 0 0 .056.255.599.599 0 0 0 .147.204.61.61 0 0 0 .241.127.635.635 0 0 0 .333.012.796.796 0 0 0 .28-.138l.164.227a1.013 1.013 0 0 1-.221.143.841.841 0 0 1-.292.076 1 1 0 0 1-.363-.042Zm1.739-.144 1.357-1.219.349.099-.574 2.034-.349-.099.418-1.483-1.356 1.219-.346-.098.574-2.034.346.098-.419 1.483Zm1.375-2.009.282.08a.484.484 0 0 1-.385.364.672.672 0 0 1-.317-.021.612.612 0 0 1-.374-.255.494.494 0 0 1-.048-.406l.282.08a.33.33 0 0 0 .008.213c.027.069.092.118.195.147.1.028.179.02.238-.024a.335.335 0 0 0 .119-.178Zm-30.295 15.566-.092.327-1.876-.529.092-.327 1.876.529Zm-.538-1.014-.562 1.992-.348-.098.563-1.992.347.098Zm3.054.354-.055.196-1.851 2.221-.366-.103 1.823-2.132-1.481-.418.081-.286 1.849.522Zm.912 2.032.006-.019c.077-.273.177-.512.301-.715a2.66 2.66 0 0 1 .399-.516c.142-.14.282-.25.418-.329.136-.08.256-.133.358-.156l.009.25c-.09.035-.187.092-.291.169-.103.078-.207.18-.312.306a2.637 2.637 0 0 0-.294.459 3.44 3.44 0 0 0-.24.626l-.007.026a3.476 3.476 0 0 0-.124.662 2.71 2.71 0 0 0 .01.546c.023.164.058.307.104.43.048.124.1.227.157.308l-.133.189a1.317 1.317 0 0 1-.224-.321 2.192 2.192 0 0 1-.184-.498 2.627 2.627 0 0 1-.071-.647c.002-.239.041-.496.118-.77Zm1.415 1.265.035.01c.201.057.372.075.513.054a.726.726 0 0 0 .354-.146.894.894 0 0 0 .23-.282c.059-.113.106-.233.142-.36l.118-.419c.035-.124.052-.238.05-.343a.73.73 0 0 0-.048-.275.529.529 0 0 0-.125-.196.477.477 0 0 0-.613-.031.667.667 0 0 0-.155.176.982.982 0 0 0-.142.489c-.002.082.01.16.034.233a.489.489 0 0 0 .113.19.457.457 0 0 0 .205.115.545.545 0 0 0 .23.016.654.654 0 0 0 .514-.417l.165.047a.826.826 0 0 1-.149.29.97.97 0 0 1-.246.227.886.886 0 0 1-.312.127.733.733 0 0 1-.341-.017.761.761 0 0 1-.329-.178.737.737 0 0 1-.185-.279 1.005 1.005 0 0 1-.058-.333 1.275 1.275 0 0 1 .206-.695.925.925 0 0 1 .247-.255.758.758 0 0 1 .323-.13.909.909 0 0 1 .389.03.846.846 0 0 1 .374.207.806.806 0 0 1 .197.328c.041.125.059.258.054.399a1.732 1.732 0 0 1-.065.42l-.036.126a3.58 3.58 0 0 1-.15.424c-.059.14-.133.27-.221.388a1.144 1.144 0 0 1-.321.295 1.056 1.056 0 0 1-.448.142 1.657 1.657 0 0 1-.597-.071l-.036-.01.084-.296Zm3.672.552a.78.78 0 0 1-.237.392.765.765 0 0 1-.386.175 1.078 1.078 0 0 1-.467-.035 1.084 1.084 0 0 1-.418-.215.753.753 0 0 1-.238-.351.783.783 0 0 1 .005-.457.75.75 0 0 1 .146-.282.769.769 0 0 1 .246-.188.856.856 0 0 1 .319-.079c.117-.007.239.007.367.043.168.048.309.122.422.225a.794.794 0 0 1 .235.352.699.699 0 0 1 .006.42Zm-.348-.106a.556.556 0 0 0 .01-.288.475.475 0 0 0-.132-.236.578.578 0 0 0-.256-.143.575.575 0 0 0-.295-.012.471.471 0 0 0-.23.133.576.576 0 0 0-.14.251.561.561 0 0 0-.014.288c.021.086.065.16.132.222a.665.665 0 0 0 .263.138c.108.03.206.037.295.02a.43.43 0 0 0 .227-.121.56.56 0 0 0 .14-.252Zm.646-1.196a.65.65 0 0 1-.207.329.753.753 0 0 1-.358.171.937.937 0 0 1-.44-.025.965.965 0 0 1-.393-.21.752.752 0 0 1-.215-.333.683.683 0 0 1-.002-.388.792.792 0 0 1 .218-.377.716.716 0 0 1 .36-.174.973.973 0 0 1 .441.029.985.985 0 0 1 .392.206.693.693 0 0 1 .213.336.774.774 0 0 1-.009.436Zm-.349-.093a.506.506 0 0 0 .01-.258.441.441 0 0 0-.115-.212.476.476 0 0 0-.223-.129.492.492 0 0 0-.257-.01.422.422 0 0 0-.206.116.558.558 0 0 0-.127.235.55.55 0 0 0-.013.262.43.43 0 0 0 .116.209c.058.058.133.1.224.126a.485.485 0 0 0 .255.009.43.43 0 0 0 .208-.118.52.52 0 0 0 .128-.23Zm2.823.022-.055.196-1.851 2.221-.367-.104 1.824-2.131-1.482-.418.081-.286 1.85.522Zm.776 1.973-.005.018a2.923 2.923 0 0 1-.302.719 2.585 2.585 0 0 1-.399.514c-.142.14-.282.25-.418.329a1.278 1.278 0 0 1-.358.156l-.014-.231c.09-.035.186-.093.29-.173.104-.08.208-.184.314-.314.105-.128.204-.283.297-.464.094-.182.174-.392.241-.63l.008-.026c.067-.238.107-.459.119-.662.014-.205.008-.39-.017-.556a1.978 1.978 0 0 0-.106-.429 1.372 1.372 0 0 0-.145-.295l.134-.191c.075.074.15.181.224.321.074.138.135.304.184.498.048.194.071.41.07.649-.001.238-.04.493-.117.767Zm2.087.128.248.07a.69.69 0 0 0 .318.025.428.428 0 0 0 .225-.117.494.494 0 0 0 .128-.224.617.617 0 0 0 .023-.28.367.367 0 0 0-.113-.206.606.606 0 0 0-.251-.13.596.596 0 0 0-.276-.015.435.435 0 0 0-.22.113.48.48 0 0 0-.132.23l-.348-.098a.737.737 0 0 1 .212-.35.795.795 0 0 1 .372-.189.962.962 0 0 1 .473.024c.165.046.301.117.409.21a.67.67 0 0 1 .216.342.84.84 0 0 1-.017.455.604.604 0 0 1-.111.208.698.698 0 0 1-.211.177.81.81 0 0 1-.306.094 1.089 1.089 0 0 1-.402-.045l-.297-.084.06-.21Zm-.081.286.059-.209.297.084c.174.049.312.11.415.184a.713.713 0 0 1 .222.241.605.605 0 0 1 .075.267.864.864 0 0 1-.19.578.72.72 0 0 1-.253.2.819.819 0 0 1-.318.079 1.134 1.134 0 0 1-.359-.045 1.126 1.126 0 0 1-.322-.146.898.898 0 0 1-.235-.224.717.717 0 0 1-.097-.636l.348.098a.508.508 0 0 0-.009.267.457.457 0 0 0 .134.219.648.648 0 0 0 .261.136c.107.03.203.038.29.023a.407.407 0 0 0 .226-.118.594.594 0 0 0 .144-.266.515.515 0 0 0 .008-.3.435.435 0 0 0-.157-.221.806.806 0 0 0-.291-.141l-.248-.07Zm2.112.543-.258-.15.522-1.324 1.404.396-.091.322-1.109-.313-.293.721a.912.912 0 0 1 .49.01.88.88 0 0 1 .322.162.733.733 0 0 1 .204.256.856.856 0 0 1 .081.336 1.24 1.24 0 0 1-.05.394 1.185 1.185 0 0 1-.157.347.837.837 0 0 1-.241.244.739.739 0 0 1-.325.114 1.02 1.02 0 0 1-.4-.04 1.11 1.11 0 0 1-.301-.134.835.835 0 0 1-.224-.215.797.797 0 0 1-.121-.29.994.994 0 0 1 .004-.36l.331.093a.679.679 0 0 0 .017.285.463.463 0 0 0 .132.21.611.611 0 0 0 .242.125c.083.024.161.03.233.019a.46.46 0 0 0 .196-.078.585.585 0 0 0 .155-.168.874.874 0 0 0 .108-.247.796.796 0 0 0 .033-.251.576.576 0 0 0-.053-.224.492.492 0 0 0-.135-.176.58.58 0 0 0-.22-.113.598.598 0 0 0-.278-.027c-.068.014-.14.04-.218.076Zm3.467 1.391-.081.285-1.977-.558.058-.205 1.761-1.55.284.08-.46.463-1.168 1.038 1.583.447Zm.131-1.924-.772 2.737-.348-.098.772-2.737.348.098Zm1.055 1.842-.081.286-.917-.259.081-.286.917.259Zm2.042-.972.03.009-.083.295-.03-.009a1.1 1.1 0 0 0-.488-.04.786.786 0 0 0-.363.156c-.1.078-.184.175-.252.29a1.599 1.599 0 0 0-.154.364l-.113.402a1.107 1.107 0 0 0-.048.336.74.74 0 0 0 .052.268.467.467 0 0 0 .314.298.463.463 0 0 0 .421-.07.614.614 0 0 0 .156-.171.942.942 0 0 0 .141-.486.636.636 0 0 0-.035-.229.458.458 0 0 0-.321-.3.574.574 0 0 0-.291-.005.646.646 0 0 0-.257.127.513.513 0 0 0-.159.221l-.184-.054c.057-.136.123-.246.199-.332a.792.792 0 0 1 .249-.193.708.708 0 0 1 .282-.071.935.935 0 0 1 .299.036.772.772 0 0 1 .331.177.715.715 0 0 1 .186.275c.04.104.06.213.06.33a1.235 1.235 0 0 1-.203.689.885.885 0 0 1-.248.251.749.749 0 0 1-.321.124.905.905 0 0 1-.387-.032.823.823 0 0 1-.361-.199.867.867 0 0 1-.206-.322 1.175 1.175 0 0 1-.068-.384 1.407 1.407 0 0 1 .052-.394l.047-.163c.054-.193.127-.377.218-.551.091-.175.206-.324.343-.447a1.06 1.06 0 0 1 .502-.246c.196-.041.426-.024.69.05Zm.865 1.797-.258-.15.522-1.324 1.404.396-.091.322-1.109-.313-.293.721a.912.912 0 0 1 .49.01.88.88 0 0 1 .322.162.733.733 0 0 1 .204.256.856.856 0 0 1 .081.336 1.24 1.24 0 0 1-.05.394 1.185 1.185 0 0 1-.157.347.837.837 0 0 1-.241.244.74.74 0 0 1-.324.114 1.024 1.024 0 0 1-.401-.04 1.11 1.11 0 0 1-.301-.134.85.85 0 0 1-.224-.215.815.815 0 0 1-.121-.29.994.994 0 0 1 .004-.36l.331.093a.679.679 0 0 0 .017.285.463.463 0 0 0 .132.21.609.609 0 0 0 .243.125c.082.024.16.03.232.019a.46.46 0 0 0 .196-.078.585.585 0 0 0 .155-.168.918.918 0 0 0 .141-.498.576.576 0 0 0-.053-.224.492.492 0 0 0-.135-.176.58.58 0 0 0-.22-.113.598.598 0 0 0-.278-.027c-.068.014-.14.04-.218.076Zm2.488.698-.081.286-.917-.259.08-.286.918.259Zm.741.213-.258-.15.522-1.324 1.404.397-.091.321-1.109-.313-.293.721c.059-.015.13-.024.213-.027a.891.891 0 0 1 .278.038.853.853 0 0 1 .321.162c.088.07.156.156.204.256.049.1.076.212.082.336.005.123-.011.254-.051.393a1.204 1.204 0 0 1-.156.348.865.865 0 0 1-.242.244.742.742 0 0 1-.324.113 1.007 1.007 0 0 1-.401-.04 1.107 1.107 0 0 1-.301-.133.775.775 0 0 1-.344-.505.977.977 0 0 1 .004-.361l.331.094a.663.663 0 0 0 .017.285.452.452 0 0 0 .131.209.623.623 0 0 0 .243.126.57.57 0 0 0 .232.019.453.453 0 0 0 .197-.079.566.566 0 0 0 .154-.167.882.882 0 0 0 .109-.248.818.818 0 0 0 .032-.25.57.57 0 0 0-.052-.224.492.492 0 0 0-.135-.176.574.574 0 0 0-.22-.113.62.62 0 0 0-.279-.028c-.067.015-.14.04-.218.076Zm2.165.612-.258-.15.522-1.324 1.404.396-.09.321-1.109-.313-.293.721a.918.918 0 0 1 .49.011.88.88 0 0 1 .322.162.719.719 0 0 1 .203.256c.049.1.076.212.082.336.006.123-.011.254-.05.393-.037.132-.09.248-.157.348a.84.84 0 0 1-.242.244.743.743 0 0 1-.324.114 1.04 1.04 0 0 1-.4-.04 1.147 1.147 0 0 1-.302-.134.846.846 0 0 1-.223-.215.797.797 0 0 1-.121-.29.994.994 0 0 1 .004-.36l.331.093a.679.679 0 0 0 .017.285.454.454 0 0 0 .132.21.617.617 0 0 0 .242.125c.083.023.16.03.232.019a.453.453 0 0 0 .197-.079.568.568 0 0 0 .155-.167.917.917 0 0 0 .14-.498.575.575 0 0 0-.052-.224.492.492 0 0 0-.135-.176.566.566 0 0 0-.22-.113.615.615 0 0 0-.278-.028 1.03 1.03 0 0 0-.219.077Zm-35.024 13.37-.081.288-.94-.265-.493 1.746-.348-.098.574-2.034 1.288.363Zm-.214 1.937a.225.225 0 0 1 .096-.133c.05-.031.109-.036.18-.017.07.02.117.056.142.108.026.05.031.105.014.164a.217.217 0 0 1-.097.131c-.048.029-.107.034-.177.015-.07-.02-.119-.055-.145-.106a.22.22 0 0 1-.013-.162Zm3.863.35.361.101a1.199 1.199 0 0 1-.28.423.905.905 0 0 1-.432.229 1.197 1.197 0 0 1-.582-.037 1.017 1.017 0 0 1-.677-.564 1.262 1.262 0 0 1-.105-.462 1.777 1.777 0 0 1 .072-.544l.077-.272a1.75 1.75 0 0 1 .222-.5 1.23 1.23 0 0 1 .334-.34c.128-.084.268-.137.42-.159.153-.022.313-.009.483.038.206.059.37.147.491.265a.865.865 0 0 1 .241.417c.042.159.047.332.015.518l-.361-.102a1.056 1.056 0 0 0-.005-.357.522.522 0 0 0-.143-.271.713.713 0 0 0-.322-.173.745.745 0 0 0-.341-.021.678.678 0 0 0-.287.132.952.952 0 0 0-.226.267 1.623 1.623 0 0 0-.159.384l-.078.276a1.727 1.727 0 0 0-.065.39c-.005.126.01.241.042.346a.667.667 0 0 0 .161.273c.074.075.173.13.294.164a.81.81 0 0 0 .389.031.496.496 0 0 0 .266-.152c.074-.078.139-.178.195-.3Zm1.854 1.087.296-1.047a.446.446 0 0 0 .01-.222.338.338 0 0 0-.104-.18.54.54 0 0 0-.223-.115.58.58 0 0 0-.244-.021.42.42 0 0 0-.187.075.267.267 0 0 0-.1.143l-.347-.098a.47.47 0 0 1 .117-.201c.058-.06.13-.11.216-.148a.839.839 0 0 1 .295-.066c.11-.007.227.007.35.041a.999.999 0 0 1 .37.186.609.609 0 0 1 .202.303.702.702 0 0 1-.009.405l-.267.947a1.543 1.543 0 0 0-.044.221.844.844 0 0 0-.001.213l-.009.03-.363-.102a.679.679 0 0 1 .004-.172c.009-.07.022-.134.038-.192Zm.31-.868-.065.245-.352-.099a1.295 1.295 0 0 0-.271-.05.62.62 0 0 0-.216.014.346.346 0 0 0-.153.084.372.372 0 0 0-.094.339.327.327 0 0 0 .094.163.487.487 0 0 0 .204.106.597.597 0 0 0 .541-.099.378.378 0 0 0 .133-.167l.101.209a.531.531 0 0 1-.121.154.881.881 0 0 1-.478.221.795.795 0 0 1-.313-.028.812.812 0 0 1-.34-.183.652.652 0 0 1-.18-.284.597.597 0 0 1 .002-.33.59.59 0 0 1 .388-.427.932.932 0 0 1 .326-.046c.121.003.251.024.39.064l.404.114Zm2.192.706-.08.282-1.075-.304.079-.282 1.076.304Zm-.753-1.165-.574 2.034-.348-.098.574-2.034.348.098Zm1.283.363-.574 2.033-.349-.098.574-2.034.349.099Zm.938.264-.574 2.034-.347-.098.574-2.034.347.098Zm1.335.377-1.293.893-.487-.137.033-.319.399.112.925-.668.423.119Zm-.948 1.928-.488-1.132.294-.189.636 1.446-.442-.125Zm2.147-1.589-.574 2.033-.35-.098.575-2.034.349.099Zm.683.192-.08.282-1.701-.48.079-.282 1.702.48Zm.86 1.028-.081.286-.917-.259.081-.285.917.258Zm2.887-.729-.773 2.737-.361-.102.689-2.44-1.35-.381-.688 2.44-.363-.102.772-2.737 2.074.585Zm.666 3.183a1.04 1.04 0 0 1-.365-.18.9.9 0 0 1-.337-.653c-.01-.133.005-.27.045-.413l.022-.079c.047-.166.113-.306.198-.421a1.04 1.04 0 0 1 .293-.275.887.887 0 0 1 .344-.124.843.843 0 0 1 .35.024.901.901 0 0 1 .355.181c.092.08.159.175.202.284a.942.942 0 0 1 .061.358c-.002.13-.022.266-.063.409l-.044.156-1.519-.429.081-.284 1.171.331.007-.026a.902.902 0 0 0 .018-.279.49.49 0 0 0-.091-.253.457.457 0 0 0-.259-.163.495.495 0 0 0-.444.088.783.783 0 0 0-.179.207 1.284 1.284 0 0 0-.131.314l-.022.079a.975.975 0 0 0-.038.284.73.73 0 0 0 .056.255.589.589 0 0 0 .388.331.626.626 0 0 0 .333.013.796.796 0 0 0 .28-.138l.164.227a1.01 1.01 0 0 1-.221.142.82.82 0 0 1-.291.076c-.109.01-.23-.004-.364-.042Zm2.588-1.505-.574 2.033-.349-.098.574-2.034.349.099Zm.683.192-.08.282-1.701-.48.08-.282 1.701.48Zm.451 2.364c-.142-.04-.264-.1-.366-.18a.91.91 0 0 1-.337-.654c-.01-.132.006-.27.046-.413l.022-.079c.047-.165.113-.306.198-.421.086-.116.183-.208.293-.274a.863.863 0 0 1 .694-.101.91.91 0 0 1 .355.182c.092.08.159.174.201.284a.939.939 0 0 1 .062.358 1.61 1.61 0 0 1-.063.409l-.044.156-1.519-.429.08-.284 1.171.331.008-.027a.93.93 0 0 0 .018-.279.503.503 0 0 0-.091-.253.465.465 0 0 0-.259-.162.495.495 0 0 0-.445.087.77.77 0 0 0-.178.208 1.216 1.216 0 0 0-.131.314l-.022.079a.938.938 0 0 0-.038.284.74.74 0 0 0 .056.255.586.586 0 0 0 .147.204c.065.057.145.1.241.126a.625.625 0 0 0 .333.013.796.796 0 0 0 .28-.138l.164.227a1.038 1.038 0 0 1-.221.143.841.841 0 0 1-.292.076 1 1 0 0 1-.363-.042Zm2.019-1.244-.684 2.424-.35-.098.795-2.816.319.09-.08.4Zm1.198.995-.011.04c-.041.148-.098.28-.169.397-.07.115-.152.21-.246.283a.734.734 0 0 1-.307.147.733.733 0 0 1-.358-.018.891.891 0 0 1-.325-.16.717.717 0 0 1-.199-.258 1.005 1.005 0 0 1-.083-.34 1.773 1.773 0 0 1 .027-.408l.059-.211c.057-.146.124-.273.199-.38a1.06 1.06 0 0 1 .249-.258.694.694 0 0 1 .305-.123.822.822 0 0 1 .357.027.784.784 0 0 1 .319.172c.085.076.149.17.191.281.042.11.061.234.059.372 0 .136-.023.282-.067.437Zm-.36-.059.011-.039c.028-.102.045-.2.049-.295a.754.754 0 0 0-.033-.265.498.498 0 0 0-.353-.339.571.571 0 0 0-.242-.02.517.517 0 0 0-.198.076.692.692 0 0 0-.16.142 1.05 1.05 0 0 0-.118.182l-.138.487c.001.094.013.187.036.277.023.09.066.169.128.237.062.068.15.118.264.15a.49.49 0 0 0 .259.01.506.506 0 0 0 .215-.115.793.793 0 0 0 .167-.209c.046-.084.084-.177.113-.279Zm2.641-1.332.285.08a.669.669 0 0 1-.139.278.425.425 0 0 1-.201.121.788.788 0 0 1-.243.027 6.42 6.42 0 0 1-.266-.012 1.174 1.174 0 0 0-.331.022.73.73 0 0 0-.294.136c-.09.07-.17.17-.241.302-.07.131-.127.303-.172.513l-.049.173-.285-.08.048-.173c.066-.232.145-.428.238-.589.094-.16.198-.288.313-.384.115-.096.238-.164.37-.202.132-.039.27-.052.413-.04.103.009.192.012.269.011a.403.403 0 0 0 .185-.045.22.22 0 0 0 .1-.138Zm-.695.885a.903.903 0 0 1 .336.17.787.787 0 0 1 .21.268c.05.104.077.217.083.34.007.123-.008.25-.045.382l-.011.041c-.04.141-.098.267-.174.377a.926.926 0 0 1-.268.265.818.818 0 0 1-.344.128.957.957 0 0 1-.403-.032.973.973 0 0 1-.362-.183.87.87 0 0 1-.227-.29.954.954 0 0 1-.091-.366 1.294 1.294 0 0 1 .051-.412l.012-.042a.253.253 0 0 1 .043-.087.693.693 0 0 1 .067-.08.92.92 0 0 0 .075-.087c.078-.099.171-.186.278-.26.109-.073.228-.124.358-.151a.854.854 0 0 1 .412.019Zm-.148.265a.555.555 0 0 0-.34-.001.554.554 0 0 0-.249.184.847.847 0 0 0-.149.297l-.011.041a1.114 1.114 0 0 0-.043.28.785.785 0 0 0 .037.256.521.521 0 0 0 .132.204c.061.058.139.1.236.127a.543.543 0 0 0 .266.014.49.49 0 0 0 .216-.105.775.775 0 0 0 .166-.199c.046-.079.083-.166.11-.261l.012-.041a.884.884 0 0 0 .034-.252.615.615 0 0 0-.046-.232.489.489 0 0 0-.135-.189.575.575 0 0 0-.236-.123Zm1.477 1.953 1.08-1.664.372.105-1.478 2.118a1.305 1.305 0 0 1-.121.14.81.81 0 0 1-.164.135.585.585 0 0 1-.209.079.545.545 0 0 1-.355-.058.965.965 0 0 1-.085-.044l.078-.283.046.017a.56.56 0 0 0 .256.042.311.311 0 0 0 .168-.064.647.647 0 0 0 .155-.169l.257-.354Zm.099-1.941.082 1.728-.013.392-.286.058-.163-2.285.38.107Zm1.905.96-.685 2.425-.35-.099.795-2.816.32.091-.08.399Zm1.198.996-.011.039a1.588 1.588 0 0 1-.169.397c-.071.116-.153.21-.247.284a.715.715 0 0 1-.665.129.895.895 0 0 1-.324-.161.695.695 0 0 1-.199-.257.982.982 0 0 1-.083-.34 1.778 1.778 0 0 1 .026-.409l.059-.21c.058-.146.124-.273.199-.381.075-.107.158-.193.25-.258a.69.69 0 0 1 .304-.123.842.842 0 0 1 .358.028.778.778 0 0 1 .319.171.719.719 0 0 1 .19.281c.042.111.062.235.06.372a1.65 1.65 0 0 1-.067.438Zm-.361-.059.011-.04c.029-.101.045-.199.049-.294a.75.75 0 0 0-.033-.265.484.484 0 0 0-.353-.339.514.514 0 0 0-.44.056.665.665 0 0 0-.159.142 1.048 1.048 0 0 0-.119.181l-.137.487c0 .095.012.188.035.278a.571.571 0 0 0 .128.237c.062.068.15.117.264.15.094.026.181.03.259.01a.517.517 0 0 0 .216-.116.774.774 0 0 0 .166-.209c.047-.084.084-.177.113-.278Zm2.401-.445-.082.288-.939-.266-.493 1.747-.348-.099.574-2.033 1.288.363Z" fill="#072E52"/><path opacity=".2" d="m290.429 56.373-63.445 46.991 11.823-41.884c2.843-10.072 13.309-15.921 23.367-13.082l28.255 7.975Zm70.931 20.47L198.547 204.108l17.524-62.081 103.165-77.522 38.776 10.945a15.19 15.19 0 0 1 3.348 1.393Z" fill="#fff"/><path d="m265.13 110.886-.078.277a4.38 4.38 0 0 1-.619 1.347 3.202 3.202 0 0 1-.915.889 2.84 2.84 0 0 1-1.135.405 3.195 3.195 0 0 1-1.268-.109 3.238 3.238 0 0 1-1.147-.573 2.89 2.89 0 0 1-.76-.94 3.237 3.237 0 0 1-.32-1.237 4.449 4.449 0 0 1 .182-1.471l.078-.277a4.47 4.47 0 0 1 .614-1.349c.265-.375.57-.671.915-.888.35-.219.728-.354 1.135-.405.41-.053.837-.018 1.278.107.439.124.818.315 1.137.575.323.257.576.57.76.939.184.367.29.779.32 1.238.03.458-.029.948-.177 1.472Zm-1.751-.195.081-.287c.095-.338.149-.644.162-.918a2.06 2.06 0 0 0-.069-.725 1.156 1.156 0 0 0-.307-.513 1.189 1.189 0 0 0-.52-.294 1.202 1.202 0 0 0-.612-.025 1.13 1.13 0 0 0-.52.279c-.16.145-.304.339-.434.583a4.636 4.636 0 0 0-.332.87l-.081.287c-.094.335-.152.64-.172.915a2.2 2.2 0 0 0 .065.724c.062.21.162.384.299.521.141.137.321.237.54.299.21.059.409.067.597.022a1.16 1.16 0 0 0 .523-.289c.164-.147.31-.341.439-.582.132-.243.246-.532.341-.867Zm3.993 3.451a.85.85 0 0 0 .398.026.578.578 0 0 0 .306-.168.755.755 0 0 0 .185-.348l1.49.42a1.823 1.823 0 0 1-.566.926 1.986 1.986 0 0 1-.959.45 2.564 2.564 0 0 1-1.161-.074 2.717 2.717 0 0 1-.989-.487 2.173 2.173 0 0 1-.594-.756 2.501 2.501 0 0 1-.214-.949c-.009-.34.039-.694.142-1.06l.031-.109c.103-.366.248-.692.433-.978.19-.288.416-.52.679-.696a2.09 2.09 0 0 1 .896-.336 2.63 2.63 0 0 1 1.094.096c.423.119.774.304 1.051.555.281.252.471.556.57.912.099.356.086.75-.039 1.181l-1.49-.42a1.07 1.07 0 0 0 .046-.434.659.659 0 0 0-.152-.358.694.694 0 0 0-.368-.225.684.684 0 0 0-.425-.003.698.698 0 0 0-.315.235 1.755 1.755 0 0 0-.226.404c-.062.158-.118.33-.171.514l-.03.109a5.858 5.858 0 0 0-.126.537 1.59 1.59 0 0 0-.014.463.707.707 0 0 0 .148.356c.08.098.204.17.37.217Zm6.826-2.346-1.435 5.085-1.588-.448 1.435-5.085 1.588.448Zm1.607.454-.342 1.212-4.774-1.347.342-1.213 4.774 1.348Zm2.084 4.698.591-2.096c.041-.144.056-.274.044-.389a.508.508 0 0 0-.125-.294.64.64 0 0 0-.327-.188.72.72 0 0 0-.323-.025.43.43 0 0 0-.244.128.684.684 0 0 0-.154.292l-1.583-.447a1.45 1.45 0 0 1 .339-.609c.164-.174.365-.309.601-.404.24-.095.508-.144.803-.149.3-.007.619.038.957.133.404.114.746.283 1.024.507.281.225.477.499.585.82.11.319.108.68-.006 1.084l-.588 2.082a3.92 3.92 0 0 0-.157.772c-.01.18.001.344.034.492l-.023.08-1.588-.449a2.193 2.193 0 0 1-.007-.621c.03-.238.079-.478.147-.719Zm.708-1.774-.229.849-.7-.198a1.047 1.047 0 0 0-.393-.045.655.655 0 0 0-.49.298c-.05.081-.089.17-.116.267a.504.504 0 0 0-.006.272.512.512 0 0 0 .14.222.592.592 0 0 0 .246.136.976.976 0 0 0 .474.027.847.847 0 0 0 .357-.168.51.51 0 0 0 .176-.245l.165.747a4.46 4.46 0 0 1-.324.319 1.717 1.717 0 0 1-.397.274 1.456 1.456 0 0 1-.502.142 1.77 1.77 0 0 1-.643-.075 2.018 2.018 0 0 1-.81-.436 1.665 1.665 0 0 1-.474-.713 1.448 1.448 0 0 1-.01-.865c.075-.263.188-.485.34-.665a1.45 1.45 0 0 1 .586-.403c.235-.089.513-.129.835-.119a4.6 4.6 0 0 1 1.094.187l.681.192Zm4.605 2.416-1.56-.44.267-.98 1.297.366a.932.932 0 0 0 .317.044.298.298 0 0 0 .2-.081.433.433 0 0 0 .112-.197.527.527 0 0 0 .02-.217.303.303 0 0 0-.069-.167.5.5 0 0 0-.158-.125 1.215 1.215 0 0 0-.247-.095l-.597-.169-1.093 3.872-1.583-.447 1.435-5.084 2.18.615c.336.095.628.209.878.344.25.132.451.283.602.454.155.169.258.357.308.564.049.207.04.431-.028.672a.942.942 0 0 1-.237.41c-.114.117-.26.207-.437.272a1.91 1.91 0 0 1-.61.112 3.192 3.192 0 0 1-.768-.084l-.229.361Zm-.585 2.073-1.903-.538.826-1.075 1.419.4a.931.931 0 0 0 .333.043.355.355 0 0 0 .219-.09.464.464 0 0 0 .121-.215.54.54 0 0 0 .018-.243.349.349 0 0 0-.125-.203.845.845 0 0 0-.323-.152l-1.24-.35.285-.975 1.339.378.226.495c.388.134.69.292.906.474.219.184.362.378.429.583.071.206.077.412.018.619a1.426 1.426 0 0 1-.32.595 1.23 1.23 0 0 1-.537.34 2.185 2.185 0 0 1-.749.083 4.376 4.376 0 0 1-.942-.169Zm4.829-2.62 1.447.408c.489.138.885.335 1.189.589.307.253.515.547.624.882.109.332.111.684.006 1.057a1.768 1.768 0 0 1-.368.692c-.17.193-.379.342-.629.447a2.339 2.339 0 0 1-.844.168 3.5 3.5 0 0 1-1.019-.146l-2.396-.676 1.435-5.085 1.588.448-1.093 3.873.808.228c.182.051.336.064.461.039a.593.593 0 0 0 .48-.443.674.674 0 0 0 .013-.352.547.547 0 0 0-.185-.296 1.01 1.01 0 0 0-.413-.208l-1.448-.408.344-1.217Zm6.921.447-1.435 5.084-1.588-.448 1.435-5.085 1.588.449Zm1.607.453-.342 1.213-4.774-1.348.342-1.213 4.774 1.348Zm1.292 5.956a3.113 3.113 0 0 1-1.054-.506 2.493 2.493 0 0 1-.675-.774 2.482 2.482 0 0 1-.289-.934 2.69 2.69 0 0 1 .092-.993l.051-.179c.105-.373.254-.703.447-.99.193-.29.426-.526.696-.706.271-.181.579-.294.923-.339a2.749 2.749 0 0 1 1.128.101c.361.101.667.25.919.447.253.196.447.43.583.702.14.273.218.577.235.914a3.26 3.26 0 0 1-.132 1.079l-.182.643-4.154-1.172.28-.992 2.608.736.034-.122a.914.914 0 0 0 .033-.457.64.64 0 0 0-.186-.347.91.91 0 0 0-.397-.213.775.775 0 0 0-.459-.008.793.793 0 0 0-.346.237c-.096.111-.18.248-.253.41a3.821 3.821 0 0 0-.189.526l-.05.178a1.738 1.738 0 0 0-.07.534c.01.168.048.321.115.458.07.135.165.251.286.35.125.099.276.174.455.224.216.061.44.081.673.059.233-.023.451-.106.655-.252l.477 1.058a1.938 1.938 0 0 1-.562.303 2.523 2.523 0 0 1-.772.147 2.97 2.97 0 0 1-.92-.122Zm8.347-.363-1.043-.295.181-.639.653.184a.74.74 0 0 0 .341.031.401.401 0 0 0 .231-.118.543.543 0 0 0 .133-.236.689.689 0 0 0 .024-.247.376.376 0 0 0-.097-.23c-.061-.072-.165-.128-.313-.17a1.023 1.023 0 0 0-.333-.043.453.453 0 0 0-.252.086.394.394 0 0 0-.144.223l-1.589-.448c.093-.329.266-.583.52-.762a1.82 1.82 0 0 1 .908-.322c.351-.036.718 0 1.101.108.335.095.629.213.883.356.255.14.462.299.621.48.159.18.264.377.315.591a1.28 1.28 0 0 1-.019.679 1.081 1.081 0 0 1-.26.455c-.125.13-.281.233-.468.309a1.839 1.839 0 0 1-.636.115 2.63 2.63 0 0 1-.757-.107Zm-.947-.633 1.043.294c.301.085.557.19.769.314.216.122.386.261.511.418.125.157.203.33.234.518.036.186.023.385-.037.598a1.298 1.298 0 0 1-.352.601 1.52 1.52 0 0 1-.614.344 2.552 2.552 0 0 1-.818.094 4.092 4.092 0 0 1-.955-.158 3.294 3.294 0 0 1-.982-.46 1.98 1.98 0 0 1-.67-.752c-.147-.295-.168-.628-.064-.997l1.589.448a.435.435 0 0 0 .004.255.5.5 0 0 0 .172.236c.091.07.219.128.382.174.16.045.291.053.394.025a.445.445 0 0 0 .246-.154.665.665 0 0 0 .129-.243.638.638 0 0 0 .017-.345.453.453 0 0 0-.176-.242.958.958 0 0 0-.344-.163l-.653-.185.175-.62Zm5.788 3.237.592-2.096c.04-.144.055-.273.043-.388a.503.503 0 0 0-.125-.294.63.63 0 0 0-.327-.189.715.715 0 0 0-.322-.025.437.437 0 0 0-.245.129.669.669 0 0 0-.153.291l-1.584-.447c.066-.235.18-.438.34-.609.164-.174.364-.308.601-.404.239-.095.507-.144.803-.149.299-.006.618.038.957.133.404.115.745.284 1.023.508.282.225.477.498.586.819.109.319.107.68-.007 1.084l-.587 2.082c-.094.332-.147.59-.158.772-.01.18.001.344.034.492l-.022.08-1.589-.448a2.237 2.237 0 0 1-.007-.622c.03-.238.079-.478.147-.719Zm.709-1.774-.23.849-.7-.198a1.09 1.09 0 0 0-.393-.045.667.667 0 0 0-.292.1.718.718 0 0 0-.198.198c-.05.081-.088.17-.116.267a.525.525 0 0 0-.006.272c.027.086.074.16.141.222a.58.58 0 0 0 .246.136.975.975 0 0 0 .474.027.824.824 0 0 0 .357-.168.507.507 0 0 0 .175-.245l.165.747a4.467 4.467 0 0 1-.324.32 1.716 1.716 0 0 1-.396.273 1.486 1.486 0 0 1-.502.143 1.773 1.773 0 0 1-.644-.075 2.026 2.026 0 0 1-.81-.437 1.662 1.662 0 0 1-.474-.712 1.451 1.451 0 0 1-.009-.866c.074-.263.187-.484.34-.665a1.44 1.44 0 0 1 .585-.403c.235-.089.514-.129.836-.119.322.01.686.072 1.093.187l.682.192Zm3.275 1.483 1.579.446-2.117 2.198-1.574-.445 2.112-2.199Zm1.701-2.214 2.283.645-1.435 5.084-1.579-.446 1.093-3.872-.705-.199a.828.828 0 0 0-.415-.021.647.647 0 0 0-.3.164.56.56 0 0 0-.158.255.534.534 0 0 0 .004.291.666.666 0 0 0 .178.288.89.89 0 0 0 .375.197l1.321.373-.288 1.02-1.321-.373a3.621 3.621 0 0 1-.924-.393 2.366 2.366 0 0 1-.627-.547 1.657 1.657 0 0 1-.312-.656 1.436 1.436 0 0 1 .026-.703c.072-.254.191-.472.358-.655.166-.183.37-.325.612-.426.246-.103.521-.157.827-.162a3.29 3.29 0 0 1 .987.136Zm5.061 4.681-1.56-.441.266-.98 1.297.366a.912.912 0 0 0 .318.044.303.303 0 0 0 .2-.08.437.437 0 0 0 .111-.197.529.529 0 0 0 .021-.217.294.294 0 0 0-.07-.167.473.473 0 0 0-.157-.126 1.303 1.303 0 0 0-.247-.095l-.597-.168-1.093 3.872-1.583-.447 1.435-5.085 2.18.616c.335.094.628.209.877.344.251.131.451.283.603.454.155.169.257.357.307.564.05.206.041.431-.027.672a.95.95 0 0 1-.238.41 1.158 1.158 0 0 1-.437.272 1.928 1.928 0 0 1-.61.112 3.194 3.194 0 0 1-.767-.085l-.229.362Zm-.585 2.072-1.903-.537.826-1.076 1.419.401a.954.954 0 0 0 .333.043.353.353 0 0 0 .218-.091.453.453 0 0 0 .122-.214.576.576 0 0 0 .018-.244.343.343 0 0 0-.126-.202.818.818 0 0 0-.322-.152l-1.241-.35.286-.975 1.339.378.225.495c.389.133.691.291.907.474.219.183.362.378.429.583.07.205.076.412.018.619a1.415 1.415 0 0 1-.32.594c-.142.156-.321.27-.538.341a2.183 2.183 0 0 1-.749.082 4.308 4.308 0 0 1-.941-.169Zm5.913-3.82-1.435 5.084-1.583-.447 1.435-5.084 1.583.447Zm3.295.93-3.021 2.719-1.419-.401.239-1.53.851.24 1.32-1.602 2.03.574Zm-3.433 4.52-.369-2.341 1.658-.248.859 3.195-2.148-.606Zm4.257.558 2.582-4.117 1.702.48-3.693 5.264c-.08.117-.177.238-.291.365-.114.13-.253.245-.417.344a1.463 1.463 0 0 1-.577.192c-.218.03-.471.004-.759-.077a1.795 1.795 0 0 1-.332-.119 7.23 7.23 0 0 1-.299-.161l.319-1.132.104.029.103.029c.169.048.309.069.419.062a.508.508 0 0 0 .277-.084.71.71 0 0 0 .199-.202l.663-.873Zm.933-4.582-.003 3.839-.3 1.727-1.062-.3-.331-5.745 1.696.479Zm-54.391-76.387 70.726 19.964-.583 2.066c-2.071 7.338-9.718 11.618-17.054 9.548l-44.127-12.456c-7.337-2.07-11.616-9.718-9.545-17.056l.583-2.066Z" fill="#072E52"/><path d="M286.391 65.573a3.562 3.562 0 1 0 1.934-6.856 3.562 3.562 0 0 0-1.934 6.856Zm34.525 3.08-19.187-5.417a3.073 3.073 0 0 0-3.792 2.123l-.262.928a3.072 3.072 0 0 0 2.122 3.792l19.188 5.416c1.633.46 3.33-.49 3.791-2.123l.262-.928a3.073 3.073 0 0 0-2.122-3.791Z" fill="#fff" stroke="#072E52" stroke-miterlimit="10"/><path d="M366.185 571.315c-32.282 4.728-65.961-.17-97.371-9.984a309.807 309.807 0 0 1-5.668-1.827l.343-14.371c-17.92-33.14-57.592-70.041-51.442-107.208 7.863-47.73.219-47.858 3.467-59.365.115-.408 4.856-4.854 12.059-15.513 2.346-3.439 4.553-8.841 6.538-13.224 2.079-4.623 7.39-6.971 12.163-5.236 3.228 1.151 6.154 3.326 8.002 6.052 3.568 5.296 4.2 12.141 3.053 18.43-1.123 6.295-3.824 12.173-6.541 17.965 2.326 10.783 1.858 23.182 1.024 34.182 4.622-8.047 15.503-33.631 11.626-53.963-6.509-34.247-14.782-67.683-16.947-109.414-.18-3.243.942-8.257 2.589-11.065 6.209-10.498 17.294-5.432 20.972 2.219 1.006 2.021 1.586 4.175 1.937 6.385 2.386 15.208 9.24 39.333 14.853 53.662l19.303 49.534 4.528-1.848s15.99-50.259 15.388-51.297c-.594-1.063 3.603-34.907 3.603-34.907s-1.018-6.806-2.157-15.451c-1.106-8.621 3.877-13.734 3.877-13.734 9.128-10.195 19.648-1.281 20.338 5.741.693 7.008 4.619 21.489 4.619 21.489l3.138 41.552c-2.923 8.366-9.911 51.815-9.911 51.815l5.6-.864 14.95-22.445 1.078-27.003s-9.081-18.273-4.469-26.189c4.593-7.895 15.164-2.239 15.164-2.239l14.928 33.283 6.619 1.869 10.07 24.23a130.8 130.8 0 0 1-4.781 41.307 129.284 129.284 0 0 1-10.188 25.446l-8.31 15.716-30.497 108.045s5.827 20.334 5.362 21.98c-.094.334.399 7.152 1.091 16.245Z" fill="#fff"/><mask id="f" style="mask-type:luminance" maskUnits="userSpaceOnUse" x="211" y="236" width="203" height="338"><path d="M366.185 571.315c-32.282 4.728-65.961-.17-97.371-9.984a309.807 309.807 0 0 1-5.668-1.827l.343-14.371c-17.92-33.14-57.592-70.041-51.442-107.208 7.863-47.73.219-47.858 3.467-59.365.115-.408 4.856-4.854 12.059-15.513 2.346-3.439 4.553-8.841 6.538-13.224 2.079-4.623 7.39-6.971 12.163-5.236 3.228 1.151 6.154 3.326 8.002 6.052 3.568 5.296 4.2 12.141 3.053 18.43-1.123 6.295-3.824 12.173-6.541 17.965 2.326 10.783 1.858 23.182 1.024 34.182 4.622-8.047 15.503-33.631 11.626-53.963-6.509-34.247-14.782-67.683-16.947-109.414-.18-3.243.942-8.257 2.589-11.065 6.209-10.498 17.294-5.432 20.972 2.219 1.006 2.021 1.586 4.175 1.937 6.385 2.386 15.208 9.24 39.333 14.853 53.662l19.303 49.534 4.528-1.848s15.99-50.259 15.388-51.297c-.594-1.063 3.603-34.907 3.603-34.907s-1.018-6.806-2.157-15.451c-1.106-8.621 3.877-13.734 3.877-13.734 9.128-10.195 19.648-1.281 20.338 5.741.693 7.008 4.619 21.489 4.619 21.489l3.138 41.552c-2.923 8.366-9.911 51.815-9.911 51.815l5.6-.864 14.95-22.445 1.078-27.003s-9.081-18.273-4.469-26.189c4.593-7.895 15.164-2.239 15.164-2.239l14.928 33.283 6.619 1.869 10.07 24.23a130.8 130.8 0 0 1-4.781 41.307 129.284 129.284 0 0 1-10.188 25.446l-8.31 15.716-30.497 108.045s5.827 20.334 5.362 21.98c-.094.334.399 7.152 1.091 16.245Z" fill="#fff"/></mask><g mask="url(#f)"><path d="M219.975 373.875c-.289.506-.593 1.155-.261 1.636.511.745 1.643.143 2.34-.435 4.592-3.727 11.655-4.004 16.529-.638 2.064.543 3.653-2.389 2.744-4.329-.908-1.939-3.123-2.845-5.173-3.437-2.054-.58-4.284-1.102-5.721-2.684-1.763-1.94-1.832-4.912-.628-7.097-3.114 5.734-6.54 11.34-9.83 16.984Z" fill="#E0E0E0"/><path d="M219.975 373.875c-.289.506-.593 1.155-.261 1.636.511.745 1.643.143 2.34-.435 4.592-3.727 11.655-4.004 16.529-.638 2.064.543 3.653-2.389 2.744-4.329-.908-1.939-3.123-2.845-5.173-3.437-2.054-.58-4.284-1.102-5.721-2.684-1.763-1.94-1.832-4.912-.628-7.097-3.114 5.734-6.54 11.34-9.83 16.984Z" fill="#fff" opacity=".5"/><path d="M235.334 425.368a22.63 22.63 0 0 0 1.311-1.473c-.647.258-1.167.726-1.311 1.473Zm18.66-37.242c1.272-6.401 3.941-12.448 5.455-18.807 1.511-6.346 1.735-13.43-1.615-19.025-4.81-8.037-23.655-9.937-20.954 3.49.752 3.726 4.582 6.624 8.334 6.107 3.765-.514 6.699-4.615 5.759-8.287 4.153 13.062-.917 28.517-11.984 36.588 7.038 10.697 5.916 25.984-2.332 35.706 1.323-.522 3.247-.099 4.192 1.143 1.401 1.851 1.335 4.358 1.621 6.656.286 2.298 1.364 4.914 3.633 5.394 5.169-6.623 6.557-15.423 6.789-23.814.231-8.391-.52-16.899 1.123-25.132l-.021-.019Zm82.08-91.24-.208 1.304c.202-.384.299-.824.208-1.304Zm-28.039 51.588c-3.966-20.023-7.943-40.049-12.932-59.853-2.916-11.577-6.201-23.125-11.426-33.858-2.317-4.756-9.558-16.298-16.549-12.019-4.665 2.851-1.951 11.219-7.524 14.161.985.345 6.112 1.204 6.446 2.007 7.268 16.934 8.401 36.437 3.145 54.111 4.381-1.796 8.192 3.488 9.972 7.878a859.113 859.113 0 0 1 28.754 82.487c.083-11.319 3.152-22.476 2.979-33.786-.104-7.11-1.498-14.143-2.881-21.12l.016-.008Z" fill="#E0E0E0"/><path d="M235.334 425.368a22.63 22.63 0 0 0 1.311-1.473c-.647.258-1.167.726-1.311 1.473Zm18.66-37.242c1.272-6.401 3.941-12.448 5.455-18.807 1.511-6.346 1.735-13.43-1.615-19.025-4.81-8.037-23.655-9.937-20.954 3.49.752 3.726 4.582 6.624 8.334 6.107 3.765-.514 6.699-4.615 5.759-8.287 4.153 13.062-.917 28.517-11.984 36.588 7.038 10.697 5.916 25.984-2.332 35.706 1.323-.522 3.247-.099 4.192 1.143 1.401 1.851 1.335 4.358 1.621 6.656.286 2.298 1.364 4.914 3.633 5.394 5.169-6.623 6.557-15.423 6.789-23.814.231-8.391-.52-16.899 1.123-25.132l-.021-.019Zm82.08-91.24-.208 1.304c.202-.384.299-.824.208-1.304Zm-28.039 51.588c-3.966-20.023-7.943-40.049-12.932-59.853-2.916-11.577-6.201-23.125-11.426-33.858-2.317-4.756-9.558-16.298-16.549-12.019-4.665 2.851-1.951 11.219-7.524 14.161.985.345 6.112 1.204 6.446 2.007 7.268 16.934 8.401 36.437 3.145 54.111 4.381-1.796 8.192 3.488 9.972 7.878a859.113 859.113 0 0 1 28.754 82.487c.083-11.319 3.152-22.476 2.979-33.786-.104-7.11-1.498-14.143-2.881-21.12l.016-.008Z" opacity=".5" fill="#fff"/><path d="M344.753 252.365c6.092 15.092 7.199 32.13 3.14 47.884-5.699-.82-11.657 3.443-12.724 9.113 1.576-3.549 7.301-3.056 9.662.029 2.35 3.081 2.255 7.343 1.886 11.206-2.197 22.879-11.497 44.421-16.141 66.93-1.753 8.482.177 28.665-5.797 68.045 6.622-28.002 16.052-57.055 22.674-85.057 5.024-21.253 9.599-38.691 12.038-60.393 1.742-15.539-.229-34.251-3.768-49.491-.854-3.647-2.489-14.556-5.664-16.841-5.267-3.771-3.456 4.956-5.302 8.563l-.004.012Z" fill="#E0E0E0"/><path opacity=".5" d="M344.753 252.365c6.092 15.092 7.199 32.13 3.14 47.884-5.699-.82-11.657 3.443-12.724 9.113 1.576-3.549 7.301-3.056 9.662.029 2.35 3.081 2.255 7.343 1.886 11.206-2.197 22.879-11.497 44.421-16.141 66.93-1.753 8.482.177 28.665-5.797 68.045 6.622-28.002 16.052-57.055 22.674-85.057 5.024-21.253 9.599-38.691 12.038-60.393 1.742-15.539-.229-34.251-3.768-49.491-.854-3.647-2.489-14.556-5.664-16.841-5.267-3.771-3.456 4.956-5.302 8.563l-.004.012Z" fill="#fff"/><path d="M368.343 288.935c.654-3.075 3.806-5.391 6.936-5.123 3.13.269 5.826 3.115 5.928 6.256-2.693-.92-5.989.915-6.628 3.7l7.133-.712c-.901 6.599 1.819 13.098 4.628 19.141 2.812 6.031 2.212 9.388 2.002 16.049-.211 6.66-1.338 16.615-7.991 16.808 2.876.224 4.807 3.32 4.807 6.206.004 2.873-1.381 5.555-2.703 8.108a372.175 372.175 0 0 0-24.605 59.583c8.446-8.771 20.056-23.168 26.041-33.769 14.534-25.702 13.052-30.769 13.841-49.984.507-12.442-1.835-24.632-7.008-35.978-2.167-4.766-5.4-12.145-9.615-15.432-4.345-3.39-12.275-.993-12.769 5.16l.003-.013Z" fill="#E0E0E0"/><path opacity=".5" d="M368.343 288.935c.654-3.075 3.806-5.391 6.936-5.123 3.13.269 5.826 3.115 5.928 6.256-2.693-.92-5.989.915-6.628 3.7l7.133-.712c-.901 6.599 1.819 13.098 4.628 19.141 2.812 6.031 2.212 9.388 2.002 16.049-.211 6.66-1.338 16.615-7.991 16.808 2.876.224 4.807 3.32 4.807 6.206.004 2.873-1.381 5.555-2.703 8.108a372.175 372.175 0 0 0-24.605 59.583c3.741-3.886 8.099-8.868 12.31-14.132 5.306-6.638 10.392-13.726 13.731-19.637 14.534-25.702 13.052-30.769 13.841-49.984.507-12.442-1.835-24.632-7.008-35.978-2.167-4.766-5.4-12.145-9.615-15.432-4.345-3.39-12.275-.993-12.769 5.16l.003-.013Z" fill="#fff"/><path d="M398.133 344.663c2.489-1.863 5.089-3.787 8.151-4.366 3.062-.578 6.687.632 7.863 3.516a94.077 94.077 0 0 1-6.981-18.991c-.576-2.313-1.117-4.75-2.678-6.554-1.302-1.489-4.398-2.777-6.136-1.211-1.562 1.416-.848 4.944-.798 6.708.198 6.963.393 13.938.591 20.901l-.012-.003Z" fill="#E0E0E0"/><path opacity=".5" d="M398.133 344.663c2.489-1.863 5.089-3.787 8.151-4.366 3.062-.578 6.687.632 7.863 3.516a94.077 94.077 0 0 1-6.981-18.991c-.576-2.313-1.117-4.75-2.678-6.554-1.302-1.489-4.398-2.777-6.136-1.211-1.562 1.416-.848 4.944-.798 6.708.198 6.963.393 13.938.591 20.901l-.012-.003Z" fill="#fff"/><path d="M387.291 375.361c-2.875 5.454-6.514 10.585-8.314 16.489-2.223 7.308-1.357 15.502 2.356 22.174a90.121 90.121 0 0 1 8.111-23.908c1.27-2.514 3.998-11.75 6.556-12.912 2.558-1.161 6.313.019 6.727 2.808.923-3.694-2.824-7.691-6.565-7.024 3.023-.536 3.132-15.12 3.252-17.958.158-3.87 1.254-22.424-2.51-24.515-3.789-2.098-1.973 5.522-1.864 6.888a70.324 70.324 0 0 1-.189 13.066c-.938 8.672-3.472 17.175-7.548 24.895l-.012-.003Z" fill="#E0E0E0"/><path opacity=".5" d="M387.291 375.361c-2.875 5.454-6.514 10.585-8.314 16.489-2.223 7.308-1.357 15.502 2.356 22.174a90.121 90.121 0 0 1 8.111-23.908c1.27-2.514 3.998-11.75 6.556-12.912 2.558-1.161 6.313.019 6.727 2.808.923-3.694-2.824-7.691-6.565-7.024 3.023-.536 3.132-15.12 3.252-17.958.158-3.87 1.254-22.424-2.51-24.515-3.789-2.098-1.973 5.522-1.864 6.888a70.324 70.324 0 0 1-.189 13.066c-.938 8.672-3.472 17.175-7.548 24.895l-.012-.003Z" fill="#fff"/><path d="m352.694 421.65-11.318 43.363c4.921-2.766 9.157-6.7 12.376-11.336 2.471-3.55 7.989-.857 6.63 3.248-.2.611-.412 1.22-.62 1.815-6.935 19.979-13.878 39.941-20.813 59.92l28.385-47.99c-1.873 15.957-20.586 57.125-29.397 70.549 10.851 5.093 10.976 20.452 8.055 32.078-2.921 11.626-6.872 25.152.455 34.635 10.071-1.419 8.168.876 12.747 2.209 5.602 1.635 11.371-.157 17.041-4.061 2.188-1.506 4.667-4.801 5.464-7.341 2.116-6.831.062-13.609-1.373-20.306-10.516-49.245 12.616-101.056 2.462-150.305-.073-.355-.568-.401-.703-.065-3.482 8.409-6.271 5.324-9.624-3.144-.023-.06-9.366 3.087-9.389 3.027-2.34-6.191-1.156-13.084.064-19.58-7.6 7.287-10.451 13.269-10.451 13.269l.009.015Z" fill="#E0E0E0"/><path d="m352.694 421.65-11.318 43.363c4.921-2.766 9.157-6.7 12.376-11.336 2.471-3.55 7.989-.857 6.63 3.248-.2.611-.412 1.22-.62 1.815-6.935 19.979-13.878 39.941-20.813 59.92l28.385-47.99c-1.873 15.957-20.586 57.125-29.397 70.549 10.851 5.093 10.976 20.452 8.055 32.078-2.921 11.626-6.872 25.152.455 34.635 10.071-1.419 8.168.876 12.747 2.209 5.602 1.635 11.371-.157 17.041-4.061 2.188-1.506 4.667-4.801 5.464-7.341 2.116-6.831.062-13.609-1.373-20.306-10.516-49.245 12.616-101.056 2.462-150.305-.073-.355-.568-.401-.703-.065-3.482 8.409-6.271 5.324-9.624-3.144-.023-.06-9.366 3.087-9.389 3.027-2.34-6.191-1.156-13.084.064-19.58-7.6 7.287-10.451 13.269-10.451 13.269l.009.015Z" fill="#fff" opacity=".5"/><path d="M262.808 573.716c3.161-7.27 9.016-21.863 8.334-29.763-.493-5.777-3.091-11.24-6.688-15.769-5.343-6.718-13.171-11.92-21.462-14.207-.936 4.358 3.706 5.896 6.274 8.438 3.783 3.726 6.741 8.863 9.113 13.567 3.435 6.807 7.797 30.014 4.441 37.737l-.012-.003Z" fill="#E0E0E0"/><path opacity=".5" d="M262.808 573.716c3.161-7.27 9.138-21.868 8.334-29.763-.621-6.08-3.175-11.464-6.688-15.769-5.43-6.649-13.171-11.92-21.462-14.207-.936 4.358 3.706 5.896 6.274 8.438 3.783 3.726 6.741 8.863 9.113 13.567 3.435 6.807 7.797 30.014 4.441 37.737l-.012-.003Z" fill="#fff"/></g><path d="m263.146 559.504.343-14.371c-17.92-33.14-57.592-70.041-51.442-107.208 7.863-47.73.219-47.858 3.467-59.365.115-.408 4.856-4.854 12.059-15.513 2.346-3.439 4.553-8.841 6.538-13.224 2.079-4.623 7.39-6.971 12.163-5.236 3.228 1.151 6.154 3.326 8.002 6.052 3.568 5.296 4.2 12.141 3.053 18.43-1.123 6.295-3.824 12.173-6.541 17.965 2.326 10.783 1.858 23.182 1.024 34.182 4.622-8.047 15.503-33.631 11.626-53.963-6.509-34.247-14.782-67.683-16.947-109.414-.18-3.243.942-8.257 2.589-11.065 6.209-10.498 17.294-5.432 20.972 2.219 1.006 2.021 1.586 4.175 1.937 6.385 2.386 15.208 9.24 39.333 14.853 53.662l19.303 49.534 4.528-1.848s15.99-50.259 15.389-51.297c-.595-1.063 3.602-34.907 3.602-34.907s-1.018-6.806-2.157-15.451c-1.106-8.621 3.877-13.734 3.877-13.734 9.128-10.195 19.648-1.281 20.338 5.741.693 7.008 4.619 21.489 4.619 21.489l3.138 41.552c-2.923 8.366-9.911 51.815-9.911 51.815l5.6-.864 14.95-22.445 1.078-27.003s-9.081-18.273-4.469-26.189c4.593-7.895 15.164-2.239 15.164-2.239l14.928 33.283 6.619 1.869 10.07 24.23a130.8 130.8 0 0 1-4.781 41.307 129.284 129.284 0 0 1-10.188 25.446l-8.31 15.716-30.497 108.044s5.827 20.335 5.362 21.981c-.094.334.399 7.152 1.091 16.245" stroke="#072E52" stroke-miterlimit="10"/><path d="M266.488 314.142c5.202-3.287 12.016-3.862 17.697-1.51m-13.379-53.059c-4.283-2.051-9.389-2.276-13.837-.619 0 0-4.652-8.314-1.784-13.222m125.36 168.577c-2.014-6.54-3.346-15.119-.541-21.367 5.482-12.226 15.445-25.285 16.385-38.646l1.821-25.616m-48.558-70.818c-2.989 1.08-6.572.336-8.876-1.864-2.305-2.2-3.23-5.735-2.29-8.782m-20.618 86.626c-1.514 4.275-6.729 24.926-8.243 29.201m23.358 15.437c3.913 7.811-1.125 22.487-7.449 29.559m-41.213-24.578c1.369 6.839 4.64 13.279 9.243 18.266m73.169-3.834c-.82 6.501-4.085 12.673-8.985 17.021m27.616 9.198c-1.111 4.977-3.954 9.558-7.927 12.752m8.704-141.943c-2.543-2.254-6.512-2.72-9.505-1.107-.678-1.714-1.344-3.425-2.018-5.152m-20.534 17.81c-3.521-3.947-10.119-4.66-14.405-1.542" stroke="#072E52" stroke-miterlimit="10"/><path d="M395.299 355.698c-1.384-5.413-6.194-9.763-11.714-10.6m22.124 40.391c.876-3.387-1.009-7.259-4.208-8.656m-150.424 46.419-6.258.879m6.432 3.993a33.657 33.657 0 0 0-3.743 13.024m-20.56-66.468a34.359 34.359 0 0 0-9.958 6.367m16.11-22.959c4.891-1.759 9.549 6.583 14.237 4.312 1.87-.901 2.628-3.159 2.837-5.224.209-2.065.071-4.228.924-6.111m51.36 92.689a136.27 136.27 0 0 1-1.563 6.292m5.761-43.502c.099 9.633-1.068 19.257-2.612 28.894m.465-48.684a181.32 181.32 0 0 1 1.6 15.815" stroke="#072E52" stroke-miterlimit="10"/></svg>