<svg width="243" height="111" fill="none" xmlns="http://www.w3.org/2000/svg"><path d="M116.231 20.787h4.652v15.096h3.713c.726-4.752 2.87-8.678 6.434-11.78 3.597-3.135 7.787-4.702 12.572-4.702 5.312 0 9.816 1.88 13.512 5.642 3.729 3.73 5.593 8.25 5.593 13.562 0 5.28-1.864 9.8-5.593 13.562-3.729 3.761-8.233 5.642-13.512 5.642-4.95 0-9.256-1.7-12.918-5.098-3.63-3.398-5.643-7.572-6.039-12.522h-3.762v16.234h-4.652V20.787Zm27.371 3.217c-3.993 0-7.408 1.435-10.246 4.306-2.804 2.87-4.207 6.302-4.207 10.295 0 4.026 1.403 7.474 4.207 10.345 2.805 2.837 6.22 4.256 10.246 4.256 4.025 0 7.441-1.419 10.245-4.256 2.838-2.871 4.257-6.32 4.257-10.345 0-3.992-1.419-7.424-4.257-10.295-2.837-2.87-6.253-4.306-10.245-4.306Zm28.517 21.926v10.493h-4.653V20.787c3.135 0 5.659.198 7.573.594 2.937.594 5.395 2.03 7.375 4.306 1.979 2.277 2.969 4.883 2.969 7.82 0 3.53-1.32 6.484-3.959 8.86-2.64 2.376-5.742 3.563-9.305 3.563Zm0-4.603c2.243 0 4.24-.742 5.989-2.227 1.748-1.518 2.623-3.382 2.623-5.593 0-2.21-.891-4.075-2.673-5.593-1.716-1.419-3.696-2.128-5.939-2.128v15.541Zm21.378 16.383v-4.405c4.719 0 7.458-1.138 8.217-3.415.231-.693.346-2.013.346-3.96-3.531 0-6.599-1.188-9.206-3.563-2.607-2.409-3.91-5.362-3.91-8.86v-12.72h4.553v12.72c0 2.21.891 4.075 2.673 5.593 1.683 1.485 3.646 2.227 5.89 2.227v-20.54h4.653v26.48c0 3.893-1.287 6.682-3.861 8.364-2.112 1.386-5.23 2.08-9.355 2.08ZM243 53.107c-3.729 3.135-7.903 4.702-12.522 4.702-5.247 0-9.751-1.88-13.513-5.642-3.761-3.795-5.642-8.315-5.642-13.562 0-5.28 1.864-9.8 5.593-13.562 3.762-3.761 8.282-5.642 13.562-5.642 4.652 0 8.826 1.6 12.522 4.801v7.078c-1.32-2.277-3.085-4.059-5.296-5.346-2.178-1.287-4.587-1.93-7.226-1.93-3.993 0-7.408 1.435-10.246 4.306-2.838 2.87-4.256 6.302-4.256 10.295 0 4.026 1.402 7.474 4.207 10.345 2.837 2.837 6.269 4.256 10.295 4.256a14.29 14.29 0 0 0 7.226-1.93A14.44 14.44 0 0 0 243 45.93v7.177ZM127.582 68.106V64.88h-7.503c-2.078 0-3.848 1.452-3.848 3.226v19.356h3.848V68.106h7.503Zm5.761 19.356v-8.775h3.655c2.078 0 3.848-1.129 3.848-2.516v-8.065c0-1.774-1.77-3.226-3.848-3.226h-7.503v22.582h3.848Zm3.655-19.356v8.065h-3.655v-8.065h3.655Zm14.053-3.226v16.098h-3.655V64.88h-3.848v16.098c0 1.774 1.77 3.258 3.848 3.258h3.655v3.226h-7.503v3.226h7.503c2.116 0 3.848-1.516 3.848-3.226V64.88h-3.848Zm14.429 22.582h3.848V64.88h-11.351v22.582h3.848V68.106h3.655v19.356Zm14.429 0h3.847V64.88h-11.35v22.582h3.847V68.106h3.656v19.356Z" fill="#CA534B"/><path d="M52.152 0c6.018.424 11.995 1.15 17.95 2.133 6.807 1.125 13.476 2.74 19.982 5.034.366.129.708.331 1.073.466 5.113 1.896 5.115 1.894 5.115 7.372 0 15.364-.161 30.73.057 46.09.13 9.257-3.855 16.564-9.88 22.983-10.301 10.97-22.91 18.667-36.385 25.07-.642.302-1.214.718-1.82 1.081h-.39c-3.94-2.122-7.91-4.189-11.816-6.374-10.28-5.747-19.78-12.52-27.629-21.395C3.72 77.16.246 71.096.141 63.94-.119 46.224.067 28.5.03 10.782c0-1.186.427-1.732 1.49-2.126C9.584 5.674 17.892 3.58 26.335 1.998 32.277.883 38.317.514 44.334.002L52.152 0ZM91.38 39.498c0-8.271-.052-16.545.043-24.811.02-1.68-.546-2.4-2.088-2.892-10.12-3.23-20.43-5.492-31.046-6.4-17.781-1.517-35.006 1.037-51.864 6.633-1.078.357-1.5.874-1.496 2.088.055 16.224.042 32.432.061 48.648a20.05 20.05 0 0 0 .195 3.106c1.08 6.763 5.066 11.877 9.683 16.545 9.266 9.376 20.458 15.962 32.137 21.829.725.364 1.37.527 2.185.115 12.007-6.073 23.555-12.828 32.998-22.617 6.034-6.264 9.908-13.343 9.28-22.519-.448-6.545-.087-13.147-.088-19.725Z" fill="#215EAB"/><path d="M89.519 40.301c0 6.968-.203 13.943.06 20.9.243 6.41-2.182 11.642-6.082 16.415-7.17 8.769-16.415 14.903-26.061 20.524-1.285.751-2.762 1.264-3.907 2.186-3.605 2.901-6.857 2.327-10.716.099-10.12-5.84-20.02-11.902-28.041-20.56C9.6 74.278 6.515 68.05 6.714 60.055c.363-14.641.12-29.299.068-43.95 0-1.32.336-1.973 1.625-2.392 26.439-8.629 52.866-8.719 79.319-.058 1.446.473 1.846 1.154 1.831 2.625-.079 8.001-.04 16.012-.038 24.021Zm-60.99 32.512c.335-1.007-.067-1.574-.277-2.172-2.191-6.23-2.42-12.582-1.108-19.008.197-.963.249-2.767 2.024-1.042.825.803 1.023.016 1.264-.622a30.966 30.966 0 0 1 4.595-8.118c1.994-2.544 1.986-2.544-.692-4.12-.321-.188-.803-.447-.826-.709-.05-.528.56-.62.942-.822 2.088-1.111 4.375-1.124 6.66-1.108 1.39.014 2.955.02 3.782-1.133.828-1.153 1.473-1.658 2.709-.869 1.044.667 2.21-.734 3.304.34.91.894 2.217 1.045 3.487.942 2.86-.228 5.725-.321 8.572.06 1.516.2 1.766-.394 1.566-1.734-1.046-6.933-8.663-10.582-14.637-6.938-1.251.764-2.294.964-3.534-.038-2.088-1.683-4.498-1.915-7.013-1.108-2.906.933-5.793 1.927-8.7 2.85-.453.145-1.071.598-1.446.047-1.723-2.557-4.658-3.373-7.045-4.966-.73-.492-1.654-.763-2.528-.955-.702-.16-1.205.399-1.567.964-.297.461.012.757.412.87 2.845.803 3.823 3.262 5.113 5.532.52.917.351 3.304 2.708 1.982.35-.196.493.337.47.642-.05.773-.073 1.563-.26 2.309-1.114 4.441-3.293 8.471-4.997 12.69-1.825 4.512-2.456 9.138-1.704 13.942.078.5.178 1.589.716 1.247 2.325-1.481 1.952.803 2.273 1.637 1.328 3.405 2.8 6.683 5.738 9.408Zm39.13-27.481c-1.42-3.452-3.772-5.16-6.529-6.404-.405-.184-1.21-.126-1.486.16-2.294 2.355-4.028 1.149-5.72-.76-.209-.234-.532-.37-.803-.544-6.104-3.886-13.83.914-14.157 5.328-.32 4.337-.064 8.71-.012 13.066.01.877.32 1.675 1.421 1.783 1.253.123 3.139-.67 2.79 1.88-.016.11.384.322.617.41 2.68 1.051 5.398 1.465 8.165.349.63-.254 1.573-.45 1.329-1.378-.322-1.234.28-1.343 1.182-1.242 2.454.275 3.212-.938 3.123-3.23-.161-3.76-.548-7.51-.172-11.296.17-1.7.896-1.88 2.237-1.646 2.752.475 5.065 1.966 8.014 3.524ZM41.94 80.065c-.227-.212-.45-.425-.68-.632-4.166-3.75-7.058-8.463-9.58-13.349-1.46-2.83-1.67-6.165-2.322-9.338a18.514 18.514 0 0 0-.222 3.801c.153 5.012 1.166 9.808 3.682 14.203.24.418.519 1.629 1.262.643.906-1.197 1.248-.225 1.722.228 1.825 1.754 3.459 3.734 6.138 4.444Zm32.287-32c-1.254 4.39 1.18 8.937-1.836 13.725-2.199 3.497-3.033 8.075-5.58 11.706 2.14-1.506 3.643-3.485 4.873-5.708.38-.687.47-2.181 1.917-.856.552.506.674-.27.803-.665 1.92-6.13 1.855-12.224-.18-18.196l.003-.005ZM20.33 36.246c.082-1.147.19-2.39-.49-2.931-1.72-1.372-1.58-3.1-1.546-4.929.012-.597.503-1.627-.573-1.72-.9-.077-1.218.814-1.415 1.595-.709 2.742 1.17 6.565 4.024 7.985Zm55.712-.067c2.971-1.19 5.07-5.907 3.821-8.418-.263-.527-.583-1.185-1.232-1.082-.917.146-.366.938-.394 1.445-.085 1.536.347 3.316-.925 4.418-1.243 1.062-1.229 2.257-1.278 3.637h.008Zm2.485-12.655c-.555-1.735-1.663-2.152-2.932-1.746-2.922.94-5.068 3.13-7.513 4.883 3.937.313 6.164-4.326 10.445-3.137Z" fill="#215EAB"/><path d="M48.218 56.403c-1.747-.143-3.498-.264-5.244-.439-.879-.087-1.751-.37-1.756-1.445 0-1.038.816-1.356 1.695-1.573 3.961-.978 5.167-4.136 2.814-7.408-.607-.844-1.32-1.685-2.1-.09-.509 1.034-1.087.69-1.607.014-1.093-1.423-1.107-2.891.019-4.284 2.817-3.482 8.801-3.656 11.848-.398 1.144 1.224 1.496 2.605.803 4.117-.481 1.047-1.252 1.87-2.293.504-.691-.904-1.102-.482-1.618.13-2.594 3.11-1.512 6.54 2.376 7.404 1.026.228 2.024.565 2.02 1.73 0 1.078-1.124 1.073-1.898 1.314-1.658.515-3.364.258-5.059.424Z" fill="#215EAB"/></svg>