<svg width="45" height="45" fill="none" xmlns="http://www.w3.org/2000/svg"><path fill-rule="evenodd" clip-rule="evenodd" d="M5.303 1.435a4.908 4.908 0 0 1 7.34.458l5.048 6.486a4.907 4.907 0 0 1 .886 4.202l-1.538 6.16a1.908 1.908 0 0 0 .5 1.808l6.91 6.911a1.907 1.907 0 0 0 1.812.5l6.156-1.538a4.908 4.908 0 0 1 4.202.886l6.485 5.046c2.332 1.814 2.546 5.26.459 7.344l-2.908 2.908c-2.081 2.081-5.192 2.996-8.092 1.975a52.405 52.405 0 0 1-19.715-12.432A52.411 52.411 0 0 1 .418 12.435C-.601 9.538.314 6.425 2.395 4.343l2.908-2.908Z" fill="#215EAB"/></svg>