<svg width="546" height="626" fill="none" xmlns="http://www.w3.org/2000/svg"><g opacity=".1" fill="#215EAB"><path d="M295.593 0c34.105 2.408 67.983 6.532 101.733 12.115 38.584 6.385 76.386 15.562 113.258 28.59 2.076.73 4.015 1.879 6.082 2.645 28.98 10.764 28.989 10.755 28.989 41.863 0 87.256-.911 174.521.327 261.75.738 52.572-21.85 94.07-56.001 130.524-58.386 62.297-129.847 106.011-206.224 142.374-3.642 1.715-6.883 4.077-10.315 6.139h-2.212c-22.334-12.051-44.831-23.791-66.973-36.198-58.268-32.64-112.111-71.1-156.595-121.502C21.086 438.196 1.393 403.759.802 363.119-.675 262.507.381 161.859.163 61.229c0-6.732 2.422-9.833 8.449-12.068 45.704-16.94 92.792-28.836 140.645-37.813C182.944 5.018 217.177 2.92 251.282.01L295.593 0Zm222.33 224.312c0-46.972-.292-93.961.245-140.906.11-9.542-3.095-13.629-11.835-16.42-57.358-18.345-115.79-31.19-175.961-36.344-100.786-8.62-198.413 5.884-293.963 37.667-6.11 2.025-8.504 4.962-8.477 11.859.31 92.137.237 184.182.346 276.273-.09 5.901.28 11.799 1.102 17.643 6.127 38.405 28.715 67.451 54.881 93.961 52.524 53.248 115.954 90.65 182.152 123.965 4.106 2.071 7.766 2.992 12.382.657 68.056-34.492 133.507-72.852 187.032-128.444 34.196-35.578 56.156-75.78 52.596-127.888-2.54-37.174-.491-74.667-.5-112.023Z"/><path d="M507.38 228.873c0 39.573-1.147 79.183.346 118.692 1.374 36.408-12.373 66.119-34.479 93.222-40.633 49.799-93.038 84.638-147.71 116.557-7.283 4.27-15.65 7.18-22.142 12.416-20.43 16.475-38.866 13.219-60.735.566-57.358-33.17-113.468-67.598-158.936-116.767-29.307-31.728-46.796-67.096-45.668-112.498 2.058-83.151.683-166.394.383-249.6 0-7.498 1.903-11.202 9.214-13.583 149.849-49.005 299.635-49.516 449.566-.328 8.194 2.682 10.461 6.55 10.379 14.906-.446 45.439-.227 90.932-.218 136.417ZM161.704 413.511c1.893-5.72-.383-8.94-1.576-12.334-12.418-35.385-13.711-71.456-6.282-107.945 1.12-5.474 1.412-15.718 11.472-5.921 4.68 4.561 5.799.091 7.165-3.53a175.931 175.931 0 0 1 26.048-46.105c11.298-14.45 11.253-14.45-3.924-23.399-1.821-1.067-4.552-2.536-4.68-4.023-.282-3.001 3.169-3.521 5.335-4.671 11.836-6.312 24.801-6.385 37.747-6.294 7.885.082 16.752.118 21.441-6.432 4.689-6.549 8.349-9.414 15.35-4.935 5.918 3.786 12.528-4.169 18.728 1.934 5.153 5.072 12.564 5.93 19.766 5.346 16.205-1.295 32.448-1.825 48.581.337 8.594 1.141 10.015-2.235 8.877-9.843-5.927-39.372-49.101-60.098-82.96-39.399-7.092 4.333-13.001 5.473-20.03-.219-11.835-9.561-25.492-10.874-39.749-6.295-16.47 5.3-32.831 10.947-49.31 16.192-2.567.821-6.073 3.394-8.194.265-9.769-14.523-26.403-19.157-39.932-28.207-4.142-2.791-9.377-4.333-14.33-5.418-3.979-.913-6.828 2.262-8.877 5.473-1.684 2.618.064 4.297 2.331 4.935 16.124 4.562 21.668 18.528 28.979 31.418 2.95 5.209 1.994 18.765 15.35 11.257 1.985-1.113 2.795 1.916 2.668 3.649-.292 4.388-.419 8.876-1.475 13.109-6.319 25.224-18.664 48.112-28.324 72.067-10.343 25.625-13.921 51.898-9.66 79.183.446 2.837 1.011 9.022 4.061 7.079 13.174-8.411 11.062 4.561 12.883 9.296 7.529 19.339 15.869 37.958 32.521 53.43Zm221.774-156.067c-8.048-19.604-21.377-29.301-37-36.371-2.295-1.04-6.856-.711-8.422.912-13.001 13.374-22.834 6.523-32.421-4.314-1.183-1.332-3.013-2.099-4.552-3.093-34.597-22.067-78.389 5.191-80.237 30.259-1.821 24.631-.364 49.462-.073 74.202.064 4.981 1.821 9.515 8.057 10.126 7.102.702 17.79-3.804 15.815 10.682-.091.621 2.176 1.825 3.496 2.327 15.186 5.966 30.591 8.319 46.278 1.979 3.568-1.441 8.913-2.554 7.529-7.827-1.821-7.006 1.584-7.626 6.701-7.052 13.911 1.56 18.209-5.327 17.699-18.345-.911-21.355-3.105-42.647-.974-64.149.965-9.66 5.08-10.673 12.682-9.35 15.596 2.7 28.706 11.166 45.422 20.014ZM237.716 454.699c-1.284-1.204-2.549-2.418-3.851-3.594-23.617-21.292-40.005-48.057-54.299-75.808-8.276-16.074-9.468-35.012-13.165-53.029a105.31 105.31 0 0 0-1.256 21.584c.865 28.462 6.61 55.702 20.867 80.661 1.357 2.371 2.941 9.25 7.156 3.649 5.135-6.797 7.074-1.277 9.76 1.295 10.343 9.962 19.602 21.21 34.788 25.242Zm182.999-181.728c-7.111 24.922 6.682 50.748-10.406 77.942-12.464 19.859-17.19 45.858-31.629 66.475 12.136-8.548 20.649-19.786 27.623-32.412 2.148-3.904 2.667-12.388 10.861-4.862 3.132 2.873 3.824-1.533 4.552-3.777 10.889-34.811 10.516-69.422-1.019-103.339l.018-.027Zm-305.49-67.132c.465-6.514 1.075-13.574-2.776-16.649-9.742-7.79-8.959-17.606-8.759-27.987.064-3.394 2.85-9.241-3.25-9.771-5.099-.437-6.901 4.626-8.021 9.059-4.015 15.572 6.628 37.283 22.806 45.348Zm315.769-.383c16.843-6.751 28.742-33.544 21.659-47.802-1.493-2.992-3.305-6.732-6.983-6.149-5.199.831-2.076 5.328-2.231 8.211-.482 8.721 1.967 18.828-5.244 25.086-7.046 6.03-6.965 12.817-7.247 20.654h.046Zm14.084-71.867c-3.141-9.852-9.423-12.224-16.615-9.916-16.561 5.337-28.725 17.78-42.582 27.732 22.315 1.779 34.934-24.567 59.197-17.816Z"/><path d="M273.296 320.316c-9.905-.812-19.829-1.496-29.726-2.49-4.98-.493-9.924-2.098-9.951-8.21 0-5.894 4.625-7.7 9.605-8.931 22.452-5.556 29.289-23.491 15.951-42.073-3.441-4.789-7.483-9.569-11.908-.511-2.877 5.875-6.155 3.923-9.105.082-6.191-8.082-6.273-16.42.11-24.329 15.969-19.778 49.883-20.763 67.154-2.263 6.482 6.952 8.476 14.797 4.552 23.381-2.731 5.948-7.102 10.619-13.001 2.865-3.915-5.136-6.246-2.737-9.168.739-14.704 17.661-8.568 37.137 13.465 42.045 5.818 1.295 11.472 3.211 11.453 9.825 0 6.121-6.373 6.093-10.761 7.462-9.396 2.928-19.065 1.469-28.67 2.408Z"/></g></svg>