<svg width="76" height="75" viewBox="0 0 76 75" fill="none" xmlns="http://www.w3.org/2000/svg">
<g opacity="0.73">
<path d="M38.4891 74.9999C58.7997 74.9999 75.2647 58.5137 75.2647 38.1769C75.2647 17.8402 58.7997 1.354 38.4891 1.354C18.1786 1.354 1.71362 17.8402 1.71362 38.1769C1.71362 58.5137 18.1786 74.9999 38.4891 74.9999Z" fill="#215EAB"/>
</g>
<path d="M36.9078 73.6459C57.2184 73.6459 73.6834 57.1597 73.6834 36.8229C73.6834 16.4862 57.2184 0 36.9078 0C16.5973 0 0.132324 16.4862 0.132324 36.8229C0.132324 57.1597 16.5973 73.6459 36.9078 73.6459Z" fill="white"/>
<path d="M36.5352 22.4518C36.5352 22.4771 36.2526 22.5123 35.7228 22.5527C35.193 22.6183 34.4059 22.6839 33.417 22.911C33.2505 22.9412 33.084 22.9917 32.9074 23.0371C32.7308 23.0825 32.5492 23.1229 32.3625 23.1834C32.1758 23.244 31.9891 23.3045 31.7923 23.3651C31.6006 23.4357 31.3988 23.5063 31.1919 23.5719C31.0809 23.5871 30.98 23.6274 30.8791 23.6779C30.7782 23.7283 30.6773 23.7838 30.5764 23.8343C30.3695 23.9403 30.1677 24.0613 29.9255 24.1118C29.8145 24.1572 29.6984 24.1976 29.5874 24.2531C29.4764 24.3086 29.3654 24.3641 29.2544 24.4246C29.1434 24.4852 29.0324 24.5457 28.9214 24.6113C28.8155 24.6819 28.7045 24.7526 28.5935 24.8232C28.3664 24.9594 28.1394 25.1007 27.9022 25.242C27.6651 25.3782 27.438 25.5447 27.2261 25.7364C27.1807 25.7919 27.1252 25.8424 27.0697 25.8878C27.0193 25.9383 26.9587 25.9837 26.9032 26.024C26.7872 26.1098 26.661 26.1855 26.5349 26.2612C26.4087 26.3369 26.2876 26.4277 26.1716 26.5235C26.0555 26.6245 25.9496 26.7304 25.8689 26.8616C25.4501 27.3056 24.996 27.7395 24.5722 28.2289C24.5116 28.2794 24.446 28.3349 24.3905 28.3955L24.3048 28.4812L24.224 28.572C24.1181 28.6982 24.0172 28.8294 23.9213 28.9656C23.8204 29.1018 23.7396 29.2482 23.6488 29.3894C23.563 29.5358 23.4672 29.677 23.3764 29.8234C23.2603 29.9495 23.1493 30.0857 23.0434 30.227L22.9677 30.333C22.9425 30.3683 22.9223 30.4086 22.897 30.4439C22.8516 30.5196 22.8113 30.5953 22.7659 30.676C22.5893 30.9838 22.4682 31.3219 22.342 31.6599C22.221 31.8012 22.1251 31.9576 22.0292 32.114C21.9838 32.1947 21.9384 32.2755 21.898 32.3562C21.8577 32.442 21.8223 32.5277 21.7921 32.6135C21.7265 32.7901 21.671 32.9667 21.6256 33.1483C21.5852 33.335 21.5549 33.5217 21.5347 33.7134C21.4691 33.89 21.4238 34.0717 21.3632 34.2533C21.3077 34.435 21.2472 34.6166 21.2017 34.8033C21.1563 34.99 21.1109 35.1767 21.0706 35.3684C21.0403 35.5601 21.0151 35.7569 20.9999 35.9537C20.9646 36.1454 20.9444 36.3422 20.9242 36.539C20.9041 36.7357 20.8738 36.9325 20.8688 37.1343C20.8587 37.3362 20.8435 37.5329 20.8284 37.7348C20.8183 37.9366 20.8132 38.1384 20.7981 38.3402C20.8183 38.542 20.8486 38.7489 20.8688 38.9507C20.8889 39.1576 20.894 39.3594 20.9141 39.5663C20.9293 39.7732 20.9394 39.98 20.9444 40.1869C20.9596 40.3937 20.9646 40.6057 20.9696 40.8176C21.2169 41.6299 21.3481 42.4675 21.5448 43.3151C21.6003 43.527 21.6659 43.7339 21.7416 43.9408C21.8224 44.1426 21.9182 44.3444 22.009 44.5462L22.0746 44.6976L22.1503 44.8439C22.2008 44.9448 22.2462 45.0407 22.2966 45.1416C22.3824 45.3434 22.4833 45.5452 22.564 45.7571C22.9677 46.5543 23.4773 47.3061 24.0121 48.0529C24.5217 48.8148 25.1121 49.5564 25.884 50.1114C26.5954 50.727 27.3674 51.2719 28.1394 51.8421C29.0173 52.2407 29.8397 52.7301 30.7227 53.159C31.6309 53.5021 32.5592 53.8704 33.5532 53.9864C34.527 54.1984 35.5311 54.2135 36.5402 54.274C37.5493 54.3144 38.5635 54.2539 39.5272 53.9864C40.0065 53.8502 40.4858 53.7442 40.9651 53.6181C41.2073 53.5626 41.4394 53.4869 41.6715 53.4163C41.9086 53.3457 42.1357 53.2548 42.3577 53.159C42.4788 53.1287 42.5948 53.0984 42.7109 53.053C42.8269 53.0076 42.9379 52.9622 43.0489 52.9117C43.1599 52.8613 43.2709 52.8108 43.382 52.7604L43.6998 52.5838L44.0126 52.4021C44.1136 52.3365 44.2195 52.276 44.3204 52.2104C44.5273 52.0843 44.7341 51.9632 44.936 51.8421C45.7332 51.3174 46.5455 50.8027 47.1913 50.1114C47.8674 49.4555 48.4729 48.7542 49.0632 48.0529C49.26 47.6291 49.5324 47.2658 49.7948 46.8974C49.9361 46.7208 50.0572 46.5291 50.1833 46.3424C50.2439 46.2466 50.3044 46.1558 50.365 46.0599C50.4205 45.959 50.4659 45.8631 50.5163 45.7571C50.6374 45.5654 50.7484 45.3737 50.8392 45.1719C50.8847 45.071 50.9301 44.9701 50.9755 44.8692L51.0411 44.7178L51.1016 44.5614C51.1773 44.3545 51.253 44.1476 51.3236 43.9408C51.3892 43.7339 51.4548 43.527 51.5305 43.3202C51.6364 42.8963 51.7828 42.4927 51.8837 42.0739C51.9139 41.9679 51.9392 41.867 51.9644 41.7611C51.9846 41.6551 52.0048 41.5542 52.025 41.4483C52.0451 41.3423 52.0603 41.2364 52.0754 41.1354L52.0956 40.979C52.0956 40.9286 52.1006 40.8731 52.1006 40.8226C52.1309 40.6158 52.1561 40.4038 52.1763 40.197C52.1864 39.9901 52.2016 39.7782 52.2116 39.5713C52.2268 39.3645 52.2217 39.1576 52.2318 38.9558C52.2419 38.7489 52.257 38.5471 52.2671 38.3453C52.2369 38.1435 52.2268 37.9416 52.2217 37.7398C52.2066 37.538 52.2015 37.3362 52.2015 37.1394C52.2015 36.9376 52.1814 36.7408 52.1662 36.544C52.146 36.3472 52.1208 36.1504 52.0704 35.9587C52.035 35.767 51.9997 35.5752 51.9644 35.3835C51.919 35.1918 51.8786 35.0051 51.8332 34.8184C51.7929 34.6317 51.7374 34.4501 51.6919 34.2634C51.6415 34.0818 51.5961 33.8951 51.5406 33.7185C51.5154 33.5268 51.475 33.3451 51.4245 33.1635C51.369 32.9869 51.2984 32.8153 51.2227 32.6438C51.1823 32.558 51.147 32.4773 51.1067 32.3915C51.0613 32.3108 51.0209 32.2301 50.9805 32.1493C50.8948 31.9879 50.814 31.8264 50.7333 31.665C50.5769 31.342 50.4003 31.0292 50.2085 30.7366C50.1631 30.6609 50.1178 30.5852 50.0723 30.5146L50.0067 30.4036L49.9412 30.2926C49.8503 30.1463 49.7696 29.9949 49.6989 29.8334C49.3256 29.2633 48.9774 28.683 48.5032 28.234C48.3922 28.1179 48.3013 27.9817 48.2004 27.8556C48.1046 27.7294 48.0087 27.5983 47.9128 27.4721C47.8624 27.4116 47.817 27.346 47.7615 27.2905C47.706 27.235 47.6505 27.1795 47.595 27.129C47.4789 27.0281 47.3528 26.9373 47.2064 26.8667C47.0854 26.7708 46.9744 26.6699 46.8684 26.5639C46.7624 26.458 46.6615 26.3419 46.5556 26.246C46.4496 26.1451 46.3386 26.0442 46.2226 25.9585C46.162 25.913 46.1065 25.8727 46.046 25.8323C45.9854 25.797 45.9198 25.7667 45.8492 25.7364C45.5818 25.6204 45.3598 25.4539 45.1378 25.2924C45.0268 25.2117 44.9208 25.1259 44.8149 25.0452C44.7089 24.9645 44.5929 24.8938 44.4819 24.8232C44.3709 24.7576 44.2548 24.692 44.1489 24.6265C44.0378 24.5609 43.9218 24.5053 43.8108 24.4448C43.6998 24.3842 43.5888 24.3288 43.4828 24.2682C43.3718 24.2077 43.2609 24.1623 43.1549 24.1118C42.1761 23.6426 41.2578 23.3297 40.4404 23.1027C40.2335 23.0522 40.0368 23.0018 39.8501 22.9513C39.6583 22.9009 39.4767 22.8706 39.3001 22.8353C38.952 22.7545 38.624 22.7192 38.3364 22.6688C37.7562 22.5931 37.3071 22.5426 37.0044 22.5224C36.7016 22.4972 36.5452 22.472 36.5452 22.4518C36.5452 22.4316 36.742 22.4114 37.1154 22.4014C37.2112 22.4014 37.3172 22.3913 37.4332 22.4014C37.5493 22.4014 37.6754 22.4115 37.8167 22.4165C37.958 22.4215 38.1043 22.4266 38.2658 22.4367C38.4272 22.4518 38.5988 22.4669 38.7754 22.4871C39.4969 22.5678 40.3899 22.7142 41.4041 23.0119C42.4182 23.3045 43.5485 23.7536 44.7342 24.4196C44.8502 24.4852 44.9763 24.5457 45.0974 24.6113C45.2185 24.6769 45.3396 24.7475 45.4658 24.8131C45.713 24.9494 45.9501 25.1209 46.162 25.3227C46.2226 25.3631 46.2831 25.4085 46.3437 25.4488C46.4042 25.4943 46.4648 25.5346 46.5253 25.58C46.6464 25.6658 46.7725 25.7566 46.8936 25.8424C47.0198 25.9282 47.1358 26.0342 47.2519 26.1351C47.3679 26.236 47.484 26.3419 47.5899 26.458C48.1449 26.791 48.5334 27.3308 48.9623 27.8455C49.4114 28.345 49.7898 28.9303 50.2338 29.4853C50.3448 29.6266 50.4507 29.7729 50.5466 29.9243L50.6172 30.0403L50.6828 30.1614C50.7232 30.2421 50.7686 30.3228 50.814 30.4036C50.9906 30.7214 51.1369 31.0645 51.3337 31.3824C51.3993 31.559 51.4598 31.7406 51.5305 31.9172C51.5658 32.003 51.6011 32.0938 51.6415 32.1796C51.6768 32.2704 51.7121 32.3562 51.7474 32.447C51.8181 32.6236 51.8988 32.8002 51.9795 32.9768C52.0552 33.1585 52.1309 33.3351 52.2116 33.5167C52.2571 33.7084 52.2974 33.9001 52.3529 34.0919C52.4034 34.2836 52.469 34.4703 52.5144 34.6671C52.5648 34.8588 52.6203 35.0556 52.6758 35.2524C52.7212 35.4491 52.7616 35.651 52.7969 35.8528C52.807 36.0596 52.812 36.2665 52.8272 36.4734C52.8423 36.6802 52.8776 36.882 52.8978 37.094C52.918 37.3008 52.9483 37.5077 52.9785 37.7196C52.9987 37.9315 53.0189 38.1384 53.0391 38.3553C53.0593 38.5673 53.0593 38.7842 53.0542 38.9961C53.0492 39.2131 53.0442 39.43 53.024 39.647C53.0038 39.864 52.9836 40.0809 52.9634 40.2979C52.9332 40.5149 52.9079 40.7318 52.8877 40.9538C52.7364 41.8216 52.5951 42.7147 52.3025 43.5825C52.0855 44.4705 51.7474 45.3485 51.253 46.1558C50.8594 47.0135 50.3246 47.8107 49.7393 48.5776C49.1994 49.3799 48.4931 50.0711 47.7766 50.7522C47.4184 51.0953 47.0198 51.3981 46.6111 51.6806C46.4143 51.832 46.2024 51.9632 46.0006 52.1145C45.8038 52.2659 45.5969 52.4122 45.4052 52.5787C44.5626 53.1388 43.6292 53.5677 42.6857 53.9763C41.722 54.3447 40.7179 54.6222 39.6987 54.8593C38.6442 54.9199 37.6149 55.1065 36.5503 55.162C35.4857 55.2024 34.4261 55.0763 33.4019 54.8593C32.3675 54.6726 31.3685 54.3699 30.4149 53.9763C29.4411 53.6282 28.5733 53.0732 27.6954 52.5787C27.4734 52.4526 27.2564 52.3214 27.0596 52.17C26.8578 52.0187 26.6509 51.8774 26.4642 51.7109C26.0757 51.393 25.7125 51.06 25.329 50.7472C24.5772 50.1064 23.891 49.3849 23.3663 48.5726C23.0787 48.1841 22.8264 47.7754 22.5893 47.3617C22.4631 47.1598 22.3521 46.9479 22.231 46.7461C22.1705 46.6452 22.1049 46.5443 22.0443 46.4484C21.9838 46.3475 21.9182 46.2466 21.8526 46.1507C21.7366 45.9438 21.6155 45.742 21.5095 45.5352C21.454 45.4292 21.3985 45.3283 21.343 45.2223L21.2623 45.0659C21.2371 45.0155 21.2118 44.96 21.1916 44.9095C21.1008 44.6976 21.005 44.4806 20.9394 44.2586C20.8788 44.0366 20.8284 43.8096 20.8032 43.5775C20.6518 43.1486 20.5458 42.7046 20.4701 42.2606C20.45 42.1496 20.4298 42.0386 20.4096 41.9326C20.3894 41.8216 20.3743 41.7106 20.3541 41.5996C20.3339 41.4886 20.3137 41.3827 20.2936 41.2717L20.2532 41.1102L20.2179 40.9488C20.2229 40.7268 20.2179 40.5048 20.1977 40.2878C20.1876 40.0708 20.1674 39.8539 20.1422 39.6369C20.1119 39.42 20.1018 39.208 20.0867 38.9911C20.0715 38.7741 20.0564 38.5622 20.0665 38.3503C20.0816 38.1384 20.0917 37.9265 20.1069 37.7146C20.1321 37.5027 20.1523 37.2958 20.1725 37.0889C20.1876 36.882 20.2229 36.6752 20.2431 36.4683C20.2633 36.2615 20.2784 36.0546 20.3037 35.8528C20.3238 35.6459 20.3541 35.4441 20.3894 35.2473C20.4348 35.0505 20.4853 34.8537 20.5408 34.657C20.5862 34.4602 20.6568 34.2735 20.7174 34.0818C20.7779 33.8901 20.8284 33.7034 20.8889 33.5167C20.9343 33.325 20.9899 33.1383 21.0605 32.9566C21.1311 32.775 21.2169 32.6034 21.2976 32.4268C21.338 32.3411 21.3783 32.2553 21.4187 32.1695C21.4641 32.0837 21.5045 31.998 21.5448 31.9122C21.6256 31.7407 21.6962 31.564 21.7567 31.3875C21.9384 31.0595 22.0948 30.7214 22.2815 30.4086C22.3269 30.3279 22.3723 30.2522 22.4177 30.1715L22.4833 30.0554L22.559 29.9394C22.6599 29.788 22.7558 29.6417 22.8567 29.4954C22.9122 29.3188 23.003 29.1624 23.0938 29.011C23.1897 28.8647 23.2906 28.7184 23.4117 28.5922C23.5277 28.4611 23.6488 28.34 23.7699 28.2138L23.8608 28.123L23.9516 28.0322C24.0121 27.9716 24.0727 27.9111 24.1282 27.8505C24.5823 27.3561 24.9405 26.791 25.5006 26.463C25.5914 26.3318 25.7024 26.2158 25.8134 26.1048C25.9294 25.9988 26.0404 25.8929 26.1716 25.8071C26.2977 25.7213 26.4239 25.6355 26.5551 25.5548C26.6206 25.5144 26.6812 25.4741 26.7417 25.4337C26.8073 25.3984 26.8679 25.3581 26.9335 25.3177C27.1858 25.1663 27.4078 24.9796 27.6449 24.8232C27.761 24.7425 27.877 24.6618 27.9931 24.5911C28.1091 24.5205 28.2352 24.4599 28.3614 24.4095C28.4673 24.3186 28.5783 24.243 28.6944 24.1774C28.8104 24.1118 28.9315 24.0613 29.0526 24.0109C29.1737 23.9604 29.2948 23.915 29.4109 23.8646C29.5269 23.8141 29.6429 23.7687 29.7539 23.7082C29.9961 23.6375 30.2131 23.5366 30.43 23.4458C30.536 23.4004 30.647 23.355 30.753 23.3095C30.8589 23.2641 30.9649 23.2238 31.0708 23.1935C31.2777 23.1128 31.4846 23.0371 31.6864 22.9715C31.8882 22.916 32.09 22.8706 32.2868 22.8353C32.4785 22.7798 32.6652 22.7444 32.8469 22.7091C33.0285 22.6738 33.2051 22.6284 33.3716 22.6032C34.3908 22.4165 35.193 22.4014 35.7329 22.3862C36.2728 22.3963 36.5553 22.4165 36.5553 22.4417L36.5352 22.4518Z" fill="#CA534B"/>
<path d="M36.5351 32.8655C36.5351 32.9261 36.1364 32.9463 35.4503 33.1228C35.3342 33.1582 35.2131 33.1885 35.087 33.2339C35.0214 33.2591 34.9608 33.2843 34.8902 33.3095C34.8246 33.3348 34.754 33.365 34.6834 33.3852C34.5976 33.3751 34.537 33.4357 34.4765 33.4912C34.4159 33.5467 34.3503 33.6022 34.2545 33.587C34.1737 33.6072 34.093 33.6425 34.0224 33.6879C33.9467 33.7334 33.876 33.7889 33.8054 33.8444C33.7297 33.8999 33.649 33.9402 33.5683 33.9856C33.4875 34.0311 33.4068 34.0866 33.3463 34.1673C33.3059 34.2783 33.21 34.3085 33.1091 34.3439C33.0082 34.3792 32.9123 34.4297 32.8922 34.5608C32.766 34.7324 32.6046 34.8736 32.4582 35.0351C32.2312 35.136 32.1707 35.3883 32.0597 35.5901C31.8225 35.7163 31.7468 35.9635 31.7166 36.2208C31.4542 36.3671 31.3735 36.6295 31.4491 36.9222C31.3785 37.1643 31.2423 37.4065 31.2776 37.684C31.2473 37.9514 31.2473 38.2189 31.217 38.4964C31.3331 38.7739 31.3381 39.0413 31.2826 39.3339C31.4491 39.5963 31.4592 39.8738 31.4845 40.1765C31.4895 40.2522 31.5147 40.3228 31.54 40.3884C31.5702 40.454 31.6106 40.5196 31.651 40.5852C31.7317 40.7113 31.8074 40.8375 31.8326 40.9939C31.9638 41.2664 32.1555 41.5085 32.3271 41.7659C32.4683 42.0434 32.65 42.3259 32.9628 42.4571C33.2151 42.6488 33.4875 42.8103 33.7247 43.0373C34.0678 43.0979 34.315 43.2896 34.5925 43.4814C34.9003 43.5823 35.198 43.7689 35.5461 43.7589C35.8741 43.8446 36.2121 43.7992 36.5502 43.8547C36.8882 43.8951 37.2414 43.9001 37.5542 43.7589C37.7106 43.6832 37.8721 43.6579 38.0336 43.6226C38.1143 43.6075 38.195 43.5873 38.2758 43.5671C38.3565 43.5469 38.4322 43.5167 38.5078 43.4814C38.5987 43.4814 38.6743 43.4612 38.7551 43.4258C38.8308 43.3956 38.9014 43.3502 38.9721 43.3047L39.0729 43.2341C39.1032 43.2089 39.1385 43.1837 39.1739 43.1635C39.2395 43.1181 39.3101 43.0777 39.3807 43.0373C39.6431 42.8557 39.9509 42.7245 40.1426 42.4571C40.3596 42.225 40.5462 41.9828 40.7783 41.7659C40.7935 41.5842 40.8893 41.4732 40.9953 41.3572C41.0508 41.3017 41.1063 41.2462 41.1568 41.1856C41.2072 41.1251 41.2476 41.0645 41.2728 40.9889C41.4847 40.7568 41.515 40.4389 41.621 40.1664C41.6462 40.0201 41.7067 39.8889 41.7521 39.7476C41.7774 39.677 41.7975 39.6114 41.8127 39.5357C41.8228 39.4651 41.8329 39.3945 41.8228 39.3188C41.8833 39.0362 41.8177 38.7537 41.8884 38.4812C41.8631 38.4106 41.853 38.345 41.853 38.2744C41.853 38.2037 41.8531 38.1381 41.8631 38.0675C41.8732 37.9968 41.8732 37.9313 41.8682 37.8606C41.8682 37.795 41.8581 37.7244 41.8278 37.6638C41.7875 37.4015 41.7118 37.1492 41.6563 36.902C41.6714 36.8313 41.6714 36.7607 41.6563 36.7002C41.6411 36.6396 41.6159 36.579 41.5856 36.5235C41.5604 36.468 41.52 36.4125 41.4847 36.3621C41.4494 36.3116 41.4141 36.2561 41.3889 36.2006C41.293 35.9736 41.0912 35.8172 41.0458 35.57C40.9247 35.3732 40.8389 35.1461 40.6472 35.0149C40.5664 34.9392 40.5311 34.8232 40.4807 34.7223C40.4302 34.6214 40.3545 34.5406 40.2132 34.5406C40.1224 34.4851 40.072 34.3893 40.0114 34.3035C39.9458 34.2228 39.8803 34.1421 39.7592 34.1421C39.6431 34.137 39.5725 34.0765 39.5018 34.0109C39.4362 33.9453 39.3757 33.8645 39.295 33.8191C39.2193 33.7687 39.1436 33.7233 39.0679 33.6829C38.9922 33.6375 38.9166 33.5971 38.8459 33.5618C38.5129 33.3903 38.195 33.2692 37.9175 33.1783C37.635 33.0926 37.3928 33.0371 37.191 32.9917C36.9891 32.9513 36.8327 32.9261 36.7268 32.9059C36.6208 32.8857 36.5653 32.8605 36.5653 32.8403C36.5653 32.7999 36.8428 32.7394 37.3676 32.7697C37.6299 32.7848 37.9528 32.8252 38.3212 32.921C38.6895 33.0169 39.1083 33.1683 39.5422 33.4003C39.628 33.4458 39.7289 33.4761 39.8247 33.5164C39.9206 33.5568 40.0064 33.6173 40.072 33.7182C40.1628 33.7788 40.2536 33.8343 40.3495 33.8948C40.4453 33.9554 40.5311 34.026 40.5967 34.1269C40.8591 34.1824 40.9549 34.4347 41.1063 34.6264C41.2728 34.8081 41.3889 35.0351 41.5806 35.2218C41.6866 35.3076 41.7521 35.4287 41.8026 35.5498C41.8631 35.6708 41.9035 35.802 41.9943 35.908C42.0347 36.1956 42.1608 36.4378 42.3223 36.6901C42.3273 36.9877 42.5039 37.2451 42.5443 37.5478C42.4636 37.8657 42.5846 38.1533 42.6401 38.4661C42.6906 38.784 42.6099 39.1018 42.5897 39.4247C42.5191 39.7426 42.5039 40.0806 42.3778 40.3985C42.3324 40.7366 42.2163 41.0746 41.9943 41.3521C41.8732 41.6801 41.6563 41.9677 41.4393 42.2553C41.2627 42.5732 40.9751 42.8052 40.7178 43.0626C40.5917 43.1988 40.4302 43.2896 40.2687 43.3855C40.1931 43.4359 40.1123 43.4814 40.0367 43.5419C39.966 43.6024 39.8954 43.663 39.8348 43.7437C39.527 43.9607 39.1688 44.102 38.8257 44.2634C38.4624 44.3895 38.0891 44.4803 37.7157 44.5914C37.3121 44.5258 36.9437 44.6469 36.5451 44.7024C36.1516 44.7427 35.753 44.6822 35.3746 44.5914C34.9911 44.5308 34.6177 44.4148 34.2646 44.2634C33.8912 44.1575 33.5986 43.8951 33.2555 43.7437C33.1697 43.7084 33.0889 43.6579 33.0132 43.6024C32.9376 43.5469 32.8669 43.4864 32.8013 43.4208C32.6651 43.2947 32.5339 43.1635 32.3826 43.0626C32.0849 42.8456 31.8175 42.5833 31.661 42.2553C31.5551 42.109 31.4794 41.9475 31.3987 41.7911C31.3583 41.7154 31.318 41.6347 31.2726 41.564C31.2221 41.4934 31.1716 41.4228 31.106 41.3572C31.0102 41.2109 30.8992 41.0696 30.8134 40.9182C30.773 40.8425 30.7377 40.7618 30.7175 40.676C30.7024 40.5903 30.6974 40.4994 30.7175 40.4036C30.6469 40.2471 30.6217 40.0807 30.6065 39.9142C30.5965 39.8334 30.5864 39.7477 30.5763 39.6669C30.5662 39.5862 30.541 39.5055 30.5107 39.4298C30.5359 39.344 30.546 39.2633 30.541 39.1825C30.541 39.1018 30.5309 39.0211 30.5208 38.9454C30.5056 38.8647 30.4955 38.789 30.4804 38.7083C30.4703 38.6275 30.4602 38.5519 30.4602 38.4711C30.4905 38.1533 30.5712 37.8606 30.5561 37.5528C30.5359 37.24 30.7175 36.9726 30.7781 36.6951C30.7781 36.6194 30.8033 36.5488 30.8286 36.4832C30.8588 36.4176 30.8992 36.357 30.9345 36.2965C30.9698 36.2359 31.0102 36.1754 31.0405 36.1149C31.0707 36.0543 31.096 35.9887 31.106 35.9181C31.2423 35.6809 31.3533 35.4337 31.5198 35.2268C31.5147 35.0654 31.5904 34.9544 31.6863 34.8686C31.7872 34.7828 31.9032 34.7172 31.9941 34.6315C32.1707 34.465 32.2363 34.1824 32.5037 34.132C32.544 34.0008 32.6248 33.9201 32.7257 33.8646C32.8266 33.8091 32.9325 33.7687 33.0334 33.7283C33.1344 33.6829 33.21 33.6072 33.2908 33.5467C33.3715 33.4811 33.4573 33.4205 33.5632 33.4104C33.6238 33.3146 33.7146 33.2793 33.8105 33.2591C33.9063 33.2339 34.0022 33.2238 34.0728 33.1683C34.2646 33.1531 34.3958 33.032 34.5572 32.9967C34.6278 32.9614 34.7035 32.9311 34.7792 32.9109C34.8549 32.8908 34.9306 32.8857 35.0012 32.8807C35.1425 32.8504 35.2737 32.8302 35.3998 32.81C36.1415 32.7192 36.5451 32.81 36.5451 32.8504L36.5351 32.8655Z" fill="#CA534B"/>
<path d="M36.5348 26.2561C36.5348 26.3268 35.672 26.3066 34.1583 26.6396C34.0322 26.6648 33.906 26.7052 33.7698 26.7405C33.6336 26.7758 33.4974 26.8061 33.3561 26.8565C33.2148 26.902 33.0685 26.9524 32.9222 26.9978C32.7758 27.0533 32.6245 27.1088 32.463 27.1593C32.2915 27.1795 32.1502 27.2804 31.9938 27.3662C31.8424 27.4519 31.691 27.5528 31.4993 27.5781C31.4135 27.6083 31.3278 27.6437 31.242 27.684C31.1562 27.7244 31.0755 27.7698 30.9897 27.8152C30.909 27.8606 30.8232 27.906 30.7375 27.9615C30.6567 28.017 30.5709 28.0675 30.4902 28.123C30.4044 28.1785 30.3187 28.2289 30.2329 28.2794C30.1471 28.3298 30.0563 28.3854 29.9655 28.4409C29.7838 28.5468 29.6123 28.6729 29.4559 28.8243C29.4205 28.8697 29.3852 28.9101 29.3449 28.9454C29.3045 28.9858 29.2642 29.016 29.2187 29.0513C29.1279 29.1119 29.0321 29.1674 28.9311 29.2229C28.7344 29.339 28.5426 29.4701 28.4266 29.6871C28.1138 30.0302 27.7707 30.3581 27.4427 30.7265C27.034 31.0292 26.812 31.5035 26.5396 31.9425C26.3478 32.1241 26.1813 32.341 26.0602 32.5782C25.929 32.8103 25.8433 33.0726 25.7575 33.335C25.6566 33.441 25.5759 33.552 25.5002 33.6731C25.4649 33.7336 25.4295 33.7942 25.3942 33.8547C25.3639 33.9153 25.3387 33.9859 25.3135 34.0515C25.263 34.1827 25.2227 34.3189 25.1924 34.4602C25.1672 34.6015 25.152 34.7478 25.147 34.8991C25.1016 35.0354 25.0612 35.1716 25.0158 35.3078C24.9754 35.4441 24.925 35.5853 24.8897 35.7266C24.8543 35.8679 24.819 36.0092 24.7887 36.1555C24.7686 36.3018 24.7484 36.4481 24.7434 36.5995C24.6626 37.1898 24.6273 37.7953 24.592 38.4108C24.6122 38.5672 24.6424 38.7186 24.6576 38.875C24.6777 39.0314 24.6828 39.1878 24.6979 39.3392C24.708 39.4956 24.7131 39.652 24.7131 39.8084C24.7181 39.9649 24.7232 40.1263 24.7131 40.2878C24.93 40.8983 25.0209 41.529 25.152 42.1799C25.1874 42.3413 25.2378 42.4977 25.2983 42.6541C25.3589 42.8105 25.4346 42.9568 25.5103 43.1082L25.5658 43.2192L25.6263 43.3302C25.6667 43.4059 25.702 43.4816 25.7373 43.5573C25.8029 43.7086 25.8786 43.865 25.929 44.0265C26.2318 44.632 26.6253 45.1971 27.029 45.7622C27.4023 46.3475 27.8463 46.9176 28.4468 47.3213C28.9917 47.7804 29.582 48.184 30.1572 48.6331C30.8384 48.9106 31.4489 49.289 32.1149 49.6321C32.8061 49.8844 33.5024 50.1871 34.2592 50.2578C34.9959 50.4192 35.7577 50.4142 36.5196 50.4747C37.2815 50.5151 38.0535 50.4747 38.78 50.2578C39.1383 50.1417 39.5066 50.066 39.8648 49.9752C40.0465 49.9349 40.2231 49.8793 40.4047 49.8289C40.5863 49.7784 40.7579 49.7078 40.9244 49.6321C41.0152 49.6119 41.106 49.5917 41.1968 49.5615C41.2826 49.5312 41.3684 49.4959 41.4542 49.4606C41.5399 49.4252 41.6207 49.3849 41.7065 49.3445C41.7872 49.2991 41.8679 49.2537 41.9486 49.2083L42.1858 49.067L42.4179 48.9156C42.4935 48.8652 42.5743 48.8198 42.65 48.7744C42.7307 48.729 42.8064 48.6785 42.8821 48.6331C43.4875 48.2345 44.1132 47.8561 44.5925 47.3213C45.1021 46.8217 45.5511 46.2869 46.0103 45.7622C46.1415 45.4241 46.3483 45.1567 46.5552 44.8792C46.6612 44.743 46.7621 44.6067 46.8579 44.4655C46.9084 44.3948 46.9538 44.3242 46.9992 44.2485C47.0396 44.1728 47.0799 44.0972 47.1102 44.0215C47.4937 43.4513 47.6652 42.7954 47.8822 42.1748C47.9579 41.8519 48.0739 41.5492 48.1546 41.2313C48.1748 41.1506 48.2 41.0749 48.2202 40.9992C48.2404 40.9185 48.2556 40.8428 48.2657 40.7621C48.2808 40.6813 48.2909 40.6006 48.301 40.5249L48.3161 40.4038C48.3161 40.3634 48.3161 40.3231 48.3161 40.2827C48.3413 40.1263 48.3565 39.9649 48.3766 39.8084C48.3817 39.652 48.3918 39.4956 48.3968 39.3342C48.4069 39.1777 48.4019 39.0213 48.412 38.8649C48.417 38.7085 48.4321 38.5521 48.4473 38.4007C48.4221 38.2494 48.412 38.093 48.4069 37.9416C48.3968 37.7902 48.3968 37.6389 48.3968 37.4825C48.3968 37.3311 48.3867 37.1797 48.3766 37.0283C48.3615 36.877 48.3464 36.7307 48.301 36.5843C48.2757 36.438 48.2505 36.2917 48.2202 36.1454C48.19 36.0041 48.1546 35.8578 48.1244 35.7165C48.0941 35.5752 48.0537 35.434 48.0184 35.2927C47.9781 35.1514 47.9478 35.0152 47.9074 34.8789C47.8973 34.7326 47.8721 34.5914 47.8317 34.4501C47.7914 34.3139 47.7359 34.1827 47.6804 34.0565C47.6501 33.991 47.6249 33.9304 47.5895 33.8648C47.5542 33.8043 47.5239 33.7437 47.4886 33.6831C47.423 33.5621 47.3625 33.441 47.2969 33.3199C47.1809 33.0727 47.0446 32.8405 46.8933 32.6185C46.757 32.3915 46.6107 32.1745 46.5148 31.9273C46.2323 31.4934 45.98 31.0393 45.6117 30.7113C45.5259 30.6256 45.4553 30.5196 45.3846 30.4237C45.314 30.3228 45.2434 30.2219 45.1727 30.126C45.1021 30.0251 45.0264 29.9343 44.9356 29.8587C44.8448 29.783 44.7439 29.7174 44.6278 29.672C44.4411 29.5357 44.2999 29.3541 44.1384 29.1926C44.0577 29.1119 43.977 29.0362 43.8912 28.9706C43.8458 28.9353 43.8004 28.905 43.7549 28.8798C43.7045 28.8546 43.654 28.8344 43.5985 28.8142C43.3866 28.7385 43.2201 28.6124 43.0536 28.4862C42.9729 28.4207 42.8922 28.3551 42.8114 28.2895C42.7307 28.2239 42.6449 28.1684 42.5591 28.1179C42.4734 28.0675 42.3876 28.017 42.3069 27.9666C42.2211 27.9161 42.1353 27.8757 42.0495 27.8303C41.9638 27.7849 41.883 27.7395 41.7973 27.6941C41.7165 27.6487 41.6308 27.6134 41.545 27.573C40.8033 27.2148 40.102 26.9675 39.4814 26.791C39.3249 26.7506 39.1736 26.7102 39.0323 26.6749C38.886 26.6346 38.7447 26.6143 38.6135 26.5841C38.3461 26.5235 38.0989 26.4882 37.8769 26.4529C37.4329 26.3873 37.0948 26.347 36.8627 26.3268C36.6306 26.3015 36.5096 26.2814 36.5096 26.2612C36.5096 26.241 36.6559 26.2208 36.9485 26.2057C37.0191 26.2057 37.0999 26.1956 37.1907 26.2006C37.2815 26.2006 37.3774 26.2006 37.4833 26.2057C37.5893 26.2057 37.7053 26.2057 37.8264 26.2208C37.9475 26.2309 38.0787 26.241 38.22 26.2561C38.775 26.3167 39.4561 26.4226 40.2382 26.6446C41.0152 26.8666 41.8881 27.2097 42.7963 27.7143C42.8871 27.7648 42.983 27.8101 43.0788 27.8556C43.1747 27.906 43.2706 27.9565 43.3664 28.0069C43.5582 28.1078 43.7398 28.239 43.9012 28.4055C43.9467 28.4409 43.9921 28.4711 44.0425 28.5014C44.0879 28.5367 44.1333 28.567 44.1838 28.6023C44.2797 28.6679 44.3755 28.7335 44.4714 28.7991C44.6631 28.9353 44.8448 29.0917 45.0062 29.2734C45.4553 29.5054 45.7378 29.9394 46.0658 30.338C46.4139 30.7214 46.6965 31.1755 47.0446 31.5943C47.2263 31.8012 47.3726 32.0433 47.4937 32.2956C47.6299 32.5429 47.7359 32.8052 47.8923 33.0474C47.9377 33.1837 47.978 33.3249 48.0335 33.4611C48.089 33.5974 48.1395 33.7336 48.195 33.8698C48.2505 34.0061 48.311 34.1423 48.3766 34.2735C48.4372 34.4097 48.4977 34.546 48.5633 34.6822C48.5936 34.8285 48.6239 34.9799 48.6642 35.1262C48.7046 35.2725 48.7551 35.4188 48.7904 35.5702C48.8307 35.7165 48.8762 35.8679 48.9216 36.0192C48.9569 36.1706 48.9922 36.327 49.0174 36.4784C49.0174 36.6399 49.0174 36.7963 49.0275 36.9577C49.0376 37.1192 49.0679 37.2756 49.078 37.432C49.0982 37.5934 49.1183 37.7499 49.1486 37.9113C49.1688 38.0728 49.189 38.2342 49.2041 38.4007C49.2243 38.5672 49.2243 38.7287 49.2193 38.8952C49.2193 39.0617 49.2142 39.2282 49.194 39.3947C49.1789 39.5612 49.1638 39.7277 49.1486 39.8942C49.1284 40.0607 49.1083 40.2323 49.0931 40.3988C48.972 41.0648 48.8762 41.756 48.6441 42.422C48.4927 43.1133 48.2303 43.7894 47.8368 44.4049C47.5441 45.0709 47.1203 45.6814 46.6763 46.2718C46.2676 46.8974 45.7176 47.4222 45.1677 47.9469C44.8952 48.2143 44.5824 48.4363 44.2645 48.6583C44.1081 48.7744 43.9467 48.8753 43.7953 48.9913C43.6439 49.1124 43.4875 49.2234 43.3412 49.3596C42.6903 49.7936 41.9738 50.1165 41.2473 50.4343C40.5006 50.7118 39.7286 50.9238 38.9465 51.1155C38.1291 51.1306 37.342 51.2921 36.5196 51.3476C35.6972 51.388 34.8798 51.2871 34.0927 51.1155C33.2955 50.9742 32.5236 50.7371 31.792 50.4343C31.0351 50.177 30.3792 49.7229 29.6981 49.3596C29.5265 49.2688 29.36 49.1679 29.2036 49.0468C29.0472 48.9308 28.8908 48.8198 28.7495 48.6886C28.4518 48.4414 28.1743 48.179 27.8716 47.9469C27.2863 47.4625 26.7565 46.9075 26.3629 46.2718C26.1409 45.9741 25.9543 45.6512 25.7777 45.3333C25.6818 45.1769 25.6011 45.0154 25.5052 44.859C25.4598 44.7833 25.4093 44.7077 25.3589 44.632C25.3084 44.5563 25.258 44.4806 25.2075 44.4049C25.1167 44.2485 25.0209 44.0921 24.9351 43.9357C24.8897 43.855 24.8493 43.7793 24.8039 43.6986L24.7383 43.5775L24.6828 43.4564C24.6071 43.2899 24.5365 43.1284 24.486 42.9569C24.4406 42.7853 24.4103 42.6087 24.4003 42.4271C24.2741 42.0991 24.1984 41.756 24.148 41.4129C24.1328 41.3271 24.1177 41.2414 24.1026 41.1606C24.0874 41.0749 24.0773 40.9891 24.0622 40.9084C24.047 40.8226 24.0319 40.7419 24.0117 40.6561C24.0016 40.6157 23.9916 40.5754 23.9815 40.5299C23.9714 40.4896 23.9613 40.4442 23.9512 40.4038C23.9663 40.2323 23.9613 40.0607 23.9512 39.8942C23.9462 39.7277 23.931 39.5612 23.9108 39.3947C23.8856 39.2282 23.8755 39.0617 23.8604 38.9002C23.8452 38.7337 23.8301 38.5723 23.8402 38.4058C23.8705 37.7499 23.9865 37.1192 24.0269 36.4834C24.037 36.327 24.0572 36.1706 24.0874 36.0142C24.1228 35.8628 24.1631 35.7115 24.2035 35.5601C24.2438 35.4087 24.2993 35.2675 24.3447 35.1211C24.3952 34.9748 24.4305 34.8285 24.4759 34.6822C24.5062 34.5308 24.5516 34.3895 24.6021 34.2482C24.6576 34.107 24.7282 33.9758 24.7938 33.8446C24.8241 33.779 24.8594 33.7134 24.8897 33.6478C24.925 33.5822 24.9603 33.5167 24.9906 33.4511C25.0562 33.3199 25.1066 33.1837 25.152 33.0474C25.2933 32.7952 25.4144 32.5378 25.5557 32.2956C25.6919 32.0484 25.8433 31.8163 25.9997 31.5943C26.035 31.453 26.0956 31.3319 26.1662 31.2109C26.2368 31.0948 26.3176 30.9838 26.4134 30.893C26.6001 30.7012 26.8019 30.5246 26.9785 30.338C27.3317 29.9646 27.584 29.5004 28.0381 29.2734C28.1743 29.0614 28.3458 28.8949 28.5426 28.7637C28.6385 28.6982 28.7394 28.6376 28.8403 28.5771C28.8908 28.5468 28.9412 28.5165 28.9917 28.4862C29.0421 28.456 29.0926 28.4308 29.138 28.4005C29.3348 28.2895 29.5013 28.1432 29.6829 28.0221C29.7687 27.9615 29.8595 27.8959 29.9504 27.8404C30.0412 27.7849 30.1421 27.7446 30.2379 27.7092C30.3136 27.6336 30.3994 27.5781 30.4902 27.5226C30.581 27.4721 30.6769 27.4368 30.7677 27.4015C30.8585 27.3662 30.9544 27.3359 31.0452 27.2955C31.136 27.2602 31.2269 27.2249 31.3076 27.1795C31.4943 27.1341 31.6608 27.0533 31.8273 26.9877C31.9938 26.9171 32.1502 26.8364 32.3167 26.791C32.4782 26.7254 32.6346 26.6698 32.7859 26.6194C32.9424 26.579 33.0988 26.5488 33.2501 26.5235C33.3964 26.4832 33.5428 26.4579 33.684 26.4277C33.8253 26.4024 33.9565 26.3671 34.0877 26.352C34.8697 26.2158 35.4853 26.2057 35.894 26.2006C36.3077 26.2158 36.5196 26.236 36.5196 26.2612L36.5348 26.2561Z" fill="#CA534B"/>
<path d="M36.5399 36.3823C36.4844 36.3823 36.4339 36.1805 36.3885 35.8071C36.3834 35.7466 36.3734 35.6759 36.3633 35.6053C36.3481 35.5346 36.333 35.459 36.3431 35.3782C36.4137 35.2975 36.2119 35.2117 36.3229 35.126C36.3532 35.0351 36.3229 34.9443 36.3027 34.8484C36.2775 34.7526 36.3481 34.6517 36.2825 34.5457C36.1463 34.4398 36.4339 34.3338 36.2623 34.2228C36.227 34.1118 36.2371 33.9957 36.2422 33.8747C36.3481 33.7536 36.2422 33.6325 36.2271 33.5063C36.3532 33.3802 36.2977 33.249 36.2119 33.1178C36.3834 32.9866 36.3582 32.8504 36.1968 32.7091C36.1917 32.5679 36.2573 32.4266 36.1816 32.2803C36.1715 32.134 36.1362 31.9876 36.1665 31.8363C36.0504 31.6849 36.0555 31.5335 36.1564 31.3771C36.0303 31.2207 36.0807 31.0643 36.1463 30.9029C36.2169 30.7414 36.0353 30.5799 36.1362 30.4134C36.1463 30.2469 36.111 30.0804 36.1261 29.9089C36.1766 29.7373 36.2321 29.5658 36.1211 29.3892C36.0908 29.2126 36.0504 29.036 36.116 28.8594C35.9848 28.6828 36.0404 28.5011 36.116 28.3195C36.0959 28.1379 36.1867 27.9562 36.116 27.7696C36.1362 27.5829 36.0605 27.3962 36.116 27.2095C36.1564 27.0228 36.1917 26.8361 36.116 26.6494C36.0303 26.4628 36.1514 26.2811 36.116 26.0995C36.2422 25.9179 36.0757 25.7362 36.116 25.5596C36.1059 25.383 36.1867 25.2064 36.1211 25.0298C36.0959 24.8532 36.0757 24.6817 36.1261 24.5101C35.9344 24.3386 36.1766 24.1721 36.1362 24.0056C36.2169 23.8391 36.1261 23.6776 36.1463 23.5162C36.111 23.3547 36.2321 23.1983 36.1564 23.0419C36.1715 22.8855 36.0958 22.7291 36.1665 22.5827C36.0706 22.4314 36.2472 22.285 36.1816 22.1387C36.1816 21.9924 36.1766 21.8511 36.1968 21.7099C36.3431 21.5686 36.222 21.4324 36.2119 21.3012C36.227 21.17 36.1261 21.0388 36.2271 20.9127C36.2371 20.7865 36.3027 20.6654 36.2422 20.5443C36.222 20.4233 36.4591 20.3072 36.2623 20.1962C36.227 20.0852 36.4137 19.9742 36.2825 19.8733C36.1615 19.7673 36.2977 19.6664 36.3027 19.5706C36.3078 19.4747 36.3179 19.3788 36.3229 19.2931C36.3885 18.4959 36.4642 18.0417 36.5449 18.0417C36.6357 18.0417 36.7165 18.6069 36.7871 19.5706C36.7921 19.6664 36.8981 19.7673 36.8073 19.8733C36.8073 19.9792 36.888 20.0852 36.8275 20.1962C36.9637 20.3072 36.8527 20.4233 36.8476 20.5443C36.8527 20.6654 36.8073 20.7865 36.8678 20.9127C36.9485 21.0388 36.8275 21.17 36.883 21.3012C36.7972 21.4324 36.8174 21.5686 36.8981 21.7099C36.8123 21.8511 36.9183 21.9924 36.9132 22.1387C36.7871 22.285 36.8729 22.4314 36.9284 22.5827C36.9738 22.7341 36.9082 22.8855 36.9385 23.0419C36.9132 23.1983 36.9738 23.3547 36.9486 23.5162C37.0091 23.6776 37.0293 23.8391 36.9586 24.0056C36.999 24.1721 36.9687 24.3386 36.9687 24.5101C37.0192 24.6817 36.9637 24.8532 36.9738 25.0298C36.999 25.2064 36.8376 25.383 36.9788 25.5596C36.999 25.7362 36.9587 25.9179 36.9788 26.0995C36.9637 26.2811 36.9435 26.4628 36.9788 26.6494C36.8376 26.8361 36.9233 27.0178 36.9788 27.2095C37.0192 27.3962 36.999 27.5829 36.9788 27.7696C36.994 27.9562 36.9839 28.1379 36.9788 28.3195C37.0192 28.5011 36.9183 28.6828 36.9788 28.8594C37.0394 29.036 36.9132 29.2126 36.9738 29.3892C37.0141 29.5658 37.0343 29.7373 36.9687 29.9089C36.9687 30.0804 36.8426 30.2469 36.9586 30.4134C36.9839 30.5799 37.1453 30.7414 36.9486 30.9029C36.999 31.0643 36.8527 31.2207 36.9385 31.3771C36.7972 31.5335 36.9334 31.6849 36.9284 31.8363C36.8981 31.9876 36.8527 32.134 36.9132 32.2803C36.9788 32.4266 36.8779 32.5679 36.8981 32.7091C36.9788 32.8504 36.7921 32.9866 36.883 33.1178C36.8628 33.249 36.893 33.3802 36.8678 33.5063C37.0595 33.6325 36.8678 33.7536 36.8476 33.8747C36.8224 33.9957 36.9738 34.1118 36.8275 34.2228C36.9738 34.3338 36.8476 34.4448 36.8073 34.5457C36.7669 34.6517 36.8678 34.7526 36.7871 34.8484C36.888 34.9443 36.7316 35.0402 36.7669 35.126C36.7013 35.2117 36.7669 35.2975 36.7467 35.3782C36.772 35.459 36.7619 35.5346 36.7266 35.6053C36.7165 35.6759 36.7114 35.7415 36.7013 35.8071C36.6559 36.1754 36.6004 36.3823 36.5499 36.3823H36.5399Z" fill="#CA534B"/>
<path d="M38.7345 38.5923C38.7345 38.5368 38.9364 38.4863 39.3047 38.4409C39.3652 38.4359 39.4359 38.4258 39.5015 38.4157C39.5721 38.4005 39.6478 38.3854 39.7285 38.3905C39.8093 38.4611 39.89 38.2593 39.9808 38.3703C40.0716 38.4006 40.1624 38.3703 40.2583 38.3501C40.3542 38.3249 40.4551 38.3955 40.561 38.3299C40.667 38.1937 40.7729 38.4813 40.8839 38.3097C40.9949 38.2744 41.111 38.2845 41.2321 38.2895C41.3532 38.3955 41.4743 38.2895 41.6004 38.2694C41.7265 38.3955 41.8577 38.34 41.9889 38.2542C42.1201 38.4258 42.2563 38.4005 42.3976 38.2391C42.5389 38.234 42.6801 38.2996 42.8214 38.2239C42.9677 38.2139 43.1141 38.1785 43.2654 38.2088C43.4168 38.0928 43.5682 38.0978 43.7246 38.1987C43.881 38.0726 44.0374 38.123 44.1989 38.1886C44.3603 38.2593 44.5218 38.0776 44.6883 38.1785C44.8548 38.1886 45.0213 38.1483 45.1928 38.1684C45.3644 38.2189 45.5359 38.2794 45.7075 38.1634C45.8841 38.1331 46.0556 38.0928 46.2373 38.1634C46.4139 38.0322 46.5955 38.0877 46.7771 38.1634C46.9588 38.1432 47.1404 38.234 47.3271 38.1634C47.5138 38.1836 47.6954 38.1029 47.8872 38.1634C48.0738 38.2038 48.2605 38.2441 48.4472 38.1634C48.6339 38.0776 48.8155 38.1987 48.9972 38.1634C49.1788 38.2895 49.3554 38.123 49.537 38.1634C49.7136 38.1533 49.8902 38.234 50.0668 38.1634C50.2384 38.1432 50.415 38.118 50.5815 38.1684C50.753 37.9767 50.9195 38.2189 51.086 38.1785C51.2525 38.2593 51.414 38.1684 51.5754 38.1886C51.7369 38.1533 51.8933 38.2744 52.0497 38.1987C52.2061 38.2139 52.3575 38.1382 52.5089 38.2088C52.6602 38.113 52.8065 38.2895 52.9529 38.2239C53.0992 38.2239 53.2405 38.2189 53.3818 38.2391C53.523 38.3854 53.6542 38.2643 53.7904 38.2542C53.9216 38.2693 54.0528 38.1685 54.1789 38.2694C54.3051 38.2795 54.4262 38.345 54.5473 38.2895C54.6684 38.2694 54.7844 38.5065 54.8954 38.3097C55.0064 38.2744 55.1174 38.4611 55.2183 38.3299C55.3243 38.2088 55.4252 38.345 55.5211 38.3501C55.6169 38.3602 55.7077 38.3652 55.7986 38.3703C56.5958 38.4359 57.0498 38.5116 57.0498 38.5923C57.0498 38.6831 56.4898 38.7638 55.5211 38.8345C55.4252 38.8395 55.3243 38.9455 55.2183 38.8546C55.1124 38.8546 55.0064 38.9354 54.8954 38.8748C54.7844 39.0111 54.6684 38.9001 54.5473 38.895C54.4262 38.9001 54.3051 38.8546 54.1789 38.9152C54.0528 38.9959 53.9216 38.8748 53.7904 38.9303C53.6593 38.8446 53.523 38.8698 53.3818 38.9454C53.2405 38.8647 53.0992 38.9656 52.9529 38.9606C52.8065 38.8345 52.6602 38.9203 52.5089 38.9758C52.3575 39.0212 52.2061 38.9555 52.0497 38.9858C51.8933 38.9606 51.7369 39.0161 51.5754 38.9959C51.414 39.0565 51.2525 39.0767 51.086 39.006C50.9195 39.0464 50.753 39.0161 50.5815 39.0161C50.4099 39.0666 50.2384 39.0111 50.0668 39.0211C49.8902 39.0464 49.7187 38.8849 49.537 39.0262C49.3604 39.0464 49.1788 39.006 48.9972 39.0262C48.8155 39.0111 48.6339 38.9909 48.4472 39.0262C48.2605 38.8849 48.0738 38.9707 47.8872 39.0262C47.7005 39.0666 47.5138 39.0464 47.3271 39.0262C47.1404 39.0413 46.9588 39.0312 46.7771 39.0262C46.5955 39.0666 46.4189 38.9656 46.2373 39.0262C46.0607 39.0867 45.8841 38.9606 45.7075 39.0211C45.5309 39.0615 45.3593 39.0817 45.1928 39.0161C45.0213 39.0161 44.8548 38.89 44.6883 39.006C44.5218 39.0313 44.3603 39.1927 44.1989 38.9959C44.0374 39.0464 43.881 38.9051 43.7246 38.9858C43.5682 38.8445 43.4168 38.9758 43.2654 38.9758C43.1141 38.9505 42.9677 38.9001 42.8214 38.9606C42.6751 39.0262 42.5338 38.9253 42.3976 38.9454C42.2563 39.0262 42.1201 38.8395 41.9889 38.9303C41.8577 38.9101 41.7265 38.9455 41.6004 38.9152C41.4743 39.1069 41.3532 38.9152 41.2321 38.895C41.111 38.8698 41 39.0212 40.8839 38.8748C40.7729 39.0212 40.6619 38.895 40.561 38.8546C40.4551 38.8143 40.3542 38.9152 40.2583 38.8345C40.1624 38.9354 40.0716 38.779 39.9808 38.8143C39.895 38.7487 39.8093 38.8143 39.7285 38.7941C39.6478 38.8143 39.5721 38.8092 39.5015 38.7689C39.4308 38.7588 39.3652 38.7537 39.2996 38.7436C38.9313 38.6982 38.7295 38.6478 38.7295 38.5923H38.7345Z" fill="#CA534B"/>
<path d="M36.5246 40.787C36.5801 40.787 36.6305 40.9889 36.6759 41.3622C36.681 41.4228 36.6911 41.4884 36.7012 41.559C36.7163 41.6297 36.7314 41.7053 36.7213 41.786C36.6507 41.8668 36.8525 41.9525 36.7415 42.0383C36.7112 42.1241 36.7415 42.22 36.7617 42.3158C36.7869 42.4117 36.7163 42.5126 36.7819 42.6186C36.9181 42.7245 36.6305 42.8305 36.8021 42.9415C36.8374 43.0525 36.8273 43.1685 36.8223 43.2896C36.7163 43.4107 36.8223 43.5318 36.8424 43.6579C36.7163 43.7841 36.7718 43.9153 36.8576 44.0465C36.686 44.1776 36.7113 44.3139 36.8727 44.4552C36.8778 44.5964 36.8122 44.7377 36.8879 44.884C36.898 45.0303 36.9333 45.1767 36.903 45.328C37.019 45.4794 37.014 45.6308 36.9131 45.7872C37.0392 45.9436 36.9887 46.1 36.9232 46.2614C36.8525 46.4229 37.0342 46.5844 36.9333 46.7509C36.9282 46.9174 36.9635 47.0839 36.9434 47.2554C36.8929 47.427 36.8324 47.5985 36.9484 47.7701C36.9787 47.9467 37.019 48.1233 36.9535 48.2998C37.0846 48.4764 37.0291 48.6581 36.9535 48.8397C36.9736 49.0214 36.8828 49.203 36.9535 49.3897C36.9333 49.5764 37.014 49.758 36.9535 49.9497C36.9131 50.1364 36.8727 50.3231 36.9535 50.5098C37.0392 50.6965 36.9181 50.8781 36.9535 51.0597C36.8273 51.2414 36.9938 51.423 36.9535 51.5996C36.9635 51.7762 36.8828 51.9528 36.9484 52.1294C36.9686 52.306 36.9938 52.4776 36.9434 52.6491C37.1351 52.8207 36.8929 52.9872 36.9333 53.1537C36.8525 53.3202 36.9433 53.4816 36.9232 53.6431C36.9585 53.8045 36.8324 53.9609 36.9131 54.1173C36.8979 54.2738 36.9736 54.4251 36.903 54.5765C36.9988 54.7279 36.8223 54.8742 36.8879 55.0205C36.8879 55.1668 36.8929 55.3081 36.8727 55.4494C36.7213 55.5906 36.8475 55.7218 36.8576 55.8581C36.8425 55.9892 36.9433 56.1204 36.8424 56.2466C36.8323 56.3727 36.7668 56.4938 36.8223 56.6149C36.8424 56.736 36.6053 56.852 36.8021 56.963C36.8374 57.074 36.6507 57.185 36.7819 57.286C36.903 57.3919 36.7668 57.4928 36.7617 57.5887C36.7516 57.6845 36.7466 57.7754 36.7415 57.8662C36.6759 58.6634 36.6002 59.1175 36.5195 59.1175C36.4287 59.1175 36.348 58.5524 36.2773 57.5887C36.2723 57.4928 36.1663 57.3919 36.2572 57.286C36.2572 57.18 36.1764 57.074 36.237 56.963C36.1007 56.852 36.2117 56.736 36.2168 56.6149C36.2117 56.4938 36.2521 56.3727 36.1966 56.2466C36.1159 56.1204 36.237 55.9892 36.1815 55.8581C36.2672 55.7269 36.242 55.5906 36.1663 55.4494C36.247 55.3081 36.1462 55.1668 36.1512 55.0205C36.2773 54.8742 36.1865 54.7279 36.136 54.5765C36.0906 54.4251 36.1563 54.2738 36.126 54.1173C36.1512 53.9609 36.0957 53.8045 36.1159 53.6431C36.0553 53.4816 36.0351 53.3202 36.1058 53.1537C36.0654 52.9872 36.1008 52.8207 36.1008 52.6491C36.0503 52.4776 36.1058 52.306 36.0957 52.1294C36.0705 51.9528 36.2319 51.7762 36.0907 51.5996C36.0705 51.423 36.1108 51.2414 36.0907 51.0597C36.1058 50.8781 36.126 50.6965 36.0907 50.5098C36.2319 50.3231 36.1462 50.1364 36.0907 49.9497C36.0503 49.7631 36.0705 49.5764 36.0907 49.3897C36.0755 49.203 36.0856 49.0214 36.0907 48.8397C36.0503 48.6581 36.1512 48.4764 36.0907 48.2998C36.0301 48.1233 36.1512 47.9467 36.0957 47.7701C36.0553 47.5935 36.0352 47.4219 36.1008 47.2554C36.1008 47.0839 36.2269 46.9174 36.1058 46.7509C36.0805 46.5844 35.9191 46.4229 36.1159 46.2614C36.0654 46.1 36.2118 45.9436 36.126 45.7872C36.2673 45.6308 36.136 45.4794 36.136 45.328C36.1613 45.1767 36.2117 45.0303 36.1512 44.884C36.0856 44.7377 36.1865 44.5964 36.1663 44.4552C36.0856 44.3139 36.2723 44.1776 36.1815 44.0465C36.2017 43.9153 36.1714 43.7841 36.1966 43.6579C36.0049 43.5318 36.1966 43.4107 36.2168 43.2896C36.242 43.1685 36.0906 43.0525 36.237 42.9415C36.0906 42.8305 36.2168 42.7195 36.2572 42.6186C36.2975 42.5126 36.1966 42.4117 36.2773 42.3158C36.1764 42.22 36.3328 42.1241 36.2975 42.0383C36.3631 41.9475 36.2975 41.8668 36.3177 41.786C36.2975 41.7053 36.3026 41.6297 36.3379 41.559C36.348 41.4884 36.353 41.4228 36.3631 41.3572C36.4085 40.9889 36.464 40.782 36.5145 40.782L36.5246 40.787Z" fill="#CA534B"/>
<path d="M34.33 38.5771C34.33 38.6326 34.1281 38.6831 33.7548 38.7285C33.6942 38.7335 33.6286 38.7437 33.558 38.7537C33.4873 38.7689 33.4116 38.784 33.3309 38.779C33.2502 38.7083 33.1644 38.9101 33.0786 38.7991C32.9878 38.7689 32.897 38.7991 32.8011 38.8193C32.7053 38.8445 32.6044 38.7739 32.4984 38.8395C32.3925 38.9757 32.2865 38.6881 32.1755 38.8597C32.0645 38.895 31.9484 38.8849 31.8274 38.8799C31.7063 38.7739 31.5852 38.8799 31.459 38.9001C31.3329 38.7739 31.2017 38.8294 31.0705 38.9152C30.9393 38.7436 30.8031 38.7689 30.6618 38.9303C30.5206 38.9354 30.3793 38.8698 30.233 38.9454C30.0867 38.9555 29.9403 38.9909 29.789 38.9606C29.6376 39.0766 29.4862 39.0716 29.3298 38.9707C29.1734 39.0968 29.017 39.0464 28.8555 38.9808C28.6941 38.9101 28.5326 39.0918 28.3661 38.9909C28.1996 38.9808 28.0331 39.0212 27.8616 39.001C27.69 38.9505 27.5185 38.895 27.3469 39.006C27.1703 39.0363 26.9937 39.0767 26.8171 39.006C26.6405 39.1372 26.4589 39.0817 26.2773 39.006C26.0956 39.0262 25.914 38.9354 25.7273 39.006C25.5406 38.9858 25.359 39.0666 25.1723 39.006C24.9856 38.9657 24.7989 38.9253 24.6122 39.006C24.4256 39.0918 24.2439 38.9707 24.0623 39.006C23.8806 38.8799 23.699 39.0464 23.5224 39.006C23.3458 39.0161 23.1692 38.9354 22.9926 39.006C22.816 39.0262 22.6445 39.0514 22.478 39.001C22.3064 39.1927 22.1399 38.9505 21.9734 38.9909C21.8069 38.9101 21.6455 39.001 21.484 38.9808C21.3225 39.0161 21.1661 38.895 21.0097 38.9707C20.8533 38.9556 20.702 39.0312 20.5506 38.9606C20.3992 39.0565 20.2529 38.8799 20.1066 38.9454C19.9603 38.9454 19.819 38.9505 19.6827 38.9303C19.5415 38.779 19.4052 38.9051 19.274 38.9152C19.1429 38.9 19.0117 39.001 18.8855 38.9001C18.7594 38.89 18.6383 38.8193 18.5172 38.8799C18.3961 38.9001 18.2851 38.6629 18.1691 38.8597C18.0581 38.895 17.9471 38.7083 17.8462 38.8395C17.7402 38.9606 17.6393 38.8244 17.5434 38.8193C17.4476 38.8143 17.3568 38.8042 17.2659 38.7991C16.4738 38.7335 16.0146 38.6579 16.0146 38.5771C16.0146 38.4863 16.5747 38.4056 17.5434 38.335C17.6393 38.3299 17.7402 38.2239 17.8462 38.3148C17.9521 38.3148 18.0581 38.234 18.1691 38.2946C18.2801 38.1584 18.3961 38.2694 18.5172 38.2744C18.6383 38.2694 18.7594 38.3148 18.8855 38.2542C19.0117 38.1735 19.1429 38.2946 19.274 38.2391C19.4052 38.3249 19.5415 38.2996 19.6827 38.2239C19.824 38.3097 19.9653 38.2088 20.1066 38.2088C20.2529 38.335 20.3992 38.2492 20.5506 38.1937C20.702 38.1483 20.8533 38.2139 21.0097 38.1836C21.1661 38.2088 21.3225 38.1533 21.484 38.1735C21.6455 38.1129 21.8069 38.0928 21.9734 38.1634C22.1399 38.123 22.3064 38.1533 22.478 38.1533C22.6495 38.1029 22.8211 38.1584 22.9926 38.1483C23.1642 38.123 23.3407 38.2845 23.5224 38.1432C23.699 38.123 23.8806 38.1634 24.0623 38.1432C24.2439 38.1634 24.4256 38.1785 24.6122 38.1432C24.7989 38.2845 24.9806 38.1987 25.1723 38.1432C25.359 38.1029 25.5457 38.123 25.7273 38.1432C25.914 38.1281 26.0956 38.1382 26.2773 38.1432C26.4589 38.1029 26.6405 38.2038 26.8171 38.1432C26.9937 38.0827 27.1703 38.2088 27.3469 38.1483C27.5185 38.1079 27.6951 38.0877 27.8616 38.1533C28.0331 38.1533 28.1996 38.2794 28.3661 38.1634C28.5326 38.1382 28.6941 37.9767 28.8555 38.1735C29.017 38.123 29.1734 38.2643 29.3298 38.1836C29.4862 38.3249 29.6376 38.1886 29.789 38.1937C29.9403 38.2189 30.0867 38.2694 30.233 38.2088C30.3793 38.1432 30.5206 38.2441 30.6618 38.2239C30.8031 38.1432 30.9343 38.3299 31.0705 38.2391C31.2017 38.2593 31.3329 38.229 31.459 38.2542C31.5852 38.0625 31.7063 38.2542 31.8274 38.2744C31.9484 38.2996 32.0645 38.1483 32.1755 38.2946C32.2865 38.1483 32.3975 38.2744 32.4984 38.3148C32.6044 38.3551 32.7053 38.2542 32.8011 38.335C32.897 38.234 32.9878 38.3904 33.0786 38.3551C33.1644 38.4207 33.2502 38.3551 33.3309 38.3753C33.4116 38.3501 33.4873 38.3602 33.558 38.4005C33.6286 38.4106 33.6942 38.4157 33.7548 38.4258C34.1231 38.4712 34.33 38.5267 34.33 38.5771Z" fill="#CA534B"/>
<path d="M54.0982 20.9935C54.1386 21.0339 53.9771 21.2609 53.6542 21.6494C53.5987 21.715 53.5432 21.7806 53.4776 21.8563C53.4221 21.932 53.3565 22.0178 53.2758 22.0884C53.1496 22.1136 53.2102 22.3407 53.0487 22.3457C52.9428 22.4063 52.8721 22.5173 52.7964 22.6283C52.7208 22.7393 52.5744 22.7847 52.524 22.931C52.524 23.1278 52.2112 23.0269 52.2263 23.2539C52.1456 23.3901 52.0295 23.491 51.9084 23.6021C51.7217 23.6424 51.6763 23.8341 51.5704 23.9704C51.3585 24.0006 51.2727 24.1671 51.2071 24.3538C50.9548 24.3538 50.8438 24.5102 50.8287 24.7575C50.6975 24.8937 50.5159 24.9845 50.4301 25.1763C50.2989 25.3226 50.1778 25.4891 50.0113 25.6102C49.9507 25.8372 49.7994 25.9785 49.5774 26.0592C49.5168 26.2964 49.3301 26.4124 49.1283 26.5234C48.9265 26.6294 48.8962 26.9119 48.6641 27.0027C48.4976 27.1541 48.3664 27.3408 48.1848 27.4922C47.988 27.6183 47.7812 27.7444 47.6954 27.9917C47.5491 28.1834 47.4078 28.3802 47.1909 28.5013C47.1152 28.7636 46.8982 28.8948 46.6762 29.021C46.5198 29.2127 46.2776 29.3186 46.1515 29.5507C45.9597 29.7122 45.8386 29.9493 45.6166 30.0856C45.4098 30.2369 45.2029 30.3883 45.0818 30.6204C44.9658 30.8575 44.7034 30.9484 44.552 31.1451C44.2897 31.2309 44.2342 31.5185 44.0323 31.6598C43.8709 31.8414 43.6438 31.9474 43.5227 32.1643C43.3714 32.346 43.2251 32.5327 43.0232 32.6537C42.998 32.9514 42.665 32.9464 42.5338 33.1331C42.3169 33.234 42.226 33.456 42.0545 33.5973C41.9284 33.7789 41.6861 33.8445 41.5903 34.0463C41.4288 34.1826 41.338 34.3894 41.1413 34.4802C41.0656 34.6921 40.7981 34.7123 40.7073 34.899C40.566 35.0352 40.4349 35.1765 40.2886 35.2976C40.0514 35.3279 40.006 35.5448 39.8849 35.676C39.7436 35.7921 39.6932 35.9889 39.5015 36.0393C39.3703 36.1503 39.2088 36.226 39.1382 36.3824C39.0372 36.5136 38.7597 36.4531 38.79 36.7003C38.7093 36.8315 38.4722 36.8012 38.4621 36.998C38.4469 37.1846 38.2552 37.1846 38.1593 37.2755C38.0635 37.3612 37.9676 37.447 37.8768 37.5277C37.0695 38.2442 36.5801 38.6277 36.5195 38.5722C36.459 38.5066 36.9383 37.9112 37.8162 36.9324C37.902 36.8365 37.9272 36.665 38.0937 36.6296C38.1946 36.5287 38.2401 36.3673 38.3914 36.3017C38.4015 36.0948 38.5933 36.0645 38.7093 35.9535C38.8203 35.8324 38.9666 35.7467 39.0524 35.5903C39.118 35.4137 39.3249 35.3733 39.4106 35.2068C39.5973 35.1412 39.7134 34.9949 39.7891 34.8032C39.9808 34.7275 40.0464 34.5206 40.1876 34.3844C40.4197 34.3339 40.4954 34.1321 40.6064 33.9505C40.7174 33.7739 40.9142 33.6729 41.0403 33.5014C41.2068 33.3702 41.3178 33.1785 41.4894 33.0372C41.6004 32.8404 41.7417 32.6689 41.9536 32.5579C42.0848 32.3712 42.2664 32.2299 42.4329 32.0685C42.559 31.8667 42.7659 31.7455 42.9223 31.5689C43.0686 31.3823 43.3562 31.3268 43.4269 31.0594C43.5833 30.8777 43.7851 30.7314 43.9415 30.5397C44.1282 30.3782 44.3199 30.2168 44.4662 30.0099C44.7438 29.9292 44.8598 29.692 45.0011 29.4751C45.1524 29.2682 45.3442 29.1017 45.5359 28.9402C45.7024 28.7536 45.8841 28.582 46.0657 28.4155C46.212 28.2137 46.4542 28.1128 46.5854 27.9009C46.7166 27.6889 46.9688 27.6082 47.095 27.3963C47.2363 27.1995 47.3826 27.0179 47.5945 26.9069C47.7559 26.7454 48.0082 26.6697 48.0839 26.4275C48.2252 26.2509 48.2706 25.9785 48.5632 25.9634C48.6843 25.7716 48.9366 25.7212 49.0274 25.5143C49.2797 25.4638 49.3301 25.2217 49.4765 25.0804C49.643 24.9543 49.8145 24.8483 49.9104 24.6616C50.0012 24.4749 50.2131 24.4144 50.3292 24.263C50.4048 24.0713 50.6672 24.0763 50.7328 23.8846C50.8741 23.7686 50.975 23.6222 51.1163 23.5213C51.1011 23.264 51.3585 23.2842 51.4846 23.1782C51.6208 23.0823 51.6208 22.8654 51.8277 22.8604C51.8327 22.6485 52.0245 22.6333 52.1556 22.5627C52.2868 22.492 52.307 22.3205 52.4584 22.2852C52.4786 22.1187 52.6804 22.1439 52.7409 22.0329C52.8721 21.9976 52.9075 21.8714 52.9983 21.8058C53.0588 21.715 53.1395 21.6444 53.2303 21.604C53.306 21.5435 53.3716 21.4829 53.4372 21.4274C53.8257 21.1045 54.0578 20.9481 54.0931 20.9834L54.0982 20.9935Z" fill="#CA534B"/>
<path d="M53.1246 19.3284C53.0792 19.2982 53.1145 19.1619 53.2104 18.9399C53.2255 18.9046 53.2457 18.8642 53.2659 18.8239C53.281 18.7785 53.2961 18.728 53.3264 18.6927C53.4122 18.6927 53.281 18.5312 53.4021 18.5464C53.4627 18.5161 53.4677 18.4505 53.4879 18.3899C53.503 18.3244 53.5938 18.3092 53.5787 18.2184C53.503 18.0872 53.7805 18.1932 53.6796 18.0368C53.6897 17.9561 53.7402 17.9005 53.7906 17.845C53.9218 17.845 53.8814 17.7189 53.9117 17.6432C54.0631 17.6483 54.0631 17.5474 54.0429 17.4313C54.2346 17.4616 54.2598 17.3708 54.1791 17.2093C54.2245 17.1336 54.3305 17.0983 54.3255 16.9772C54.3456 16.9368 54.3658 16.8914 54.386 16.8511C54.4011 16.8208 54.4617 16.73 54.5172 16.6795C54.5323 16.4575 54.6685 16.2658 54.8048 16.2405C54.835 16.069 54.9006 15.953 54.9662 15.8823C55.0318 15.953 55.0924 16.0438 55.1529 16.1346C55.2185 16.2406 55.2841 16.2658 55.3648 16.3011C55.4405 16.3364 55.5263 16.3869 55.5767 16.4979C55.6121 16.5332 55.6474 16.5635 55.6827 16.5937L55.7382 16.6392L55.7685 16.6644C55.8139 16.6946 55.8542 16.73 55.8896 16.7754C55.935 16.8864 55.9804 17.0024 56.1418 16.9923C56.2478 17.0428 56.3588 17.0882 56.3992 17.2144C56.5707 17.1942 56.6212 17.3152 56.6615 17.4414C56.6868 17.4565 56.7069 17.4767 56.7271 17.5019L56.7524 17.5372C56.7524 17.5372 56.7625 17.5574 56.7877 17.5776C56.8583 17.6583 56.9289 17.729 57.045 17.7795C57.1156 17.8551 57.2064 17.9157 57.2973 17.9863C57.3881 18.0519 57.4789 18.1276 57.5294 18.1982C57.5193 18.2083 57.5092 18.2134 57.4991 18.2184C57.3931 18.2991 57.2922 18.3698 57.2115 18.4455C57.1308 18.5211 57.0702 18.5918 57.0299 18.6876C57.0097 18.7381 56.9794 18.7835 56.939 18.8239C56.9189 18.8441 56.8987 18.8642 56.8785 18.8794L56.8482 18.9046L56.828 18.9147C56.7776 18.945 56.717 18.9702 56.6868 19.0257C56.5152 19.0206 56.5505 19.2174 56.4395 19.2679C56.3689 19.3587 56.2276 19.3789 56.1973 19.505C56.1368 19.6009 56.0712 19.6968 55.9552 19.7371C56.0157 19.949 55.7685 19.8582 55.723 19.9591C55.5919 19.9793 55.5818 20.1155 55.491 20.1761C55.4456 20.2719 55.2841 20.2568 55.269 20.3829C55.1882 20.4435 55.1731 20.5646 55.052 20.5848C55.052 20.721 54.8603 20.6655 54.8401 20.7765C54.7896 20.827 54.7392 20.8774 54.6938 20.9228C54.6383 20.9783 54.5828 21.0288 54.5222 21.0742C54.4415 21.0489 54.3961 21.0843 54.3507 21.1499C54.3053 21.2155 54.2598 21.3063 54.2094 21.3668C54.1488 21.4122 54.0883 21.5182 54.0278 21.5888C53.9975 21.5485 53.9722 21.4829 53.9571 21.3819C53.9268 21.3164 53.9016 21.2356 53.8764 21.17C53.8512 21.1044 53.8209 21.054 53.7755 21.0338C53.7402 20.9934 53.7402 20.8875 53.7351 20.8168C53.7301 20.7412 53.7149 20.7008 53.614 20.721C53.5737 20.6857 53.5686 20.605 53.5736 20.5595C53.5736 20.5141 53.5737 20.4788 53.498 20.4839C53.3567 20.4839 53.4425 20.3628 53.4172 20.3073C53.392 20.2518 53.3668 20.1963 53.3466 20.1408C53.1448 19.6665 53.059 19.3789 53.1297 19.3385C53.2053 19.2931 53.4627 19.5656 53.836 20.0651C53.8764 20.1155 53.9975 20.1155 53.9521 20.2215C53.9672 20.2517 54.0025 20.2719 54.0328 20.2921L54.0429 20.3022C54.0429 20.3022 54.0479 20.3072 54.0479 20.3123C54.0479 20.3173 54.048 20.3274 54.0429 20.3426C54.1035 20.3072 54.1085 20.3073 54.1085 20.3274C54.1085 20.3476 54.0934 20.388 54.0984 20.4031C54.1085 20.4132 54.1085 20.4334 54.1186 20.4536C54.1236 20.4738 54.1337 20.4839 54.1539 20.4536C54.169 20.4183 54.1741 20.4233 54.1741 20.4435C54.1791 20.4536 54.1943 20.4839 54.2094 20.4233C54.2296 20.5242 54.275 20.4485 54.2649 20.3476C54.2901 20.3829 54.3053 20.3628 54.3053 20.3375C54.3053 20.3275 54.3053 20.3123 54.3053 20.3022C54.3053 20.2972 54.3053 20.2921 54.3053 20.2871C54.3103 20.277 54.3204 20.2669 54.3255 20.2618C54.4819 20.2871 54.4869 20.1559 54.5172 20.0499C54.5525 19.949 54.6685 19.9238 54.719 19.833C54.8098 19.7775 54.8401 19.6665 54.9259 19.611C54.9561 19.4949 55.0167 19.4041 55.1428 19.3789C55.1882 19.2729 55.2892 19.2225 55.3648 19.1468C55.4052 19.0358 55.5263 18.9954 55.5969 18.9046C55.6575 18.8087 55.8542 18.8441 55.8341 18.6624C55.9047 18.5716 56.0107 18.5161 56.0762 18.4152C56.1217 18.3799 56.1721 18.3445 56.2125 18.3042L56.2276 18.2891C56.2276 18.2891 56.2276 18.284 56.2276 18.279C56.2276 18.279 56.2276 18.2688 56.2175 18.2588C56.2882 18.289 56.3184 18.2739 56.3184 18.2588C56.3184 18.2436 56.2831 18.2335 56.2478 18.2285H56.2428C56.1873 18.2234 56.2125 18.2184 56.2226 18.1982C56.2125 18.1982 56.2074 18.1982 56.2024 18.1881L56.1469 18.1326L56.0863 18.0721C55.9703 18.0267 55.9552 17.8753 55.829 17.84C55.7029 17.8097 55.7029 17.6432 55.5767 17.6129C55.4657 17.5675 55.3699 17.512 55.3346 17.3859C55.2942 17.3506 55.274 17.29 55.2437 17.2396C55.2387 17.2295 55.2286 17.2143 55.2185 17.2043C55.2185 17.2043 55.2185 17.1992 55.2084 17.1992C55.1983 17.1992 55.1882 17.2042 55.1681 17.2295C55.1529 17.2345 55.1327 17.2799 55.1277 17.3001C55.1226 17.3203 55.1277 17.3153 55.1277 17.1841C55.1226 17.2043 55.1176 17.1841 55.1075 17.1538C55.0974 17.1286 55.0772 17.1134 55.0873 17.1841C55.052 17.1084 55.0369 17.1286 55.0369 17.1538C55.0369 17.1841 55.052 17.2194 55.0419 17.2244C55.0268 17.1992 54.9107 17.285 54.9107 17.3909C54.9107 17.507 54.7745 17.5221 54.7442 17.6079C54.7593 17.729 54.5575 17.6937 54.5828 17.8148C54.5172 17.8753 54.497 17.9611 54.4263 18.0115C54.5373 18.1881 54.3355 18.1427 54.275 18.1982C54.2094 18.2436 54.2952 18.395 54.1337 18.3698C54.2094 18.511 54.0681 18.4959 53.9975 18.5312C53.9268 18.5615 53.9723 18.6725 53.8713 18.6775C53.9218 18.7885 53.7553 18.7431 53.7503 18.8087C53.6645 18.8188 53.6846 18.8995 53.6392 18.9298C53.6291 18.9853 53.5939 19.0206 53.5384 19.0358C53.5081 19.0661 53.4727 19.0963 53.4475 19.1266C53.276 19.2982 53.1549 19.3738 53.1145 19.3436L53.1246 19.3284Z" fill="#CA534B"/>
<path d="M55.7735 21.9821C55.7432 21.9367 55.8189 21.8207 55.9905 21.6491C56.0207 21.6189 56.051 21.5886 56.0813 21.5583C56.1116 21.523 56.1418 21.4826 56.1873 21.4574C56.268 21.4877 56.1973 21.2909 56.3083 21.3464C56.3739 21.3414 56.4042 21.2808 56.4446 21.2253C56.4799 21.1698 56.5758 21.19 56.5909 21.0992C56.5657 20.9478 56.7927 21.1446 56.7524 20.963C56.7927 20.8923 56.8583 20.857 56.9239 20.8217C57.045 20.862 57.05 20.7359 57.1055 20.6703C57.2468 20.7309 57.2821 20.635 57.3023 20.5139C57.4688 20.6098 57.5294 20.5341 57.5092 20.3524C57.5798 20.2969 57.6908 20.302 57.7261 20.1859C57.7917 20.1254 57.8775 20.0245 57.8926 20.0548C57.8271 19.9589 57.8018 19.9841 57.9431 20.0043C57.8674 19.969 57.8422 19.969 57.8674 19.969C57.8775 19.969 57.9128 19.969 57.9431 19.9589C57.9784 19.9488 57.933 19.9387 57.9027 19.9387C57.8674 19.9387 57.8523 19.9438 57.8876 19.9135C57.8876 19.9135 57.8825 19.9034 57.8775 19.9034H57.8674L57.8371 19.8731C57.7968 19.8378 57.7564 19.7974 57.7312 19.752C57.6959 19.636 57.6656 19.5149 57.5041 19.5098C57.4083 19.4442 57.3023 19.3887 57.2771 19.2576C57.1005 19.2576 57.0702 19.1365 57.045 19.0002C57.0197 18.9801 57.0046 18.9599 56.9895 18.9346L56.9693 18.8943L56.9592 18.8741C56.9592 18.8741 56.9592 18.869 56.9542 18.864C56.9542 18.864 56.9491 18.8287 56.9239 18.8589C56.9239 18.8438 56.9088 18.8489 56.9037 18.8589C56.8936 18.864 56.8936 18.8741 56.8886 18.8388V18.8287C56.8886 18.8287 56.8684 18.7883 56.8583 18.7934C56.8482 18.7934 56.8381 18.8186 56.8482 18.864C56.8583 18.8842 56.8583 18.8943 56.8583 18.8993C56.8583 18.8993 56.8482 18.9044 56.8381 18.9094C56.7877 18.9397 56.7271 18.9649 56.6968 19.0204C56.5253 19.0154 56.5606 19.2122 56.4496 19.2626C56.379 19.3534 56.2377 19.3736 56.2074 19.4997C56.1469 19.5956 56.0813 19.6915 55.9703 19.7268C56.0308 19.9387 55.7836 19.8479 55.7382 19.9488C55.607 19.969 55.5969 20.1052 55.5061 20.1658C55.4607 20.2667 55.2992 20.2465 55.2841 20.3726C55.2034 20.4332 55.1882 20.5593 55.0671 20.5744C55.0671 20.7107 54.8754 20.6552 54.8552 20.7662L54.8199 20.8015C54.8199 20.8015 54.8098 20.8116 54.8048 20.8166C54.7947 20.8267 54.7846 20.8318 54.7644 20.8368C54.6786 20.8166 54.6483 20.8368 54.6534 20.8519C54.6534 20.8671 54.6887 20.8822 54.6837 20.8923C54.6584 20.9075 54.6938 20.9175 54.6938 20.9226C54.7089 20.9226 54.6988 20.9327 54.6534 20.9529C54.6534 20.9629 54.6433 20.9781 54.6534 20.9932C54.6534 21.0084 54.6736 21.0184 54.719 21.0084C54.7442 21.0084 54.7039 21.0487 54.6938 21.084C54.6837 21.1143 54.7039 21.1395 54.7846 21.0689C54.8098 21.0689 54.7947 21.0992 54.8098 21.1345C54.8249 21.1749 54.8502 21.2051 54.9107 21.1648C55.0318 21.0941 55.0167 21.2455 55.0671 21.2808C55.1176 21.3212 55.163 21.3565 55.2084 21.3868C55.6171 21.6996 55.829 21.9115 55.7886 21.9821C55.7432 22.0578 55.39 21.9468 54.8199 21.6946C54.7644 21.6693 54.6534 21.7248 54.6433 21.6138C54.613 21.5987 54.5727 21.5987 54.5374 21.5886C54.5323 21.5886 54.5272 21.5886 54.5222 21.5886L54.502 21.5785C54.502 21.5785 54.4768 21.5684 54.4617 21.5583C54.4364 21.5432 54.4163 21.523 54.4011 21.4978C54.3052 21.523 54.2397 21.4927 54.1993 21.4524C54.1539 21.412 54.1287 21.3615 54.0832 21.3313C54.0277 21.301 53.9823 21.2657 53.9319 21.2304C53.8814 21.195 53.8259 21.1698 53.7301 21.1446C53.6393 21.1295 53.5888 21.0992 53.5535 21.0689C53.6342 21.0033 53.7402 20.9428 53.7503 20.8822C53.9723 20.7813 54.0177 20.7056 54.0429 20.5643C54.1388 20.529 54.1842 20.4786 54.2245 20.413C54.2447 20.3827 54.2649 20.3474 54.2851 20.3171C54.2952 20.302 54.3053 20.2869 54.3153 20.2717C54.3204 20.2616 54.3305 20.2515 54.3355 20.2465C54.4919 20.2717 54.497 20.1405 54.5273 20.0346C54.5626 19.9337 54.6786 19.9084 54.7291 19.8176C54.8149 19.7621 54.8502 19.6511 54.9359 19.5956C54.9662 19.4796 55.0268 19.3887 55.1529 19.3635C55.1983 19.2575 55.2992 19.2071 55.3749 19.1314C55.4153 19.0204 55.5364 18.98 55.602 18.8943C55.6625 18.7984 55.8593 18.8337 55.8391 18.6521C55.9097 18.5562 56.0157 18.5058 56.0813 18.4049C56.1267 18.3695 56.1772 18.3342 56.2175 18.2938L56.2326 18.2787L56.2629 18.2485C56.2629 18.2485 56.2982 18.2081 56.3184 18.1879C56.3537 18.1475 56.3891 18.1021 56.4244 18.0567C56.5354 18.0416 56.606 17.9911 56.6767 17.9054C56.7473 17.8196 56.8179 17.6985 56.8987 17.5774L56.9188 17.5471C57.0652 17.6632 57.2165 17.86 57.3477 18.0366C57.4234 18.1122 57.4991 18.198 57.5748 18.2787L57.6101 18.3191L57.6353 18.3544L57.6908 18.425C57.7968 18.4856 57.8018 18.637 57.9179 18.6874C58.039 18.7328 58.0238 18.8993 58.1399 18.9447C58.2458 19.0002 58.3366 19.0709 58.3568 19.197C58.3921 19.2374 58.4073 19.2979 58.4275 19.3484C58.4325 19.3635 58.4376 19.3736 58.4476 19.3837C58.4628 19.4039 58.4779 19.419 58.493 19.4341C58.5284 19.4644 58.5687 19.4947 58.6293 19.5149C58.705 19.5805 58.816 19.636 58.9068 19.7116C58.9976 19.7823 59.0632 19.8731 58.9976 19.9438C59.0783 20.0043 59.1137 20.0648 59.1439 20.1203C59.0228 20.1758 58.9118 20.2213 58.8866 20.2969C58.7302 20.3222 58.6646 20.3625 58.6142 20.418C58.5637 20.4735 58.5183 20.5442 58.4476 20.5896C58.261 20.6855 58.1954 20.6753 58.1449 20.7813C58.1046 20.8923 57.9734 20.857 57.9128 20.9276C57.8876 21.0437 57.706 20.9428 57.6908 21.0639C57.6101 21.0992 57.5596 21.1698 57.4789 21.195C57.5193 21.3969 57.3477 21.2859 57.272 21.3162C57.1913 21.3363 57.2216 21.5079 57.0803 21.4271C57.1055 21.5886 56.9743 21.523 56.8987 21.5281C56.8179 21.5281 56.823 21.6542 56.7271 21.6189C56.7372 21.74 56.5959 21.6441 56.5707 21.7046C56.4849 21.6794 56.4799 21.7652 56.4244 21.7803C56.3941 21.8308 56.3487 21.851 56.2932 21.8459C56.2528 21.8661 56.2125 21.8812 56.1772 21.9014C55.9551 21.9973 55.8189 22.0276 55.7886 21.9872L55.7735 21.9821Z" fill="#CA534B"/>
</svg>
