<svg width="76" height="75" viewBox="0 0 76 75" fill="none" xmlns="http://www.w3.org/2000/svg">
<g opacity="0.73">
<path d="M38.6215 74.9999C58.932 74.9999 75.397 58.5137 75.397 38.1769C75.397 17.8402 58.932 1.354 38.6215 1.354C18.3109 1.354 1.84595 17.8402 1.84595 38.1769C1.84595 58.5137 18.3109 74.9999 38.6215 74.9999Z" fill="#215EAB"/>
</g>
<path d="M37.0402 73.6459C57.3507 73.6459 73.8157 57.1597 73.8157 36.8229C73.8157 16.4862 57.3507 0 37.0402 0C16.7296 0 0.264648 16.4862 0.264648 36.8229C0.264648 57.1597 16.7296 73.6459 37.0402 73.6459Z" fill="white"/>
<path d="M19.2416 16.1344C19.2701 16.1344 19.3043 16.5107 19.3328 17.2234C19.3613 17.9418 19.3898 18.9966 19.4184 20.3706C19.4241 20.8268 19.4355 21.3171 19.4469 21.8416C19.464 22.3662 19.4811 22.9249 19.4697 23.5122C19.3898 24.0994 19.6179 24.7266 19.4925 25.3766C19.4583 26.0322 19.4925 26.7107 19.5153 27.4291C19.5438 28.1418 19.464 28.8887 19.5381 29.6584C19.692 30.4281 19.367 31.232 19.5609 32.0588C19.6008 32.8855 19.5894 33.7407 19.5837 34.6244C19.464 35.5082 19.5837 36.4147 19.6008 37.3498C19.4583 38.2848 19.521 39.2427 19.6179 40.2233C19.4241 41.204 19.4526 42.2132 19.635 43.2394C19.6407 44.2657 19.5666 45.3205 19.6521 46.3924C19.6635 47.4643 19.7034 48.559 19.6692 49.6765C19.7319 50.2181 19.7605 50.7598 19.7662 51.3071C19.7662 51.5808 19.7662 51.8545 19.7491 52.1338L19.7376 52.3391V52.3904C19.7376 52.3904 19.7377 52.3961 19.732 52.4018V52.4189C19.732 52.4189 19.7034 52.4759 19.692 52.5215L19.7091 52.5329C19.7605 52.5158 19.789 52.4987 19.8175 52.4873C19.8175 52.4873 19.8403 52.4873 19.8574 52.4873H19.9087L20.017 52.4759L20.2337 52.4645C20.5244 52.4531 20.8152 52.4474 21.1117 52.4474C21.699 52.4531 22.2919 52.4873 22.8849 52.5215C24.0765 52.6013 25.2852 52.3961 26.5111 52.5101C27.7369 52.5158 28.9798 52.4759 30.2399 52.4987C31.4999 52.5557 32.7713 52.6185 34.0599 52.493C35.3484 52.4588 36.6541 52.4132 37.9654 52.4873C39.2825 52.3391 40.6109 52.4018 41.9508 52.4873C43.2907 52.4645 44.6476 52.5671 46.0103 52.4873C46.455 52.493 46.8997 52.4873 47.3444 52.4873C47.5668 52.4873 47.7892 52.4816 48.0115 52.4759H48.097H48.1198H48.1369L48.1712 52.4702C48.1712 52.4588 48.1712 52.4474 48.1712 52.4303V52.4132V52.2536C48.1712 52.0084 48.1826 51.7689 48.194 51.5238C48.2396 50.1383 48.2852 48.7642 48.194 47.3959C48.1484 46.7117 48.154 46.0332 48.1712 45.3547C48.1769 45.0183 48.1883 44.6876 48.194 44.3512C48.1997 44.2999 48.1997 44.2315 48.194 44.1973L48.2054 44.1631C48.2054 44.1631 48.1199 44.1745 48.0571 44.2201L47.9431 44.3056L47.7492 44.4539L47.3673 44.7504L46.9852 45.0525L46.7971 45.2008L46.7002 45.2749L46.5462 45.3889C46.0673 45.7481 45.577 46.113 45.1094 46.438C44.9954 46.5235 44.8814 46.6034 44.7674 46.6889C44.8301 46.1187 44.8928 45.5486 44.9612 44.9841C44.9897 44.7332 45.0239 44.4824 45.0524 44.2315C45.0695 44.0776 45.0923 43.9293 45.1094 43.7754C45.1836 43.1653 45.252 42.561 45.2805 41.9566C45.3261 41.4492 45.3717 40.9417 45.4173 40.44C45.4458 40.1891 45.4686 39.9383 45.4972 39.6874C45.5314 39.4023 45.5656 39.1172 45.5998 38.8379L45.7537 38.5813L45.8563 38.416L46.0673 38.0853C46.5063 36.888 47.3673 35.9472 47.9374 34.8639C48.0058 34.767 48.0685 34.6644 48.1313 34.5674L48.2282 34.4192L48.2396 34.4021C48.2396 34.4021 48.2396 34.4021 48.2396 34.3964V34.385L48.2624 34.3679V34.3451C48.2624 34.3451 48.2624 34.3394 48.2624 34.2937V34.1113C48.2624 33.9916 48.2624 33.8661 48.2624 33.7464C48.2624 33.5012 48.251 33.2561 48.251 33.0166C48.2396 32.532 48.2282 32.0473 48.2396 31.5684C48.1997 30.3768 48.3365 29.2023 48.251 28.0506C48.2681 26.8989 48.1826 25.7586 48.2624 24.6468C48.2453 24.4814 48.2396 24.3104 48.2339 24.145C48.2339 24.0595 48.2339 23.9797 48.2339 23.8942V23.86V23.8315L48.2168 23.8086L48.2054 23.7973L48.194 23.7801L48.1712 23.7516L47.9773 23.5407C47.8462 23.3981 47.7207 23.2556 47.5896 23.1188C47.333 22.8394 47.0708 22.5657 46.7857 22.3205C46.0274 21.5622 45.2805 20.821 44.5678 20.0798C43.9577 19.2303 43.1481 18.6203 42.4468 17.9361C42.196 17.6738 41.9337 17.4286 41.6714 17.1835C41.5403 17.0637 41.4149 16.9383 41.2837 16.8186L41.0956 16.6361L41.0557 16.5962L41.0271 16.5677C41.0271 16.5677 40.9929 16.5677 40.9701 16.5677H40.9587H40.9131H40.8219C40.7022 16.5563 40.5767 16.5449 40.457 16.5278C39.5219 16.5164 38.6154 16.4423 37.7317 16.505C36.8479 16.5278 35.9927 16.2598 35.166 16.4822C34.3392 16.5221 33.5353 16.3111 32.7656 16.4594C31.9959 16.5962 31.249 16.4423 30.5363 16.4366C29.8236 16.4252 29.1395 16.4195 28.4838 16.4138C25.5475 16.3796 23.2327 16.3397 21.6591 16.294C20.8722 16.2712 20.2679 16.2541 19.8574 16.2313C19.4526 16.2085 19.2416 16.1857 19.2416 16.1629C19.2416 16.1401 19.5039 16.1116 20.0056 16.0888C20.5073 16.066 21.2485 16.0432 22.2178 16.0204C24.1506 15.9747 26.9729 15.9291 30.542 15.8949C31.2547 15.8892 32.0016 15.7695 32.7713 15.8721C33.541 15.8721 34.345 15.7809 35.1717 15.8493C35.9984 15.6954 36.8536 15.8208 37.7374 15.8265C38.6211 15.8208 39.5276 15.8721 40.4627 15.8037C40.5824 15.7923 40.7022 15.7866 40.8276 15.7809H40.9188H41.0442C41.1469 15.7809 41.2552 15.7809 41.3578 15.7809C41.4605 15.8835 41.5574 15.9805 41.66 16.0831L41.8425 16.2712C41.9622 16.4024 42.0876 16.5278 42.2074 16.6589C42.4525 16.9212 42.7034 17.1778 42.9771 17.4172C43.6042 18.1812 44.3283 18.8711 45.1208 19.5382C45.7822 20.3307 46.6032 20.9978 47.3615 21.7561C47.5896 22.0583 47.8462 22.3377 48.1084 22.6113C48.2396 22.7482 48.3764 22.8793 48.519 23.0104C48.6957 23.1758 48.8782 23.3411 49.0549 23.5122C49.0549 23.649 49.0663 23.7801 49.0663 23.917L49.0777 24.1678C49.0891 24.3332 49.0948 24.5042 49.1062 24.6696C49.1575 25.7871 49.0834 26.9217 49.1176 28.0734C49.0891 29.2251 49.1575 30.3996 49.129 31.5912C49.1575 32.0702 49.1746 32.5548 49.186 33.0394C49.186 33.2846 49.1917 33.524 49.186 33.7692C49.186 33.8889 49.186 34.0144 49.186 34.1341C49.186 34.2994 49.1803 34.4705 49.1746 34.6358L49.015 34.9038L48.9181 35.0521C48.8497 35.149 48.7869 35.2516 48.7242 35.3485C48.154 36.4318 47.4984 37.4923 46.8712 38.5813L46.6888 38.9291L46.5918 39.1001L46.569 39.1458L46.5576 39.1686V39.18V39.1914V39.2142V39.2598L46.5348 39.4479L46.4949 39.8242C46.4664 40.0751 46.4379 40.326 46.4037 40.5768C46.341 41.0786 46.284 41.586 46.2326 42.0934C46.1813 42.6978 46.0844 43.3022 45.9932 43.9065L45.9305 44.3626L45.9191 44.471V44.4995C45.9191 44.4995 45.9077 44.5394 45.9077 44.5565C45.902 44.6306 45.9077 44.7047 45.9362 44.6933C45.9533 44.6705 45.9761 44.6477 45.9875 44.6249C46.0274 44.5907 46.0559 44.5679 46.0901 44.5451C46.3296 44.3683 46.5747 44.1973 46.8142 44.0206C47.1107 43.8096 47.4015 43.5929 47.6979 43.382C48.1883 43.0228 48.6786 42.6636 49.1746 42.293C49.1746 42.35 49.1746 42.407 49.1746 42.464C49.1689 43.4333 49.1575 44.4026 49.1518 45.3832C49.1518 46.0617 49.1518 46.7402 49.1746 47.4244C49.015 48.787 49.1119 50.1668 49.1746 51.5523C49.1803 51.7974 49.186 52.0369 49.1917 52.2821V52.8351C49.1974 53.0689 49.1974 53.3026 49.1974 53.5364C48.7983 53.5364 48.3992 53.5364 48.0001 53.5364C47.7778 53.5364 47.5554 53.5364 47.333 53.5307C46.8883 53.525 46.4436 53.5193 45.9989 53.5079C44.6362 53.525 43.2792 53.5136 41.9394 53.5079C40.5995 53.5535 39.2711 53.4395 37.954 53.5079C36.637 53.5763 35.337 53.4338 34.0485 53.5022C32.7599 53.5478 31.4828 53.5706 30.2285 53.4965C28.9684 53.4965 27.7255 53.354 26.4997 53.4851C25.2738 53.5136 24.0651 53.696 22.8735 53.4737C22.2748 53.5022 21.6876 53.4737 21.1003 53.4509C20.8095 53.4395 20.5131 53.4281 20.2223 53.4281H20.0056H19.7718C19.521 53.4281 19.2644 53.4395 18.9964 53.4509C18.9337 53.4509 18.871 53.4395 18.8083 53.4338C18.8254 53.1715 18.8368 52.9263 18.8482 52.6869C18.8539 52.5158 18.8596 52.3391 18.8653 52.168C18.871 51.8887 18.8653 51.615 18.8596 51.3413C18.8425 50.794 18.8083 50.2466 18.8083 49.7107C18.8425 48.5932 18.8938 47.5042 18.8254 46.4266C18.7513 45.3547 18.8653 44.2999 18.8425 43.2736C18.7513 42.2474 18.9622 41.2382 18.8596 40.2576C18.8824 39.2769 18.8482 38.319 18.8767 37.384C18.6601 36.4489 18.8767 35.5424 18.8995 34.6587C18.928 33.7749 18.757 32.9197 18.9223 32.093C18.757 31.2662 18.8995 30.4623 18.9451 29.6926C18.9908 28.9229 18.8767 28.176 18.9679 27.4633C18.8539 26.7506 19.0307 26.0665 18.9907 25.4108C19.0649 24.7551 18.9907 24.1336 19.0136 23.5464C18.985 22.9534 18.9965 22.4004 19.0364 21.8758C19.0478 21.3513 19.0535 20.861 19.0649 20.4048C19.0934 19.0365 19.1219 17.976 19.1504 17.2576C19.1789 16.5392 19.2074 16.1686 19.2416 16.1686V16.1344Z" fill="#CA534B"/>
<path d="M42.7772 28.5982C42.7772 28.6609 42.5662 28.7179 42.1728 28.7692C42.1101 28.7749 42.036 28.7863 41.9618 28.7977C41.8877 28.8149 41.8079 28.8319 41.7224 28.8262C41.6368 28.7464 41.5513 28.9745 41.4601 28.8491C41.3689 28.8148 41.2719 28.8491 41.1693 28.8719C41.0667 28.9004 40.9641 28.8205 40.85 28.8947C40.7417 29.0486 40.6277 28.7236 40.508 28.9175C40.3882 28.9574 40.2685 28.946 40.1431 28.9403C40.0176 28.8206 39.8865 28.9403 39.7554 28.9631C39.6242 28.8206 39.4874 28.8833 39.3448 28.9802C39.208 28.7863 39.0655 28.8149 38.9172 28.9973C38.769 29.003 38.6207 28.9289 38.4668 29.0144C38.3129 29.0258 38.1589 29.0657 37.9993 29.0315C37.8396 29.1626 37.68 29.1569 37.5147 29.0429C37.3493 29.1854 37.184 29.1284 37.0129 29.0543C36.8419 28.9745 36.6708 29.1798 36.4998 29.0657C36.323 29.0543 36.1463 29.0999 35.9695 29.0771C35.7928 29.0201 35.6103 28.9574 35.4279 29.0828C35.2454 29.117 35.0573 29.1627 34.8748 29.0885C34.6867 29.2368 34.4985 29.1741 34.3104 29.0885C34.1222 29.1113 33.9284 29.0087 33.7345 29.0885C33.5407 29.0657 33.3468 29.1569 33.1473 29.0885C32.9534 29.0429 32.7539 28.9973 32.56 29.0885C32.3662 29.1855 32.1723 29.0486 31.9842 29.0885C31.796 28.946 31.6079 29.1341 31.4197 29.0885C31.2316 29.0999 31.0491 29.0087 30.8667 29.0828C30.6842 29.1056 30.5018 29.1341 30.325 29.0771C30.1483 29.2938 29.9715 29.0201 29.7948 29.0657C29.618 28.9745 29.447 29.0771 29.2816 29.0543C29.1106 29.0942 28.9453 28.9574 28.7799 29.0429C28.6146 29.0258 28.4549 29.1113 28.2953 29.0315C28.1356 29.1398 27.9817 28.9403 27.8277 29.0144C27.6738 29.0144 27.5256 29.0201 27.383 28.9973C27.2348 28.8263 27.0923 28.9688 26.9554 28.9802C26.8186 28.9631 26.6817 29.0771 26.5449 28.9631C26.4138 28.9517 26.2826 28.8776 26.1572 28.9403C26.0318 28.9631 25.912 28.6951 25.7923 28.9175C25.6726 28.9574 25.5585 28.7464 25.4502 28.8947C25.3419 29.0315 25.2336 28.8776 25.1309 28.8719C25.0283 28.8662 24.9314 28.8548 24.8402 28.8491C24.0077 28.7749 23.5288 28.6894 23.5288 28.5982C23.5288 28.4956 24.1218 28.4043 25.1309 28.3245C25.2336 28.3188 25.3362 28.1991 25.4502 28.3017C25.5585 28.3017 25.6726 28.2105 25.7923 28.2789C25.912 28.125 26.0318 28.2504 26.1572 28.2561C26.2826 28.2504 26.4081 28.3017 26.5449 28.2333C26.676 28.1421 26.8129 28.2789 26.9554 28.2162C27.0923 28.3131 27.2348 28.2846 27.383 28.1991C27.5313 28.2903 27.6795 28.1763 27.8277 28.182C27.9817 28.3245 28.1356 28.2219 28.2953 28.1649C28.4549 28.1136 28.6146 28.1877 28.7799 28.1535C28.9453 28.182 29.1106 28.1136 29.2816 28.1421C29.4527 28.0737 29.6237 28.0508 29.7948 28.1307C29.9658 28.085 30.1483 28.1193 30.325 28.1193C30.5018 28.0622 30.6842 28.125 30.8667 28.1136C31.0491 28.085 31.2373 28.2675 31.4197 28.1079C31.6079 28.0851 31.796 28.1364 31.9842 28.1079C32.1723 28.1307 32.3662 28.1478 32.56 28.1079C32.7539 28.2675 32.9477 28.1706 33.1473 28.1079C33.3468 28.0623 33.5407 28.0851 33.7345 28.1079C33.9284 28.0908 34.1222 28.1022 34.3104 28.1079C34.4985 28.0623 34.6924 28.1763 34.8748 28.1079C35.063 28.0394 35.2454 28.182 35.4279 28.1136C35.6103 28.0679 35.7928 28.0451 35.9695 28.1193C36.1463 28.1193 36.323 28.2618 36.4998 28.1307C36.6765 28.1022 36.8476 27.9197 37.0129 28.1421C37.184 28.0851 37.3493 28.2447 37.5147 28.1535C37.68 28.3131 37.8396 28.1592 37.9993 28.1649C38.1589 28.1934 38.3129 28.2504 38.4668 28.182C38.6207 28.1079 38.769 28.2219 38.9172 28.1991C39.0655 28.1079 39.208 28.3188 39.3448 28.2162C39.4817 28.239 39.6185 28.1991 39.7554 28.2333C39.8865 28.0166 40.0176 28.2333 40.1431 28.2561C40.2685 28.2903 40.3882 28.1136 40.508 28.2789C40.6277 28.1136 40.7417 28.2561 40.85 28.3017C40.9584 28.3473 41.0667 28.2333 41.1693 28.3245C41.2719 28.2105 41.3689 28.3872 41.4601 28.3473C41.5513 28.4214 41.6425 28.3473 41.7224 28.3701C41.8079 28.3416 41.8877 28.353 41.9618 28.3929C42.036 28.4043 42.1044 28.41 42.1728 28.4214C42.5605 28.4728 42.7772 28.5298 42.7772 28.5925V28.5982Z" fill="#CA534B"/>
<path d="M42.7772 34.5389C42.7772 34.6016 42.5662 34.6586 42.1728 34.7099C42.1101 34.7156 42.036 34.727 41.9618 34.7384C41.8877 34.7555 41.8079 34.7726 41.7224 34.7612C41.6368 34.6814 41.5513 34.9095 41.4601 34.784C41.3689 34.7498 41.2719 34.784 41.1693 34.8068C41.0667 34.8354 40.9641 34.7555 40.85 34.8296C40.7417 34.9836 40.6277 34.6586 40.508 34.8525C40.3882 34.8924 40.2685 34.881 40.1431 34.8753C40.0176 34.7555 39.8865 34.8753 39.7554 34.8924C39.6242 34.7498 39.4874 34.8125 39.3448 34.9095C39.208 34.7156 39.0655 34.7441 38.9172 34.9266C38.769 34.9323 38.6207 34.8582 38.4668 34.9437C38.3129 34.9551 38.1589 34.995 37.9993 34.9608C37.8396 35.0919 37.68 35.0862 37.5147 34.9722C37.3493 35.1147 37.184 35.0577 37.0129 34.9836C36.8419 34.9038 36.6708 35.109 36.4998 34.995C36.323 34.9836 36.1463 35.0292 35.9695 35.0064C35.7928 34.9494 35.6103 34.8867 35.4279 35.0121C35.2454 35.0463 35.0573 35.0919 34.8748 35.0178C34.6867 35.166 34.4985 35.1033 34.3104 35.0178C34.1222 35.0406 33.9284 34.938 33.7345 35.0178C33.5407 34.995 33.3468 35.0862 33.1473 35.0178C32.9534 34.9722 32.7539 34.9266 32.56 35.0178C32.3662 35.1147 32.1723 34.9779 31.9842 35.0178C31.796 34.8753 31.6079 35.0634 31.4197 35.0178C31.2316 35.0292 31.0491 34.938 30.8667 35.0121C30.6842 35.0406 30.5018 35.0634 30.325 35.0064C30.1483 35.223 29.9715 34.9494 29.7948 34.995C29.618 34.9038 29.447 35.0064 29.2816 34.9836C29.1106 35.0235 28.9453 34.881 28.7799 34.9722C28.6146 34.9551 28.4549 35.0406 28.2953 34.9608C28.1356 35.0691 27.9817 34.8696 27.8277 34.9437C27.6738 34.9437 27.5256 34.9494 27.383 34.9266C27.2348 34.7555 27.0923 34.8981 26.9554 34.9095C26.8186 34.8924 26.6817 35.0064 26.5449 34.8924C26.4138 34.881 26.2826 34.8068 26.1572 34.8753C26.0318 34.8981 25.912 34.6301 25.7923 34.8525C25.6726 34.8924 25.5585 34.6814 25.4502 34.8296C25.3419 34.9665 25.2336 34.8126 25.1309 34.8068C25.0283 34.8011 24.9314 34.7897 24.8402 34.784C24.0077 34.7099 23.5288 34.6244 23.5288 34.5332C23.5288 34.4305 24.1218 34.3393 25.1309 34.2595C25.2336 34.2538 25.3362 34.1341 25.4502 34.2367C25.5585 34.2367 25.6726 34.1455 25.7923 34.2139C25.912 34.0599 26.0318 34.1854 26.1572 34.1911C26.2826 34.1854 26.4081 34.2367 26.5449 34.174C26.676 34.0827 26.8129 34.2196 26.9554 34.1569C27.0923 34.2538 27.2348 34.2253 27.383 34.1398C27.5313 34.231 27.6795 34.1227 27.8277 34.1227C27.9817 34.2652 28.1356 34.1683 28.2953 34.1056C28.4549 34.0542 28.6146 34.1284 28.7799 34.0942C28.9453 34.1227 29.1106 34.0599 29.2816 34.0827C29.4527 34.0143 29.6237 33.9915 29.7948 34.0713C29.9658 34.0257 30.1483 34.0599 30.325 34.0599C30.5018 34.0029 30.6842 34.0656 30.8667 34.0542C31.0491 34.0257 31.2373 34.2082 31.4197 34.0485C31.6079 34.0257 31.796 34.0713 31.9842 34.0485C32.1723 34.0713 32.3662 34.0884 32.56 34.0485C32.7539 34.2082 32.9477 34.1113 33.1473 34.0485C33.3468 34.0029 33.5407 34.0257 33.7345 34.0485C33.9284 34.0314 34.1222 34.0428 34.3104 34.0485C34.4985 34.0029 34.6924 34.117 34.8748 34.0485C35.063 33.9801 35.2454 34.1227 35.4279 34.0542C35.6103 34.0086 35.7928 33.9858 35.9695 34.0599C36.1463 34.0599 36.323 34.2025 36.4998 34.0713C36.6765 34.0428 36.8476 33.8604 37.0129 34.0827C37.184 34.0257 37.3493 34.1911 37.5147 34.0942C37.68 34.2538 37.8396 34.0999 37.9993 34.1056C38.1589 34.1341 38.3129 34.1911 38.4668 34.1227C38.6207 34.0485 38.769 34.1626 38.9172 34.1398C39.0655 34.0485 39.208 34.2595 39.3448 34.1569C39.4817 34.1797 39.6185 34.1455 39.7554 34.174C39.8865 33.9573 40.0176 34.174 40.1431 34.1911C40.2685 34.2196 40.3882 34.0485 40.508 34.2139C40.6277 34.0485 40.7417 34.1911 40.85 34.2367C40.9584 34.2823 41.0667 34.1683 41.1693 34.2595C41.2719 34.1455 41.3689 34.3222 41.4601 34.2823C41.5513 34.3564 41.6425 34.2823 41.7224 34.3051C41.8079 34.2766 41.8877 34.288 41.9618 34.3279C42.036 34.3393 42.1044 34.345 42.1728 34.3564C42.5605 34.4077 42.7772 34.4647 42.7772 34.5275V34.5389Z" fill="#CA534B"/>
<path d="M42.7772 40.4859C42.7772 40.5486 42.5662 40.6056 42.1728 40.6569C42.1101 40.6626 42.036 40.674 41.9618 40.6854C41.8877 40.7025 41.8079 40.7196 41.7224 40.7139C41.6368 40.6341 41.5513 40.8622 41.4601 40.7368C41.3689 40.7025 41.2719 40.7368 41.1693 40.7596C41.0667 40.7881 40.9641 40.7082 40.85 40.7824C40.7417 40.9363 40.6277 40.6113 40.508 40.8052C40.3882 40.8451 40.2685 40.8337 40.1431 40.828C40.0176 40.7082 39.8865 40.828 39.7554 40.8508C39.6242 40.7082 39.4874 40.771 39.3448 40.8679C39.208 40.674 39.0655 40.7026 38.9172 40.885C38.769 40.8907 38.6207 40.8166 38.4668 40.9021C38.3129 40.9135 38.1589 40.9534 37.9993 40.9192C37.8396 41.0503 37.68 41.0446 37.5147 40.9306C37.3493 41.0731 37.184 41.0161 37.0129 40.942C36.8419 40.8622 36.6708 41.0674 36.4998 40.9534C36.323 40.942 36.1463 40.9876 35.9695 40.9648C35.7928 40.9078 35.6103 40.8451 35.4279 40.9705C35.2454 41.0047 35.0573 41.0503 34.8748 40.9762C34.6867 41.1244 34.4985 41.0617 34.3104 40.9762C34.1222 40.999 33.9284 40.8964 33.7345 40.9762C33.5407 40.9534 33.3468 41.0446 33.1473 40.9762C32.9534 40.9306 32.7539 40.885 32.56 40.9762C32.3662 41.0731 32.1723 40.9363 31.9842 40.9762C31.796 40.8337 31.6079 41.0218 31.4197 40.9762C31.2316 40.9876 31.0491 40.8964 30.8667 40.9705C30.6842 40.999 30.5018 41.0218 30.325 40.9648C30.1483 41.1815 29.9715 40.9078 29.7948 40.9534C29.618 40.8622 29.447 40.9648 29.2816 40.942C29.1106 40.9819 28.9453 40.8451 28.7799 40.9306C28.6146 40.9135 28.4549 40.999 28.2953 40.9192C28.1356 41.0275 27.9817 40.828 27.8277 40.9021C27.6738 40.9021 27.5256 40.9078 27.383 40.885C27.2348 40.714 27.0923 40.8565 26.9554 40.8679C26.8186 40.8508 26.6817 40.9648 26.5449 40.8508C26.4138 40.8394 26.2826 40.7653 26.1572 40.828C26.0318 40.8508 25.912 40.5828 25.7923 40.8052C25.6726 40.8451 25.5585 40.6341 25.4502 40.7824C25.3419 40.9192 25.2336 40.7653 25.1309 40.7596C25.0283 40.7539 24.9314 40.7425 24.8402 40.7368C24.0077 40.6626 23.5288 40.5771 23.5288 40.4859C23.5288 40.3833 24.1218 40.292 25.1309 40.2122C25.2336 40.2065 25.3362 40.0868 25.4502 40.1894C25.5585 40.1894 25.6726 40.0982 25.7923 40.1666C25.912 40.0127 26.0318 40.1381 26.1572 40.1438C26.2826 40.1381 26.4081 40.1894 26.5449 40.121C26.676 40.0298 26.8129 40.1666 26.9554 40.1039C27.0923 40.2008 27.2348 40.1723 27.383 40.0868C27.5313 40.178 27.6795 40.064 27.8277 40.0697C27.9817 40.2122 28.1356 40.1153 28.2953 40.0526C28.4549 40.0013 28.6146 40.0754 28.7799 40.0412C28.9453 40.0697 29.1106 40.007 29.2816 40.0298C29.4527 39.9614 29.6237 39.9385 29.7948 40.0184C29.9658 39.9727 30.1483 40.007 30.325 40.007C30.5018 39.9499 30.6842 40.0127 30.8667 40.0013C31.0491 39.9727 31.2373 40.1552 31.4197 40.0013C31.6079 39.9784 31.796 40.0241 31.9842 40.0013C32.1723 40.0241 32.3662 40.0412 32.56 40.0013C32.7539 40.1609 32.9477 40.064 33.1473 40.0013C33.3468 39.9556 33.5407 39.9784 33.7345 40.0013C33.9284 39.9841 34.1222 39.9956 34.3104 40.0013C34.4985 39.9556 34.6924 40.0697 34.8748 40.0013C35.063 39.9328 35.2454 40.0754 35.4279 40.0013C35.6103 39.9556 35.7928 39.9328 35.9695 40.007C36.1463 40.007 36.323 40.1495 36.4998 40.0184C36.6765 39.9898 36.8476 39.8074 37.0129 40.0298C37.184 39.9728 37.3493 40.1381 37.5147 40.0412C37.68 40.2008 37.8396 40.0469 37.9993 40.0526C38.1589 40.0868 38.3129 40.1381 38.4668 40.0697C38.6207 39.9955 38.769 40.1096 38.9172 40.0868C39.0655 39.9955 39.208 40.2065 39.3448 40.1039C39.4817 40.1267 39.6185 40.0868 39.7554 40.121C39.8865 39.9043 40.0176 40.121 40.1431 40.1438C40.2685 40.178 40.3882 40.0013 40.508 40.1666C40.6277 40.0013 40.7417 40.1438 40.85 40.1894C40.9584 40.235 41.0667 40.121 41.1693 40.2122C41.2719 40.0982 41.3689 40.2749 41.4601 40.235C41.5513 40.3091 41.6425 40.235 41.7224 40.2578C41.8079 40.235 41.8877 40.2407 41.9618 40.2863C42.036 40.2977 42.1044 40.3034 42.1728 40.3148C42.5605 40.3662 42.7772 40.4289 42.7772 40.4859Z" fill="#CA534B"/>
<path d="M42.7772 46.4327C42.7772 46.4955 42.5662 46.5525 42.1728 46.6038C42.1101 46.6095 42.036 46.6209 41.9618 46.6323C41.8877 46.6494 41.8079 46.6665 41.7224 46.6551C41.6368 46.5753 41.5513 46.8033 41.4601 46.6779C41.3689 46.6437 41.2719 46.6779 41.1693 46.7007C41.0667 46.7292 40.9641 46.6494 40.85 46.7235C40.7417 46.8775 40.6277 46.5525 40.508 46.7463C40.3882 46.7863 40.2685 46.7748 40.1431 46.7691C40.0176 46.6494 39.8865 46.7691 39.7554 46.7919C39.6242 46.6494 39.4874 46.7121 39.3448 46.8091C39.208 46.6095 39.0655 46.6437 38.9172 46.8262C38.769 46.8262 38.6207 46.7577 38.4668 46.8433C38.3129 46.8547 38.1589 46.8946 37.9993 46.8604C37.8396 46.9915 37.68 46.9858 37.5147 46.8718C37.3493 47.0143 37.184 46.9573 37.0129 46.8832C36.8419 46.8034 36.6708 47.0086 36.4998 46.8946C36.323 46.8832 36.1463 46.9288 35.9695 46.906C35.7928 46.849 35.6103 46.7862 35.4279 46.9117C35.2454 46.9459 35.0573 46.9915 34.8748 46.9174C34.6867 47.0656 34.4985 47.0029 34.3104 46.9174C34.1222 46.9402 33.9284 46.8376 33.7345 46.9174C33.5407 46.8946 33.3468 46.9858 33.1473 46.9174C32.9534 46.8718 32.7539 46.8262 32.56 46.9174C32.3662 47.0143 32.1723 46.8775 31.9842 46.9174C31.796 46.7748 31.6079 46.963 31.4197 46.9174C31.2316 46.9288 31.0491 46.8376 30.8667 46.9117C30.6842 46.9402 30.5018 46.963 30.325 46.906C30.1483 47.1226 29.9715 46.849 29.7948 46.8946C29.618 46.8033 29.447 46.906 29.2816 46.8832C29.1106 46.9231 28.9453 46.7806 28.7799 46.8718C28.6146 46.8547 28.4549 46.9402 28.2953 46.8604C28.1356 46.9687 27.9817 46.7691 27.8277 46.8433C27.6738 46.8433 27.5256 46.849 27.383 46.8262C27.2348 46.6551 27.0923 46.7976 26.9554 46.8091C26.8186 46.7919 26.6817 46.906 26.5449 46.7919C26.4138 46.7805 26.2826 46.7064 26.1572 46.7691C26.0318 46.7919 25.912 46.524 25.7923 46.7463C25.6726 46.7863 25.5585 46.5753 25.4502 46.7235C25.3419 46.8604 25.2336 46.7064 25.1309 46.7007C25.0283 46.695 24.9314 46.6836 24.8402 46.6779C24.0077 46.6038 23.5288 46.5183 23.5288 46.427C23.5288 46.3244 24.1218 46.2332 25.1309 46.1534C25.2336 46.1477 25.3362 46.0279 25.4502 46.1306C25.5585 46.1306 25.6726 46.0393 25.7923 46.1078C25.912 45.9538 26.0318 46.0793 26.1572 46.085C26.2826 46.0793 26.4081 46.1249 26.5449 46.0622C26.676 45.9709 26.8129 46.1078 26.9554 46.045C27.0923 46.142 27.2348 46.1135 27.383 46.0279C27.5313 46.1192 27.6795 46.0051 27.8277 46.0108C27.9817 46.1534 28.1356 46.0565 28.2953 45.9937C28.4549 45.9424 28.6146 46.0165 28.7799 45.9823C28.9453 46.0108 29.1106 45.9481 29.2816 45.9709C29.4527 45.9025 29.6237 45.8797 29.7948 45.9595C29.9658 45.9139 30.1483 45.9481 30.325 45.9481C30.5018 45.8911 30.6842 45.9538 30.8667 45.9424C31.0491 45.9139 31.2373 46.0964 31.4197 45.9367C31.6079 45.9139 31.796 45.9595 31.9842 45.9367C32.1723 45.9595 32.3662 45.9766 32.56 45.9367C32.7539 46.0964 32.9477 45.9994 33.1473 45.9367C33.3468 45.8911 33.5407 45.9139 33.7345 45.9367C33.9284 45.9196 34.1222 45.931 34.3104 45.9367C34.4985 45.8911 34.6924 46.0051 34.8748 45.9367C35.063 45.8683 35.2454 46.0108 35.4279 45.9424C35.6103 45.8968 35.7928 45.874 35.9695 45.9481C36.1463 45.9481 36.323 46.0907 36.4998 45.9595C36.6765 45.931 36.8476 45.7486 37.0129 45.9709C37.184 45.9139 37.3493 46.0792 37.5147 45.9823C37.68 46.142 37.8396 45.988 37.9993 45.9937C38.1589 46.0222 38.3129 46.0793 38.4668 46.0108C38.6207 45.9367 38.769 46.0508 38.9172 46.0279C39.0655 45.9367 39.208 46.1477 39.3448 46.045C39.4817 46.0679 39.6185 46.0279 39.7554 46.0622C39.8865 45.8455 40.0176 46.0622 40.1431 46.085C40.2685 46.1192 40.3882 45.9424 40.508 46.1078C40.6277 45.9424 40.7417 46.085 40.85 46.1306C40.9584 46.1762 41.0667 46.0622 41.1693 46.1534C41.2719 46.0393 41.3689 46.2161 41.4601 46.1762C41.5513 46.2503 41.6425 46.1762 41.7224 46.199C41.8079 46.1762 41.8877 46.1819 41.9618 46.2275C42.036 46.2389 42.1044 46.2446 42.1728 46.256C42.5605 46.3073 42.7772 46.3643 42.7772 46.427V46.4327Z" fill="#CA534B"/>
<path d="M41.2038 23.7576C41.1411 23.7576 41.0841 23.4725 41.0328 22.9479C41.027 22.8624 41.0157 22.7655 41.0043 22.6686C40.9871 22.5659 40.97 22.4633 40.9814 22.3493C41.0613 22.2352 40.8332 22.1155 40.9586 21.9958C40.9928 21.8704 40.9586 21.7392 40.9358 21.6024C40.9073 21.4655 40.9871 21.323 40.913 21.1748C40.7591 21.0265 41.0841 20.8726 40.8902 20.7186C40.8503 20.559 40.8617 20.3994 40.8674 20.2283C40.9871 20.0573 40.8674 19.8862 40.8503 19.7095C40.9928 19.5327 40.9301 19.3503 40.8332 19.1621C41.027 18.974 40.9985 18.7858 40.8161 18.5863C40.8104 18.3924 40.8845 18.1872 40.799 17.9876C40.7876 17.885 40.7819 17.7824 40.7762 17.6797C40.7762 17.6284 40.7762 17.5771 40.7762 17.5201C40.7762 17.4802 40.7762 17.4346 40.7762 17.3946C40.7762 17.349 40.7819 17.3034 40.7876 17.2578C40.6565 16.853 40.6622 16.3399 40.7762 16.1118C40.7135 15.8609 40.6907 15.6272 40.6907 15.4447C40.6907 15.2566 40.7078 15.1083 40.7363 15C40.7819 15.0627 40.8332 15.1254 40.8845 15.1882C41.0613 15.4219 41.1696 15.4846 41.3064 15.5873C41.4376 15.6842 41.6029 15.8153 41.7511 16.0434C41.8994 16.1973 42.0476 16.3342 42.2073 16.4824C42.2871 16.5565 42.3612 16.6306 42.441 16.7048L42.498 16.7618L42.5323 16.796C42.5323 16.796 42.5722 16.8416 42.5893 16.8644C42.7204 17.0754 42.8458 17.292 43.1081 17.3718C43.3077 17.5201 43.5129 17.6626 43.6384 17.8964C43.9234 17.9705 44.0546 18.1929 44.18 18.4323C44.3795 18.5977 44.4879 18.8542 44.7273 18.9797C44.8927 19.1792 45.1435 19.3047 45.2861 19.5384C45.44 19.7551 45.594 19.9717 45.8448 20.0972C46.0957 20.2112 46.1812 20.4906 46.3922 20.6445C46.472 20.9239 46.7856 20.9752 46.9281 21.1862C47.1163 21.3515 47.2246 21.5967 47.4527 21.7164C47.6465 21.8703 47.8347 22.0243 47.9601 22.2352C48.0399 22.2352 48.1027 22.2637 48.1483 22.3037C48.1711 22.3208 48.1939 22.3436 48.211 22.3664C48.2167 22.3778 48.2281 22.3892 48.2338 22.4063C48.2395 22.4177 48.2509 22.4462 48.2623 22.4633C48.3364 22.6286 48.3877 22.7826 48.5018 22.9023C48.5588 23.0506 48.6557 23.1646 48.7583 23.29C48.861 23.4155 48.975 23.5466 49.0548 23.6663C49.0833 23.7005 49.1061 23.729 49.1289 23.7632C49.146 23.7803 49.1403 23.7975 49.1403 23.8146V23.8716L49.1289 23.9286C49.1289 23.9343 49.1289 23.9514 49.1232 23.9514H49.089L48.9636 23.9628C48.7982 23.9742 48.6443 23.9856 48.5246 24.0312C48.3706 24.0483 48.2338 24.0768 48.0912 24.1053C47.9487 24.1338 47.7948 24.1567 47.6465 24.1395C47.5781 24.1738 47.504 24.1966 47.4356 24.1966C47.3843 24.1966 47.3329 24.1795 47.2759 24.1681C47.1733 24.1396 47.065 24.1111 46.968 24.151C46.7628 24.151 46.5632 24.1567 46.3694 24.1339C46.1755 23.9685 45.9817 24.1054 45.7935 24.1168C45.6054 24.0996 45.4229 24.2137 45.2462 24.0996C45.0694 24.0882 44.8927 24.0141 44.7273 24.0825C44.5563 24.1054 44.3966 23.8374 44.237 24.0597C44.0774 24.0996 43.9291 23.8887 43.7809 24.0369C43.6327 24.1738 43.4901 24.0198 43.3533 24.0141C43.2164 24.0084 43.0853 23.997 42.9599 23.9913C41.8367 23.9172 41.1981 23.8317 41.1981 23.7405C41.1981 23.6378 41.9906 23.5466 43.3533 23.4668C43.4901 23.4611 43.6327 23.3413 43.7809 23.444C43.9291 23.444 44.0831 23.3527 44.237 23.4212C44.3966 23.2672 44.5563 23.3927 44.7273 23.3984C44.8927 23.3927 45.0694 23.444 45.2462 23.3813C45.4229 23.29 45.6054 23.4269 45.7935 23.3641C45.9817 23.4611 46.1698 23.4326 46.3694 23.347C46.5632 23.4383 46.7685 23.3299 46.968 23.3299C47.0707 23.4041 47.1733 23.4155 47.2759 23.3984C47.3272 23.3927 47.3786 23.3756 47.4356 23.3641C47.4527 23.3641 47.447 23.3585 47.4527 23.3528L47.4641 23.3413C47.4641 23.3413 47.4755 23.3242 47.4812 23.3185C47.4983 23.29 47.5154 23.2957 47.5439 23.3071C47.5724 23.3128 47.6123 23.3242 47.6123 23.3071C47.6579 23.3185 47.6693 23.3071 47.675 23.3071C47.675 23.3071 47.675 23.3014 47.675 23.2843C47.675 23.2729 47.6693 23.2672 47.675 23.2615C47.5895 23.2216 47.5439 23.2102 47.5268 23.2045C47.5097 23.1988 47.5268 23.1988 47.5667 23.1703C47.5268 23.1646 47.5154 23.1532 47.5097 23.1418C47.5097 23.1418 47.5097 23.1418 47.504 23.1304L47.4755 23.0962L47.4185 23.0278C47.3786 22.9821 47.3386 22.9422 47.293 22.8966C47.0821 22.7655 46.9566 22.5488 46.7742 22.3892C46.5803 22.2353 46.5347 21.9331 46.244 21.8646C46.0501 21.6993 45.9076 21.4883 45.7023 21.3287C45.537 21.1348 45.3659 20.9353 45.155 20.7814C45.0808 20.4849 44.83 20.3708 44.5962 20.2226C44.3795 20.0687 44.2085 19.8634 44.0432 19.6639C43.8493 19.4928 43.6726 19.3047 43.4958 19.1165C43.2849 18.9683 43.1822 18.706 42.9599 18.5749C42.7375 18.4437 42.6577 18.17 42.441 18.0446C42.2358 17.9021 42.0476 17.7481 41.9336 17.5258C41.9108 17.503 41.8937 17.4802 41.8766 17.4574C41.8709 17.446 41.8538 17.4289 41.8538 17.4231V17.4118C41.8538 17.4118 41.8538 17.3718 41.8424 17.3547C41.831 17.3148 41.7968 17.2749 41.7796 17.3547C41.7625 17.3547 41.7682 17.4403 41.7796 17.4745C41.7796 17.5087 41.7968 17.5087 41.6884 17.2407C41.6884 17.2521 41.6884 17.2578 41.6884 17.2578C41.6884 17.2749 41.6656 17.235 41.6485 17.2293C41.6314 17.2179 41.6257 17.2464 41.6656 17.3205C41.5858 17.235 41.5858 17.292 41.6029 17.3376C41.62 17.3889 41.6599 17.4346 41.6542 17.4574L41.6428 17.4745V17.4859C41.6428 17.4859 41.6314 17.4859 41.6314 17.5087C41.6257 17.56 41.6143 17.6113 41.6086 17.6683C41.6029 17.771 41.6086 17.8736 41.6371 17.9762C41.7112 18.1815 41.5972 18.381 41.62 18.5749C41.7112 18.7687 41.5003 18.9626 41.6029 19.1507C41.5801 19.3389 41.6143 19.5213 41.5858 19.6981C41.8025 19.8748 41.5858 20.0516 41.563 20.2169C41.5288 20.388 41.7055 20.5476 41.5402 20.7072C41.7055 20.8669 41.563 21.0151 41.5174 21.1633C41.4718 21.3116 41.5858 21.4541 41.4946 21.591C41.6086 21.7278 41.4319 21.8589 41.4718 21.9844C41.3976 22.1098 41.4718 22.2295 41.449 22.3379C41.4775 22.4519 41.4661 22.5545 41.4262 22.6572C41.4148 22.7598 41.4091 22.851 41.3977 22.9365C41.3463 23.4611 41.2836 23.7461 41.2266 23.7461L41.2038 23.7576Z" fill="#CA534B"/>
<path d="M13.0611 20.8387C13.0896 20.8387 13.1181 21.2036 13.1524 21.9048C13.1809 22.6061 13.2094 23.6438 13.2379 24.9837C13.2436 25.4284 13.255 25.913 13.2664 26.4261C13.2835 26.9393 13.3006 27.4866 13.2892 28.0625C13.2094 28.6383 13.4374 29.2484 13.312 29.887C13.2778 30.5255 13.312 31.1926 13.3348 31.8939C13.3633 32.5952 13.2835 33.3193 13.3576 34.0776C13.5115 34.8359 13.1866 35.617 13.3804 36.4266C13.4203 37.2362 13.4089 38.0744 13.4032 38.9353C13.2835 39.7962 13.4032 40.6857 13.426 41.5979C13.2835 42.5102 13.3462 43.4509 13.4431 44.4088C13.2493 45.3723 13.2778 46.353 13.4602 47.3622C13.4659 48.3656 13.3918 49.3976 13.4773 50.4467C13.4888 51.4958 13.5287 52.5677 13.4945 53.6566C13.6256 54.7456 13.6199 55.8574 13.5059 56.9863C13.5173 57.1403 13.5287 57.1118 13.5401 57.1346C13.5515 57.1517 13.5572 57.1631 13.5686 57.1688L13.6199 57.1517H13.637H13.6484H13.6712H13.7567C13.9848 57.1517 14.2185 57.1517 14.4466 57.1517C14.9084 57.1631 15.3702 57.1916 15.8378 57.2201C17.0009 57.2999 18.1868 57.0947 19.3841 57.2087C20.5814 57.2201 21.8016 57.1745 23.0331 57.1973C24.2646 57.2543 25.5133 57.317 26.7733 57.1916C28.0333 57.1574 29.3105 57.1118 30.599 57.1859C31.8876 57.0377 33.1875 57.1004 34.4989 57.1859C35.8102 57.1631 37.1387 57.2657 38.4728 57.1859C39.1399 57.1973 39.8127 57.1859 40.4855 57.1688C40.8219 57.1631 41.1583 57.1574 41.4946 57.1574H41.7512H41.8767H41.9394C41.9394 57.1574 41.9451 57.1574 41.9508 57.1574C41.9679 57.1574 41.9964 57.1688 42.0249 57.1745C42.0249 57.1745 42.0363 57.1289 42.042 57.1061C42.042 57.1061 42.042 57.1061 42.042 57.089V57.0263V56.9008V56.65C42.0591 56.3136 42.0648 55.9772 42.0705 55.6408C42.0705 54.968 42.0648 54.2952 42.0192 53.6281V53.5426L42.0135 53.5255V53.5198V53.5027C42.0135 53.5027 41.9964 53.4856 41.9907 53.4742C41.9736 53.4742 41.9622 53.4742 41.9508 53.4742H41.6771C41.4034 53.4628 41.124 53.4571 40.8504 53.4514C40.303 53.4343 39.75 53.4229 39.2026 53.4343C37.8913 53.2917 36.5856 53.4799 35.3028 53.4343C34.0142 53.4457 32.7371 53.3545 31.4771 53.4343C30.217 53.4571 28.9684 53.4856 27.7369 53.4286C26.5053 53.6452 25.2909 53.3716 24.0879 53.4172C22.8906 53.326 21.7046 53.4286 20.5415 53.4058C20.3249 53.4115 20.1082 53.4172 19.8916 53.4115C19.5324 53.4115 19.1675 53.4001 18.8083 53.3944C18.8197 52.8869 18.8311 52.3852 18.8425 51.8778C18.8425 51.5186 18.8425 51.1651 18.814 50.8116C18.8311 49.6827 18.7456 48.5709 18.8254 47.4819C18.7171 46.3929 18.9166 45.321 18.8425 44.2719C18.8425 43.2228 18.8368 42.1909 18.8596 41.1874C19.0306 40.1839 18.8881 39.1976 18.8767 38.234C18.8938 37.2704 18.7798 36.3354 18.8938 35.4232C18.9052 34.5109 18.9793 33.6215 18.9166 32.7606C18.8938 31.8996 19.1618 31.0615 18.9394 30.2519C18.8995 29.4423 19.1105 28.6554 18.9622 27.9028C18.8254 27.1445 18.9793 26.4205 18.985 25.7192C18.9964 25.0179 19.0021 24.3508 19.0078 23.7122C19.0135 23.1934 19.0192 22.6917 19.0306 22.2127C19.0306 21.9733 19.0363 21.7395 19.042 21.5114C19.042 21.3518 19.0477 21.1921 19.0534 21.0439C18.1355 21.0268 17.3202 21.0097 16.6189 20.9926C15.8549 20.9755 15.2049 20.9584 14.6804 20.9413C13.6313 20.9071 13.0782 20.8672 13.0782 20.8329C13.0782 20.7987 13.6313 20.7588 14.6804 20.7246C15.2049 20.7075 15.8549 20.6904 16.6189 20.6733C17.0009 20.6676 17.4114 20.6562 17.8504 20.6505C18.0728 20.6505 18.2951 20.6448 18.5289 20.6391C18.8311 20.6391 19.1447 20.6334 19.4696 20.6277C19.4867 22.0987 19.5096 23.8034 19.5324 25.7192C19.5381 26.4205 19.6578 27.1445 19.5552 27.9028C19.5552 28.6611 19.6464 29.4423 19.578 30.2519C19.7319 31.0615 19.6065 31.8996 19.6008 32.7606C19.6065 33.6215 19.5609 34.5109 19.6236 35.4232C19.7148 36.3354 19.578 37.2761 19.6407 38.234C19.5438 39.1976 19.5723 40.1782 19.6578 41.1874C19.5666 42.1966 19.6806 43.2228 19.6749 44.2719C19.5324 45.321 19.6293 46.3929 19.692 47.4819C19.7433 48.5709 19.6692 49.6827 19.7034 50.8116C19.692 51.1651 19.692 51.5243 19.7034 51.8778C19.7034 52.0488 19.7034 52.2199 19.7091 52.3966L19.7205 52.4992H19.7832H19.8117H19.9087C20.1253 52.4992 20.342 52.4992 20.5586 52.4992C21.7217 52.4308 22.9077 52.408 24.105 52.4878C25.3023 52.4422 26.5224 52.4764 27.754 52.4764C28.9855 52.4194 30.2341 52.4821 31.4942 52.4707C32.7542 52.4422 34.0314 52.6247 35.3199 52.465C36.6084 52.4422 37.9084 52.4878 39.2197 52.465C39.7671 52.4707 40.3144 52.4764 40.8675 52.4878C41.1411 52.4878 41.4205 52.4878 41.6942 52.4878C42.1332 52.4878 42.5665 52.4878 43.0055 52.4764C43.0055 52.6817 43.0056 52.8869 43.0113 53.0922V53.4058L43.017 53.5483V53.6338C42.9428 54.3009 42.9257 54.9737 42.9371 55.6465C42.9371 55.9829 42.9542 56.3192 42.9713 56.6556L42.9828 56.9065V57.0319L42.9942 57.0947V57.2087C43.0056 57.528 43.0112 57.8473 43.0226 58.1666C42.5152 58.1723 42.0135 58.1837 41.5061 58.1894C41.1697 58.1894 40.8333 58.1894 40.4969 58.1894C39.8241 58.1894 39.1513 58.1723 38.4842 58.1609C37.1501 58.178 35.8216 58.1666 34.5103 58.1609C33.1989 58.2065 31.899 58.0924 30.6104 58.1609C29.3219 58.2293 28.0447 58.0867 26.7847 58.1551C25.5247 58.2008 24.276 58.2236 23.0445 58.1495C21.813 58.1495 20.5986 58.0069 19.3955 58.138C18.1982 58.1665 17.0123 58.349 15.8492 58.1266C15.3817 58.1494 14.9198 58.138 14.458 58.1209C14.23 58.1152 13.9962 58.1038 13.7681 58.0981H13.5572L13.2607 58.0924C13.0611 58.0924 12.8673 58.0924 12.6677 58.0924C12.6677 57.8986 12.6677 57.7047 12.6563 57.5052C12.6563 57.3227 12.6449 57.0719 12.6335 56.9977C12.7932 55.8688 12.6449 54.757 12.6449 53.668C12.6791 52.5791 12.7304 51.5072 12.662 50.4581C12.5879 49.409 12.7019 48.377 12.6791 47.3736C12.5879 46.3644 12.7989 45.3837 12.6962 44.4202C12.719 43.4566 12.6848 42.5216 12.7133 41.6093C12.4967 40.6971 12.7133 39.8076 12.7305 38.9467C12.7647 38.0858 12.5879 37.2476 12.7532 36.438C12.5879 35.6284 12.7304 34.8473 12.7761 34.089C12.8217 33.3364 12.7076 32.6066 12.7989 31.9053C12.6848 31.204 12.8616 30.5369 12.8217 29.8984C12.8958 29.2598 12.8217 28.6498 12.8445 28.0739C12.8217 27.498 12.8274 26.9507 12.873 26.4375C12.8844 25.9244 12.8901 25.4455 12.9015 24.9951C12.93 23.6552 12.9585 22.6175 12.987 21.9162C13.0155 21.2149 13.044 20.8501 13.0782 20.8501L13.0611 20.8387Z" fill="#CA534B"/>
<path d="M34.4418 23.9859C34.4418 24.0486 34.3221 24.1056 34.0997 24.1569C34.0655 24.1683 34.0256 24.174 33.98 24.1854C33.9401 24.2025 33.8945 24.2196 33.8432 24.2139C33.7976 24.1341 33.7463 24.3622 33.6949 24.2368C33.6436 24.2025 33.5866 24.2368 33.5296 24.2596C33.4726 24.2881 33.4099 24.2082 33.3529 24.2824C33.2901 24.4363 33.2274 24.1113 33.159 24.3052C33.0906 24.3451 33.0222 24.3337 32.9538 24.328C32.8853 24.2082 32.8112 24.328 32.7371 24.3508C32.663 24.2083 32.5831 24.271 32.5033 24.3679C32.4235 24.174 32.3437 24.2026 32.2582 24.385C32.1726 24.3907 32.0928 24.3166 32.0016 24.4021C31.9161 24.4135 31.8248 24.4534 31.7393 24.4192C31.6481 24.5503 31.5569 24.5446 31.4656 24.4306C31.3744 24.5731 31.2775 24.5161 31.1806 24.442C31.0836 24.3622 30.9867 24.5674 30.8898 24.4534C30.7929 24.442 30.6902 24.4876 30.5876 24.4648C30.485 24.4078 30.3824 24.3451 30.2797 24.4705C30.1771 24.5047 30.0688 24.5503 29.9661 24.4705C29.8578 24.6188 29.7552 24.556 29.6469 24.4705C29.5385 24.4933 29.4302 24.3907 29.3219 24.4705C29.2135 24.4477 29.0995 24.5389 28.9912 24.4705C28.8829 24.4249 28.7688 24.3793 28.6605 24.4705C28.5522 24.5674 28.4438 24.4306 28.3355 24.4705C28.2272 24.328 28.1189 24.5161 28.0162 24.4705C27.9079 24.4819 27.8053 24.3907 27.7026 24.4705C27.6 24.4933 27.4974 24.5218 27.3948 24.4648C27.2921 24.6815 27.1952 24.4078 27.0926 24.4534C26.9957 24.3622 26.8987 24.4648 26.8018 24.442C26.7049 24.4819 26.6137 24.3451 26.5167 24.4306C26.4255 24.4135 26.3343 24.499 26.243 24.4192C26.1518 24.5275 26.0663 24.328 25.9808 24.4021C25.8953 24.4021 25.8097 24.4078 25.7242 24.385C25.6387 24.214 25.5589 24.3565 25.479 24.3679C25.3992 24.3508 25.3251 24.4648 25.2453 24.3508C25.1712 24.3394 25.097 24.2653 25.0286 24.328C24.9545 24.3508 24.8861 24.0828 24.8234 24.3052C24.755 24.3451 24.6922 24.1341 24.6295 24.2824C24.5668 24.4192 24.5098 24.2653 24.4471 24.2596C24.3901 24.2539 24.333 24.2425 24.2817 24.2368C23.8085 24.1626 23.5405 24.0771 23.5405 23.9859C23.5405 23.8833 23.8769 23.792 24.4471 23.7122C24.5041 23.7065 24.5668 23.5868 24.6295 23.6894C24.6922 23.6894 24.755 23.5982 24.8234 23.6666C24.8918 23.5127 24.9602 23.6381 25.0286 23.6438C25.097 23.6381 25.1712 23.6894 25.2453 23.621C25.3194 23.5298 25.3992 23.6666 25.479 23.6039C25.5589 23.7008 25.6387 23.6723 25.7242 23.5868C25.804 23.6837 25.8896 23.5697 25.9808 23.5697C26.0663 23.7122 26.1575 23.6096 26.243 23.5526C26.3343 23.5013 26.4255 23.5754 26.5167 23.5412C26.6079 23.5697 26.7049 23.507 26.8018 23.5298C26.8987 23.4614 26.9957 23.4385 27.0926 23.5184C27.1895 23.4727 27.2921 23.507 27.3948 23.507C27.4974 23.4499 27.6 23.5127 27.7026 23.5013C27.8053 23.4727 27.9136 23.6552 28.0162 23.4956C28.1246 23.4728 28.2272 23.5184 28.3355 23.4956C28.4438 23.5184 28.5522 23.5355 28.6605 23.4956C28.7688 23.6552 28.8829 23.5583 28.9912 23.4956C29.1052 23.45 29.2135 23.4728 29.3219 23.4956C29.4302 23.4785 29.5385 23.4899 29.6469 23.4956C29.7552 23.45 29.8635 23.564 29.9661 23.4956C30.0745 23.4271 30.1771 23.5697 30.2797 23.5013C30.3824 23.4556 30.485 23.4328 30.5876 23.507C30.6902 23.507 30.7872 23.6495 30.8898 23.5184C30.9867 23.4898 31.0836 23.3074 31.1806 23.5298C31.2775 23.4728 31.3687 23.6381 31.4656 23.5412C31.5569 23.7008 31.6481 23.5469 31.7393 23.5526C31.8306 23.5811 31.9161 23.6381 32.0016 23.5697C32.0871 23.4955 32.1726 23.6096 32.2582 23.5868C32.338 23.4955 32.4235 23.7065 32.5033 23.6039C32.5831 23.6267 32.6573 23.5925 32.7371 23.621C32.8112 23.4043 32.8853 23.621 32.9538 23.6438C33.0222 23.6723 33.0963 23.5013 33.159 23.6666C33.2274 23.5013 33.2901 23.6438 33.3529 23.6894C33.4156 23.735 33.4726 23.621 33.5296 23.7122C33.5866 23.5982 33.6436 23.7749 33.6949 23.735C33.7463 23.8091 33.7976 23.735 33.8432 23.7578C33.8888 23.7293 33.9344 23.7407 33.98 23.7806C34.0199 23.7863 34.0598 23.7977 34.0997 23.8091C34.3221 23.8605 34.4418 23.9175 34.4418 23.9802V23.9859Z" fill="#CA534B"/>
<path d="M34.4418 19.3789C34.4418 19.4416 34.3221 19.4986 34.0997 19.5499C34.0655 19.5613 34.0256 19.567 33.98 19.5784C33.9401 19.5955 33.8945 19.6126 33.8432 19.6069C33.7976 19.5271 33.7463 19.7552 33.6949 19.6297C33.6436 19.5955 33.5866 19.6297 33.5296 19.6525C33.4726 19.681 33.4099 19.6012 33.3529 19.6754C33.2901 19.8293 33.2274 19.5043 33.159 19.6982C33.0906 19.7381 33.0222 19.7267 32.9538 19.721C32.8853 19.6012 32.8112 19.721 32.7371 19.7381C32.663 19.5955 32.5831 19.6582 32.5033 19.7552C32.4235 19.5613 32.3437 19.5898 32.2582 19.7723C32.1726 19.778 32.0928 19.7039 32.0016 19.7894C31.9161 19.8008 31.8248 19.8407 31.7393 19.8065C31.6481 19.9376 31.5569 19.9319 31.4656 19.8179C31.3744 19.9604 31.2775 19.9034 31.1806 19.8293C31.0836 19.7495 30.9867 19.9547 30.8898 19.8407C30.7929 19.8293 30.6902 19.8749 30.5876 19.8521C30.485 19.7951 30.3824 19.7324 30.2797 19.8578C30.1771 19.892 30.0688 19.9376 29.9661 19.8635C29.8578 20.0117 29.7552 19.949 29.6469 19.8635C29.5385 19.8863 29.4302 19.7837 29.3219 19.8635C29.2135 19.8407 29.0995 19.9319 28.9912 19.8635C28.8829 19.8179 28.7688 19.7723 28.6605 19.8635C28.5522 19.9604 28.4438 19.8236 28.3355 19.8635C28.2272 19.721 28.1189 19.9091 28.0162 19.8635C27.9079 19.8749 27.8053 19.7837 27.7026 19.8578C27.6 19.8863 27.4974 19.9091 27.3948 19.8521C27.2921 20.0688 27.1952 19.7951 27.0926 19.8407C26.9957 19.7495 26.8987 19.8521 26.8018 19.8293C26.7049 19.8692 26.6137 19.7324 26.5167 19.8179C26.4255 19.8008 26.3343 19.8863 26.243 19.8065C26.1518 19.9148 26.0663 19.7153 25.9808 19.7894C25.8953 19.7894 25.8097 19.7951 25.7242 19.7723C25.6387 19.6012 25.5589 19.7438 25.479 19.7552C25.3992 19.7381 25.3251 19.8521 25.2453 19.7381C25.1712 19.7267 25.097 19.6525 25.0286 19.721C24.9545 19.7438 24.8861 19.4758 24.8234 19.6982C24.755 19.7381 24.6922 19.5271 24.6295 19.6754C24.5668 19.8122 24.5098 19.6582 24.4471 19.6525C24.3901 19.6468 24.333 19.6354 24.2817 19.6297C23.8085 19.5556 23.5405 19.4701 23.5405 19.3789C23.5405 19.2762 23.8769 19.185 24.4471 19.1052C24.5041 19.0995 24.5668 18.9798 24.6295 19.0824C24.6922 19.0824 24.755 18.9912 24.8234 19.0596C24.8918 18.9056 24.9602 19.0311 25.0286 19.0368C25.097 19.0311 25.1712 19.0824 25.2453 19.0197C25.3194 18.9285 25.3992 19.0653 25.479 19.0026C25.5589 19.0995 25.6387 19.071 25.7242 18.9855C25.804 19.0824 25.8896 18.9684 25.9808 18.9684C26.0663 19.1109 26.1575 19.0083 26.243 18.9513C26.3343 18.8999 26.4255 18.9741 26.5167 18.9398C26.6079 18.9684 26.7049 18.9056 26.8018 18.9285C26.8987 18.86 26.9957 18.8372 27.0926 18.917C27.1895 18.8714 27.2921 18.9056 27.3948 18.9056C27.4974 18.8486 27.6 18.9113 27.7026 18.8999C27.8053 18.8714 27.9136 19.0539 28.0162 18.8942C28.1246 18.8714 28.2272 18.9171 28.3355 18.8942C28.4438 18.9171 28.5522 18.9342 28.6605 18.8942C28.7688 19.0539 28.8829 18.957 28.9912 18.8942C29.1052 18.8486 29.2135 18.8714 29.3219 18.8942C29.4302 18.8771 29.5385 18.8885 29.6469 18.8942C29.7552 18.8486 29.8635 18.9627 29.9661 18.8942C30.0745 18.8258 30.1771 18.9684 30.2797 18.8999C30.3824 18.8543 30.485 18.8315 30.5876 18.9056C30.6902 18.9056 30.7872 19.0482 30.8898 18.917C30.9867 18.8885 31.0836 18.7061 31.1806 18.9285C31.2775 18.8714 31.3687 19.0311 31.4656 18.9398C31.5569 19.0995 31.6481 18.9456 31.7393 18.9513C31.8306 18.9798 31.9161 19.0368 32.0016 18.9684C32.0871 18.8942 32.1726 19.0083 32.2582 18.9855C32.338 18.8942 32.4235 19.1052 32.5033 19.0026C32.5831 19.0254 32.6573 18.9912 32.7371 19.0197C32.8112 18.803 32.8853 19.0197 32.9538 19.0368C33.0222 19.071 33.0963 18.8942 33.159 19.0596C33.2274 18.8942 33.2901 19.0368 33.3529 19.0824C33.4156 19.128 33.4726 19.014 33.5296 19.1052C33.5866 18.9912 33.6436 19.1679 33.6949 19.128C33.7463 19.2021 33.7976 19.128 33.8432 19.1508C33.8888 19.1223 33.9344 19.1337 33.98 19.1736C34.0199 19.185 34.0598 19.1907 34.0997 19.2021C34.3221 19.2534 34.4418 19.3162 34.4418 19.3732V19.3789Z" fill="#CA534B"/>
<path d="M56.4269 21.0208C56.4782 21.0494 56.1988 21.6594 55.6343 22.7427C55.5374 22.9252 55.4405 23.119 55.3322 23.3243C55.2295 23.5352 55.1212 23.7576 54.9787 23.9799C54.7791 24.1681 54.8361 24.5216 54.5853 24.7097C54.4085 24.9435 54.2831 25.2229 54.1519 25.5137C54.0151 25.8044 53.7813 26.0496 53.6787 26.386C53.6388 26.7623 53.177 26.9048 53.1656 27.321C53.0173 27.6631 52.8178 27.9881 52.6125 28.3188C52.316 28.5982 52.2134 29.0087 52.0253 29.3793C51.6946 29.6701 51.5349 30.0692 51.4038 30.4968C51.0161 30.7762 50.8166 31.181 50.7481 31.6713C50.5258 32.0704 50.2236 32.441 50.0583 32.8971C49.8302 33.3191 49.6192 33.7581 49.3399 34.1686C49.203 34.6646 48.9465 35.0979 48.593 35.4913C48.4561 36.0045 48.1482 36.4321 47.8175 36.854C47.4869 37.2759 47.3899 37.8404 47.0193 38.2566C46.9281 38.4105 46.8369 38.5759 46.7457 38.7355C46.7 38.8153 46.6601 38.8951 46.6145 38.9807L46.5461 39.1004L46.5347 39.1175V39.1346V39.1745L46.5176 39.3114C46.5062 39.4026 46.4948 39.4938 46.4834 39.5907C46.3637 40.1438 46.2382 40.6968 46.3066 41.2841C46.2781 41.8599 46.2667 42.4415 46.1242 43.0173C46.1698 43.3195 46.1584 43.6103 46.1185 43.9068C46.0957 44.055 46.0729 44.1976 46.0387 44.3458L46.0273 44.4028V44.4313C46.0273 44.4313 46.0159 44.4541 46.0159 44.4484C46.0159 44.4484 46.0102 44.4484 46.0045 44.4598C45.9931 44.4712 45.9817 44.4826 45.9703 44.494C45.9703 44.5111 45.9703 44.534 45.9589 44.5682C45.9475 44.5967 45.9361 44.6423 45.9246 44.6822C45.9532 44.6822 46.0216 44.6309 46.0558 44.5568C46.0672 44.5568 46.0729 44.5453 46.0843 44.5396L46.0957 44.5283H46.1014L46.1413 44.494C46.261 44.3971 46.3808 44.3059 46.5005 44.209C46.74 44.0208 46.9851 43.8327 47.2531 43.6787C47.7776 43.348 48.2965 43.0231 48.7355 42.5954C49.1688 42.1564 49.739 41.9112 50.1951 41.5292C50.2521 41.5064 50.3034 41.4779 50.3547 41.4494L50.3946 41.4266H50.406V41.4209C50.406 41.4209 50.4174 41.4209 50.4289 41.4152C50.4289 41.4323 50.5144 41.2784 50.56 41.1815C50.6113 41.0731 50.6626 40.9648 50.7139 40.8622C50.8166 40.6455 50.9192 40.4346 51.0503 40.2407C51.3297 39.7276 51.706 39.2714 51.9284 38.7355C52.1906 38.2281 52.4529 37.7206 52.7836 37.2645C52.8748 36.6716 53.3879 36.3295 53.6217 35.8334C53.9752 35.4058 54.1519 34.887 54.437 34.4422C54.6651 33.9633 55.0471 33.5813 55.2295 33.091C55.5032 32.6577 55.6799 32.173 55.9992 31.7853C56.1532 31.3007 56.5694 30.9757 56.7404 30.5253C56.9799 30.1091 57.208 29.7043 57.4531 29.3166C57.8294 29.003 57.9321 28.5469 58.1373 28.1592C58.3711 27.7886 58.4851 27.361 58.793 27.0588C59.0096 26.7053 59.2776 26.3917 59.4144 26.0154C59.5912 25.6619 60.0131 25.468 60.0017 25.0347C60.1499 24.6983 60.5148 24.4931 60.5548 24.1168C60.5548 24.1054 60.5548 24.0883 60.5548 24.0826V24.0598C60.5548 24.0598 60.5548 24.037 60.5548 24.0256C60.5548 24.0028 60.5605 23.9857 60.5719 23.9685C60.589 23.9343 60.6232 23.9001 60.6688 23.8602C60.6517 23.8203 60.6175 23.7747 60.5548 23.7348L60.5034 23.7006L60.4236 23.6493C60.3552 23.6094 60.2925 23.5694 60.2241 23.5295C60.0929 23.4497 59.9675 23.3699 59.8421 23.2958C57.6128 21.9217 56.3584 21.095 56.404 21.0208C56.4268 20.9752 56.8545 21.1691 57.6242 21.5568C58.0062 21.7506 58.4794 21.9958 59.0267 22.2923C59.3004 22.4405 59.5969 22.5945 59.9048 22.7655C60.0587 22.851 60.2241 22.9366 60.3894 23.0278C60.4692 23.0734 60.5548 23.119 60.6403 23.1646C60.7486 23.2273 60.8626 23.2844 60.971 23.3471C61.142 23.4383 61.3359 23.5295 61.5411 23.6265C61.4841 23.7519 61.4157 23.8887 61.3359 24.0313C61.296 24.0997 61.2503 24.1681 61.2047 24.2365C61.1819 24.2707 61.1591 24.3049 61.1306 24.3334L61.0907 24.3791C61.0907 24.3791 61.0736 24.4019 61.0622 24.4076C60.8911 24.704 60.7885 25.0575 60.5491 25.3426C60.4977 25.7417 60.2013 26.0097 59.996 26.3404C59.8079 26.6825 59.5627 27.0075 59.4088 27.4009C59.2776 27.8057 58.9469 28.1079 58.7873 28.5184C58.4851 28.8491 58.2855 29.2482 58.1316 29.6929C57.8237 30.0407 57.6869 30.5025 57.4417 30.9187C57.0768 31.2608 56.9229 31.734 56.7233 32.1902C56.5238 32.6463 56.2045 33.0454 55.9764 33.5129C55.6971 33.9462 55.4918 34.4309 55.201 34.8756C54.9958 35.3659 54.7506 35.8505 54.4028 36.2781C54.1691 36.7742 53.8612 37.236 53.5818 37.7206C53.3537 38.2338 53.0116 38.6956 52.738 39.1973C52.4757 39.7105 52.0253 40.121 51.8713 40.7082C51.763 40.9135 51.6376 41.1187 51.5178 41.324C51.4551 41.4266 51.3981 41.5293 51.3354 41.6319C51.267 41.7459 51.2385 41.7972 51.1016 42.031L50.8793 42.1963L50.7424 42.3047C50.2464 42.641 49.7504 42.9774 49.2828 43.3765C48.7013 43.6103 48.2623 44.0493 47.8004 44.4598C47.5667 44.6594 47.3215 44.8475 47.0706 45.0243C46.7228 45.2694 46.3751 45.5146 46.0273 45.7541C45.5826 46.0905 45.1321 46.4212 44.6931 46.7404C44.7615 46.1475 44.8299 45.5602 44.8927 44.973C44.8984 44.8361 44.9155 44.6993 44.9269 44.5568L44.9497 44.3458L44.9668 44.2261C44.9839 44.0778 45.0124 43.9296 45.0352 43.7871C45.0808 43.4963 45.1264 43.1998 45.1264 42.909C45.1264 42.3218 45.3203 41.7573 45.3203 41.1815C45.3374 40.6056 45.3716 40.0412 45.5084 39.4881C45.5198 39.3969 45.5312 39.3057 45.5483 39.2087L45.5711 39.0719L45.6053 38.8381L45.7308 38.6443L45.8106 38.5303C45.8619 38.4504 45.9132 38.3763 45.9589 38.2965C46.0501 38.1368 46.1299 37.9715 46.1812 37.7948C46.4264 37.3044 46.5404 36.7514 46.9965 36.4036C47.2132 35.9189 47.6123 35.5426 47.789 35.0523C48.1824 34.6874 48.3079 34.1743 48.5587 33.7467C48.8324 33.3305 49.1232 32.937 49.2999 32.4866C49.471 32.0362 49.8074 31.6884 50.0126 31.2779C50.1609 30.8332 50.5714 30.5538 50.6968 30.1205C50.9306 29.7499 51.1187 29.3622 51.3525 29.0201C51.3753 28.5526 51.763 28.3074 51.974 27.9767C52.1963 27.6517 52.2362 27.2355 52.5612 26.9961C52.6068 26.5969 52.9033 26.3575 53.1143 26.0781C53.3252 25.8044 53.3936 25.4566 53.6331 25.2286C53.6901 24.8979 53.998 24.7211 54.112 24.4475C54.323 24.2308 54.3971 23.9571 54.551 23.7405C54.6594 23.501 54.7905 23.2901 54.9444 23.1076C55.0699 22.9081 55.1839 22.7256 55.2923 22.5546C55.9479 21.5226 56.3299 20.9752 56.3812 21.0037L56.4269 21.0208Z" fill="#CA534B"/>
<path d="M56.427 21.0209C56.4784 21.0494 56.4384 21.2376 56.3187 21.5569C56.2959 21.6082 56.2788 21.6652 56.2503 21.7279C56.2332 21.7907 56.2104 21.8591 56.1705 21.9161C56.0679 21.9389 56.2275 22.1213 56.0793 22.127C56.0108 22.1783 55.9937 22.2696 55.9766 22.3551C55.9595 22.4463 55.8455 22.4862 55.8626 22.6003C55.9481 22.7599 55.6174 22.6801 55.7372 22.8625C55.7258 22.9709 55.663 23.0564 55.6003 23.1419C55.5889 23.1419 55.5832 23.1419 55.5718 23.1476C55.5661 23.1476 55.5604 23.1476 55.5547 23.1476C55.5433 23.1476 55.5376 23.1476 55.5319 23.159C55.5205 23.1704 55.5148 23.1818 55.5205 23.1989C55.5205 23.2274 55.549 23.2559 55.549 23.273C55.4122 23.3016 55.3837 23.3586 55.4293 23.3757C55.4692 23.3757 55.5091 23.3757 55.5547 23.3643C55.3552 23.4726 55.5262 23.541 55.6801 23.4156C55.6915 23.4156 55.6973 23.427 55.703 23.4384C55.7201 23.4555 55.7486 23.4783 55.7771 23.4954C55.8284 23.5353 55.8854 23.5638 55.9652 23.5581C56.085 23.6151 56.2218 23.6493 56.3187 23.7463C56.5012 23.7006 56.6209 23.7748 56.6836 23.9401C56.8775 23.8888 56.9744 24.0085 57.0599 24.1454C57.1454 24.2879 57.3735 24.1853 57.4476 24.3563C57.5731 24.4362 57.727 24.4818 57.8467 24.5787C57.9493 24.7041 58.052 24.841 58.2515 24.8068C58.4055 24.8524 58.5651 24.8923 58.6677 25.0405C58.8787 24.9892 58.987 25.1317 59.0897 25.28C59.1695 25.3085 59.2265 25.3712 59.2949 25.4225C59.3291 25.451 59.3633 25.4738 59.3975 25.4909C59.4146 25.5023 59.4374 25.508 59.4546 25.5137C59.4546 25.5137 59.466 25.508 59.4717 25.4966C59.4774 25.5137 59.4945 25.5023 59.5059 25.4966C59.5173 25.4909 59.5173 25.4795 59.5344 25.5308C59.5344 25.5308 59.5686 25.5594 59.58 25.5479C59.5914 25.5365 59.5971 25.5023 59.5686 25.4681C59.5629 25.4624 59.5572 25.451 59.5515 25.4453C59.5515 25.4282 59.5629 25.4054 59.5743 25.3883C59.5914 25.3541 59.6199 25.3199 59.6484 25.2857C59.7054 25.223 59.7681 25.1659 59.7909 25.0861C59.9962 25.012 59.9164 24.7782 60.0361 24.6642C60.1045 24.516 60.2642 24.4305 60.2813 24.2537C60.3098 24.1796 60.3383 24.1055 60.3725 24.037C60.4238 23.9401 60.4124 23.9743 60.458 23.9629C60.3668 23.9287 60.3611 23.9401 60.3953 23.9344C60.4295 23.9344 60.5036 23.9059 60.515 23.8945C60.515 23.8945 60.5093 23.8945 60.4979 23.8945C60.5436 23.866 60.515 23.8546 60.4865 23.8546C60.458 23.8546 60.4295 23.8546 60.4238 23.8432C60.4181 23.8432 60.4124 23.8432 60.4067 23.8432L60.3782 23.8204C60.3782 23.8204 60.3269 23.7691 60.2984 23.7406C60.2471 23.6893 60.19 23.6436 60.1102 23.6436C59.9962 23.5581 59.8366 23.5638 59.7567 23.4213C59.5857 23.4441 59.5686 23.2103 59.4203 23.2103C59.3063 23.1419 59.1923 23.0849 59.0954 23.0051C59.0725 22.7941 58.8958 22.8568 58.7875 22.8055C58.6906 22.7314 58.5366 22.7713 58.491 22.6117C58.3998 22.5432 58.3428 22.4235 58.2116 22.4292C58.1033 22.395 58.1489 22.1099 57.9494 22.2525C57.841 22.2354 57.8638 22.0016 57.7042 22.0871C57.5502 22.1613 57.5502 21.9788 57.4818 21.9332C57.4134 21.8819 57.345 21.8363 57.2766 21.785C56.6893 21.363 56.3814 21.0837 56.4213 21.0038C56.4726 20.9183 56.9573 21.0894 57.7498 21.46C57.8296 21.4942 57.9665 21.4371 57.995 21.574C58.0748 21.6196 58.2059 21.5911 58.2572 21.6994C58.4226 21.6139 58.4511 21.7792 58.5366 21.8363C58.6335 21.8819 58.702 21.9845 58.8331 21.9845C58.9756 21.9617 59.0098 22.1384 59.1467 22.1441C59.2037 22.2867 59.3234 22.3266 59.4774 22.3152C59.5401 22.4577 59.7054 22.4235 59.8195 22.4919C59.8594 22.6801 60.0247 22.663 60.1729 22.6801C60.3155 22.7029 60.401 22.834 60.5378 22.8739C60.5892 22.9195 60.6576 22.9481 60.726 22.9766C60.7602 22.988 60.7944 23.0051 60.8229 23.0222L60.8457 23.0336L60.8856 23.0564C60.9141 23.0735 60.9427 23.0906 60.9712 23.1077C61.2391 23.1818 61.547 23.3301 61.6781 23.5068C61.7067 23.5182 61.7352 23.5296 61.7637 23.541C61.6725 23.752 61.5071 23.98 61.3817 24.1967C61.3418 24.3221 61.2448 24.4875 61.2163 24.5217C61.1707 24.5844 61.1194 24.6471 61.0909 24.7212C61.0396 24.8752 60.8001 24.9208 60.8571 25.1374C60.7944 25.2857 60.6747 25.4054 60.6177 25.5594C60.5664 25.6278 60.515 25.6905 60.4751 25.7589C60.4523 25.7931 60.4352 25.833 60.4181 25.8672C60.3953 25.9242 60.3725 25.9756 60.344 26.0326C60.2014 26.1181 60.1273 26.2207 60.0589 26.3633C59.9962 26.5001 59.9392 26.6769 59.8708 26.8536C59.6085 26.751 59.3063 26.5514 59.0497 26.3804C58.9984 26.3519 58.9414 26.3234 58.8901 26.2948C58.8559 26.2777 58.816 26.2549 58.7818 26.2321C58.7134 26.1922 58.6449 26.1466 58.5765 26.101C58.4112 26.0611 58.3314 25.8786 58.1603 25.8558C57.9893 25.833 57.9208 25.6335 57.7498 25.6107C57.5902 25.5708 57.4419 25.5137 57.3507 25.3712C57.2196 25.2914 57.1568 25.0918 56.963 25.1374C56.8204 25.0861 56.6038 25.1716 56.5867 24.9094C56.4327 24.8866 56.3871 24.6756 56.2218 24.6813C56.1819 24.4704 55.9823 24.5331 55.8683 24.459C55.7657 24.362 55.6801 24.248 55.5262 24.2423C55.4521 24.2423 55.4008 24.2024 55.3552 24.1568C55.3323 24.134 55.3095 24.1112 55.281 24.0827C55.2354 24.0485 55.1955 24.0199 55.1442 23.9971C55.0188 23.98 54.9389 23.9002 54.8819 23.8318C54.8192 23.7634 54.7679 23.7007 54.6197 23.6778C54.5798 23.6493 54.5341 23.6208 54.4885 23.5923C54.5569 23.4726 54.6139 23.3472 54.7109 23.2274C54.6368 23.1419 54.6938 23.0393 54.7736 22.9652C54.8135 22.9252 54.8591 22.891 54.899 22.8625C54.9218 22.8454 54.939 22.834 54.9561 22.8169C54.9675 22.8112 54.9731 22.7998 54.9788 22.7941C54.9845 22.7884 54.9903 22.7827 54.996 22.777C55.0758 22.6972 54.9789 22.5204 55.167 22.5147C55.0758 22.3437 55.2468 22.3323 55.3324 22.2696C55.4179 22.2126 55.3666 22.0757 55.4863 22.0472C55.4293 21.9161 55.6288 21.9332 55.6345 21.842C55.7372 21.8134 55.7144 21.7108 55.7714 21.6595C55.7828 21.5854 55.8284 21.5284 55.8968 21.4942C55.9367 21.4429 55.9709 21.3972 56.0108 21.3516C56.2218 21.0894 56.3643 20.9582 56.4156 20.9924L56.427 21.0209Z" fill="#CA534B"/>
<path d="M50.7711 41.7001C50.7426 41.7514 50.5317 41.7001 50.1725 41.5518C50.1155 41.529 50.0471 41.5005 49.9843 41.472C49.9159 41.4492 49.8361 41.4264 49.7677 41.3751C49.7392 41.2668 49.5453 41.4207 49.5282 41.2668C49.4655 41.1926 49.3686 41.1698 49.2716 41.147C49.169 41.1185 49.1234 41.0045 48.9923 41.0102C48.8212 41.09 48.8896 40.7536 48.6901 40.8619C48.5703 40.8391 48.4734 40.7707 48.3708 40.7023C48.3252 40.537 48.1541 40.5769 48.0344 40.5313C47.9945 40.3431 47.8463 40.3317 47.6809 40.3488C47.6581 40.1094 47.527 40.0694 47.3103 40.1549C47.1849 40.0865 47.0937 39.9497 46.9226 39.9497C46.8542 39.9212 46.7858 39.887 46.7116 39.8585C46.6774 39.8414 46.6432 39.8243 46.609 39.8072C46.5976 39.7958 46.5919 39.7901 46.5862 39.7787C46.5064 39.887 46.5634 39.9098 46.4836 39.733C46.5007 39.8357 46.5121 39.8642 46.495 39.83C46.4836 39.8186 46.4608 39.7844 46.4323 39.7616C46.3981 39.7331 46.4209 39.7958 46.4437 39.83C46.4665 39.8699 46.4893 39.8813 46.4323 39.8756C46.4323 39.8813 46.4323 39.8927 46.4323 39.8984V39.9383V40.001C46.4323 40.0865 46.4209 40.1721 46.4038 40.2633C46.3297 40.4286 46.2441 40.5997 46.3525 40.7935C46.3696 40.976 46.3981 41.1584 46.3011 41.3352C46.4323 41.5347 46.3468 41.7115 46.2441 41.8882C46.2441 42.0764 46.1244 42.2531 46.1871 42.4527C46.1415 42.6408 46.2099 42.8404 46.1244 43.0228C46.0617 43.211 45.9933 43.3934 46.0617 43.593C46.1358 43.7925 45.9818 43.9636 45.999 44.1517C45.9191 44.2372 45.9191 44.3285 45.9362 44.4254C45.9362 44.4254 45.9362 44.4368 45.9362 44.4425L45.942 44.4539L45.9591 44.4653C45.9591 44.4653 45.9705 44.4767 45.9591 44.4881C45.9648 44.4995 45.942 44.5223 45.9248 44.5508C45.9077 44.5793 45.902 44.6135 45.942 44.5793C45.9648 44.5793 45.9933 44.5394 45.942 44.6421L45.9305 44.6706C46.0674 44.4368 46.0332 44.4767 46.0161 44.5337C45.9933 44.5965 45.9762 44.6763 46.0047 44.625C46.0047 44.682 46.0275 44.6592 46.0446 44.6364C46.0617 44.6079 46.0731 44.5793 46.0902 44.5793C46.0902 44.5622 46.1016 44.5622 46.113 44.5622C46.1244 44.5622 46.1244 44.5736 46.1757 44.5508C46.2498 44.5166 46.3239 44.4824 46.3639 44.3969C46.5064 44.3171 46.5805 44.1517 46.7516 44.1289C46.8143 43.9522 47.0537 44.0206 47.1279 43.8724C47.2476 43.7868 47.3616 43.6899 47.4928 43.6272C47.7094 43.6785 47.7379 43.4847 47.8406 43.3934C47.9603 43.325 48.0002 43.1597 48.1769 43.1711C48.291 43.1026 48.4335 43.0912 48.4962 42.9658C48.5817 42.8746 48.8383 43.0228 48.7984 42.772C48.8668 42.6693 49.0835 42.772 49.0835 42.5895C49.0835 42.4128 49.2659 42.4812 49.3458 42.4242C49.4313 42.3728 49.5111 42.3215 49.5909 42.2759C50.2922 41.854 50.7255 41.6431 50.7768 41.7172C50.8339 41.797 50.4233 42.2132 49.6707 42.8632C49.5966 42.9259 49.5795 43.0855 49.4313 43.0627C49.3458 43.1254 49.3058 43.2623 49.1747 43.2794C49.1747 43.4732 49.0037 43.439 48.901 43.5074C48.8098 43.5873 48.673 43.6215 48.6046 43.7469C48.5532 43.8952 48.3651 43.8667 48.291 43.9978C48.1256 43.9978 48.0287 44.1061 47.9603 44.2601C47.7892 44.2715 47.7379 44.4482 47.6182 44.5337C47.4129 44.5052 47.3502 44.6763 47.259 44.8131C47.1621 44.9499 46.991 44.9785 46.8827 45.1039C46.8086 45.1381 46.7516 45.1951 46.6889 45.2521C46.6717 45.2692 46.6033 45.3262 46.5406 45.3719C46.4836 45.4175 46.4209 45.4631 46.3582 45.4973C46.1415 45.7425 45.8393 45.9933 45.617 46.0503C45.4801 46.1758 45.349 46.2784 45.2178 46.3696C45.0924 46.4609 44.967 46.535 44.8415 46.6319C44.8073 46.6661 44.7731 46.6946 44.7446 46.7231C44.7446 46.6091 44.7617 46.4494 44.7902 46.2898C44.813 46.1302 44.8416 45.9705 44.8473 45.828C44.8473 45.6797 44.91 45.4688 44.9499 45.292C44.9898 45.1096 45.0126 44.967 44.9499 44.8302C44.9499 44.7447 44.9613 44.6592 44.9727 44.5736C44.9841 44.4938 44.9955 44.4083 45.0069 44.3285C45.024 44.2372 45.0354 44.146 45.0297 44.0491C45.0696 43.8667 45.1095 43.6785 45.0867 43.4903C45.2635 43.3193 45.1893 43.1197 45.1494 42.9202C45.1266 42.7263 45.1665 42.5382 45.2122 42.35C45.2122 42.1619 45.2464 41.9738 45.2749 41.7913C45.2464 41.6032 45.3832 41.4264 45.3376 41.2383C45.292 41.0501 45.4459 40.8848 45.4003 40.6966C45.3718 40.5142 45.3661 40.3374 45.463 40.1664C45.4744 40.0808 45.5143 39.9953 45.5428 39.9098C45.5485 39.887 45.5542 39.8699 45.5599 39.8471C45.5599 39.8357 45.5599 39.8243 45.5599 39.8129C45.5599 39.7958 45.5599 39.7787 45.5599 39.7559C45.5599 39.6817 45.56 39.6019 45.5314 39.5164C45.5314 39.3567 45.5029 39.1686 45.5029 38.9804C45.5029 38.798 45.5314 38.6212 45.6398 38.6098C45.6341 38.4559 45.6569 38.3476 45.6854 38.2563C45.8564 38.3875 46.0104 38.5129 46.1301 38.5186C46.284 38.7011 46.3867 38.7638 46.5007 38.8094C46.6147 38.855 46.7402 38.8835 46.8599 38.9576C46.9112 38.9976 46.9682 39.0375 47.0195 39.0774C47.048 39.1059 47.0766 39.1287 47.1108 39.1515C47.1735 39.1971 47.2419 39.2313 47.3217 39.237C47.4871 39.2427 47.5555 39.4195 47.6923 39.4708C47.8634 39.4651 47.8805 39.7159 48.0458 39.6988C48.1541 39.7844 48.2853 39.8243 48.3822 39.9155C48.6046 39.7958 48.6046 40.0466 48.7015 40.1207C48.7927 40.212 48.9809 40.1207 48.998 40.3203C49.1804 40.2348 49.2032 40.4172 49.2773 40.5085C49.3458 40.6054 49.494 40.5541 49.5339 40.6852C49.6764 40.6339 49.6707 40.8391 49.7677 40.8505C49.8076 40.9646 49.9216 40.9418 49.9786 41.0045C50.0641 41.0216 50.1269 41.0672 50.1668 41.1413C50.2238 41.1869 50.2808 41.2268 50.3321 41.2668C50.6343 41.5005 50.7882 41.6602 50.7597 41.7115L50.7711 41.7001Z" fill="#CA534B"/>
<path d="M48.6103 43.2853C48.5761 43.3309 48.4392 43.3081 48.2226 43.2226C48.1884 43.2055 48.1484 43.1941 48.1085 43.177C48.0629 43.1655 48.0173 43.1541 47.9831 43.1199C47.9831 43.023 47.8178 43.1884 47.8463 43.0515C47.8235 42.9888 47.755 42.9888 47.6923 42.9831C47.6296 42.9774 47.6182 42.8805 47.527 42.909C47.3901 43.0059 47.5042 42.6923 47.3502 42.8235C47.2704 42.8235 47.2191 42.7778 47.1621 42.7322C47.1621 42.5897 47.0366 42.6581 46.9568 42.641C46.9568 42.4814 46.8599 42.4985 46.7402 42.5441C46.763 42.3331 46.6717 42.3217 46.5178 42.4415C46.4779 42.4243 46.4494 42.3901 46.4152 42.3616C46.3981 42.3502 46.381 42.3388 46.3639 42.3331C46.3525 42.3331 46.3411 42.3445 46.3297 42.3616C46.3011 42.3616 46.284 42.3958 46.2612 42.3445C46.2555 42.4871 46.284 42.4928 46.1985 42.3331C46.227 42.4243 46.2441 42.4529 46.2327 42.4472C46.2213 42.4358 46.1985 42.3958 46.1643 42.3616C46.1301 42.3217 46.1529 42.3787 46.1757 42.4129C46.1985 42.4529 46.2213 42.47 46.1643 42.4357C46.1529 42.4528 46.1928 42.4871 46.1643 42.4985C46.1586 42.4985 46.1472 42.4985 46.1415 42.4985H46.1301C46.1301 42.4985 46.1244 42.5099 46.1187 42.5156C46.1016 42.5384 46.0902 42.5669 46.0845 42.5897C46.0731 42.641 46.0845 42.698 46.1415 42.755C46.1643 42.8691 46.1985 42.9774 46.113 43.08C46.2498 43.2055 46.17 43.3081 46.0845 43.4107C46.0959 43.5247 45.9762 43.6274 46.0503 43.7471C46.0161 43.8554 46.0902 43.9809 46.0161 44.0892C45.959 44.1975 45.902 44.3115 45.9762 44.4313C45.999 44.4484 46.0104 44.4427 46.0104 44.4484C46.0104 44.4484 46.0047 44.4484 45.9933 44.4598C45.9762 44.4655 45.9476 44.4883 45.9648 44.4883C45.8906 44.5339 45.902 44.5453 45.9249 44.5396C45.9477 44.5396 45.9876 44.5054 45.9534 44.5396C45.9591 44.5396 45.9363 44.5738 45.9191 44.6023C45.902 44.6308 45.8963 44.6536 45.942 44.6023C45.9705 44.5852 45.999 44.5339 45.942 44.6365C45.942 44.6479 45.9305 44.6536 45.9305 44.665C46.0674 44.4313 46.0389 44.4655 46.0104 44.5339C45.9762 44.6023 45.9419 44.6993 45.9705 44.6479C45.9477 44.7221 45.9648 44.705 45.9762 44.6821C45.9933 44.6536 46.0104 44.6194 46.0161 44.6308C46.0275 44.5966 46.0275 44.6308 46.0389 44.6422C46.0446 44.6594 46.0617 44.6651 46.0674 44.608C46.0788 44.608 46.0845 44.5852 46.0902 44.5681C46.0902 44.551 46.1016 44.551 46.1301 44.5795C46.1301 44.5681 46.1244 44.5567 46.1244 44.551C46.1244 44.5453 46.1244 44.551 46.1358 44.5396C46.1529 44.5282 46.1814 44.5225 46.2099 44.5225C46.2612 44.5225 46.3183 44.5168 46.3297 44.4598C46.4038 44.4085 46.4665 44.3515 46.552 44.3173C46.7231 44.4028 46.706 44.2374 46.763 44.1804C46.8428 44.1462 46.8371 44.0094 46.9682 44.055C47.0423 44.0208 47.145 44.0379 47.1621 43.9352C47.2077 43.8725 47.4244 44.0493 47.3502 43.8269C47.3844 43.7528 47.5612 43.8839 47.527 43.7243C47.4985 43.5761 47.641 43.6616 47.6923 43.6331C47.7436 43.6046 47.795 43.5761 47.8463 43.5533C48.2853 43.3252 48.5647 43.2226 48.616 43.2967C48.673 43.3765 48.4506 43.6616 48.0116 44.0721C47.966 44.112 47.9888 44.2431 47.8748 44.1975C47.8235 44.2374 47.8234 44.3458 47.7265 44.3344C47.7607 44.4997 47.6296 44.4427 47.5669 44.4769C47.5099 44.5282 47.4186 44.5282 47.3958 44.6251C47.3844 44.7449 47.2419 44.6822 47.2134 44.7848C47.088 44.7563 47.0366 44.8247 47.0195 44.9501C46.8941 44.9273 46.8884 45.0699 46.8143 45.1212C46.7345 45.087 46.6946 45.1098 46.666 45.144C46.6546 45.1611 46.6432 45.1896 46.6318 45.2124C46.6318 45.2238 46.6147 45.2466 46.6033 45.2637C46.5919 45.2808 46.5805 45.2979 46.5691 45.3207C46.5178 45.3949 46.4437 45.4405 46.3696 45.4804C46.3012 45.5203 46.227 45.5602 46.1643 45.6343C46.0959 45.6685 46.0275 45.7312 45.9534 45.794C45.8849 45.8567 45.8051 45.9251 45.7367 45.9593C45.5713 46.1646 45.3775 46.3356 45.2863 46.3014C45.195 46.3983 45.1095 46.461 45.0354 46.5123C44.9613 46.5637 44.8929 46.5979 44.813 46.6549C44.7902 46.6777 44.7731 46.7005 44.7503 46.7176C44.7389 46.6663 44.7503 46.5637 44.7731 46.461C44.7902 46.3584 44.813 46.2501 44.813 46.176C44.8073 46.1018 44.8644 45.9365 44.8986 45.8168C44.9328 45.6913 44.9499 45.6001 44.8701 45.583C44.8701 45.4918 44.8872 45.3834 44.9043 45.2751C44.9214 45.1668 44.9328 45.0641 44.9328 44.9672C44.9784 44.7506 45.0183 44.5453 44.9955 44.3401C45.1665 44.2431 45.081 44.1177 45.0297 43.998C44.9955 43.8782 45.0297 43.7642 45.0696 43.6559C45.0696 43.5418 45.0867 43.4278 45.1095 43.3195C45.0753 43.2055 45.2007 43.1028 45.1494 42.9888C45.0924 42.8748 45.2464 42.7778 45.1894 42.6638C45.1722 42.6068 45.1608 42.5498 45.1665 42.4985C45.1665 42.47 45.1722 42.4471 45.1836 42.4186C45.1836 42.4129 45.1837 42.4072 45.1951 42.3958C45.1951 42.3844 45.2065 42.373 45.2065 42.3616C45.2179 42.3388 45.2293 42.316 45.2407 42.2932C45.2521 42.1963 45.2977 42.1108 45.3262 42.0309C45.3547 41.9511 45.3661 41.8713 45.3148 41.7288C45.3148 41.6261 45.2749 41.4836 45.2635 41.3582C45.2578 41.2384 45.2749 41.1415 45.3832 41.1871C45.3775 41.1244 45.3832 41.0788 45.3889 41.0446C45.3889 41.0275 45.4003 41.0104 45.406 40.999L45.4231 41.0104L45.4573 41.0389C45.5542 41.1073 45.6341 41.1643 45.6854 41.1358C45.8051 41.284 45.8735 41.3126 45.9362 41.324C46.0047 41.3354 46.0674 41.324 46.1472 41.3639C46.2213 41.4152 46.2954 41.4722 46.3639 41.5178C46.4323 41.5577 46.5007 41.5862 46.5805 41.5862C46.6204 41.5862 46.6603 41.5976 46.7003 41.6147C46.7288 41.6318 46.7459 41.6489 46.763 41.6661C46.7972 41.7003 46.8257 41.7459 46.8713 41.7516C46.991 41.7117 46.9682 41.9397 47.088 41.8884C47.1507 41.9454 47.2419 41.9568 47.2932 42.0195C47.47 41.8713 47.4301 42.0937 47.4871 42.1507C47.5327 42.2191 47.6866 42.1051 47.6638 42.2818C47.8063 42.1792 47.795 42.3331 47.8292 42.4072C47.8577 42.4814 47.9774 42.4186 47.9774 42.527C48.0914 42.4643 48.0458 42.641 48.1142 42.641C48.1142 42.7379 48.1997 42.7037 48.2283 42.7493C48.2853 42.755 48.3195 42.7892 48.3309 42.852C48.3651 42.8862 48.3936 42.9147 48.4164 42.9432C48.5761 43.1199 48.6445 43.2397 48.6103 43.2853Z" fill="#CA534B"/>
</svg>
