<svg width="75" height="75" viewBox="0 0 75 75" fill="none" xmlns="http://www.w3.org/2000/svg">
<g opacity="0.73">
<path d="M38.2892 74.8682C58.5641 74.8682 75.0001 58.411 75.0001 38.11C75.0001 17.809 58.5641 1.35181 38.2892 1.35181C18.0144 1.35181 1.57837 17.809 1.57837 38.11C1.57837 58.411 18.0144 74.8682 38.2892 74.8682Z" fill="#215EAB"/>
</g>
<path d="M36.7109 73.5164C56.9857 73.5164 73.4218 57.0592 73.4218 36.7582C73.4218 16.4572 56.9857 0 36.7109 0C16.436 0 0 16.4572 0 36.7582C0 57.0592 16.436 73.5164 36.7109 73.5164Z" fill="white"/>
<path d="M22.6607 16.196C22.6607 16.196 22.5602 16.2261 22.3694 16.2512C22.1786 16.2914 21.8924 16.3416 21.5559 16.5073C21.3902 16.5926 21.2044 16.6931 21.0236 16.8387C20.8378 16.9743 20.6621 17.1601 20.4964 17.376C20.17 17.8078 19.9239 18.4155 19.939 19.1185C19.944 19.6106 19.9541 20.1328 19.9641 20.6952C19.9792 21.2576 19.9942 21.8552 19.9892 22.4879C19.9189 23.1206 20.1198 23.7885 20.0093 24.4865C19.9792 25.1845 20.0093 25.9176 20.0294 26.6859C20.0545 27.4492 19.9842 28.2476 20.0495 29.0761C20.1851 29.9047 19.8988 30.7634 20.0696 31.6472C20.1047 32.536 20.0947 33.4499 20.0896 34.3989C19.9842 35.343 20.0896 36.3171 20.1097 37.3164C19.9842 38.3157 20.0394 39.3451 20.1248 40.3946C19.9541 41.4491 19.9792 42.5237 20.1399 43.6285C20.1449 44.7332 20.0796 45.858 20.1549 47.0079C20.165 48.1579 20.2001 49.3329 20.17 50.528C20.2302 51.1256 20.2554 51.7282 20.2554 52.3358C20.2554 52.6371 20.2503 52.9484 20.2403 53.2497C20.2302 53.5108 20.2604 53.7719 20.3206 54.0381C20.3508 54.0983 20.3759 54.1586 20.411 54.2188C20.4462 54.2791 20.4813 54.3343 20.5114 54.3896L20.6269 54.5553C20.6621 54.6105 20.7123 54.6557 20.7525 54.7109C20.9232 54.9118 21.1191 55.0926 21.335 55.2432C21.5559 55.3939 21.797 55.5094 22.053 55.5897C22.1786 55.6349 22.3142 55.655 22.4447 55.6801L22.6506 55.7002C22.7259 55.7052 22.8063 55.7102 22.8866 55.7153C24.1621 55.7856 25.4576 55.6048 26.7733 55.7052C28.0889 55.7152 29.4196 55.6751 30.7704 55.6951C32.1212 55.7454 33.487 55.8006 34.868 55.6902C36.2489 55.66 37.6449 55.6198 39.0559 55.6851C40.4669 55.5546 41.893 55.6098 43.3292 55.6851C44.7653 55.665 46.2166 55.7554 47.6828 55.6851C49.1441 55.7052 50.6204 55.6249 52.1018 55.6851C52.7345 55.7052 53.3772 55.4642 53.8342 55.0173C54.0652 54.7963 54.251 54.5251 54.3665 54.2339C54.487 53.9427 54.5422 53.6263 54.5322 53.3099C54.5272 53.1292 54.5171 52.9534 54.5121 52.7727C54.5121 52.5919 54.5071 52.4061 54.5071 52.2253C54.5071 51.8587 54.5071 51.4972 54.5171 51.1356C54.5322 50.4125 54.5523 49.6894 54.5372 48.9714C54.6628 47.5352 54.497 46.1091 54.5372 44.6981C54.5272 43.287 54.6075 41.891 54.5422 40.5101C54.5222 39.1292 54.497 37.7633 54.5473 36.4126C54.3564 35.0618 54.5975 33.7311 54.5573 32.4154C54.6376 31.0998 54.5473 29.8042 54.5673 28.5288C54.5322 27.2533 54.6527 25.9929 54.5774 24.7576C54.5925 23.5223 54.5171 22.3021 54.5874 21.107C54.5422 20.5094 54.5623 19.9169 54.5874 19.3294L54.5975 19.1084C54.5975 19.0381 54.5975 18.9779 54.5975 18.9126C54.5975 18.8824 54.5975 18.8473 54.5975 18.8172L54.5874 18.7218C54.5774 18.6565 54.5774 18.5912 54.5573 18.531C54.5121 18.2799 54.4066 18.0439 54.266 17.8279C54.1455 17.607 53.9798 17.4112 53.799 17.2455C53.7539 17.2053 53.7087 17.1601 53.6584 17.1199L53.5078 17.0094C53.4024 16.9442 53.3019 16.8739 53.1864 16.8236C53.076 16.7634 52.9605 16.7282 52.845 16.6831C52.7244 16.6529 52.609 16.6127 52.4884 16.5977C52.4282 16.5926 52.3679 16.5726 52.3077 16.5726L52.1269 16.5625C51.9963 16.5625 51.8507 16.5625 51.7151 16.5525C50.6154 16.4069 49.5358 16.5274 48.4813 16.5374C47.4268 16.5223 46.4024 16.6228 45.4031 16.5224C44.4038 16.5123 43.4296 16.447 42.4856 16.5023C41.5415 16.5223 40.6226 16.2863 39.7338 16.4822C38.845 16.5173 37.9863 16.3315 37.1628 16.4621C36.3342 16.5826 35.5358 16.447 34.7725 16.442C34.0093 16.432 33.2761 16.4269 32.5731 16.4219C29.4246 16.3918 26.944 16.3566 25.2568 16.3165C24.4132 16.2964 23.7654 16.2813 23.3285 16.2612C22.8916 16.2411 22.6657 16.2211 22.6657 16.201C22.6657 16.1809 22.9419 16.1558 23.4792 16.1357C24.0165 16.1156 24.8149 16.0955 25.8493 16.0754C27.9182 16.0353 30.9462 15.9951 34.7725 15.965C35.5358 15.9599 36.3342 15.8545 37.1628 15.9449C37.9913 15.9449 38.85 15.8645 39.7338 15.9248C40.6226 15.7892 41.5365 15.8997 42.4856 15.9047C43.4296 15.8997 44.4038 15.9399 45.4031 15.8846C46.4024 15.8043 47.4318 15.9248 48.4813 15.8695C49.5358 15.9549 50.6104 15.9298 51.7151 15.8545C51.8557 15.8645 51.9863 15.8696 52.1319 15.8796L52.3629 15.8997C52.4382 15.8997 52.5186 15.9198 52.5939 15.9298C52.7496 15.9499 52.8952 15.9951 53.0508 16.0302C53.1965 16.0804 53.3471 16.1307 53.4877 16.201C53.6333 16.2612 53.7689 16.3466 53.9045 16.427L54.1003 16.5625C54.1656 16.6077 54.2209 16.663 54.2861 16.7132C54.5221 16.9241 54.7381 17.1701 54.8937 17.4564C54.9339 17.5267 54.959 17.607 54.9891 17.6823C55.0193 17.7577 55.0494 17.833 55.0695 17.9083C55.0946 17.9886 55.1197 18.064 55.1398 18.1393L55.19 18.3753C55.2101 18.4556 55.2151 18.536 55.2252 18.6163L55.2402 18.7368C55.2452 18.777 55.2452 18.8172 55.2452 18.8573C55.2452 18.9377 55.2553 19.0231 55.2553 19.0984V19.3193C55.2703 19.9069 55.3055 20.4994 55.3306 21.097C55.3758 22.2921 55.3105 23.5073 55.3407 24.7476C55.3155 25.9829 55.3708 27.2433 55.3507 28.5187C55.4109 29.7942 55.431 31.0898 55.3607 32.4054C55.4009 33.721 55.3708 35.0517 55.3708 36.4025C55.421 37.7533 55.3658 39.1192 55.3758 40.5001C55.4009 41.881 55.2402 43.277 55.3808 44.688C55.4009 46.099 55.3607 47.5252 55.3808 48.9613C55.3708 49.6794 55.3607 50.4025 55.3607 51.1256C55.3607 51.4871 55.3607 51.8537 55.3607 52.2152C55.3607 52.396 55.3607 52.5818 55.3658 52.7626V53.0388L55.3758 53.1744V53.2447V53.325C55.2904 54.1636 54.9239 54.957 54.3364 55.5445C54.0451 55.8408 53.6986 56.0818 53.312 56.2576C52.9303 56.4333 52.5035 56.5287 52.0767 56.5438C50.5903 56.584 49.119 56.5639 47.6577 56.5438C46.1965 56.5588 44.7453 56.5488 43.3041 56.5438C41.8679 56.584 40.4418 56.4835 39.0308 56.5438C37.6197 56.604 36.2238 56.4785 34.8428 56.5388C33.4619 56.579 32.0961 56.599 30.7453 56.5338C29.3945 56.5338 28.0638 56.4082 26.7482 56.5237C25.4325 56.5488 24.137 56.7095 22.8615 56.5137C22.7812 56.5137 22.7058 56.5187 22.6205 56.5187C22.5301 56.5187 22.4397 56.5137 22.3493 56.5087C22.1685 56.4886 21.9878 56.4635 21.812 56.4082C21.4655 56.3078 21.1341 56.1521 20.8429 55.9462C20.5516 55.7403 20.3005 55.4893 20.0846 55.2081C20.0344 55.1378 19.9742 55.0725 19.929 54.9922L19.7884 54.7662L19.6678 54.5352C19.6277 54.4548 19.5975 54.3745 19.5624 54.2942C19.482 53.9477 19.4419 53.6062 19.4469 53.2648C19.4519 52.9534 19.4469 52.6521 19.4469 52.3458C19.4318 51.7382 19.4017 51.1356 19.4017 50.5381C19.4268 49.343 19.477 48.1729 19.4168 47.018C19.3515 45.8681 19.4519 44.7382 19.4318 43.6385C19.3515 42.5338 19.5373 41.4592 19.4469 40.4047C19.467 39.3502 19.4318 38.3258 19.4619 37.3265C19.2711 36.3272 19.4619 35.353 19.477 34.409C19.5071 33.4649 19.3515 32.546 19.4971 31.6572C19.3515 30.7684 19.477 29.9097 19.5172 29.0862C19.5574 28.2576 19.4569 27.4592 19.5373 26.6959C19.4369 25.9326 19.5925 25.1995 19.5574 24.4965C19.6226 23.7985 19.5574 23.1307 19.5774 22.4979C19.5523 21.8652 19.5624 21.2677 19.5975 20.7053C19.6076 20.1428 19.6126 19.6156 19.6226 19.1285C19.6277 18.7469 19.698 18.3803 19.8235 18.064C19.949 17.7476 20.1097 17.4714 20.3005 17.2455C20.4914 17.0195 20.6872 16.8337 20.8931 16.6981C21.0939 16.5525 21.2948 16.4571 21.4756 16.3817C21.8421 16.2361 22.1485 16.206 22.3443 16.1909C22.5452 16.1909 22.6456 16.201 22.6456 16.216L22.6607 16.196Z" fill="#CA534B"/>
<path d="M22.9771 20.896C23.0323 20.896 23.0825 21.7648 23.1277 23.3516C23.1327 23.6177 23.1428 23.8989 23.1528 24.2052C23.1679 24.5115 23.183 24.8329 23.1779 25.1744C23.1076 25.5158 23.3085 25.8774 23.198 26.254C23.1679 26.6306 23.198 27.0273 23.2181 27.4391C23.2432 27.8509 23.1729 28.2827 23.2382 28.7296C23.3738 29.1765 23.0875 29.6385 23.2583 30.1206C23.2733 30.3164 23.2784 30.5173 23.2834 30.7181C23.2834 30.7784 23.2834 30.8437 23.2834 30.9089C23.2834 30.9491 23.2834 30.9943 23.2834 31.0345C23.3185 31.0345 23.3587 31.0345 23.3939 31.0345C23.414 31.0495 23.4441 31.0546 23.4742 31.0646H23.4843H23.5043H23.5546L23.65 31.0747C23.7805 31.0747 23.9111 31.0747 24.0416 31.0696C24.3028 31.0546 24.5689 31.0244 24.8401 31.0144C25.3824 31.1399 25.9348 31.0847 26.5022 30.9993C27.0696 31.1701 27.6521 31.145 28.2497 30.9843C28.8472 30.9793 29.4548 31.0445 30.0775 30.9692C30.7002 30.9592 31.3329 30.924 31.9756 30.9541C32.6234 30.8386 33.2762 30.8437 33.9491 30.9441C34.6169 30.8186 35.2948 30.8688 35.9878 30.934C36.6758 31.0043 37.3788 30.8236 38.0868 30.924C38.7948 30.9341 39.5179 30.8939 40.2461 30.914C40.9742 30.9642 41.7123 31.0194 42.4605 30.9089C43.2088 30.8788 43.962 30.8386 44.7252 30.9039C45.4885 30.7734 46.2568 30.8286 47.0351 30.9039C47.8135 30.8838 48.5968 30.9742 49.3852 30.9039C49.7819 30.914 50.1786 30.9039 50.5753 30.8889C50.7762 30.8838 50.972 30.8788 51.1729 30.8788C51.3135 30.8788 51.2733 30.8788 51.2984 30.8838C51.3135 30.8838 51.3285 30.8939 51.3486 30.8989C51.3486 30.8989 51.3587 30.8788 51.3637 30.8638C51.3637 30.8387 51.3737 30.8638 51.3787 30.7282C51.3888 30.5273 51.3938 30.3264 51.3938 30.1306C51.3988 29.7339 51.3938 29.3372 51.3486 28.9405C51.2632 28.1521 51.3838 27.3688 51.3486 26.5904C51.4741 25.8121 51.3084 25.0438 51.3486 24.2805C51.3386 23.5173 51.4189 22.7641 51.3536 22.0159C51.3486 21.8301 51.3436 21.6392 51.3386 21.4535V21.3932V21.3831V21.3681C51.3386 21.3681 51.3335 21.348 51.3335 21.3379C51.3235 21.3379 51.3135 21.3379 51.3034 21.3379H51.2884H51.2783H51.2582H51.2231C51.0423 21.3379 50.8565 21.3229 50.6757 21.3128C49.9476 21.5037 49.2245 21.2626 48.5165 21.3028C47.8085 21.2224 47.1054 21.3128 46.4175 21.2928C45.7296 21.3279 45.0466 21.2074 44.3788 21.2827C43.7109 21.2676 43.0531 21.343 42.4053 21.2727C41.7575 21.3681 41.1248 21.1923 40.5072 21.2576C39.8845 21.2576 39.2769 21.2626 38.6793 21.2425C38.0818 21.0919 37.4993 21.2174 36.9319 21.2275C36.3644 21.2124 35.807 21.3128 35.2697 21.2124C34.7274 21.2024 34.2052 21.1371 33.693 21.1923C33.1808 21.2124 32.6887 20.9764 32.2066 21.1722C31.7296 21.2074 31.2626 21.0216 30.8157 21.1521C30.3687 21.2727 29.9369 21.1371 29.5251 21.1321C29.1134 21.127 28.7167 21.117 28.3401 21.112C26.6378 21.0818 25.302 21.0467 24.3881 21.0065C23.4742 20.9714 22.9871 20.9312 22.9871 20.891C22.9871 20.8458 23.5897 20.8056 24.7095 20.7655C25.8293 20.7253 27.4613 20.6851 29.5302 20.655C29.9419 20.65 30.3738 20.5446 30.8207 20.6349C31.2676 20.6349 31.7296 20.5546 32.2116 20.6148C32.6937 20.4793 33.1858 20.5897 33.698 20.5948C34.2102 20.5897 34.7324 20.6349 35.2748 20.5747C35.8171 20.4943 36.3695 20.6148 36.9369 20.5596C37.5043 20.645 38.0868 20.6199 38.6844 20.5445C39.2819 20.6249 39.8895 20.5245 40.5122 20.5295C41.1349 20.655 41.7676 20.5696 42.4103 20.5144C43.0581 20.4692 43.7109 20.5345 44.3838 20.5044C45.0516 20.5295 45.7295 20.4692 46.4225 20.4943C47.1105 20.4341 47.8135 20.414 48.5215 20.4843C49.2295 20.4441 49.9526 20.4743 50.6808 20.4743C50.8615 20.4642 51.0423 20.4541 51.2281 20.4541H51.7001C51.8709 20.4541 52.0416 20.4541 52.2173 20.4541C52.2173 20.7856 52.2123 21.117 52.2073 21.4484C52.2073 21.6342 52.2073 21.82 52.2073 22.0108C52.2324 22.754 52.0717 23.5123 52.2073 24.2755C52.2274 25.0388 52.1872 25.8071 52.2073 26.5854C52.1872 27.3638 52.1722 28.1471 52.2073 28.9355C52.137 29.3322 52.1269 29.7289 52.137 30.1256C52.142 30.3264 52.1521 30.5223 52.1671 30.7231C52.1721 30.7884 52.1822 31.0094 52.1872 31.1901C52.1922 31.381 52.2023 31.5718 52.2073 31.7626C52.0215 31.7626 51.8307 31.7727 51.6449 31.7727C51.4842 31.7727 51.3235 31.7777 51.1628 31.7827C50.962 31.7827 50.7611 31.7827 50.5653 31.7827C50.1686 31.7827 49.7719 31.7676 49.3752 31.7626C48.5868 31.7777 47.7984 31.7676 47.0251 31.7626C46.2468 31.8028 45.4785 31.7023 44.7152 31.7626C43.9519 31.8229 43.1987 31.6973 42.4505 31.7576C41.7023 31.7977 40.9692 31.8178 40.236 31.7525C39.5079 31.7525 38.7898 31.627 38.0768 31.7425C37.3687 31.7676 36.6657 31.9283 35.9778 31.7325C35.2898 31.7827 34.6069 31.6421 33.939 31.7224C33.2712 31.5818 32.6134 31.7174 31.9656 31.7124C31.3178 31.6873 30.6851 31.6371 30.0675 31.6973C29.4448 31.7626 28.8372 31.6622 28.2396 31.6823C27.6421 31.7626 27.0596 31.5768 26.4921 31.6672C25.9247 31.6471 25.3673 31.6772 24.83 31.6521C24.5588 31.7476 24.2927 31.7475 24.0316 31.7224C23.901 31.7074 23.7705 31.6923 23.6399 31.6722L23.5445 31.6622H23.4943L23.4692 31.6521H23.429C23.3236 31.6421 23.2231 31.6371 23.1227 31.6371C22.9721 31.6371 22.8264 31.6371 22.6708 31.6371C22.6708 31.4764 22.6557 31.3157 22.6507 31.15C22.6457 31.0044 22.6356 30.8637 22.6306 30.7181C22.6205 30.5173 22.6306 30.3164 22.6909 30.1206C22.5452 29.6385 22.6708 29.1765 22.7109 28.7296C22.7511 28.2827 22.6507 27.8509 22.731 27.4391C22.6306 27.0273 22.7863 26.6306 22.7511 26.254C22.8164 25.8774 22.7511 25.5158 22.7712 25.1744C22.7461 24.8329 22.7561 24.5115 22.7913 24.2052C22.8013 23.8989 22.8064 23.6177 22.8164 23.3516C22.8616 21.7648 22.9168 20.896 22.967 20.896H22.9771Z" fill="#CA534B"/>
<path d="M24.0866 34.7151C24.1418 34.7151 24.192 34.916 24.2372 35.2776C24.2422 35.3378 24.2523 35.4031 24.2623 35.4734C24.2774 35.5437 24.2925 35.619 24.2824 35.6943C24.2121 35.7747 24.413 35.855 24.3025 35.9404C24.2724 36.0258 24.3025 36.1161 24.3226 36.2115C24.3477 36.307 24.2774 36.4024 24.3427 36.5078C24.4782 36.6083 24.192 36.7187 24.3628 36.8242C24.3979 36.9347 24.3879 37.0501 24.3828 37.1656C24.2774 37.2811 24.3828 37.4016 24.4029 37.5272C24.3879 37.5422 24.3728 37.5573 24.3628 37.5724C24.3577 37.5824 24.3527 37.5874 24.3477 37.5975C24.3477 37.6075 24.3427 37.6075 24.3377 37.6126C24.3276 37.6276 24.3226 37.6477 24.3276 37.6628C24.3376 37.6929 24.3728 37.713 24.418 37.708C24.3326 37.7833 24.2975 37.8586 24.2975 37.8938C24.3427 37.8938 24.428 37.8435 24.4983 37.7582C24.5184 37.7582 24.5335 37.7732 24.5586 37.7783C24.5636 37.7783 24.5686 37.7783 24.5787 37.7783C24.5787 37.7783 24.5837 37.7783 24.5887 37.7783H24.6138C24.649 37.7732 24.6841 37.7632 24.7193 37.7431C24.8599 37.7331 25.0055 37.6979 25.1561 37.7281C25.3068 37.6126 25.4575 37.6176 25.6081 37.718C25.7587 37.5925 25.9144 37.6427 26.0751 37.708C26.2308 37.7783 26.3914 37.5975 26.5572 37.6979C26.7178 37.7029 26.8836 37.6678 27.0493 37.6879C27.215 37.7381 27.3857 37.7933 27.5564 37.6828C27.7272 37.6527 27.9029 37.6126 28.0737 37.6778C28.2494 37.5473 28.4252 37.6025 28.6009 37.6778C28.7767 37.6578 28.9574 37.7481 29.1382 37.6778H29.1734H29.1884C29.1884 37.6778 29.1935 37.6778 29.1985 37.6778C29.2035 37.6778 29.2085 37.6678 29.2135 37.6628C29.2186 37.6527 29.2186 37.6477 29.2587 37.6778C29.2587 37.6778 29.2989 37.6778 29.3039 37.6577C29.3039 37.6477 29.3039 37.6377 29.2989 37.6226C29.2989 37.6176 29.2889 37.6126 29.2838 37.6075C29.2838 37.6075 29.2838 37.5925 29.2788 37.5874C29.2788 37.5774 29.2688 37.5674 29.2638 37.5523C29.1784 37.3715 29.2989 37.1908 29.2638 37.015C29.3893 36.8342 29.2236 36.6585 29.2638 36.4877C29.2537 36.312 29.334 36.1413 29.2688 35.9705C29.2437 35.7998 29.2236 35.6291 29.2738 35.4633C29.1784 35.378 29.1884 35.2976 29.2236 35.2173C29.2537 35.2173 29.3039 35.1771 29.2838 35.1671C29.324 35.1269 29.319 35.0968 29.3089 35.0918C29.2788 35.1018 29.2537 35.1168 29.2437 35.1068C29.2186 35.1269 29.2135 35.1068 29.1934 35.0867H29.1884C29.1884 35.0867 29.1734 35.0767 29.1633 35.0767C29.1432 35.0767 29.1232 35.0767 29.1031 35.0767C29.0629 35.0767 29.0277 35.0817 28.9876 35.1018C28.8369 35.0867 28.6863 35.1621 28.5356 35.0918C28.385 35.1872 28.2444 35.0114 28.0988 35.0767C27.9582 35.0767 27.8176 35.0817 27.682 35.0616C27.5464 34.916 27.4108 35.0365 27.2803 35.0466C27.1497 35.0315 27.0242 35.1319 26.8986 35.0315C26.7731 35.0215 26.6526 34.9562 26.5371 35.0114C26.4216 35.0315 26.3061 34.7955 26.1956 34.9913C26.0851 35.0265 25.9797 34.8407 25.8792 34.9712C25.7788 35.0918 25.6784 34.9562 25.583 34.9511C25.4876 34.9461 25.3972 34.9361 25.3118 34.9311C24.5335 34.8658 24.0866 34.7905 24.0866 34.7101C24.0866 34.6197 24.6389 34.5394 25.588 34.4691C25.6834 34.4641 25.7838 34.3586 25.8843 34.449C25.9847 34.449 26.0902 34.3687 26.2006 34.4289C26.3111 34.2933 26.4266 34.4038 26.5421 34.4088C26.6576 34.4038 26.7781 34.449 26.9036 34.3887C27.0292 34.3084 27.1547 34.4289 27.2853 34.3737C27.4158 34.4591 27.5514 34.4339 27.687 34.3586C27.8226 34.444 27.9632 34.3385 28.1038 34.3436C28.2444 34.4691 28.39 34.3837 28.5407 34.3285C28.6913 34.2833 28.8369 34.3486 28.9926 34.3185C29.0328 34.3235 29.0679 34.3235 29.1081 34.3235C29.1583 34.3235 29.2035 34.3185 29.2537 34.3134C29.3943 34.3034 29.545 34.2933 29.6805 34.3084C29.8312 34.2783 29.9969 34.2582 30.1475 34.2532C30.1526 34.4088 30.1425 34.5846 30.1023 34.7604C30.1224 34.901 30.1224 35.0566 30.1224 35.2072C30.1224 35.2926 30.1124 35.373 30.1124 35.4583C30.1626 35.624 30.1074 35.7948 30.1174 35.9655C30.1425 36.1362 29.9818 36.312 30.1224 36.4827C30.1425 36.6585 30.1023 36.8342 30.1224 37.01C30.1023 37.1857 30.0873 37.3665 30.1224 37.5473C30.1124 37.5573 30.1074 37.5724 30.0973 37.5824C30.0973 37.5875 30.0923 37.5925 30.0873 37.6025L30.0772 37.6326C30.0672 37.6728 30.0571 37.713 30.0521 37.7532C30.0421 37.8285 30.0421 37.9088 30.0471 37.9892C30.0572 38.1499 30.0923 38.3356 30.1174 38.5365C29.9617 38.5566 29.786 38.5616 29.6102 38.5566C29.5199 38.5566 29.4345 38.5566 29.3441 38.5466H29.2135L29.1834 38.5365H29.1633L29.1282 38.5315C28.9474 38.5465 28.7666 38.5365 28.5909 38.5315C28.4151 38.5717 28.2343 38.4712 28.0636 38.5315C27.8879 38.5917 27.7171 38.4662 27.5464 38.5265C27.3757 38.5667 27.2049 38.5867 27.0392 38.5215C26.8735 38.5215 26.7078 38.3959 26.5471 38.5114C26.3864 38.5365 26.2257 38.6972 26.0651 38.5014C25.9094 38.5516 25.7487 38.406 25.598 38.4913C25.4424 38.3507 25.2917 38.4863 25.1461 38.4813C25.0005 38.4562 24.8549 38.4059 24.7092 38.4662C24.6741 38.4813 24.6389 38.4913 24.6038 38.4913H24.5737H24.5285C24.4983 38.4913 24.4682 38.4863 24.4381 38.4813C24.3176 38.4662 24.2121 38.4461 24.0866 38.4562C23.941 38.4963 23.8305 38.4662 23.7451 38.4411C23.7702 38.3055 23.7903 38.1951 23.7451 38.1147C23.7551 37.9992 23.7501 37.8938 23.7451 37.7883C23.7451 37.7331 23.7451 37.6829 23.7451 37.6276V37.5925V37.5674C23.7451 37.5523 23.7451 37.5372 23.7552 37.5222C23.5643 37.3966 23.7552 37.2761 23.7702 37.1606C23.7953 37.0451 23.6447 36.9296 23.7903 36.8192C23.6447 36.7087 23.7702 36.6032 23.8104 36.5028C23.8506 36.4024 23.7501 36.3019 23.8305 36.2065C23.73 36.1111 23.8857 36.0207 23.8506 35.9354C23.9158 35.85 23.8506 35.7646 23.8706 35.6893C23.8455 35.609 23.8556 35.5387 23.8907 35.4684C23.9008 35.3981 23.9058 35.3328 23.9159 35.2725C23.961 34.911 24.0163 34.7101 24.0665 34.7101L24.0866 34.7151Z" fill="#CA534B"/>
<path d="M34.5668 34.7151C34.622 34.7151 34.6722 34.916 34.7174 35.2776C34.7224 35.3378 34.7325 35.4031 34.7425 35.4734C34.7576 35.5437 34.7726 35.619 34.7626 35.6943C34.6923 35.7747 34.8932 35.855 34.7827 35.9404C34.7526 36.0258 34.7827 36.1161 34.8028 36.2115C34.8279 36.307 34.7576 36.4024 34.8229 36.5078C34.9584 36.6083 34.6722 36.7187 34.8429 36.8242C34.8781 36.9347 34.8681 37.0501 34.863 37.1656C34.7576 37.2811 34.863 37.4016 34.8831 37.5272C34.8681 37.5422 34.853 37.5573 34.8429 37.5724C34.8379 37.5824 34.8329 37.5874 34.8279 37.5975C34.8279 37.6075 34.8229 37.6075 34.8178 37.6126C34.8078 37.6276 34.8028 37.6477 34.8078 37.6628C34.8178 37.6929 34.853 37.713 34.8982 37.708C34.8128 37.7833 34.7777 37.8586 34.7777 37.8938C34.8229 37.8938 34.9082 37.8435 34.9785 37.7582C34.9986 37.7582 35.0137 37.7732 35.0388 37.7783C35.0438 37.7783 35.0488 37.7783 35.0589 37.7783C35.0589 37.7783 35.0639 37.7783 35.0689 37.7783H35.094C35.1292 37.7732 35.1643 37.7632 35.1995 37.7431C35.3401 37.7331 35.4857 37.6979 35.6364 37.7281C35.782 37.6126 35.9326 37.6176 36.0883 37.718C36.2389 37.5925 36.3946 37.6427 36.5553 37.708C36.716 37.7783 36.8716 37.5975 37.0373 37.6979C37.2031 37.7029 37.3638 37.6678 37.5345 37.6879C37.7002 37.7381 37.8709 37.7933 38.0416 37.6828C38.2124 37.6527 38.3831 37.6126 38.5589 37.6778C38.7346 37.5473 38.9104 37.6025 39.0861 37.6778C39.2669 37.6578 39.4427 37.7481 39.6234 37.6778H39.6586H39.6736C39.6736 37.6778 39.6787 37.6778 39.6837 37.6778C39.6887 37.6778 39.6937 37.6678 39.6988 37.6628C39.7038 37.6527 39.6988 37.6477 39.7439 37.6778C39.7439 37.6778 39.7841 37.6778 39.7891 37.6577C39.7891 37.6477 39.7891 37.6377 39.7891 37.6226C39.7891 37.6176 39.7791 37.6126 39.7741 37.6075H39.769C39.769 37.6075 39.7691 37.5925 39.764 37.5874C39.764 37.5774 39.754 37.5674 39.749 37.5523C39.6636 37.3715 39.7841 37.1908 39.749 37.015C39.8745 36.8342 39.7088 36.6585 39.749 36.4877C39.7389 36.312 39.8193 36.1413 39.754 35.9705C39.7289 35.7998 39.7088 35.6291 39.759 35.4633C39.6636 35.378 39.6736 35.2976 39.7088 35.2173C39.7389 35.2173 39.7891 35.1771 39.769 35.1671C39.8092 35.1269 39.8042 35.1018 39.7942 35.0918C39.764 35.1018 39.7389 35.1168 39.7289 35.1068C39.7038 35.1269 39.6988 35.1068 39.6787 35.0867H39.6686C39.6686 35.0867 39.6485 35.0767 39.6435 35.0767C39.6234 35.0767 39.6033 35.0767 39.5833 35.0767C39.5431 35.0767 39.5079 35.0817 39.4678 35.1018C39.3171 35.0867 39.1614 35.1621 39.0158 35.0918C38.8702 35.1872 38.7246 35.0114 38.579 35.0767C38.4383 35.0767 38.2978 35.0817 38.1622 35.0616C38.0266 34.916 37.891 35.0365 37.7604 35.0466C37.6299 35.0315 37.5044 35.1319 37.3788 35.0315C37.2533 35.0215 37.1328 34.9562 37.0173 35.0114C36.9018 35.0315 36.7863 34.7955 36.6758 34.9913C36.5653 35.0265 36.4599 34.8407 36.3595 34.9712C36.259 35.0918 36.1586 34.9562 36.0632 34.9511C35.9678 34.9461 35.8774 34.9361 35.792 34.9311C35.0137 34.8658 34.5668 34.7905 34.5668 34.7101C34.5668 34.6197 35.1191 34.5394 36.0682 34.4691C36.1636 34.4641 36.264 34.3586 36.3645 34.449C36.4649 34.449 36.5754 34.3687 36.6808 34.4289C36.7913 34.2933 36.9068 34.4038 37.0223 34.4088C37.1378 34.4038 37.2583 34.449 37.3838 34.3887C37.5094 34.3084 37.6349 34.4289 37.7655 34.3737C37.896 34.4591 38.0266 34.4339 38.1672 34.3586C38.3028 34.444 38.4434 34.3385 38.584 34.3436C38.7246 34.4691 38.8702 34.3837 39.0208 34.3285C39.1665 34.2833 39.3171 34.3486 39.4728 34.3185C39.513 34.3235 39.5481 34.3235 39.5883 34.3235C39.6385 34.3235 39.6837 34.3185 39.7339 34.3134C39.8745 34.3034 40.0251 34.2933 40.1607 34.3084C40.3114 34.2783 40.4771 34.2582 40.6277 34.2532C40.6328 34.4088 40.6227 34.5846 40.5825 34.7604C40.6026 34.901 40.6026 35.0566 40.6026 35.2123C40.6026 35.2976 40.5926 35.378 40.5926 35.4633C40.6428 35.6291 40.5876 35.7998 40.5976 35.9705C40.6227 36.1413 40.462 36.317 40.6026 36.4877C40.6227 36.6635 40.5825 36.8393 40.6026 37.015C40.5876 37.1908 40.5675 37.3715 40.6026 37.5523C40.5926 37.5624 40.5876 37.5774 40.5775 37.5874C40.5775 37.5925 40.5725 37.5975 40.5675 37.6075L40.5574 37.6377C40.5474 37.6778 40.5373 37.718 40.5323 37.7532C40.5223 37.8335 40.5223 37.9088 40.5273 37.9892C40.5373 38.1499 40.5725 38.3356 40.5976 38.5365C40.4419 38.5566 40.2662 38.5616 40.0904 38.5566C40 38.5566 39.9147 38.5566 39.8243 38.5466H39.6937L39.6636 38.5365H39.6435L39.6084 38.5315C39.4276 38.5465 39.2468 38.5365 39.0711 38.5315C38.8953 38.5717 38.7145 38.4712 38.5438 38.5315C38.368 38.5917 38.1973 38.4662 38.0266 38.5265C37.8559 38.5667 37.6851 38.5867 37.5194 38.5215C37.3537 38.5215 37.188 38.3959 37.0223 38.5114C36.8616 38.5365 36.7009 38.6972 36.5402 38.5014C36.3846 38.5516 36.2239 38.406 36.0732 38.4913C35.9176 38.3507 35.7669 38.4863 35.6213 38.4813C35.4757 38.4562 35.33 38.4059 35.1844 38.4662C35.1493 38.4813 35.1141 38.4913 35.079 38.4913H35.0488H35.0036C34.9735 38.4913 34.9434 38.4863 34.9133 38.4813C34.7927 38.4662 34.6873 38.4461 34.5617 38.4562C34.4161 38.4963 34.3056 38.4662 34.2203 38.4411C34.2454 38.3055 34.2655 38.195 34.2203 38.1197C34.2303 38.0042 34.2253 37.8988 34.2203 37.7933C34.2203 37.7431 34.2203 37.6879 34.2203 37.6326V37.5975V37.5724C34.2203 37.5573 34.2203 37.5422 34.2303 37.5272C34.0395 37.4016 34.2303 37.2811 34.2504 37.1656C34.2755 37.0501 34.1249 36.9347 34.2705 36.8242C34.1249 36.7137 34.2504 36.6083 34.2906 36.5078C34.3307 36.4074 34.2303 36.307 34.3107 36.2115C34.2102 36.1161 34.3659 36.0258 34.3308 35.9404C34.396 35.855 34.3308 35.7697 34.3508 35.6943C34.3257 35.614 34.3358 35.5437 34.3709 35.4734C34.381 35.4031 34.386 35.3378 34.396 35.2776C34.4412 34.916 34.4965 34.7151 34.5467 34.7151H34.5668Z" fill="#CA534B"/>
<path d="M45.0515 34.7151C45.1068 34.7151 45.157 34.916 45.2022 35.2776C45.2072 35.3378 45.2172 35.4031 45.2273 35.4734C45.2423 35.5437 45.2574 35.619 45.2474 35.6943C45.1771 35.7747 45.3779 35.855 45.2675 35.9404C45.2373 36.0258 45.2675 36.1161 45.2875 36.2115C45.3127 36.307 45.2423 36.4074 45.3076 36.5078C45.4432 36.6083 45.157 36.7187 45.3277 36.8242C45.3629 36.9347 45.3528 37.0501 45.3478 37.1656C45.2423 37.2811 45.3478 37.4016 45.3629 37.5272C45.3478 37.5422 45.3327 37.5573 45.3227 37.5724C45.3177 37.5824 45.3126 37.5874 45.3076 37.5975C45.3076 37.6075 45.3026 37.6075 45.2976 37.6126C45.2875 37.6276 45.2825 37.6477 45.2875 37.6628C45.2976 37.6929 45.3327 37.713 45.3779 37.708C45.2926 37.7833 45.2574 37.8586 45.2574 37.8938C45.3026 37.8938 45.388 37.8435 45.4583 37.7582C45.4784 37.7582 45.4984 37.7732 45.5185 37.7783C45.5236 37.7783 45.5286 37.7783 45.5386 37.7783C45.5386 37.7783 45.5436 37.7783 45.5487 37.7783H45.5738C45.6089 37.7732 45.6441 37.7632 45.6792 37.7431C45.8198 37.7331 45.9654 37.6979 46.1161 37.7281C46.2617 37.6126 46.4124 37.6176 46.568 37.718C46.7237 37.5925 46.8794 37.6427 47.035 37.708C47.1907 37.7783 47.3514 37.5975 47.5171 37.6979C47.6778 37.7029 47.8435 37.6678 48.0142 37.6879C48.1799 37.7381 48.3507 37.7933 48.5214 37.6828C48.6921 37.6527 48.8679 37.6126 49.0386 37.6778C49.2144 37.5473 49.3901 37.6025 49.5709 37.6778C49.7466 37.6578 49.9274 37.7481 50.1082 37.6778H50.1433H50.1584C50.1584 37.6778 50.1634 37.6778 50.1685 37.6778C50.1735 37.6778 50.1785 37.6678 50.1835 37.6628C50.1885 37.6527 50.1835 37.6477 50.2287 37.6778C50.2287 37.6778 50.2689 37.6778 50.2739 37.6577C50.2739 37.6477 50.2739 37.6377 50.2689 37.6226C50.2689 37.6176 50.2588 37.6126 50.2538 37.6075C50.2538 37.6075 50.2538 37.5925 50.2488 37.5874C50.2488 37.5774 50.2387 37.5674 50.2337 37.5523C50.1484 37.3715 50.2689 37.1908 50.2337 37.015C50.3593 36.8342 50.1935 36.6585 50.2337 36.4877C50.2237 36.312 50.304 36.1413 50.2387 35.9705C50.2136 35.7998 50.1936 35.6291 50.2438 35.4633C50.1484 35.378 50.1634 35.2976 50.1936 35.2173C50.2237 35.2173 50.2739 35.1771 50.2538 35.1671C50.294 35.1269 50.289 35.1018 50.2789 35.0918C50.2488 35.1018 50.2237 35.1168 50.2136 35.1068C50.1885 35.1269 50.1835 35.1068 50.1634 35.0867H50.1534C50.1534 35.0867 50.1383 35.0767 50.1283 35.0767C50.1082 35.0767 50.0881 35.0767 50.073 35.0767C50.0329 35.0767 49.9977 35.0817 49.9575 35.1018C49.8069 35.0867 49.6563 35.1621 49.5056 35.0918C49.355 35.1872 49.2144 35.0114 49.0687 35.0767C48.9281 35.0767 48.7875 35.0817 48.6519 35.0616C48.5164 34.916 48.3808 35.0365 48.2502 35.0466C48.1197 35.0315 47.9941 35.1319 47.8686 35.0315C47.7431 35.0215 47.6225 34.9562 47.507 35.0114C47.3915 35.0315 47.2761 34.7955 47.1656 34.9913C47.0551 35.0265 46.9497 34.8407 46.8442 34.9712C46.7438 35.0918 46.6433 34.9562 46.5479 34.9511C46.4525 34.9461 46.3621 34.9361 46.2768 34.9311C45.4984 34.8658 45.0465 34.7905 45.0465 34.7101C45.0465 34.6197 45.5989 34.5394 46.5479 34.4691C46.6433 34.4641 46.7387 34.3586 46.8442 34.449C46.9497 34.449 47.0551 34.3687 47.1656 34.4289C47.2761 34.2933 47.3915 34.4038 47.507 34.4088C47.6225 34.4038 47.7431 34.449 47.8686 34.3887C47.9941 34.3084 48.1197 34.4289 48.2502 34.3737C48.3808 34.4591 48.5113 34.4339 48.6519 34.3586C48.7875 34.444 48.9281 34.3385 49.0687 34.3436C49.2093 34.4691 49.355 34.3837 49.5056 34.3285C49.6512 34.2833 49.8019 34.3486 49.9575 34.3185C49.9977 34.3235 50.0329 34.3235 50.073 34.3235C50.1182 34.3235 50.1684 34.3185 50.2187 34.3134C50.3593 34.3034 50.5049 34.2933 50.6455 34.3084C50.7961 34.2783 50.9618 34.2582 51.1125 34.2532C51.1175 34.4088 51.1075 34.5846 51.0673 34.7604C51.0874 34.901 51.0874 35.0566 51.0874 35.2072C51.0874 35.2926 51.0773 35.373 51.0773 35.4583C51.1276 35.624 51.0723 35.7948 51.0824 35.9655C51.1075 36.1362 50.9468 36.312 51.0874 36.4827C51.1075 36.6585 51.0673 36.8342 51.0874 37.01C51.0673 37.1857 51.0522 37.3665 51.0874 37.5473C51.0773 37.5573 51.0723 37.5724 51.0623 37.5824C51.0623 37.5875 51.0573 37.5925 51.0522 37.6025L51.0422 37.6326C51.0321 37.6728 51.0221 37.713 51.0171 37.7481C51.007 37.8285 51.007 37.9038 51.0121 37.9842C51.0221 38.1448 51.0573 38.3306 51.0824 38.5315C50.9267 38.5516 50.7509 38.5566 50.5752 38.5516C50.4848 38.5516 50.3994 38.5516 50.3091 38.5415H50.1785L50.1484 38.5315H50.1283L50.0931 38.5265C49.9123 38.5415 49.7316 38.5315 49.5558 38.5265C49.3801 38.5667 49.1993 38.4662 49.0236 38.5265C48.8478 38.5867 48.6771 38.4612 48.5063 38.5215C48.3356 38.5616 48.1649 38.5817 47.9992 38.5164C47.8334 38.5164 47.6677 38.3909 47.502 38.5064C47.3363 38.5315 47.1806 38.6922 47.02 38.4963C46.8593 38.5465 46.7086 38.4009 46.553 38.4863C46.4023 38.3457 46.2467 38.4813 46.101 38.4763C45.9554 38.4511 45.8098 38.4009 45.6642 38.4612C45.629 38.4763 45.5938 38.4863 45.5587 38.4863H45.5286H45.4834C45.4532 38.4863 45.4231 38.4813 45.393 38.4763C45.2725 38.4612 45.167 38.4411 45.0415 38.4512C44.8959 38.4913 44.7854 38.4612 44.7 38.4361C44.7251 38.3005 44.7452 38.19 44.7 38.1147C44.7101 37.9992 44.705 37.8938 44.7 37.7883C44.7 37.7331 44.7 37.6829 44.7 37.6276V37.5925V37.5674C44.7 37.5523 44.7 37.5372 44.7101 37.5222C44.5192 37.3966 44.7101 37.2761 44.7301 37.1606C44.7553 37.0451 44.6046 36.9296 44.7502 36.8192C44.6046 36.7087 44.7302 36.6032 44.7703 36.5028C44.8105 36.4024 44.7101 36.3019 44.7904 36.2065C44.69 36.1111 44.8456 36.0207 44.8105 35.9354C44.8758 35.85 44.8105 35.7646 44.8306 35.6893C44.8055 35.609 44.8155 35.5387 44.8507 35.4684C44.8607 35.3981 44.8657 35.3328 44.8758 35.2725C44.921 34.911 44.9762 34.7101 45.0264 34.7101L45.0515 34.7151Z" fill="#CA534B"/>
<path d="M24.0866 41.3638C24.1418 41.3638 24.192 41.5646 24.2372 41.9262C24.2422 41.9864 24.2523 42.0517 24.2623 42.122C24.2774 42.1923 24.2925 42.2677 24.2824 42.343C24.2121 42.4233 24.413 42.5037 24.3025 42.589C24.2724 42.6744 24.3025 42.7648 24.3226 42.8602C24.3477 42.9556 24.2774 43.051 24.3427 43.1565C24.4782 43.2569 24.192 43.3674 24.3628 43.4728C24.3979 43.5833 24.3879 43.6938 24.3828 43.8143C24.2774 43.9298 24.3828 44.0503 24.4029 44.1758C24.3879 44.1909 24.3728 44.206 24.3628 44.221C24.3577 44.2311 24.3527 44.2361 24.3477 44.2461C24.3477 44.2562 24.3427 44.2562 24.3377 44.2612C24.3276 44.2763 24.3226 44.2963 24.3276 44.3114C24.3376 44.3415 24.3728 44.3616 24.418 44.3566C24.3326 44.4319 24.2975 44.5073 24.2975 44.5424C24.3427 44.5424 24.428 44.4922 24.4983 44.4068C24.5184 44.4068 24.5335 44.4219 24.5586 44.4269C24.5636 44.4269 24.5686 44.4269 24.5787 44.4269C24.5787 44.4269 24.5837 44.4269 24.5887 44.4269H24.6138C24.649 44.4219 24.6841 44.4119 24.7193 44.3918C24.8599 44.3817 25.0055 44.3466 25.1561 44.3767C25.3068 44.2612 25.4575 44.2662 25.6081 44.3666C25.7587 44.2411 25.9144 44.2913 26.0751 44.3566C26.2308 44.4269 26.3914 44.2461 26.5572 44.3466C26.7178 44.3566 26.8836 44.3164 27.0493 44.3365C27.215 44.3867 27.3857 44.442 27.5564 44.3315C27.7272 44.3014 27.9029 44.2612 28.0737 44.3265C28.2494 44.1959 28.4252 44.2562 28.6009 44.3265C28.7767 44.3064 28.9574 44.3968 29.1382 44.3265H29.1734H29.1884C29.1884 44.3265 29.1935 44.3265 29.1985 44.3265C29.2035 44.3265 29.2085 44.3164 29.2135 44.3114C29.2186 44.3014 29.2186 44.2964 29.2587 44.3265C29.2587 44.3265 29.2989 44.3265 29.3039 44.3064C29.3039 44.2963 29.3039 44.2863 29.2989 44.2763C29.2989 44.2712 29.2889 44.2662 29.2838 44.2612C29.2838 44.2612 29.2838 44.2461 29.2788 44.2411C29.2788 44.2311 29.2688 44.221 29.2638 44.206C29.1784 44.0252 29.2989 43.8444 29.2638 43.6687C29.3893 43.4929 29.2236 43.3121 29.2638 43.1414C29.2537 42.9656 29.334 42.7949 29.2688 42.6242C29.2437 42.4535 29.2236 42.2827 29.2738 42.117C29.1784 42.0316 29.1884 41.9513 29.2236 41.8659C29.2537 41.8659 29.3039 41.8258 29.2838 41.8157C29.324 41.7756 29.319 41.7504 29.3089 41.7404C29.2788 41.7504 29.2537 41.7655 29.2437 41.7555C29.2186 41.7756 29.2135 41.7555 29.1934 41.7354H29.1884C29.1884 41.7354 29.1734 41.7253 29.1633 41.7253C29.1432 41.7253 29.1232 41.7253 29.1031 41.7253C29.0629 41.7253 29.0277 41.7304 28.9876 41.7504C28.8369 41.7354 28.6863 41.8107 28.5356 41.7404C28.385 41.8358 28.2444 41.6601 28.0988 41.7253C27.9582 41.7253 27.8176 41.7304 27.682 41.7103C27.5464 41.5596 27.4108 41.6852 27.2803 41.6952C27.1497 41.6802 27.0242 41.7806 26.8986 41.6801C26.7731 41.6701 26.6526 41.6048 26.5371 41.6651C26.4216 41.6852 26.3061 41.4491 26.1956 41.645C26.0851 41.6801 25.9797 41.4944 25.8792 41.6249C25.7788 41.7454 25.6784 41.6098 25.583 41.6048C25.4876 41.5998 25.3972 41.5898 25.3118 41.5847C24.5335 41.5195 24.0866 41.4441 24.0866 41.3638C24.0866 41.2734 24.6389 41.1931 25.588 41.1228C25.6834 41.1177 25.7838 41.0123 25.8843 41.1027C25.9847 41.1027 26.0902 41.0223 26.2006 41.0826C26.3111 40.947 26.4266 41.0575 26.5421 41.0625C26.6576 41.0575 26.7781 41.1027 26.9036 41.0474C27.0292 40.9671 27.1547 41.0876 27.2853 41.0324C27.4158 41.1177 27.5514 41.0926 27.687 41.0173C27.8226 41.0976 27.9632 40.9972 28.1038 41.0022C28.2444 41.1278 28.39 41.0424 28.5407 40.9872C28.6913 40.942 28.8369 41.0072 28.9926 40.9771C29.0328 40.9821 29.0679 40.9821 29.1081 40.9821C29.1583 40.9821 29.2035 40.9771 29.2537 40.9721C29.3943 40.9621 29.545 40.9571 29.6805 40.9671C29.8312 40.937 29.9969 40.9169 30.1475 40.9119C30.1526 41.0675 30.1425 41.2433 30.1023 41.419C30.1224 41.5596 30.1224 41.7153 30.1224 41.871C30.1224 41.9563 30.1124 42.0367 30.1124 42.122C30.1626 42.2877 30.1074 42.4585 30.1174 42.6292C30.1425 42.7999 29.9818 42.9707 30.1224 43.1464C30.1425 43.3222 30.1023 43.4979 30.1224 43.6737C30.1023 43.8494 30.0873 44.0302 30.1224 44.211C30.1124 44.221 30.1074 44.2311 30.0973 44.2461C30.0973 44.2511 30.0923 44.2562 30.0873 44.2662L30.0772 44.2964C30.0672 44.3365 30.0571 44.3767 30.0521 44.4169C30.0421 44.4922 30.0421 44.5725 30.0471 44.6529C30.0572 44.8136 30.0923 45.0044 30.1174 45.2053C29.9617 45.2253 29.786 45.2303 29.6102 45.2253C29.5199 45.2253 29.4345 45.2253 29.3441 45.2153H29.2135L29.1834 45.2053H29.1633L29.1282 45.2002C28.9474 45.2153 28.7666 45.2052 28.5909 45.2002C28.4151 45.2404 28.2343 45.14 28.0636 45.2002C27.8879 45.2605 27.7171 45.14 27.5464 45.2002C27.3757 45.2404 27.2049 45.2605 27.0392 45.1952C26.8735 45.1952 26.7078 45.0697 26.5471 45.1902C26.3864 45.2153 26.2257 45.376 26.0651 45.1802C25.9094 45.2304 25.7487 45.0898 25.598 45.1701C25.4424 45.0295 25.2917 45.1651 25.1461 45.16C25.0005 45.1349 24.8549 45.0847 24.7092 45.145C24.6741 45.1601 24.6389 45.1651 24.6038 45.1651H24.5737H24.5285C24.4983 45.1651 24.4682 45.16 24.4381 45.155C24.3176 45.14 24.2121 45.1199 24.0866 45.1299C23.941 45.1701 23.8305 45.14 23.7451 45.1149C23.7702 44.9793 23.7903 44.8688 23.7451 44.7885C23.7551 44.673 23.7501 44.5675 23.7451 44.462C23.7451 44.4118 23.7451 44.3566 23.7451 44.3064V44.2712V44.2461C23.7451 44.2311 23.7451 44.216 23.7552 44.2009C23.5643 44.0754 23.7552 43.9549 23.7702 43.8394C23.7953 43.7239 23.6447 43.6084 23.7903 43.4979C23.6447 43.3875 23.7702 43.282 23.8104 43.1816C23.8506 43.0761 23.7501 42.9807 23.8305 42.8853C23.73 42.7899 23.8857 42.6995 23.8506 42.6141C23.9158 42.5288 23.8506 42.4434 23.8706 42.3681C23.8455 42.2877 23.8556 42.2174 23.8907 42.1471C23.9008 42.0768 23.9058 42.0115 23.9159 41.9513C23.961 41.5897 24.0163 41.3889 24.0665 41.3889L24.0866 41.3638Z" fill="#CA534B"/>
<path d="M34.5668 41.3637C34.622 41.3637 34.6722 41.5645 34.7174 41.9261C34.7224 41.9863 34.7325 42.0516 34.7425 42.1219C34.7576 42.1922 34.7726 42.2675 34.7626 42.3429C34.6923 42.4232 34.8932 42.5036 34.7827 42.5889C34.7526 42.6743 34.7827 42.7647 34.8028 42.8601C34.8279 42.9555 34.7576 43.0559 34.8229 43.1564C34.9584 43.2618 34.6722 43.3673 34.8429 43.4727C34.8781 43.5832 34.8681 43.6987 34.863 43.8142C34.7576 43.9297 34.863 44.0502 34.8831 44.1757C34.8681 44.1908 34.853 44.2058 34.8429 44.2209C34.8379 44.231 34.8329 44.236 34.8279 44.246C34.8279 44.2561 34.8229 44.2561 34.8178 44.2611C34.8078 44.2762 34.8028 44.2962 34.8078 44.3113C34.8178 44.3414 34.853 44.3615 34.8982 44.3565C34.8128 44.4318 34.7777 44.5071 34.7777 44.5423C34.8229 44.5423 34.9082 44.4921 34.9785 44.4067C34.9986 44.4067 35.0137 44.4218 35.0388 44.4268C35.0438 44.4268 35.0488 44.4268 35.0589 44.4268C35.0589 44.4268 35.0639 44.4268 35.0689 44.4268H35.094C35.1292 44.4218 35.1643 44.4117 35.1995 44.3917C35.3401 44.3816 35.4857 44.3464 35.6364 44.3766C35.782 44.2611 35.9326 44.2661 36.0883 44.3665C36.2389 44.241 36.3946 44.2912 36.5553 44.3565C36.716 44.4268 36.8716 44.246 37.0373 44.3464C37.2031 44.3565 37.3638 44.3163 37.5345 44.3364C37.7002 44.3866 37.8709 44.4419 38.0416 44.3314C38.2124 44.3013 38.3831 44.2611 38.5589 44.3264C38.7346 44.1958 38.9104 44.2561 39.0861 44.3264C39.2669 44.3063 39.4427 44.3967 39.6234 44.3264H39.6586H39.6736C39.6736 44.3264 39.6787 44.3264 39.6837 44.3264C39.6887 44.3264 39.6937 44.3163 39.6988 44.3113C39.7038 44.3013 39.6988 44.2962 39.7439 44.3264C39.7439 44.3264 39.7841 44.3264 39.7891 44.3063C39.7891 44.2962 39.7891 44.2862 39.7891 44.2761C39.7891 44.2711 39.7791 44.2661 39.7741 44.2611H39.769C39.769 44.2611 39.7691 44.246 39.764 44.241C39.764 44.2309 39.754 44.2209 39.749 44.2059C39.6636 44.0251 39.7841 43.8443 39.749 43.6686C39.8745 43.4928 39.7088 43.312 39.749 43.1413C39.7389 42.9655 39.8193 42.7948 39.754 42.6241C39.7289 42.4533 39.7088 42.2826 39.759 42.1169C39.6636 42.0315 39.6736 41.9512 39.7088 41.8708C39.7389 41.8708 39.7891 41.8307 39.769 41.8206C39.8092 41.7805 39.8042 41.7554 39.7942 41.7453C39.764 41.7554 39.7389 41.7704 39.7289 41.7604C39.7038 41.7804 39.6988 41.7604 39.6787 41.7403H39.6686C39.6686 41.7403 39.6485 41.7302 39.6435 41.7302C39.6234 41.7302 39.6033 41.7302 39.5833 41.7302C39.5431 41.7302 39.5079 41.7353 39.4678 41.7554C39.3171 41.7403 39.1614 41.8156 39.0158 41.7453C38.8702 41.8407 38.7246 41.665 38.579 41.7302C38.4383 41.7302 38.2978 41.7353 38.1622 41.7152C38.0266 41.5645 37.891 41.6901 37.7604 41.7001C37.6299 41.685 37.5044 41.7855 37.3788 41.6851C37.2533 41.675 37.1328 41.6097 37.0173 41.67C36.9018 41.6901 36.7863 41.4541 36.6758 41.6499C36.5653 41.6851 36.4599 41.4993 36.3595 41.6298C36.259 41.7503 36.1586 41.6147 36.0632 41.6097C35.9678 41.6047 35.8774 41.5947 35.792 41.5896C35.0137 41.5244 34.5668 41.449 34.5668 41.3687C34.5668 41.2783 35.1191 41.198 36.0682 41.1277C36.1636 41.1227 36.264 41.0172 36.3645 41.1076C36.4649 41.1076 36.5754 41.0272 36.6808 41.0875C36.7913 40.9519 36.9068 41.0624 37.0223 41.0674C37.1378 41.0624 37.2583 41.1076 37.3838 41.0523C37.5094 40.972 37.6349 41.0925 37.7655 41.0373C37.896 41.1227 38.0266 41.0975 38.1672 41.0222C38.3028 41.1026 38.4434 41.0021 38.584 41.0071C38.7246 41.1327 38.8702 41.0473 39.0208 40.9921C39.1665 40.9469 39.3171 41.0122 39.4728 40.982C39.513 40.9871 39.5481 40.9871 39.5883 40.9871C39.6385 40.9871 39.6837 40.982 39.7339 40.977C39.8745 40.967 40.0251 40.962 40.1607 40.972C40.3114 40.9419 40.4771 40.9218 40.6277 40.9167C40.6328 41.0724 40.6227 41.2482 40.5825 41.4239C40.6026 41.5645 40.6026 41.7202 40.6026 41.8759C40.6026 41.9612 40.5926 42.0416 40.5926 42.1269C40.6428 42.2927 40.5876 42.4634 40.5976 42.6341C40.6227 42.8049 40.462 42.9806 40.6026 43.1513C40.6227 43.3271 40.5825 43.5028 40.6026 43.6786C40.5876 43.8543 40.5675 44.0351 40.6026 44.2159C40.5926 44.2259 40.5876 44.236 40.5775 44.251C40.5775 44.2561 40.5725 44.2611 40.5675 44.2711L40.5574 44.3013C40.5474 44.3414 40.5373 44.3816 40.5323 44.4218C40.5223 44.4971 40.5223 44.5774 40.5273 44.6578C40.5373 44.8185 40.5725 45.0093 40.5976 45.2102C40.4419 45.2303 40.2662 45.2353 40.0904 45.2302C40 45.2302 39.9147 45.2302 39.8243 45.2202H39.6937L39.6636 45.2102H39.6435L39.6084 45.2051C39.4276 45.2202 39.2468 45.2102 39.0711 45.2051C38.8953 45.2453 38.7145 45.1449 38.5438 45.2051C38.368 45.2654 38.1973 45.1449 38.0266 45.2051C37.8559 45.2453 37.6851 45.2654 37.5194 45.2001C37.3537 45.2001 37.188 45.0746 37.0223 45.1951C36.8616 45.2202 36.7009 45.3809 36.5402 45.185C36.3846 45.2352 36.2239 45.0947 36.0732 45.175C35.9176 45.0344 35.7669 45.17 35.6213 45.165C35.4757 45.1399 35.33 45.0896 35.1844 45.1499C35.1493 45.1649 35.1141 45.17 35.079 45.17H35.0488H35.0036C34.9735 45.17 34.9434 45.165 34.9133 45.1599C34.7927 45.1449 34.6873 45.1248 34.5617 45.1348C34.4161 45.175 34.3056 45.1449 34.2203 45.1198C34.2454 44.9842 34.2655 44.8737 34.2203 44.7984C34.2303 44.6829 34.2253 44.5774 34.2203 44.472C34.2203 44.4167 34.2203 44.3665 34.2203 44.3113V44.2761V44.251C34.2203 44.236 34.2203 44.2209 34.2303 44.2059C34.0395 44.0803 34.2303 43.9598 34.2504 43.8443C34.2755 43.7288 34.1249 43.6133 34.2705 43.5028C34.1249 43.3924 34.2504 43.2869 34.2906 43.1865C34.3307 43.0861 34.2303 42.9856 34.3107 42.8902C34.2102 42.7948 34.3659 42.7044 34.3308 42.619C34.396 42.5337 34.3308 42.4483 34.3508 42.373C34.3257 42.2927 34.3358 42.2224 34.3709 42.1521C34.381 42.0817 34.386 42.0165 34.396 41.9562C34.4412 41.5947 34.4965 41.3938 34.5467 41.3938L34.5668 41.3637Z" fill="#CA534B"/>
<path d="M45.0516 41.3637C45.1068 41.3637 45.1571 41.7102 45.2023 42.3429C45.2073 42.4483 45.2173 42.5588 45.2274 42.6843C45.2424 42.8048 45.2575 42.9354 45.2474 43.071C45.1771 43.2066 45.378 43.3522 45.2675 43.5028C45.2374 43.6535 45.2675 43.8142 45.2876 43.9749C45.3127 44.1406 45.2424 44.3113 45.3077 44.4871C45.4433 44.6678 45.1571 44.8486 45.3278 45.0444C45.3629 45.2353 45.3529 45.4311 45.3479 45.637C45.2424 45.8429 45.3479 46.0487 45.3629 46.2647C45.2374 46.4806 45.2926 46.7015 45.378 46.9275C45.2073 47.1535 45.2324 47.3845 45.3931 47.6255C45.3981 47.8615 45.3328 48.1075 45.4081 48.3536C45.4182 48.5997 45.4533 48.8558 45.4232 49.1119C45.5387 49.368 45.5337 49.6341 45.4332 49.9002C45.5588 50.1664 45.5086 50.4375 45.4433 50.7137C45.4282 50.769 45.4232 50.8292 45.4282 50.8845V50.9045C45.4282 50.9045 45.4282 50.9045 45.4282 50.9096C45.4282 50.9096 45.4282 50.9146 45.4282 50.9196C45.4282 50.9246 45.4383 50.9296 45.4433 50.9347C45.4634 50.9548 45.4885 50.9497 45.4784 50.9748C45.4784 50.9748 45.4784 50.9849 45.4784 51.005C45.4885 51.005 45.5035 51.005 45.5186 51.005C45.5387 51.005 45.5186 50.9999 45.619 50.9949C45.7647 50.9899 45.9053 50.9849 46.0509 50.9949C46.3421 51.0451 46.6384 51.1054 46.9347 50.9899C47.2309 50.9598 47.5322 50.9196 47.8385 50.9899C48.1449 50.8593 48.4512 50.9146 48.7575 50.9899C49.0688 50.9698 49.3802 51.0602 49.6965 50.9899C49.7769 50.9949 49.8522 50.9899 49.9325 50.9899H50.053L50.1133 50.9799C50.1334 50.9799 50.1585 50.9799 50.1535 50.9799C50.1736 50.9698 50.1735 50.9648 50.2238 50.9949C50.2238 50.9949 50.2639 50.9648 50.269 50.9296C50.269 50.9296 50.269 50.9045 50.269 50.8845V50.8242C50.269 50.784 50.2689 50.7439 50.2639 50.7037C50.2589 50.6234 50.2438 50.548 50.2238 50.4677C50.1384 50.1513 50.2589 49.84 50.2238 49.5286C50.3493 49.2173 50.1836 48.911 50.2238 48.6097C50.2137 48.3034 50.2941 48.0021 50.2288 47.7058C50.2037 47.4096 50.1836 47.1133 50.2338 46.822C50.043 46.5308 50.284 46.2446 50.2439 45.9634C50.3242 45.6822 50.2338 45.401 50.2539 45.1248C50.2187 44.8486 50.3392 44.5774 50.2639 44.3113C50.279 44.0452 50.2037 43.784 50.274 43.5229C50.1786 43.2668 50.3543 43.0107 50.289 42.7647C50.289 42.5186 50.284 42.2726 50.3041 42.0366C50.3393 41.9813 50.3593 41.9211 50.3694 41.8759C50.3794 41.8508 50.3794 41.8256 50.3694 41.8005C50.3593 41.7503 50.3292 41.7302 50.3192 41.7051C50.3142 41.7051 50.3091 41.7051 50.3041 41.7051C50.269 41.6951 50.2137 41.7202 50.1836 41.7302C50.1736 41.7302 50.1635 41.7302 50.1585 41.7353H50.1484C50.1384 41.7353 50.1233 41.7353 50.1083 41.7353C50.053 41.7353 49.9978 41.7202 49.9476 41.6951C49.7317 41.6851 49.5208 41.6198 49.3199 41.68C49.114 41.7001 48.9182 41.4641 48.7273 41.6599C48.5365 41.6951 48.3507 41.5093 48.175 41.6398C47.9942 41.7604 47.8235 41.6248 47.6578 41.6198C47.4921 41.6147 47.3364 41.6047 47.1858 41.5997C45.8299 41.5344 45.0516 41.4591 45.0516 41.3787C45.0516 41.2884 46.0107 41.208 47.6628 41.1377C47.8285 41.1327 47.9992 41.0272 48.18 41.1176C48.3558 41.1176 48.5416 41.0373 48.7324 41.0975C48.9232 40.962 49.119 41.0724 49.3249 41.0774C49.5308 41.0724 49.7367 41.1176 49.9526 41.0624C50.0078 41.0423 50.0581 41.0373 50.1133 41.0323H50.1535H50.2238C50.269 41.0323 50.3141 41.0373 50.3644 41.0423C50.5502 41.0573 50.7159 41.0724 50.9268 41.0423L50.977 41.0574C50.9418 41.2683 50.9318 41.439 50.9368 41.6097C50.9368 41.6951 50.9469 41.7805 50.9569 41.8708C50.9669 41.9361 50.982 41.9864 51.0021 42.0416C50.9167 42.2776 51.0222 42.5236 51.0172 42.7697C50.8916 43.0157 50.977 43.2718 51.0322 43.5279C51.0774 43.784 51.0121 44.0502 51.0423 44.3163C51.0172 44.5825 51.0724 44.8536 51.0523 45.1298C51.1126 45.406 51.1327 45.6822 51.0624 45.9684C51.1025 46.2496 51.0724 46.5408 51.0724 46.8271C51.1226 47.1183 51.0674 47.4096 51.0774 47.7109C51.1025 48.0071 50.9418 48.3084 51.0824 48.6147C51.1025 48.916 51.0623 49.2274 51.0824 49.5337C51.0623 49.845 51.0473 50.1563 51.0824 50.4727C51.0473 50.553 51.0272 50.6283 51.0172 50.7087C51.0121 50.7489 51.0071 50.7891 51.0071 50.8292V50.9648C51.0222 51.241 51.0573 51.5372 51.0824 51.8687C50.8012 51.8887 50.4899 51.8938 50.1836 51.8888H50.1033H50.043H49.9225L49.6865 51.8687C49.3701 51.8837 49.0588 51.8737 48.7474 51.8687C48.4361 51.9088 48.1298 51.8084 47.8285 51.8687C47.5222 51.9289 47.2259 51.8034 46.9246 51.8637C46.6284 51.9038 46.3321 51.9239 46.0408 51.8586C45.8952 51.8586 45.7496 51.8285 45.609 51.8084C45.5588 51.7984 45.4132 51.7934 45.2926 51.7984C45.1671 51.8034 45.0416 51.8185 44.8909 51.8486C44.8005 51.8486 44.7051 51.8636 44.6047 51.8737C44.5796 51.6778 44.5495 51.472 44.5444 51.241C44.5444 51.1857 44.5444 51.1255 44.5444 51.0703V50.9849L44.5545 50.9447V50.9246C44.5746 50.8694 44.5997 50.8091 44.6398 50.7539C44.5896 50.4777 44.7352 50.2066 44.6499 49.9404C44.7905 49.6743 44.6549 49.4132 44.6599 49.152C44.6901 48.8959 44.7353 48.6398 44.675 48.3938C44.6097 48.1477 44.7101 47.9017 44.6901 47.6657C44.6097 47.4296 44.7955 47.1937 44.7051 46.9677C44.7252 46.7417 44.6951 46.5208 44.7202 46.3048C44.5294 46.0889 44.7202 45.878 44.7403 45.6772C44.7654 45.4713 44.6147 45.2754 44.7604 45.0846C44.6147 44.8938 44.7403 44.708 44.7804 44.5272C44.8206 44.3515 44.7202 44.1757 44.8005 44.015C44.7001 43.8493 44.8558 43.6937 44.8206 43.543C44.8859 43.3924 44.8206 43.2467 44.8407 43.1111C44.8156 42.9756 44.8256 42.845 44.8608 42.7245C44.8708 42.604 44.8758 42.4885 44.8859 42.383C44.9311 41.7503 44.9863 41.4038 45.0365 41.4038L45.0516 41.3637Z" fill="#CA534B"/>
<path d="M24.0866 48.0125C24.1418 48.0125 24.192 48.2133 24.2372 48.5749C24.2422 48.6351 24.2523 48.7004 24.2623 48.7707C24.2774 48.841 24.2925 48.9163 24.2824 48.9917C24.2121 49.072 24.413 49.1523 24.3025 49.2377C24.2724 49.3231 24.3025 49.4135 24.3226 49.5089C24.3477 49.6043 24.2774 49.7047 24.3427 49.8051C24.4782 49.9056 24.192 50.011 24.3628 50.1215C24.3979 50.232 24.3879 50.3424 24.3828 50.463C24.2774 50.5784 24.3828 50.699 24.4029 50.8245C24.3879 50.8396 24.3728 50.8546 24.3628 50.8697C24.3577 50.8797 24.3527 50.8848 24.3477 50.8948C24.3477 50.9048 24.3427 50.9049 24.3377 50.9099C24.3276 50.9249 24.3226 50.945 24.3276 50.9601C24.3376 50.9902 24.3728 51.0103 24.418 51.0053C24.3326 51.0806 24.2975 51.1559 24.2975 51.1911C24.3427 51.1911 24.428 51.1409 24.4983 51.0555C24.5184 51.0555 24.5335 51.0706 24.5586 51.0756C24.5636 51.0756 24.5686 51.0756 24.5787 51.0756C24.5787 51.0756 24.5837 51.0756 24.5887 51.0756H24.6138C24.649 51.0706 24.6841 51.0605 24.7193 51.0404C24.8599 51.0304 25.0055 50.9952 25.1561 51.0254C25.3068 50.9099 25.4575 50.9149 25.6081 51.0153C25.7587 50.8898 25.9144 50.94 26.0751 51.0053C26.2308 51.0756 26.3914 50.8948 26.5572 50.9952C26.7178 51.0053 26.8836 50.9651 27.0493 50.9852C27.215 51.0354 27.3857 51.0957 27.5564 50.9802C27.7272 50.9501 27.9029 50.9099 28.0737 50.9802C28.2494 50.8496 28.4252 50.9049 28.6009 50.9802C28.7767 50.9601 28.9574 51.0505 29.1382 50.9802H29.1734H29.1884C29.1884 50.9802 29.1935 50.9802 29.1985 50.9802C29.2035 50.9802 29.2085 50.9701 29.2135 50.9651C29.2186 50.9551 29.2186 50.9501 29.2587 50.9802C29.2587 50.9802 29.2989 50.9802 29.3039 50.9601C29.3039 50.95 29.3039 50.94 29.2989 50.9299C29.2989 50.9249 29.2889 50.9199 29.2838 50.9149C29.2838 50.9149 29.2838 50.8998 29.2788 50.8948C29.2788 50.8848 29.2688 50.8747 29.2638 50.8597C29.1784 50.6789 29.2989 50.4981 29.2638 50.3224C29.3893 50.1466 29.2236 49.9658 29.2638 49.7951C29.2537 49.6193 29.334 49.4486 29.2688 49.2779C29.2437 49.1072 29.2236 48.9364 29.2738 48.7707C29.1784 48.6853 29.1884 48.605 29.2236 48.5247C29.2537 48.5247 29.3039 48.4845 29.2838 48.4745C29.324 48.4343 29.319 48.4092 29.3089 48.3991C29.2788 48.4092 29.2537 48.4242 29.2437 48.4142C29.2186 48.4343 29.2135 48.4142 29.1934 48.3941H29.1884C29.1884 48.3941 29.1734 48.384 29.1633 48.384C29.1432 48.384 29.1232 48.384 29.1031 48.384C29.0629 48.384 29.0277 48.3891 28.9876 48.4092C28.8369 48.3941 28.6863 48.4694 28.5356 48.3991C28.385 48.4945 28.2444 48.3188 28.0988 48.384C27.9582 48.384 27.8176 48.3891 27.682 48.369C27.5464 48.2234 27.4108 48.3439 27.2803 48.3539C27.1497 48.3388 27.0242 48.4393 26.8986 48.3389C26.7731 48.3288 26.6526 48.2635 26.5371 48.3238C26.4216 48.3439 26.3061 48.1079 26.1956 48.3037C26.0851 48.3389 25.9797 48.1531 25.8792 48.2836C25.7788 48.4041 25.6784 48.2685 25.583 48.2635C25.4876 48.2585 25.3972 48.2485 25.3118 48.2435C24.5335 48.1782 24.0866 48.1028 24.0866 48.0225C24.0866 47.9321 24.6389 47.8518 25.588 47.7815C25.6834 47.7765 25.7838 47.671 25.8843 47.7614C25.9847 47.7614 26.0902 47.681 26.2006 47.7413C26.3111 47.6057 26.4266 47.7162 26.5421 47.7212C26.6576 47.7162 26.7781 47.7614 26.9036 47.7061C27.0292 47.6258 27.1547 47.7463 27.2853 47.6911C27.4158 47.7765 27.5514 47.7513 27.687 47.676C27.8226 47.7614 27.9632 47.6609 28.1038 47.6609C28.2444 47.7865 28.39 47.7011 28.5407 47.6459C28.6913 47.6007 28.8369 47.666 28.9926 47.6358C29.0328 47.6409 29.0679 47.6409 29.1081 47.6409C29.1583 47.6409 29.2035 47.6358 29.2537 47.6308C29.3943 47.6208 29.545 47.6158 29.6805 47.6258C29.8312 47.5957 29.9969 47.5756 30.1475 47.5706C30.1526 47.7262 30.1425 47.902 30.1023 48.0777C30.1224 48.2183 30.1224 48.374 30.1224 48.5247C30.1224 48.61 30.1124 48.6904 30.1124 48.7757C30.1626 48.9414 30.1074 49.1122 30.1174 49.2829C30.1425 49.4536 29.9818 49.6244 30.1224 49.8001C30.1425 49.9759 30.1023 50.1516 30.1224 50.3274C30.1023 50.5082 30.0873 50.6839 30.1224 50.8647C30.1124 50.8747 30.1074 50.8848 30.0973 50.8998C30.0973 50.9048 30.0923 50.9099 30.0873 50.9199L30.0772 50.9501C30.0672 50.9902 30.0571 51.0304 30.0521 51.0655C30.0421 51.1459 30.0421 51.2212 30.0471 51.3015C30.0572 51.4622 30.0923 51.648 30.1174 51.8489C29.9617 51.869 29.786 51.874 29.6102 51.869C29.5199 51.869 29.4345 51.869 29.3441 51.8589H29.2135L29.1834 51.8489H29.1633L29.1282 51.8439C28.9474 51.8589 28.7666 51.8489 28.5909 51.8439C28.4151 51.884 28.2343 51.7836 28.0636 51.8439C27.8879 51.9041 27.7171 51.7786 27.5464 51.8388C27.3757 51.879 27.2049 51.8991 27.0392 51.8338C26.8735 51.8338 26.7078 51.7083 26.5471 51.8238C26.3864 51.8489 26.2257 52.0096 26.0651 51.8137C25.9094 51.864 25.7487 51.7183 25.598 51.8037C25.4424 51.6631 25.2917 51.7987 25.1461 51.7937C25.0005 51.7686 24.8549 51.7183 24.7092 51.7786C24.6741 51.7937 24.6389 51.8037 24.6038 51.8037H24.5737H24.5285C24.4983 51.8037 24.4682 51.7987 24.4381 51.7937C24.3176 51.7786 24.2121 51.7585 24.0866 51.7686C23.941 51.8087 23.8305 51.7836 23.7451 51.7535C23.7702 51.6179 23.7903 51.5074 23.7451 51.4271C23.7551 51.3116 23.7501 51.2061 23.7451 51.1007C23.7451 51.0505 23.7451 50.9952 23.7451 50.945V50.9099V50.8848C23.7451 50.8697 23.7451 50.8546 23.7552 50.8396C23.5643 50.714 23.7552 50.5935 23.7702 50.478C23.7953 50.3625 23.6447 50.247 23.7903 50.1366C23.6447 50.0261 23.7702 49.9206 23.8104 49.8202C23.8506 49.7198 23.7501 49.6193 23.8305 49.5239C23.73 49.4285 23.8857 49.3381 23.8506 49.2528C23.9158 49.1674 23.8506 49.0821 23.8706 49.0067C23.8455 48.9264 23.8556 48.8561 23.8907 48.7858C23.9008 48.7155 23.9058 48.6502 23.9159 48.5899C23.961 48.2284 24.0163 48.0275 24.0665 48.0275L24.0866 48.0125Z" fill="#CA534B"/>
<path d="M34.5668 48.0125C34.622 48.0125 34.6722 48.2133 34.7174 48.5749C34.7224 48.6351 34.7325 48.7004 34.7425 48.7707C34.7576 48.841 34.7726 48.9163 34.7626 48.9917C34.6923 49.072 34.8932 49.1523 34.7827 49.2377C34.7526 49.3231 34.7827 49.4135 34.8028 49.5089C34.8279 49.6043 34.7576 49.7047 34.8229 49.8051C34.9584 49.9056 34.6722 50.011 34.8429 50.1215C34.8781 50.232 34.8681 50.3475 34.863 50.463C34.7576 50.5784 34.863 50.699 34.8831 50.8245C34.8681 50.8396 34.853 50.8546 34.8429 50.8697C34.8379 50.8797 34.8329 50.8848 34.8279 50.8948C34.8279 50.8998 34.8229 50.9049 34.8178 50.9099C34.8078 50.9249 34.8028 50.945 34.8078 50.9601C34.8178 50.9902 34.853 51.0103 34.8982 51.0053C34.8128 51.0806 34.7777 51.1559 34.7777 51.1911C34.8229 51.1911 34.9082 51.1409 34.9785 51.0555C34.9986 51.0555 35.0137 51.0706 35.0388 51.0756C35.0438 51.0756 35.0488 51.0756 35.0589 51.0756C35.0589 51.0756 35.0639 51.0756 35.0689 51.0756H35.094C35.1292 51.0706 35.1643 51.0605 35.1995 51.0404C35.3401 51.0304 35.4857 50.9952 35.6364 51.0254C35.782 50.9099 35.9326 50.9149 36.0883 51.0153C36.2389 50.8898 36.3946 50.94 36.5553 51.0053C36.716 51.0756 36.8716 50.8948 37.0373 50.9952C37.2031 51.0053 37.3638 50.9651 37.5345 50.9852C37.7002 51.0354 37.8709 51.0957 38.0416 50.9802C38.2124 50.9501 38.3831 50.9099 38.5589 50.9802C38.7346 50.8496 38.9104 50.9049 39.0861 50.9802C39.2669 50.9601 39.4427 51.0505 39.6234 50.9802H39.6586H39.6736C39.6736 50.9802 39.6787 50.9802 39.6837 50.9802C39.6887 50.9802 39.6937 50.9701 39.6988 50.9651C39.7038 50.9551 39.6988 50.9501 39.7439 50.9802C39.7439 50.9802 39.7841 50.9802 39.7891 50.9601C39.7891 50.95 39.7891 50.94 39.7891 50.9299C39.7891 50.9249 39.7791 50.9199 39.7741 50.9149H39.769C39.769 50.9149 39.7691 50.8998 39.764 50.8948C39.764 50.8848 39.754 50.8747 39.749 50.8597C39.6636 50.6789 39.7841 50.4981 39.749 50.3224C39.8745 50.1466 39.7088 49.9658 39.749 49.7951C39.7389 49.6193 39.8193 49.4486 39.754 49.2779C39.7289 49.1072 39.7088 48.9364 39.759 48.7707C39.6636 48.6904 39.6736 48.605 39.7088 48.5247C39.7389 48.5247 39.7891 48.4845 39.769 48.4745C39.8092 48.4343 39.8042 48.4092 39.7942 48.3991C39.764 48.4092 39.7389 48.4242 39.7289 48.4142C39.7038 48.4343 39.6988 48.4142 39.6787 48.3941H39.6686C39.6686 48.3941 39.6485 48.384 39.6435 48.384C39.6234 48.384 39.6033 48.384 39.5833 48.384C39.5431 48.384 39.5079 48.3891 39.4678 48.4092C39.3171 48.3941 39.1614 48.4694 39.0158 48.3991C38.8702 48.4945 38.7246 48.3188 38.579 48.384C38.4383 48.384 38.2978 48.3891 38.1622 48.369C38.0266 48.2234 37.891 48.3439 37.7604 48.3539C37.6299 48.3388 37.5044 48.4393 37.3788 48.3389C37.2533 48.3288 37.1328 48.2635 37.0173 48.3238C36.9018 48.3439 36.7863 48.1079 36.6758 48.3037C36.5653 48.3389 36.4599 48.1531 36.3595 48.2836C36.259 48.4041 36.1586 48.2685 36.0632 48.2635C35.9678 48.2585 35.8774 48.2485 35.792 48.2435C35.0137 48.1782 34.5668 48.1028 34.5668 48.0225C34.5668 47.9321 35.1191 47.8518 36.0682 47.7815C36.1636 47.7765 36.264 47.671 36.3645 47.7614C36.4649 47.7614 36.5754 47.681 36.6808 47.7413C36.7913 47.6057 36.9068 47.7162 37.0223 47.7212C37.1378 47.7162 37.2583 47.7614 37.3838 47.7061C37.5094 47.6258 37.6349 47.7463 37.7655 47.6911C37.896 47.7765 38.0266 47.7513 38.1672 47.676C38.3028 47.7614 38.4434 47.6609 38.584 47.6609C38.7246 47.7865 38.8702 47.7011 39.0208 47.6459C39.1665 47.6007 39.3171 47.666 39.4728 47.6358C39.513 47.6409 39.5481 47.6409 39.5883 47.6409C39.6385 47.6409 39.6837 47.6358 39.7339 47.6308C39.8745 47.6208 40.0251 47.6158 40.1607 47.6258C40.3114 47.5957 40.4771 47.5756 40.6277 47.5706C40.6328 47.7262 40.6227 47.902 40.5825 48.0777C40.6026 48.2183 40.6026 48.374 40.6026 48.5247C40.6026 48.61 40.5926 48.6904 40.5926 48.7757C40.6428 48.9414 40.5876 49.1122 40.5976 49.2829C40.6227 49.4536 40.462 49.6244 40.6026 49.8001C40.6227 49.9759 40.5825 50.1516 40.6026 50.3274C40.5876 50.5082 40.5675 50.6839 40.6026 50.8647C40.5926 50.8747 40.5876 50.8848 40.5775 50.8998C40.5775 50.9048 40.5725 50.9099 40.5675 50.9199L40.5574 50.9501C40.5474 50.9902 40.5373 51.0304 40.5323 51.0706C40.5223 51.1459 40.5223 51.2262 40.5273 51.3066C40.5373 51.4673 40.5725 51.6531 40.5976 51.8539C40.4419 51.874 40.2662 51.879 40.0904 51.874C40 51.874 39.9147 51.874 39.8243 51.864H39.6937L39.6636 51.8539H39.6435L39.6084 51.8489C39.4276 51.864 39.2468 51.8539 39.0711 51.8489C38.8953 51.8891 38.7145 51.7886 38.5438 51.8489C38.368 51.9092 38.1973 51.7836 38.0266 51.8439C37.8559 51.884 37.6851 51.9041 37.5194 51.8388C37.3537 51.8388 37.188 51.7133 37.0223 51.8288C36.8616 51.8539 36.7009 52.0146 36.5402 51.8188C36.3846 51.869 36.2239 51.7233 36.0732 51.8087C35.9176 51.6681 35.7669 51.8037 35.6213 51.7987C35.4757 51.7736 35.33 51.7234 35.1844 51.7836C35.1493 51.7987 35.1141 51.8087 35.079 51.8087H35.0488H35.0036C34.9735 51.8087 34.9434 51.8037 34.9133 51.7987C34.7927 51.7836 34.6873 51.7635 34.5617 51.7736C34.4161 51.8137 34.3056 51.7836 34.2203 51.7585C34.2454 51.6229 34.2655 51.5124 34.2203 51.4371C34.2303 51.3216 34.2253 51.2162 34.2203 51.1107C34.2203 51.0605 34.2203 51.0053 34.2203 50.9501V50.9149V50.8898C34.2203 50.8747 34.2203 50.8597 34.2303 50.8446C34.0395 50.7191 34.2303 50.5986 34.2504 50.4831C34.2755 50.3676 34.1249 50.252 34.2705 50.1416C34.1249 50.0311 34.2504 49.9257 34.2906 49.8252C34.3307 49.7198 34.2303 49.6244 34.3107 49.529C34.2102 49.4335 34.3659 49.3432 34.3308 49.2578C34.396 49.1724 34.3308 49.0871 34.3508 49.0117C34.3257 48.9314 34.3358 48.8611 34.3709 48.7908C34.381 48.7205 34.386 48.6552 34.396 48.595C34.4412 48.2334 34.4965 48.0326 34.5467 48.0326L34.5668 48.0125Z" fill="#CA534B"/>
<path d="M53.8192 55.5044C53.8192 55.5044 53.7941 55.5546 53.7238 55.6199C53.7037 55.6349 53.6836 55.655 53.6635 55.6751C53.6384 55.6952 53.6133 55.7153 53.5832 55.7354C53.5229 55.7755 53.4576 55.8258 53.3723 55.871C53.2116 55.9714 52.9957 56.0668 52.7245 56.1371C52.5889 56.1772 52.4383 56.2024 52.2776 56.2174C52.1119 56.2325 51.9461 56.2375 51.7704 56.2425C51.5344 56.2476 51.2833 56.2576 51.0122 56.2676C50.741 56.2827 50.4548 56.2978 50.1535 56.2927C49.8522 56.2224 49.5308 56.4233 49.1944 56.3128C48.8579 56.2827 48.5064 56.3128 48.1398 56.3329C47.7733 56.358 47.3916 56.2877 46.9949 56.353C46.5982 56.4886 46.1865 56.2024 45.7597 56.3731C45.3328 56.4083 44.8959 56.3982 44.444 56.3932C43.9921 56.2877 43.5251 56.3932 43.048 56.4133C42.566 56.2877 42.0789 56.343 41.5717 56.4283C41.0695 56.2576 40.5523 56.2827 40.0251 56.4434C39.4978 56.4434 38.9555 56.3831 38.4031 56.4585C37.8508 56.4685 37.2884 56.5037 36.7159 56.4735C36.1435 56.589 35.561 56.584 34.9684 56.4836C34.3759 56.6091 33.7733 56.5589 33.1607 56.4936C32.548 56.4233 31.9254 56.6041 31.2977 56.5037C30.67 56.4936 30.0323 56.5338 29.3845 56.5137C28.7367 56.4635 28.0839 56.4032 27.4211 56.5187C26.7582 56.5488 26.0904 56.589 25.4125 56.5237C24.7346 56.6543 24.0517 56.5991 23.3637 56.5237C23.193 56.5237 23.0172 56.5237 22.8465 56.5237H22.7159L22.6506 56.5187H22.5753C22.4749 56.5037 22.3795 56.5036 22.2791 56.4836C22.1786 56.4685 22.0832 56.4534 21.9878 56.4283L21.8422 56.3982L21.7066 56.358C21.6714 56.348 21.6363 56.343 21.6263 56.358C21.6112 56.348 21.6012 56.3379 21.5861 56.3329C21.576 56.3279 21.566 56.3179 21.561 56.3179C21.561 56.3329 21.571 56.348 21.5761 56.358C21.5861 56.3831 21.5961 56.4082 21.6062 56.4233C21.6162 56.4434 21.6212 56.4534 21.6263 56.4635L21.6614 56.5539L21.7016 56.6493C21.7317 56.7146 21.7518 56.7798 21.7819 56.8401C21.9125 57.1313 22.0832 57.4025 22.2991 57.6235C22.5151 57.8444 22.7762 58.0051 23.0524 58.0553C23.1227 58.0653 23.188 58.0854 23.2532 58.0854C23.2884 58.0854 23.3185 58.0955 23.3537 58.1005H23.4541C23.4892 58.1055 23.5144 58.1106 23.5545 58.1106H23.6851L23.9462 58.1206C24.2927 58.1356 24.6392 58.1557 24.9856 58.1407C25.6736 58.2662 26.3565 58.1005 27.0344 58.1407C27.7123 58.1306 28.3802 58.211 29.043 58.1457C29.7059 58.1256 30.3587 58.1005 31.0064 58.1507C31.6542 57.9599 32.292 58.2009 32.9196 58.1608C33.5473 58.2411 34.17 58.1507 34.7826 58.1708C35.3952 58.1357 35.9978 58.2562 36.5904 58.1808C37.1829 58.1959 37.7654 58.1206 38.3378 58.1909C38.9103 58.0955 39.4727 58.2712 40.0251 58.2059C40.5774 58.2059 41.1147 58.2009 41.642 58.221C42.1693 58.3717 42.6865 58.2461 43.1937 58.2361C43.6958 58.2512 44.1879 58.1507 44.67 58.2511C45.147 58.2612 45.614 58.3265 46.066 58.2712C46.5179 58.2511 46.9598 58.4872 47.3816 58.2913C47.8084 58.2562 48.2202 58.442 48.6119 58.3114C49.0086 58.1909 49.3902 58.3265 49.7568 58.3315C50.1233 58.3365 50.4749 58.3466 50.8113 58.3516C50.9971 58.3516 51.1929 58.3616 51.3436 58.3516C51.3837 58.3516 51.4239 58.3465 51.4591 58.3365C51.4992 58.3315 51.5344 58.3214 51.5746 58.3164C51.6499 58.3014 51.7252 58.2763 51.8005 58.2562C52.0918 58.1557 52.3378 57.985 52.5437 57.8042C52.7496 57.6184 52.9203 57.4176 53.0509 57.2167C53.1212 57.1213 53.1764 57.0158 53.2367 56.9255C53.2869 56.83 53.3371 56.7346 53.3823 56.6493C53.7137 55.9262 53.769 55.4893 53.8192 55.4994C53.8393 55.4994 53.8443 55.64 53.8091 55.8961C53.774 56.1572 53.6886 56.5388 53.4827 57.0058C53.3723 57.2368 53.2417 57.4929 53.0408 57.744C52.845 57.995 52.5939 58.2512 52.2625 58.452C52.1822 58.5073 52.0868 58.5424 52.0014 58.5926C51.911 58.6378 51.8106 58.6629 51.7101 58.6981C51.6599 58.7081 51.6047 58.7182 51.5545 58.7332C51.4992 58.7433 51.449 58.7583 51.3938 58.7583C51.3385 58.7583 51.2833 58.7683 51.2281 58.7734C51.1678 58.7734 51.1226 58.7734 51.0724 58.7734C50.6657 58.7834 50.2288 58.7935 49.7718 58.7985C49.4053 58.8035 49.0236 58.909 48.6269 58.8186C48.2302 58.8186 47.8185 58.8989 47.3967 58.8387C46.9698 58.9742 46.533 58.8638 46.081 58.8588C45.6291 58.8638 45.1621 58.8186 44.685 58.8788C44.208 58.9592 43.7159 58.8387 43.2087 58.8939C42.7066 58.8085 42.1894 58.8336 41.6571 58.909C41.1298 58.8286 40.5875 58.9291 40.0401 58.924C39.4878 58.7985 38.9254 58.8838 38.3529 58.9391C37.7805 58.9843 37.198 58.919 36.6054 58.9491C36.0129 58.924 35.4103 58.9843 34.7977 58.9592C34.1851 59.0194 33.5624 59.0395 32.9347 58.9692C32.307 59.0094 31.6693 58.9793 31.0215 58.9793C30.3737 59.0295 29.7209 58.9743 29.0581 58.9843C28.3953 59.0094 27.7274 58.8487 27.0495 58.9893C26.3716 59.0094 25.6887 58.9692 25.0007 58.9893C24.6542 58.9793 24.3078 58.9692 23.9613 58.9692H23.5696C23.5244 58.9692 23.4641 58.9692 23.4139 58.9692C23.3587 58.9692 23.3085 58.9692 23.2532 58.9592L23.0976 58.9341C22.9921 58.919 22.8867 58.8889 22.7862 58.8638C22.4046 58.6579 22.0832 58.4168 21.792 58.1457C21.5007 57.8745 21.2446 57.5732 21.0337 57.2368C20.9885 57.1665 20.9534 57.0862 20.9132 57.0108L20.858 56.8953C20.858 56.8953 20.8429 56.8552 20.8329 56.8351L20.8228 56.8049V56.7899L20.8078 56.7698L20.7324 56.5589C20.7073 56.4886 20.6772 56.4183 20.6621 56.353L20.5567 55.9463C20.5466 55.9111 20.5366 55.876 20.5316 55.8458L20.5165 55.7504L20.4813 55.5596L20.4161 55.173L20.3508 54.7813C20.3408 54.6859 20.3307 54.6005 20.3257 54.5151C20.5316 54.6608 20.7375 54.8064 20.9433 54.952L21.2245 55.1428C21.2697 55.173 21.3199 55.2131 21.3651 55.2332L21.4857 55.2985L21.7317 55.4291C21.7719 55.4542 21.8121 55.4642 21.8522 55.4793L21.9727 55.5194L22.0832 55.5546L22.1887 55.5747C22.259 55.5948 22.3343 55.5998 22.4046 55.6098C22.4749 55.6249 22.5502 55.6199 22.6255 55.6249C22.6456 55.6249 22.6607 55.6249 22.6808 55.6249H22.7461H22.8766C23.0474 55.6249 23.2231 55.6249 23.3938 55.6299C24.0818 55.5898 24.7647 55.6902 25.4426 55.6299C26.1205 55.5697 26.7884 55.6952 27.4512 55.6349C28.114 55.5948 28.7668 55.5747 29.4146 55.64C30.0624 55.64 30.7001 55.7655 31.3278 55.65C31.9555 55.6249 32.5782 55.4642 33.1908 55.6601C33.8034 55.6098 34.406 55.7504 34.9985 55.6701C35.5911 55.8107 36.1736 55.6801 36.746 55.6801C37.3185 55.7052 37.8809 55.7554 38.4333 55.6952C38.9856 55.6299 39.5229 55.7303 40.0552 55.7103C40.5825 55.6299 41.0997 55.8157 41.6018 55.7253C42.104 55.7454 42.5961 55.7103 43.0782 55.7404C43.5552 55.5496 44.0222 55.7404 44.4741 55.7605C44.9261 55.7856 45.368 55.6349 45.7898 55.7806C46.2166 55.6349 46.6284 55.7605 47.0251 55.8006C47.4218 55.8408 47.8034 55.7404 48.17 55.8207C48.5365 55.7203 48.8881 55.876 49.2245 55.8408C49.5609 55.9061 49.8773 55.8408 50.1836 55.8609C50.4849 55.8408 50.7711 55.8458 51.0423 55.886C51.3134 55.896 51.5645 55.9011 51.8005 55.9111C51.9763 55.9162 52.142 55.9262 52.2876 55.9212C52.4383 55.9212 52.5738 55.9061 52.6994 55.881C52.9555 55.8358 53.1664 55.7705 53.3321 55.7002C53.4175 55.6701 53.4878 55.6349 53.548 55.6048C53.5781 55.5897 53.6083 55.5747 53.6334 55.5646C53.6585 55.5496 53.6836 55.5395 53.7037 55.5295C53.789 55.4893 53.8342 55.4692 53.8443 55.4793L53.8192 55.5044Z" fill="#CA534B"/>
<path d="M27.5415 22.5834C27.5415 22.6437 27.3557 22.6687 27.1448 22.8796C27.1096 22.9148 27.0745 22.955 27.0393 23.0002C27.0092 23.0504 26.979 23.1056 26.9339 23.1508C26.8887 23.1508 26.8887 23.201 26.8937 23.2462C26.8937 23.2914 26.8937 23.3316 26.8334 23.3316C26.7682 23.3768 26.7531 23.4571 26.738 23.5425C26.723 23.6228 26.6225 23.673 26.6476 23.7785C26.6928 23.8438 26.6426 23.8689 26.5924 23.904C26.5422 23.9342 26.502 23.9693 26.5673 24.0446C26.5673 24.1451 26.5321 24.2355 26.497 24.3309C26.3664 24.4012 26.4418 24.5317 26.4367 24.6422C26.2911 24.7225 26.3212 24.8481 26.3915 24.9736C26.2057 25.059 26.2108 25.1895 26.3614 25.3251C26.3564 25.4456 26.276 25.5611 26.3463 25.6917C26.3463 25.8172 26.3765 25.9478 26.3463 26.0733C26.4618 26.2039 26.4568 26.3294 26.3664 26.47C26.497 26.5956 26.4568 26.7312 26.4066 26.8768C26.3514 27.0224 26.5472 27.1379 26.4719 27.2886C26.4869 27.4292 26.5522 27.5597 26.5673 27.7053C26.5522 27.856 26.5372 28.0167 26.6928 28.1171C26.7682 28.2426 26.8585 28.3581 26.8585 28.5138C27.0393 28.5841 27.0494 28.7197 27.0694 28.8653C27.1197 28.9105 27.1448 28.9707 27.1749 29.026C27.21 29.0812 27.2502 29.1214 27.3155 29.1214C27.3506 29.1565 27.4009 29.1716 27.441 29.1716C27.4812 29.1716 27.5063 29.1716 27.5415 29.2017C27.5766 29.2218 27.6168 29.2319 27.662 29.2218C27.7072 29.2118 27.7473 29.1766 27.7674 29.1164C27.7825 29.0511 27.8277 29.026 27.8779 28.9908C27.9281 28.9607 27.9884 28.9205 28.0135 28.8603C28.1039 28.8402 28.134 28.7749 28.1491 28.7046C28.1692 28.6343 28.1742 28.559 28.2244 28.5037C28.2746 28.3732 28.4052 28.2677 28.3901 28.1071C28.4152 27.9614 28.4303 27.8208 28.5156 27.6953C28.365 27.5145 28.6261 27.4291 28.611 27.2785C28.7115 27.153 28.6412 26.9973 28.6763 26.8667C28.6562 26.7261 28.7868 26.6006 28.7165 26.46C28.7366 26.3244 28.6663 26.1939 28.7366 26.0633C28.6412 25.9378 28.8119 25.8022 28.7366 25.6817C28.7316 25.5561 28.7115 25.4356 28.7215 25.3151C28.8571 25.1795 28.7215 25.0741 28.6914 24.9636C28.6914 24.8481 28.5709 24.7577 28.6462 24.6322C28.6361 24.5267 28.6713 24.4062 28.5859 24.3208C28.5407 24.2304 28.7366 24.0597 28.5156 24.0346C28.4855 23.9944 28.5056 23.9392 28.5156 23.884C28.5257 23.8337 28.5156 23.7835 28.4403 23.7685C28.2947 23.7383 28.3851 23.6078 28.3499 23.5274C28.3198 23.4521 28.2846 23.3818 28.2545 23.3165C28.1039 23.0202 27.9331 22.8345 27.7925 22.7391C27.6519 22.6386 27.5465 22.6135 27.5465 22.5733C27.5465 22.5533 27.5766 22.5282 27.6469 22.5131C27.7172 22.503 27.8227 22.503 27.9532 22.5482C28.0838 22.5934 28.2294 22.6788 28.37 22.8043C28.5106 22.9349 28.6512 23.1006 28.7717 23.3015C28.8219 23.3818 28.9575 23.427 28.9123 23.5575C28.9525 23.6479 29.063 23.7182 29.0429 23.8438C29.2086 23.904 29.1333 24.0446 29.1584 24.1551C29.1935 24.2656 29.1785 24.3861 29.2588 24.4916C29.3643 24.592 29.2689 24.7376 29.3442 24.8531C29.2789 24.9887 29.3191 25.1092 29.4095 25.2347C29.3392 25.3753 29.4496 25.4959 29.4547 25.6365C29.3341 25.7821 29.4295 25.9127 29.4798 26.0583C29.525 26.2039 29.4597 26.3445 29.4798 26.4951C29.4496 26.6408 29.4948 26.7964 29.4547 26.9471C29.4999 27.1077 29.4998 27.2685 29.3994 27.4141C29.4145 27.5798 29.3492 27.7304 29.309 27.8911C29.3191 28.0618 29.2186 28.2125 29.1734 28.3782C29.1584 28.4636 29.0931 28.5339 29.0479 28.6092C28.9977 28.6845 28.9575 28.7598 28.9826 28.8703C28.9174 29.041 28.7918 29.1867 28.7014 29.3574C28.5709 29.5081 28.4202 29.6486 28.2545 29.8144C28.1189 29.8244 28.0135 29.8696 27.903 29.9198C27.7925 29.97 27.672 30.0303 27.5314 30.0604C27.3908 30.0805 27.2502 30.0604 27.1247 30.0102C26.9991 29.965 26.8937 29.8897 26.8033 29.8144C26.6075 29.6888 26.4669 29.5231 26.3564 29.3574C26.2057 29.2168 26.2007 29.0059 26.0752 28.8703C25.9446 28.7297 25.9898 28.5188 25.8793 28.3782C25.7839 28.2276 25.7187 28.0669 25.7438 27.8911C25.7036 27.7304 25.794 27.5497 25.6534 27.4141C25.6032 27.2634 25.4224 27.1228 25.5981 26.9471C25.5329 26.7964 25.6634 26.6357 25.573 26.4951C25.7086 26.3445 25.573 26.2039 25.573 26.0583C25.6032 25.9127 25.6534 25.7771 25.5981 25.6365C25.5379 25.4959 25.6534 25.3653 25.6433 25.2347C25.578 25.0941 25.7789 24.9887 25.7086 24.8531C25.7488 24.7326 25.7387 24.6071 25.794 24.4916C25.6333 24.3309 25.8492 24.2606 25.8944 24.1551C25.9496 24.0547 25.8392 23.899 26.0099 23.8438C25.9095 23.6931 26.0651 23.6329 26.1405 23.5575C26.2158 23.4822 26.1656 23.3467 26.2811 23.3015C26.2359 23.1709 26.4217 23.1659 26.4367 23.0755C26.5372 23.0403 26.5372 22.9349 26.6024 22.8847C26.6326 22.8094 26.6928 22.7541 26.7732 22.729C26.8284 22.6838 26.8887 22.6437 26.9439 22.6135C27.1096 22.5181 27.2703 22.493 27.3707 22.503C27.4209 22.503 27.4611 22.5181 27.4812 22.5281C27.5063 22.5382 27.5164 22.5532 27.5164 22.5633L27.5415 22.5834Z" fill="#CA534B"/>
<path d="M33.5975 22.5831C33.5975 22.6434 33.4117 22.6685 33.2008 22.8794C33.1656 22.9145 33.1305 22.9547 33.0953 22.9999C33.0652 23.0501 33.0351 23.1053 32.9899 23.1505C32.9447 23.1505 32.9447 23.2007 32.9497 23.2459C32.9497 23.2911 32.9497 23.3313 32.8894 23.3313C32.8242 23.3765 32.8091 23.4568 32.794 23.5422C32.779 23.6226 32.6785 23.6728 32.7036 23.7782C32.7488 23.8435 32.6986 23.8686 32.6484 23.9037C32.5982 23.9339 32.558 23.969 32.6233 24.0444C32.6233 24.1448 32.5881 24.2352 32.553 24.3306C32.4224 24.4009 32.4978 24.5314 32.4927 24.6419C32.3471 24.7223 32.3772 24.8478 32.4475 24.9733C32.2618 25.0587 32.2668 25.1893 32.4174 25.3248C32.4124 25.4454 32.3321 25.5608 32.4024 25.6914C32.4024 25.8169 32.4375 25.9475 32.4024 26.073C32.5178 26.2036 32.5128 26.3292 32.4224 26.4698C32.553 26.5953 32.5128 26.7309 32.4626 26.8765C32.4074 27.0221 32.6032 27.1376 32.5279 27.2883C32.543 27.4289 32.6082 27.5594 32.6233 27.705C32.6082 27.8557 32.5932 28.0164 32.7488 28.1168C32.8242 28.2423 32.9145 28.3578 32.9145 28.5135C33.0953 28.5838 33.1054 28.7194 33.1255 28.865C33.1706 28.9102 33.2008 28.9705 33.2309 29.0257C33.2661 29.0759 33.3062 29.1211 33.3715 29.1211C33.4067 29.1562 33.4569 29.1713 33.497 29.1713C33.5372 29.1713 33.5623 29.1713 33.5975 29.2015C33.6326 29.2215 33.6728 29.2316 33.718 29.2215C33.7582 29.2115 33.8033 29.1763 33.8234 29.1161C33.8385 29.0508 33.8837 29.0257 33.9339 28.9905C33.9841 28.9604 34.0444 28.9203 34.0695 28.86C34.1599 28.8399 34.19 28.7746 34.2051 28.7043C34.2252 28.634 34.2302 28.5587 34.2804 28.5035C34.3306 28.3729 34.4612 28.2675 34.4461 28.1068C34.4712 27.9612 34.4863 27.8205 34.5716 27.695C34.421 27.5142 34.6821 27.4289 34.667 27.2782C34.7675 27.1527 34.6972 26.997 34.7323 26.8664C34.7122 26.7258 34.8428 26.6003 34.7725 26.4597C34.7926 26.3241 34.7223 26.1936 34.7926 26.063C34.6972 25.9375 34.8679 25.8019 34.7926 25.6814C34.7876 25.5558 34.7675 25.4353 34.7775 25.3148C34.9131 25.1792 34.7775 25.0738 34.7474 24.9633C34.7474 24.8478 34.6269 24.7574 34.7022 24.6319C34.6922 24.5264 34.7273 24.4059 34.6419 24.3205C34.5968 24.2301 34.7926 24.0594 34.5716 24.0293C34.5415 23.9891 34.5616 23.9339 34.5716 23.8837C34.5817 23.8284 34.5716 23.7832 34.4963 23.7682C34.3507 23.7381 34.4411 23.6075 34.4059 23.5322C34.3758 23.4568 34.3407 23.3865 34.3105 23.3213C34.1599 23.025 33.9892 22.8392 33.8486 22.7438C33.7079 22.6433 33.6025 22.6183 33.6025 22.5781C33.6025 22.558 33.6326 22.5329 33.708 22.5178C33.7783 22.5078 33.8837 22.5078 34.0143 22.553C34.1448 22.5981 34.2904 22.6835 34.431 22.8141C34.5716 22.9446 34.7122 23.1103 34.8328 23.3112C34.883 23.3915 35.0186 23.4367 34.9734 23.5673C35.0135 23.6577 35.124 23.728 35.1039 23.8535C35.2696 23.9138 35.1943 24.0544 35.2194 24.1649C35.2546 24.2753 35.2395 24.3958 35.3199 24.5013C35.4253 24.6017 35.3299 24.7474 35.4052 24.8629C35.3399 24.9984 35.3801 25.119 35.4705 25.2445C35.4002 25.3851 35.5157 25.5056 35.5157 25.6462C35.3952 25.7918 35.4906 25.9224 35.5408 26.068C35.586 26.2136 35.5207 26.3543 35.5408 26.5049C35.5107 26.6505 35.5559 26.8062 35.5157 26.9568C35.5609 27.1175 35.5609 27.2782 35.4605 27.4238C35.4755 27.5895 35.4102 27.7402 35.3701 27.9009C35.3801 28.0766 35.2797 28.2223 35.2345 28.388C35.2194 28.4733 35.1541 28.5436 35.1089 28.6189C35.0587 28.6943 35.0186 28.7696 35.0437 28.8801C34.9784 29.0508 34.8528 29.1964 34.7625 29.3671C34.6319 29.5178 34.4813 29.6584 34.3155 29.8241C34.18 29.8342 34.0745 29.8793 33.964 29.9296C33.8536 29.9798 33.7331 30.04 33.5925 30.0702C33.4518 30.0903 33.3112 30.0702 33.1857 30.02C33.0602 29.9748 32.9547 29.8994 32.8643 29.8241C32.6685 29.6986 32.5279 29.5329 32.4174 29.3671C32.2668 29.2265 32.2618 29.0157 32.1362 28.8801C32.0057 28.7395 32.0508 28.5286 31.9404 28.388C31.845 28.2373 31.7797 28.0766 31.8048 27.9009C31.7646 27.7402 31.855 27.5594 31.7144 27.4238C31.6642 27.2732 31.4834 27.1326 31.6592 26.9568C31.5939 26.8062 31.7245 26.6455 31.6341 26.5049C31.7696 26.3492 31.6341 26.2136 31.6341 26.068C31.6642 25.9274 31.7144 25.7868 31.6592 25.6462C31.5989 25.5056 31.7144 25.3751 31.7044 25.2445C31.6391 25.1039 31.8399 24.9984 31.7696 24.8629C31.8098 24.7423 31.7998 24.6168 31.855 24.5013C31.6943 24.3406 31.9102 24.2703 31.9554 24.1649C32.0107 24.0644 31.9002 23.9088 32.0709 23.8535C31.9705 23.7029 32.1262 23.6426 32.2015 23.5673C32.2768 23.492 32.2266 23.3564 32.3421 23.3112C32.2969 23.1756 32.4827 23.1756 32.4978 23.0853C32.5982 23.0501 32.5982 22.9447 32.6635 22.8944C32.6936 22.8191 32.7539 22.7639 32.8342 22.7388C32.8894 22.6936 32.9497 22.6584 33.0049 22.6233C33.1757 22.5279 33.3313 22.5028 33.4318 22.5128C33.482 22.5128 33.5221 22.5279 33.5422 22.5379C33.5673 22.5479 33.5774 22.563 33.5774 22.5731L33.5975 22.5831Z" fill="#CA534B"/>
<path d="M39.6535 22.5832C39.6535 22.6435 39.4677 22.6686 39.2568 22.8795C39.2217 22.9146 39.1865 22.9548 39.1514 23C39.1212 23.0502 39.0911 23.1054 39.0459 23.1506C39.0007 23.1506 39.0007 23.2008 39.0057 23.246C39.0057 23.2912 39.0058 23.3314 38.9455 23.3314C38.8802 23.3766 38.8651 23.4569 38.8501 23.5423C38.835 23.6227 38.7346 23.6729 38.7597 23.7783C38.8049 23.8436 38.7547 23.8687 38.7045 23.9038C38.6542 23.934 38.6141 23.9691 38.6794 24.0445C38.6794 24.1449 38.6442 24.2353 38.609 24.3357C38.4785 24.406 38.5538 24.5366 38.5488 24.647C38.4032 24.7274 38.4333 24.8529 38.5036 24.9785C38.3178 25.0638 38.3228 25.1944 38.4735 25.33C38.4684 25.4505 38.3881 25.566 38.4584 25.6965C38.4584 25.8221 38.4885 25.9526 38.4584 26.0782C38.5739 26.2087 38.5689 26.3343 38.4785 26.4749C38.6091 26.6004 38.5689 26.736 38.5187 26.8816C38.4634 27.0272 38.6593 27.1427 38.5839 27.2934C38.599 27.434 38.6643 27.5645 38.6794 27.7102C38.6643 27.8608 38.6492 28.0215 38.8049 28.1219C38.8802 28.2475 38.9706 28.3629 38.9706 28.5186C39.1514 28.5889 39.1614 28.7245 39.1815 28.8701C39.2267 28.9153 39.2568 28.9756 39.287 29.0308C39.3221 29.081 39.3623 29.1262 39.4276 29.1262C39.4627 29.1614 39.5129 29.1764 39.5531 29.1764C39.5933 29.1764 39.6184 29.1764 39.6535 29.2066C39.6887 29.2266 39.7288 29.2367 39.774 29.2267C39.8192 29.2166 39.8594 29.1815 39.8795 29.1212C39.8946 29.0559 39.9397 29.0308 39.99 28.9957C40.0402 28.9655 40.1004 28.9254 40.1256 28.8651C40.2159 28.845 40.2461 28.7797 40.2611 28.7094C40.2812 28.6391 40.2812 28.5638 40.3364 28.5086C40.3867 28.378 40.5172 28.2726 40.5022 28.1119C40.5273 27.9662 40.5423 27.8256 40.6277 27.7001C40.472 27.5193 40.7382 27.434 40.7181 27.2833C40.8235 27.1578 40.7482 27.0021 40.7834 26.8716C40.7633 26.731 40.8938 26.6054 40.8235 26.4648C40.8436 26.3292 40.7733 26.1987 40.8436 26.0681C40.7482 25.9426 40.9189 25.807 40.8436 25.6865C40.8386 25.561 40.8235 25.4404 40.8286 25.3199C40.9641 25.1843 40.8286 25.0789 40.7984 24.9684C40.7984 24.8529 40.6779 24.7625 40.7532 24.637C40.7432 24.5315 40.7783 24.411 40.693 24.3257C40.6478 24.2353 40.8436 24.0645 40.6227 24.0344C40.5925 23.9942 40.6126 23.939 40.6227 23.8888C40.6327 23.8336 40.6227 23.7884 40.5474 23.7733C40.4017 23.7432 40.4921 23.6126 40.457 23.5373C40.4268 23.462 40.3917 23.3917 40.3616 23.3264C40.2109 23.0301 40.0402 22.8443 39.8996 22.7489C39.759 22.6485 39.6535 22.6234 39.6535 22.5832C39.6535 22.5631 39.6836 22.538 39.7539 22.5229C39.8243 22.5129 39.9297 22.5129 40.0603 22.5581C40.1908 22.6033 40.3364 22.6886 40.477 22.8192C40.6177 22.9498 40.7583 23.1155 40.8788 23.3163C40.929 23.3967 41.0646 23.4419 41.0194 23.5724C41.0596 23.6628 41.17 23.7331 41.1499 23.8587C41.3156 23.9189 41.2403 24.0595 41.2654 24.17C41.3006 24.2805 41.2855 24.401 41.3659 24.5064C41.4713 24.6069 41.3759 24.7525 41.4512 24.868C41.3859 25.0036 41.4261 25.1241 41.5165 25.2496C41.4462 25.3902 41.5617 25.5107 41.5617 25.6513C41.4412 25.797 41.5366 25.9275 41.5868 26.0731C41.632 26.2188 41.5667 26.3594 41.5868 26.51C41.5567 26.6556 41.6019 26.8113 41.5617 26.962C41.6069 27.1226 41.6069 27.2833 41.5065 27.429C41.5215 27.5947 41.4562 27.7453 41.4161 27.906C41.4261 28.0818 41.3257 28.2274 41.2805 28.3931C41.2654 28.4784 41.2052 28.5488 41.155 28.6241C41.1047 28.6994 41.0646 28.7747 41.0897 28.8852C41.0294 29.0559 40.8989 29.2015 40.8085 29.3723C40.6779 29.5229 40.5273 29.6635 40.3616 29.8292C40.226 29.8393 40.1255 29.8845 40.0101 29.9347C39.8996 29.9849 39.774 30.0452 39.6385 30.0753C39.4979 30.0954 39.3573 30.0753 39.2367 30.0251C39.1112 29.9799 39.0108 29.9046 38.9154 29.8292C38.7195 29.7037 38.5789 29.538 38.4684 29.3723C38.3178 29.2317 38.3128 29.0208 38.1872 28.8852C38.0567 28.7446 38.1019 28.5337 37.9914 28.3931C37.901 28.2424 37.8307 28.0818 37.8558 27.906C37.8156 27.7453 37.906 27.5645 37.7654 27.429C37.7152 27.2783 37.5344 27.1377 37.7102 26.962C37.6449 26.8113 37.7755 26.6506 37.6851 26.51C37.8207 26.3543 37.6851 26.2188 37.6851 26.0731C37.7152 25.9325 37.7654 25.7919 37.7102 25.6513C37.6499 25.5107 37.7654 25.3802 37.7554 25.2496C37.6901 25.109 37.891 25.0036 37.8207 24.868C37.8558 24.7475 37.8508 24.6219 37.906 24.5064C37.7453 24.3457 37.9613 24.2754 38.0065 24.17C38.0617 24.0696 37.9512 23.9139 38.122 23.8587C38.0215 23.708 38.1772 23.6478 38.2525 23.5724C38.3278 23.4971 38.2776 23.3615 38.3931 23.3163C38.3479 23.1808 38.5337 23.1807 38.5488 23.0904C38.6492 23.0552 38.6492 22.9498 38.7145 22.8995C38.7446 22.8242 38.8049 22.769 38.8852 22.7439C38.9405 22.6987 39.0007 22.6635 39.056 22.6284C39.2217 22.533 39.3824 22.5079 39.4828 22.5179C39.533 22.5179 39.5681 22.533 39.5933 22.543C39.6184 22.5531 39.6284 22.5681 39.6284 22.5782L39.6535 22.5832Z" fill="#CA534B"/>
</svg>
