<svg width="45" height="23" viewBox="0 0 45 23" fill="none" xmlns="http://www.w3.org/2000/svg">
<circle cx="11.25" cy="11.25" r="11.25" fill="white"/>
<circle cx="22.5" cy="11.25" r="11.25" fill="#215EAB"/>
<circle cx="33.75" cy="11.25" r="11.25" fill="#CA534B"/>
<path d="M38.9792 5.3507C39.2039 5.12327 39.5028 4.99754 39.813 5.00004C40.1232 5.00253 40.4203 5.13306 40.6417 5.36408C40.8631 5.5951 40.9914 5.90853 40.9996 6.23825C41.0078 6.56797 40.8952 6.88819 40.6856 7.13132L34.3226 15.5935C34.2132 15.7188 34.0812 15.8194 33.9344 15.8892C33.7876 15.959 33.629 15.9966 33.4683 15.9998C33.3075 16.0029 33.1478 15.9716 32.9986 15.9076C32.8495 15.8436 32.714 15.7483 32.6003 15.6274L28.3807 11.1403C28.2632 11.0238 28.1689 10.8834 28.1035 10.7274C28.0382 10.5714 28.003 10.403 28.0002 10.2322C27.9974 10.0614 28.0269 9.89177 28.087 9.7334C28.1472 9.57503 28.2367 9.43117 28.3503 9.31039C28.4639 9.18962 28.5992 9.09441 28.7481 9.03044C28.897 8.96647 29.0566 8.93506 29.2171 8.93807C29.3777 8.94108 29.5361 8.97846 29.6828 9.04798C29.8295 9.11749 29.9616 9.21772 30.0711 9.34268L33.4105 12.892L38.9489 5.38801C38.9589 5.37495 38.968 5.3625 38.9792 5.3507Z" fill="white"/>
</svg>
