<svg width="243" height="111" viewBox="0 0 243 111" fill="none" xmlns="http://www.w3.org/2000/svg">
<path d="M116.231 20.7869H120.883V35.8829H124.596C125.322 31.1313 127.466 27.2047 131.03 24.103C134.627 20.9683 138.817 19.401 143.602 19.401C148.914 19.401 153.418 21.2818 157.114 25.0434C160.843 28.7721 162.707 33.2926 162.707 38.6051C162.707 43.8846 160.843 48.4051 157.114 52.1668C153.385 55.9284 148.881 57.8092 143.602 57.8092C138.652 57.8092 134.346 56.1099 130.684 52.7112C127.054 49.3125 125.041 45.1385 124.645 40.1889H120.883V56.4233H116.231V20.7869ZM143.602 24.004C139.609 24.004 136.194 25.4394 133.356 28.3101C130.552 31.1808 129.149 34.6125 129.149 38.6051C129.149 42.6307 130.552 46.0789 133.356 48.9496C136.161 51.7873 139.576 53.2062 143.602 53.2062C147.627 53.2062 151.043 51.7873 153.847 48.9496C156.685 46.0789 158.104 42.6307 158.104 38.6051C158.104 34.6125 156.685 31.1808 153.847 28.3101C151.01 25.4394 147.594 24.004 143.602 24.004Z" fill="#CA534B"/>
<path d="M172.119 45.9304V56.4233H167.466V20.7869C170.601 20.7869 173.125 20.9848 175.039 21.3808C177.976 21.9747 180.434 23.4101 182.414 25.6869C184.393 27.9637 185.383 30.5704 185.383 33.5071C185.383 37.0378 184.063 39.991 181.424 42.3667C178.784 44.7425 175.682 45.9304 172.119 45.9304ZM172.119 41.3273C174.362 41.3273 176.359 40.5849 178.108 39.1001C179.856 37.5822 180.731 35.7179 180.731 33.5071C180.731 31.2963 179.84 29.432 178.058 27.9142C176.342 26.4953 174.362 25.7859 172.119 25.7859V41.3273Z" fill="#CA534B"/>
<path d="M193.497 57.7102V53.3052C198.216 53.3052 200.955 52.1668 201.714 49.89C201.945 49.1971 202.06 47.8772 202.06 45.9304C198.529 45.9304 195.461 44.7425 192.854 42.3667C190.247 39.958 188.944 37.0048 188.944 33.5071V20.7869H193.497V33.5071C193.497 35.7179 194.388 37.5822 196.17 39.1001C197.853 40.5849 199.816 41.3273 202.06 41.3273V20.7869H206.713V47.2667C206.713 51.1604 205.426 53.9486 202.852 55.6314C200.74 57.0173 197.622 57.7102 193.497 57.7102Z" fill="#CA534B"/>
<path d="M243 53.1072C239.271 56.2419 235.097 57.8092 230.478 57.8092C225.231 57.8092 220.727 55.9284 216.965 52.1668C213.204 48.3721 211.323 43.8516 211.323 38.6051C211.323 33.3256 213.187 28.8051 216.916 25.0434C220.678 21.2818 225.198 19.401 230.478 19.401C235.13 19.401 239.304 21.0013 243 24.202V31.2798C241.68 29.0031 239.915 27.2212 237.704 25.9344C235.526 24.6475 233.117 24.004 230.478 24.004C226.485 24.004 223.07 25.4394 220.232 28.3101C217.394 31.1808 215.976 34.6125 215.976 38.6051C215.976 42.6307 217.378 46.0789 220.183 48.9496C223.02 51.7873 226.452 53.2062 230.478 53.2062C233.051 53.2062 235.46 52.5627 237.704 51.2759C239.948 49.956 241.713 48.1742 243 45.9304V53.1072Z" fill="#CA534B"/>
<path d="M127.582 68.1058V64.8798H120.079C118.001 64.8798 116.231 66.3315 116.231 68.1058V87.4619H120.079V68.1058H127.582Z" fill="#CA534B"/>
<path d="M133.343 87.4619V78.6871H136.998C139.076 78.6871 140.846 77.558 140.846 76.1708V68.1058C140.846 66.3315 139.076 64.8798 136.998 64.8798H129.495V87.4619H133.343ZM136.998 68.1058V76.1708H133.343V68.1058H136.998Z" fill="#CA534B"/>
<path d="M151.051 64.8798V80.9776H147.396V64.8798H143.548V80.9776C143.548 82.7519 145.318 84.2359 147.396 84.2359H151.051V87.4619H143.548V90.6879H151.051C153.167 90.6879 154.899 89.1717 154.899 87.4619V64.8798H151.051Z" fill="#CA534B"/>
<path d="M165.48 87.4619H169.328V64.8798H157.977V87.4619H161.825V68.1058H165.48V87.4619Z" fill="#CA534B"/>
<path d="M179.909 87.4619H183.756V64.8798H172.406V87.4619H176.253V68.1058H179.909V87.4619Z" fill="#CA534B"/>
<path d="M52.1524 0C58.1697 0.424068 64.1468 1.15012 70.1014 2.13319C76.909 3.25762 83.5784 4.87357 90.084 7.1674C90.4503 7.2959 90.7924 7.4983 91.1571 7.63323C96.27 9.52869 96.2716 9.52708 96.2716 15.0046C96.2716 30.3691 96.1109 45.7351 96.3294 61.0948C96.4595 70.352 92.4742 77.6591 86.4489 84.078C76.1476 95.0475 63.5396 102.745 50.0642 109.148C49.4217 109.45 48.8498 109.866 48.2442 110.229H47.8539C43.9136 108.107 39.9444 106.04 36.0378 103.855C25.7573 98.1076 16.2576 91.3353 8.4091 82.4604C3.72025 77.1596 0.24578 71.0957 0.141369 63.9396C-0.118855 46.2235 0.0674766 28.5009 0.0289249 10.7816C0.0289249 9.59615 0.456206 9.05 1.51959 8.65646C9.58332 5.67352 17.8912 3.57888 26.334 1.99826C32.2774 0.883476 38.3172 0.514023 44.3344 0.00160666L52.1524 0ZM91.3787 39.4978C91.3787 31.2269 91.3273 22.9527 91.4221 14.6866C91.4414 13.0064 90.876 12.2867 89.3339 11.7952C79.2141 8.5649 68.9047 6.3032 58.2885 5.39563C40.5066 3.87766 23.282 6.4317 6.42368 12.0281C5.34584 12.3847 4.92338 12.902 4.9282 14.1163C4.98282 30.3402 4.96997 46.5479 4.98924 62.7637C4.97343 63.8027 5.03841 64.8414 5.1836 65.8703C6.26466 72.633 10.2499 77.7475 14.8665 82.4154C24.1334 91.7915 35.3246 98.3774 47.0041 104.244C47.7286 104.608 48.3743 104.771 49.1887 104.359C61.196 98.2859 72.7438 91.5313 82.1874 81.7424C88.2207 75.4777 92.0951 68.3987 91.4671 59.2234C91.0189 52.6776 91.3803 46.0757 91.3787 39.4978Z" fill="#215EAB"/>
<path d="M89.5186 40.301C89.5186 47.2692 89.3162 54.2438 89.5796 61.2008C89.8222 67.6116 87.3967 72.8434 83.4965 77.6158C76.3275 86.3847 67.0815 92.5192 57.4356 98.1397C56.1505 98.8915 54.6743 99.4039 53.529 100.326C49.9244 103.227 46.6716 102.653 42.8133 100.425C32.6934 94.5849 22.7937 88.5227 14.7717 79.8646C9.60099 74.2778 6.51524 68.0501 6.71443 60.0555C7.07746 45.4139 6.8349 30.7562 6.7819 16.105C6.7819 14.7846 7.11762 14.1324 8.40749 13.7132C34.8459 5.084 61.2731 4.99405 87.726 13.6553C89.1717 14.1276 89.5716 14.8087 89.5572 16.2801C89.4784 24.2811 89.517 32.2918 89.5186 40.301ZM28.5299 72.8129C28.864 71.8057 28.4624 71.2387 28.252 70.6411C26.0609 64.4102 25.8329 58.0588 27.1436 51.6335C27.3412 50.6697 27.3926 48.8659 29.1676 50.591C29.9932 51.3942 30.1908 50.6071 30.4317 49.9694C31.5449 47.0467 33.0943 44.3096 35.0274 41.8511C37.0209 39.3066 37.0128 39.3066 34.3351 37.7308C34.0138 37.5429 33.5319 37.2843 33.5094 37.0225C33.4597 36.494 34.0685 36.4024 34.4508 36.2C36.539 35.0885 38.8264 35.0756 41.1106 35.0917C42.5016 35.1061 44.0662 35.1125 44.8934 33.9592C45.7207 32.8059 46.3664 32.3015 47.6017 33.0902C48.6458 33.7568 49.812 32.3561 50.9059 33.4307C51.8151 34.3238 53.1226 34.4748 54.3932 34.372C57.2525 34.1439 60.1181 34.0508 62.9645 34.4315C64.4809 34.6323 64.7315 34.0379 64.5307 32.6982C63.485 25.7654 55.8678 22.1158 49.8939 25.7605C48.6426 26.5236 47.6001 26.7243 46.36 25.722C44.2718 24.0386 41.8623 23.8073 39.3468 24.6136C36.441 25.5469 33.5544 26.5412 30.647 27.4649C30.194 27.6094 29.5756 28.0624 29.2013 27.5114C27.4777 24.9542 24.543 24.1382 22.156 22.5447C21.4251 22.0532 20.5015 21.7817 19.6276 21.5905C18.9257 21.4299 18.4229 21.9889 18.0615 22.5543C17.7643 23.0153 18.0727 23.3109 18.4727 23.4234C21.3175 24.2265 22.2957 26.6858 23.5856 28.9555C24.1061 29.8727 23.9374 32.2597 26.2939 30.9377C26.644 30.7417 26.787 31.275 26.7645 31.5802C26.7131 32.3529 26.6906 33.1432 26.5043 33.8885C25.3895 38.33 23.2113 42.3603 21.507 46.5784C19.6822 51.0906 19.051 55.7168 19.8027 60.5213C19.8814 61.0209 19.981 62.11 20.5191 61.7678C22.8435 60.2868 22.4708 62.571 22.7921 63.4046C24.1205 66.81 25.5919 70.0885 28.5299 72.8129ZM67.6582 45.3319C66.2382 41.88 63.8866 40.1724 61.1301 38.9275C60.7253 38.7444 59.9206 38.8023 59.6443 39.0882C57.3505 41.443 55.6156 40.2367 53.9242 38.3284C53.7154 38.0939 53.3925 37.9589 53.121 37.7839C47.017 33.8982 39.2906 38.6978 38.9645 43.112C38.6432 47.4491 38.9003 51.8215 38.9517 56.1778C38.9629 57.0549 39.2729 57.8532 40.3733 57.9608C41.6262 58.0845 43.512 57.291 43.1634 59.8418C43.1474 59.9511 43.5473 60.1631 43.7803 60.2514C46.4596 61.302 49.1775 61.7164 51.9452 60.6C52.5749 60.3462 53.5178 60.1502 53.2736 59.2218C52.9524 57.9881 53.5531 57.8789 54.4559 57.9801C56.9103 58.2548 57.6685 57.042 57.5786 54.7498C57.4179 50.9894 57.0308 47.2403 57.4067 43.4542C57.5769 41.7531 58.303 41.5748 59.6443 41.8077C62.3959 42.2831 64.709 43.7738 67.6582 45.3319ZM41.941 80.0654C41.7145 79.8534 41.4913 79.6397 41.2616 79.4325C37.0948 75.6834 34.2034 70.9704 31.6815 66.084C30.2213 63.2537 30.0109 59.9189 29.3587 56.7464C29.1544 58.0023 29.0801 59.2759 29.137 60.547C29.2896 65.5587 30.3032 70.3552 32.8187 74.7501C33.0581 75.1677 33.3376 76.3789 34.0813 75.3926C34.9873 74.1959 35.3294 75.1677 35.8033 75.6207C37.6281 77.3748 39.2617 79.3554 41.941 80.0654ZM74.2281 48.0659C72.9735 52.4544 75.4071 57.0019 72.392 61.7903C70.193 65.2873 69.3593 69.8653 66.8117 73.4955C68.9529 71.9904 70.4548 70.0114 71.6853 67.7883C72.0643 67.1008 72.1559 65.6069 73.6016 66.9321C74.1542 67.4381 74.2762 66.6623 74.4048 66.2671C76.3259 60.1374 76.26 54.043 74.2248 48.0707L74.2281 48.0659ZM20.3296 36.245C20.4115 35.0981 20.5191 33.8548 19.8397 33.3135C18.1209 31.9417 18.2591 30.2133 18.2944 28.3853C18.3056 27.7877 18.7972 26.7581 17.7209 26.6649C16.8214 26.5878 16.5033 27.4793 16.3058 28.26C15.5974 31.002 17.4752 34.825 20.3296 36.245ZM76.0416 36.1775C79.0133 34.9889 81.1127 30.2711 79.863 27.7604C79.5996 27.2335 79.2799 26.575 78.631 26.6778C77.7138 26.8239 78.2647 27.6158 78.2374 28.1234C78.1523 29.6591 78.5844 31.4389 77.3122 32.5408C76.0689 33.6026 76.0834 34.7977 76.0336 36.1775H76.0416ZM78.5266 23.5229C77.9724 21.7881 76.864 21.3705 75.595 21.7769C72.6731 22.7166 70.5271 24.9076 68.0823 26.6601C72.0194 26.9733 74.2457 22.3343 78.5266 23.5229Z" fill="#215EAB"/>
<path d="M48.2185 56.4027C46.4708 56.2597 44.72 56.1393 42.9739 55.9642C42.0952 55.8774 41.223 55.5947 41.2182 54.5185C41.2182 53.4808 42.0342 53.1628 42.9129 52.9459C46.874 51.9677 48.0804 48.8096 45.7271 45.5376C45.1199 44.6942 44.4067 43.8525 43.6261 45.4476C43.1185 46.4821 42.5402 46.1383 42.0197 45.4621C40.9274 44.0389 40.913 42.5707 42.039 41.178C44.8565 37.6955 50.84 37.522 53.8872 40.7796C55.0309 42.0036 55.3827 43.3851 54.6904 44.8966C54.2085 45.944 53.4375 46.7664 52.3966 45.401C51.7058 44.4967 51.2946 44.9191 50.779 45.5311C48.1848 48.641 49.2674 52.0705 53.1547 52.9347C54.1812 53.1628 55.1787 53.5001 55.1755 54.6647C55.1755 55.7425 54.0511 55.7377 53.2768 55.9786C51.6191 56.4943 49.9132 56.2373 48.2185 56.4027Z" fill="#215EAB"/>
</svg>
