<svg width="546" height="626" viewBox="0 0 546 626" fill="none" xmlns="http://www.w3.org/2000/svg">
<g opacity="0.1">
<path d="M295.593 0C329.698 2.40832 363.576 6.53167 397.326 12.1146C435.91 18.5003 473.712 27.6775 510.584 40.7043C512.66 41.4341 514.599 42.5835 516.666 43.3498C545.646 54.1143 545.655 54.1052 545.655 85.2127C545.655 172.469 544.744 259.734 545.982 346.963C546.72 399.535 524.132 441.033 489.981 477.487C431.595 539.784 360.134 583.498 283.757 619.861C280.115 621.576 276.874 623.938 273.442 626H271.23C248.896 613.949 226.399 602.209 204.257 589.802C145.989 557.162 92.1458 518.702 47.6617 468.3C21.0859 438.196 1.39305 403.759 0.801262 363.119C-0.673652 262.507 0.382448 161.859 0.163942 61.2298C0.163942 54.4974 2.58571 51.3958 8.61283 49.1608C54.317 32.2205 101.405 20.3248 149.258 11.3483C182.944 5.01734 217.177 2.91918 251.282 0.00912439L295.593 0ZM517.923 224.312C517.923 177.34 517.631 130.351 518.168 83.4065C518.278 73.8644 515.073 69.7775 506.333 66.9861C448.975 48.6409 390.543 35.7965 330.372 30.6423C229.586 22.0216 131.959 36.5262 36.4086 68.3088C30.2995 70.334 27.9051 73.2714 27.9324 80.168C28.2419 172.305 28.1691 264.35 28.2784 356.441C28.1887 362.342 28.5571 368.24 29.38 374.084C35.5073 412.489 58.0953 441.535 84.2614 468.045C136.785 521.293 200.215 558.695 266.413 592.01C270.519 594.081 274.179 595.002 278.795 592.667C346.851 558.175 412.302 519.815 465.827 464.223C500.023 428.645 521.983 388.443 518.423 336.335C515.883 299.161 517.932 261.668 517.923 224.312Z" fill="#215EAB"/>
<path d="M507.38 228.873C507.38 268.446 506.233 308.056 507.726 347.565C509.1 383.973 495.353 413.684 473.247 440.787C432.614 490.586 380.209 525.425 325.537 557.344C318.254 561.614 309.887 564.524 303.395 569.76C282.965 586.235 264.529 582.979 242.66 570.326C185.302 537.156 129.192 502.728 83.7242 453.559C54.4171 421.831 36.9276 386.463 38.0565 341.061C40.1141 257.91 38.7393 174.667 38.4389 91.4616C38.4389 83.9629 40.3417 80.2592 47.6526 77.8783C197.502 28.8725 347.288 28.3617 497.219 77.5499C505.413 80.2319 507.68 84.0998 507.598 92.4559C507.152 137.895 507.371 183.388 507.38 228.873ZM161.704 413.511C163.597 407.791 161.321 404.571 160.128 401.177C147.71 365.792 146.417 329.721 153.846 293.232C154.966 287.758 155.258 277.514 165.318 287.311C169.998 291.872 171.117 287.402 172.483 283.781C178.792 267.183 187.574 251.638 198.531 237.676C209.829 223.226 209.784 223.226 194.607 214.277C192.786 213.21 190.055 211.741 189.927 210.254C189.645 207.253 193.096 206.733 195.262 205.583C207.098 199.271 220.063 199.198 233.009 199.289C240.894 199.371 249.761 199.407 254.45 192.857C259.139 186.308 262.799 183.443 269.8 187.922C275.718 191.708 282.328 183.753 288.528 189.856C293.681 194.928 301.092 195.786 308.294 195.202C324.499 193.907 340.742 193.377 356.875 195.539C365.469 196.68 366.89 193.304 365.752 185.696C359.825 146.324 316.651 125.598 282.792 146.297C275.7 150.63 269.791 151.77 262.762 146.078C250.927 136.517 237.27 135.204 223.013 139.783C206.543 145.083 190.182 150.73 173.703 155.975C171.136 156.796 167.63 159.369 165.509 156.24C155.74 141.717 139.106 137.083 125.577 128.033C121.435 125.242 116.2 123.7 111.247 122.615C107.268 121.702 104.419 124.877 102.37 128.088C100.686 130.706 102.434 132.385 104.701 133.023C120.825 137.585 126.369 151.551 133.68 164.441C136.63 169.65 135.674 183.206 149.03 175.698C151.015 174.585 151.825 177.614 151.698 179.347C151.406 183.735 151.279 188.223 150.223 192.456C143.904 217.68 131.559 240.568 121.899 264.523C111.556 290.148 107.978 316.421 112.239 343.706C112.685 346.543 113.25 352.728 116.3 350.785C129.474 342.374 127.362 355.346 129.183 360.081C136.712 379.42 145.052 398.039 161.704 413.511ZM383.478 257.444C375.43 237.84 362.101 228.143 346.478 221.073C344.183 220.033 339.622 220.362 338.056 221.985C325.055 235.359 315.222 228.508 305.635 217.671C304.452 216.339 302.622 215.572 301.083 214.578C266.486 192.511 222.694 219.769 220.846 244.837C219.025 269.468 220.482 294.299 220.773 319.039C220.837 324.02 222.594 328.554 228.83 329.165C235.932 329.867 246.62 325.361 244.645 339.847C244.554 340.468 246.821 341.672 248.141 342.174C263.327 348.14 278.732 350.493 294.419 344.153C297.987 342.712 303.332 341.599 301.948 336.326C300.127 329.32 303.532 328.7 308.649 329.274C322.56 330.834 326.858 323.947 326.348 310.929C325.437 289.574 323.243 268.282 325.374 246.78C326.339 237.12 330.454 236.107 338.056 237.43C353.652 240.13 366.762 248.596 383.478 257.444ZM237.716 454.699C236.432 453.495 235.167 452.281 233.865 451.105C210.248 429.813 193.86 403.048 179.566 375.297C171.29 359.223 170.098 340.285 166.401 322.268C165.243 329.401 164.822 336.633 165.145 343.852C166.01 372.314 171.755 399.554 186.012 424.513C187.369 426.884 188.953 433.763 193.168 428.162C198.303 421.365 200.242 426.885 202.928 429.457C213.271 439.419 222.53 450.667 237.716 454.699ZM420.715 272.971C413.604 297.893 427.397 323.719 410.309 350.913C397.845 370.772 393.119 396.771 378.68 417.388C390.816 408.84 399.329 397.602 406.303 384.976C408.451 381.072 408.97 372.588 417.164 380.114C420.296 382.987 420.988 378.581 421.716 376.337C432.605 341.526 432.232 306.915 420.697 272.998L420.715 272.971ZM115.225 205.839C115.69 199.325 116.3 192.265 112.449 189.19C102.707 181.4 103.49 171.584 103.69 161.203C103.754 157.809 106.54 151.962 100.44 151.432C95.3415 150.995 93.5388 156.058 92.419 160.491C88.4039 176.063 99.047 197.774 115.225 205.839ZM430.994 205.456C447.837 198.705 459.736 171.912 452.653 157.654C451.16 154.662 449.348 150.922 445.67 151.505C440.471 152.336 443.594 156.833 443.439 159.716C442.957 168.437 445.406 178.544 438.195 184.802C431.149 190.832 431.23 197.619 430.948 205.456H430.994ZM445.078 133.589C441.937 123.737 435.655 121.365 428.463 123.673C411.902 129.01 399.738 141.453 385.881 151.405C408.196 153.184 420.815 126.838 445.078 133.589Z" fill="#215EAB"/>
<path d="M273.296 320.316C263.391 319.504 253.467 318.82 243.57 317.826C238.59 317.333 233.646 315.728 233.619 309.616C233.619 303.722 238.244 301.916 243.224 300.685C265.676 295.129 272.513 277.194 259.175 258.612C255.734 253.823 251.692 249.043 247.267 258.101C244.39 263.976 241.112 262.024 238.162 258.183C231.971 250.101 231.889 241.763 238.272 233.854C254.241 214.076 288.155 213.091 305.426 231.591C311.908 238.543 313.902 246.388 309.978 254.972C307.247 260.92 302.876 265.591 296.977 257.837C293.062 252.701 290.731 255.1 287.809 258.576C273.105 276.237 279.241 295.713 301.274 300.621C307.092 301.916 312.746 303.832 312.727 310.446C312.727 316.567 306.354 316.539 301.966 317.908C292.57 320.836 282.901 319.377 273.296 320.316Z" fill="#215EAB"/>
</g>
</svg>
